<svg xmlns="http://www.w3.org/2000/svg" width="763" height="274" fill="none"><rect width="90" height="37" x="5.5" y="5.5" fill="#ef422c" fill-opacity=".1" rx="3.5"/><rect width="90" height="37" x="5.5" y="5.5" stroke="#ef422c" rx="3.5"/><path fill="#080808" d="M22.288 29V18.78h3.164q.91 0 1.596.378.686.364 1.064 1.022t.378 1.54q0 1.035-.546 1.778-.532.742-1.456 1.022L28.63 29h-1.484l-1.96-4.34h-1.638V29zm1.26-5.474h1.904q.785 0 1.26-.49.476-.504.476-1.316 0-.826-.476-1.316-.475-.49-1.26-.49h-1.904zm10.046 5.614q-.909 0-1.596-.364a2.63 2.63 0 0 1-1.05-1.022q-.363-.672-.364-1.554v-2.1q0-.895.364-1.554.379-.659 1.05-1.022.687-.364 1.596-.364.91 0 1.582.364a2.5 2.5 0 0 1 1.05 1.022q.379.659.379 1.554v1.358h-4.788v.742q0 .91.462 1.4.461.476 1.315.476.729 0 1.176-.252.45-.266.546-.784h1.26q-.125.966-.952 1.54-.811.56-2.03.56m1.779-4.522V24.1q0-.91-.462-1.4-.45-.49-1.317-.49-.854 0-1.315.49-.463.49-.463 1.4v.406h3.655zm8.268 6.902v-2.24l.028-1.75h-.28l.252-.294q0 .868-.574 1.386t-1.526.518q-1.162 0-1.848-.77-.672-.77-.672-2.1v-2.254q0-1.33.686-2.086.686-.77 1.834-.77.952 0 1.526.518.574.504.574 1.386l-.252-.294h.252V21.3h1.26v10.22zm-1.68-3.472q.784 0 1.232-.49t.448-1.358v-2.1q0-.868-.448-1.358-.449-.49-1.232-.49-.798 0-1.246.476-.434.476-.434 1.372v2.1q0 .896.434 1.372.448.476 1.246.476m8.409 1.092q-1.33 0-2.128-.784-.798-.797-.798-2.156v-4.9h1.26v4.9q0 .868.448 1.358.447.476 1.218.476.783 0 1.232-.476.462-.49.462-1.358v-4.9h1.26v4.9q0 1.358-.812 2.156-.813.784-2.142.784m8.408 0q-.91 0-1.596-.364a2.63 2.63 0 0 1-1.05-1.022q-.364-.672-.364-1.554v-2.1q0-.895.364-1.554.378-.659 1.05-1.022.686-.364 1.596-.364t1.582.364a2.5 2.5 0 0 1 1.05 1.022q.378.659.378 1.554v1.358H57v.742q0 .91.462 1.4.462.476 1.316.476.729 0 1.176-.252.448-.266.546-.784h1.26q-.126.966-.952 1.54-.812.56-2.03.56m1.778-4.522V24.1q0-.91-.462-1.4-.448-.49-1.316-.49-.855 0-1.316.49T57 24.1v.406h3.654zm6.379 4.494q-.784 0-1.372-.238a2.34 2.34 0 0 1-.924-.7 2.14 2.14 0 0 1-.406-1.064h1.26q.084.405.448.644.378.238.994.238h.588q.741 0 1.106-.294.364-.308.364-.812 0-.49-.336-.77-.323-.294-.966-.392l-1.036-.168q-1.134-.195-1.694-.7-.546-.518-.546-1.498 0-1.036.658-1.596.657-.574 1.974-.574h.532q1.106 0 1.778.518t.812 1.4h-1.26a.9.9 0 0 0-.42-.574q-.337-.224-.91-.224h-.532q-.714 0-1.05.266-.322.266-.322.798 0 .475.28.7.279.225.882.322l1.036.168q1.245.195 1.806.728.574.532.574 1.54 0 1.065-.686 1.68-.672.602-2.044.602zM76.407 29q-.993 0-1.554-.532-.546-.532-.546-1.498v-4.522h-2.17V21.3h2.17v-2.17h1.26v2.17h3.08v1.148h-3.08v4.522q0 .882.84.882h2.1V29z"/><g stroke="#d3d5cf" stroke-linecap="round" stroke-linejoin="round" stroke-width="1.5" clip-path="url(#a)"><path d="M114.5 24h11M121 19.5l4.5 4.5-4.5 4.5"/></g><rect width="250" height="37" x="144.5" y="5.5" fill="#ef422c" fill-opacity=".1" rx="3.5"/><rect width="250" height="37" x="144.5" y="5.5" stroke="#ef422c" rx="3.5"/><path fill="#080808" d="m161.526 29-1.176-10.22h1.204l.77 7.56q.028.308.056.644.028.322.042.616.028.294.028.49.029-.195.042-.49.028-.294.056-.616.042-.336.084-.644l.952-7.56h1.302l.868 7.56q.042.308.07.644.042.322.07.616.042.294.056.49.014-.195.028-.49.028-.294.056-.616.042-.336.07-.644l.798-7.56h1.148L166.846 29h-1.582l-.868-7.7a13 13 0 0 0-.07-.63 41 41 0 0 0-.056-.574 17 17 0 0 1-.042-.434 6 6 0 0 1-.056.434q-.028.266-.056.574t-.07.63l-.938 7.7zm7.569 0 2.66-10.22h1.694L176.095 29h-1.274l-.672-2.716h-3.094L170.383 29zm2.212-3.78h2.576l-.784-3.15a40 40 0 0 1-.35-1.498 18 18 0 0 1-.154-.784q-.028.182-.154.784t-.35 1.484zm6.812 3.78V18.766h6.02v1.148h-4.788v3.402h4.424v1.148h-4.396V29zm16.509 1.54 4.97-13.16h1.33l-4.97 13.16zm19.995-1.4q-1.008 0-1.736-.336a2.55 2.55 0 0 1-1.106-.966q-.391-.63-.406-1.498h1.26q0 .77.518 1.218.532.448 1.47.448.882 0 1.372-.434.504-.434.504-1.204 0-.616-.336-1.078-.321-.462-.938-.644l-1.386-.434q-1.05-.322-1.624-1.078-.56-.756-.56-1.778 0-.826.364-1.428a2.53 2.53 0 0 1 1.05-.952q.673-.35 1.582-.35 1.344 0 2.156.756.813.742.826 1.988h-1.26q0-.756-.462-1.176-.447-.434-1.274-.434-.812 0-1.274.392-.447.392-.448 1.092 0 .63.336 1.092t.966.658l1.4.448q1.023.323 1.582 1.092t.56 1.806q0 .84-.392 1.47a2.63 2.63 0 0 1-1.106.98q-.699.35-1.638.35m5.609-.14v-1.148h2.086v-7.924h-2.086V18.78h5.46v1.148h-2.086v7.924h2.086V29zm8.324 0V18.78h5.88v1.148h-4.634v3.164h4.144v1.134h-4.144v3.626h4.634V29zm8.059 0V18.78h1.652l1.064 3.304q.153.448.28.896.126.434.182.672.07-.238.182-.672a18 18 0 0 1 .252-.91l1.008-3.29h1.652V29h-1.232v-3.71q0-.615.042-1.4t.112-1.596q.07-.825.14-1.568.084-.756.14-1.316l-1.652 5.11h-1.33l-1.666-5.11q.07.546.14 1.274.069.714.126 1.526.056.798.098 1.596t.042 1.484V29zm16.775 1.54 4.97-13.16h1.33l-4.97 13.16zM270.193 29V18.78h1.652l1.064 3.304q.154.448.28.896.126.434.182.672.07-.238.182-.672.112-.448.252-.91l1.008-3.29h1.652V29h-1.232v-3.71q0-.615.042-1.4t.112-1.596q.07-.825.14-1.568.084-.756.14-1.316l-1.652 5.11h-1.33l-1.666-5.11q.07.546.14 1.274.07.714.126 1.526.056.798.098 1.596t.042 1.484V29zm8.94 0V18.78h1.26v9.072h4.62V29zm16.23 1.54 4.97-13.16h1.33l-4.97 13.16zM312.39 29V18.78h2.646q.993 0 1.708.378.727.378 1.12 1.064.405.686.406 1.624v4.074q0 .938-.406 1.638a2.7 2.7 0 0 1-1.12 1.064q-.715.378-1.708.378zm1.26-1.12h1.386q.923 0 1.442-.518.531-.518.532-1.442v-4.074q0-.91-.532-1.428-.519-.518-1.442-.518h-1.386zm10.046 1.26q-.91 0-1.596-.364a2.63 2.63 0 0 1-1.05-1.022q-.364-.672-.364-1.554v-2.1q0-.895.364-1.554.378-.659 1.05-1.022.685-.364 1.596-.364.91 0 1.582.364.686.364 1.05 1.022.378.659.378 1.554v1.358h-4.788v.742q0 .91.462 1.4.462.476 1.316.476.727 0 1.176-.252a1.11 1.11 0 0 0 .546-.784h1.26q-.126.966-.952 1.54-.812.56-2.03.56m1.778-4.522V24.1q0-.91-.462-1.4-.448-.49-1.316-.49-.854 0-1.316.49t-.462 1.4v.406h3.654zM332.931 29q-.995 0-1.554-.532-.546-.532-.546-1.498v-4.522h-2.17V21.3h2.17v-2.17h1.26v2.17h3.08v1.148h-3.08v4.522q0 .882.84.882h2.1V29zm7.554.14q-.91 0-1.596-.364a2.63 2.63 0 0 1-1.05-1.022q-.364-.672-.364-1.554v-2.1q0-.895.364-1.554.378-.659 1.05-1.022.685-.364 1.596-.364.91 0 1.582.364.686.364 1.05 1.022.378.659.378 1.554v1.358h-4.788v.742q0 .91.462 1.4.462.476 1.316.476.727 0 1.176-.252a1.11 1.11 0 0 0 .546-.784h1.26q-.126.966-.952 1.54-.812.56-2.03.56m1.778-4.522V24.1q0-.91-.462-1.4-.448-.49-1.316-.49-.854 0-1.316.49t-.462 1.4v.406h3.654zm6.673 4.522q-.924 0-1.624-.35a2.5 2.5 0 0 1-1.064-1.008q-.378-.672-.378-1.582v-2.1q0-.924.378-1.582a2.5 2.5 0 0 1 1.064-1.008q.7-.35 1.624-.35 1.329 0 2.142.714t.854 1.946h-1.26q-.042-.743-.504-1.134-.449-.405-1.232-.406-.827 0-1.316.476-.49.462-.49 1.33V26.2q0 .869.49 1.344t1.316.476q.783 0 1.232-.406.462-.406.504-1.134h1.26q-.042 1.232-.854 1.946-.813.714-2.142.714m9.178-.14q-.993 0-1.554-.532-.546-.532-.546-1.498v-4.522h-2.17V21.3h2.17v-2.17h1.26v2.17h3.08v1.148h-3.08v4.522q0 .882.84.882h2.1V29zm7.555.112q-.924 0-1.596-.35a2.54 2.54 0 0 1-1.05-1.008q-.364-.672-.364-1.582v-2.044q0-.924.364-1.582a2.54 2.54 0 0 1 1.05-1.008q.672-.35 1.596-.35t1.596.35 1.036 1.008q.378.658.378 1.568v2.058q0 .91-.378 1.582a2.46 2.46 0 0 1-1.036 1.008q-.672.35-1.596.35m0-1.12q.826 0 1.288-.462t.462-1.358v-2.044q0-.896-.462-1.358t-1.288-.462q-.813 0-1.288.462-.462.462-.462 1.358v2.044q0 .896.462 1.358.475.462 1.288.462M371.417 29v-7.7h1.232v1.47h.294l-.406.91q0-1.245.532-1.876.546-.644 1.61-.644 1.218 0 1.932.77.729.756.728 2.058v.462h-1.26v-.35q0-.91-.448-1.386-.433-.49-1.246-.49-.798 0-1.26.49-.447.49-.448 1.386V29z"/><g stroke="#d3d5cf" stroke-linecap="round" stroke-linejoin="round" stroke-width="1.5" clip-path="url(#b)"><path d="M413.5 24h11M420 19.5l4.5 4.5-4.5 4.5"/></g><rect width="166" height="37" x="443.5" y="5.5" fill="#20ca45" fill-opacity=".1" rx="3.5"/><rect width="166" height="37" x="443.5" y="5.5" stroke="#20ca45" rx="3.5"/><path fill="#080808" d="M462.318 29v-8.596h-2.674V18.78h7.112v1.624h-2.674V29zm6.141 0V18.78h3.234q1.021 0 1.764.378.756.378 1.176 1.064.42.672.42 1.596 0 1.008-.518 1.778a2.74 2.74 0 0 1-1.372 1.092l2.03 4.312h-1.96l-1.778-4.06h-1.246V29zm1.75-5.6h1.484q.742 0 1.162-.406.42-.405.42-1.12 0-.727-.42-1.134-.42-.42-1.162-.42h-1.484zm6.07 5.6 2.576-10.22h2.254l2.59 10.22h-1.792l-.56-2.478h-2.716l-.56 2.478zm2.674-3.906h2.072l-.616-2.744a69 69 0 0 1-.266-1.232 28 28 0 0 1-.154-.812q-.042.252-.154.812-.098.546-.266 1.218zm9.487 4.046q-.981 0-1.722-.364a2.8 2.8 0 0 1-1.134-1.05q-.393-.686-.392-1.61v-4.452q0-.938.392-1.61.405-.672 1.134-1.036.741-.378 1.722-.378.993 0 1.708.378.728.364 1.134 1.036t.406 1.61h-1.764q0-.728-.392-1.106-.378-.378-1.092-.378t-1.106.378-.392 1.092v4.466q0 .714.392 1.106.392.378 1.106.378t1.092-.378q.392-.392.392-1.106h1.764q0 .91-.406 1.596a2.8 2.8 0 0 1-1.134 1.064q-.715.364-1.708.364m5.37-.14V18.78h6.132v1.526h-4.41v2.66h3.92v1.512h-3.92v2.996h4.41V29zm8.241 0V18.78h1.75v4.102h2.744V18.78h1.75V29h-1.75v-4.494h-2.744V29zm11.516.14q-.98 0-1.708-.364a2.73 2.73 0 0 1-1.106-1.05q-.378-.686-.378-1.61v-4.452q0-.924.378-1.596.393-.686 1.106-1.05.729-.378 1.708-.378.994 0 1.708.378.714.364 1.092 1.05.392.672.392 1.582v4.466q0 .924-.392 1.61a2.64 2.64 0 0 1-1.092 1.05q-.714.364-1.708.364m0-1.54q.715 0 1.078-.378.364-.392.364-1.106v-4.452q0-.728-.364-1.106-.363-.378-1.078-.378-.714 0-1.078.378-.363.377-.364 1.106v4.452q0 .714.364 1.106.378.378 1.078.378m8.395 1.54q-1.499 0-2.352-.812-.84-.825-.84-2.24V18.78h1.764v7.294q0 .728.364 1.134.363.405 1.064.406.686 0 1.05-.406.378-.406.378-1.134V18.78h1.764v7.308q0 1.415-.84 2.24-.84.812-2.352.812m5.202-.14V18.78h2.142l2.842 8.26-.098-1.05q-.042-.616-.07-1.246-.028-.645-.028-1.12V18.78h1.596V29h-2.142l-2.814-8.26.07.98q.043.574.07 1.176t.028 1.106V29zm8.437 0V18.78h3.038q1.035 0 1.792.392.77.392 1.19 1.106.42.713.42 1.694v3.822q0 .966-.42 1.694-.42.715-1.19 1.12-.757.392-1.792.392zm1.75-1.61h1.288q.756 0 1.204-.42.447-.434.448-1.176v-3.822q0-.728-.448-1.148-.448-.434-1.204-.434h-1.288zM551.83 29l2.576-10.22h2.254L559.25 29h-1.792l-.56-2.478h-2.716l-.56 2.478zm2.674-3.906h2.072l-.616-2.744a69 69 0 0 1-.266-1.232 28 28 0 0 1-.154-.812q-.042.252-.154.812-.098.546-.266 1.218zm9.486 4.046q-.98 0-1.722-.364a2.8 2.8 0 0 1-1.134-1.05q-.392-.686-.392-1.61v-4.452q0-.938.392-1.61a2.7 2.7 0 0 1 1.134-1.036q.743-.378 1.722-.378.994 0 1.708.378.729.364 1.134 1.036.406.672.406 1.61h-1.764q0-.728-.392-1.106-.378-.378-1.092-.378t-1.106.378-.392 1.092v4.466q0 .714.392 1.106t1.106.392 1.092-.392q.392-.392.392-1.106V25.08h-1.736v-1.512h3.5v2.548q0 .924-.406 1.61-.405.672-1.134 1.05-.714.364-1.708.364m5.371-.14V18.78h6.132v1.526h-4.41v2.66h3.92v1.512h-3.92v2.996h4.41V29zm8.17 0V18.78h2.142l2.842 8.26-.098-1.05q-.042-.616-.07-1.246-.028-.645-.028-1.12V18.78h1.596V29h-2.142l-2.814-8.26.07.98q.043.574.07 1.176t.028 1.106V29zm10.705 0v-8.596h-2.674V18.78h7.112v1.624H590V29z"/><g stroke="#d3d5cf" stroke-linecap="round" stroke-linejoin="round" stroke-width="1.5" clip-path="url(#c)"><path d="M628.5 24h11M635 19.5l4.5 4.5-4.5 4.5"/></g><rect width="99" height="37" x="658.5" y="5.5" fill="#ef422c" fill-opacity=".1" rx="3.5"/><rect width="99" height="37" x="658.5" y="5.5" stroke="#ef422c" rx="3.5"/><path fill="#080808" d="M675.288 29V18.78h3.164q.91 0 1.596.378.686.364 1.064 1.022t.378 1.54q0 1.035-.546 1.778-.532.742-1.456 1.022L681.63 29h-1.484l-1.96-4.34h-1.638V29zm1.26-5.474h1.904q.784 0 1.26-.49.476-.504.476-1.316 0-.826-.476-1.316t-1.26-.49h-1.904zm10.047 5.614q-.91 0-1.596-.364a2.63 2.63 0 0 1-1.05-1.022q-.364-.672-.364-1.554v-2.1q0-.895.364-1.554.378-.659 1.05-1.022.685-.364 1.596-.364.91 0 1.582.364.686.364 1.05 1.022.378.659.378 1.554v1.358h-4.788v.742q0 .91.462 1.4.461.476 1.316.476.727 0 1.176-.252.447-.266.546-.784h1.26q-.127.966-.952 1.54-.812.56-2.03.56m1.778-4.522V24.1q0-.91-.462-1.4-.449-.49-1.316-.49-.855 0-1.316.49t-.462 1.4v.406h3.654zm6.378 4.494q-.784 0-1.372-.238a2.34 2.34 0 0 1-.924-.7 2.14 2.14 0 0 1-.406-1.064h1.26q.084.405.448.644.378.238.994.238h.588q.742 0 1.106-.294a1.01 1.01 0 0 0 .364-.812q0-.49-.336-.77-.322-.294-.966-.392l-1.036-.168q-1.134-.195-1.694-.7-.546-.518-.546-1.498 0-1.036.658-1.596.658-.574 1.974-.574h.532q1.106 0 1.778.518t.812 1.4h-1.26a.9.9 0 0 0-.42-.574q-.336-.224-.91-.224h-.532q-.714 0-1.05.266-.322.266-.322.798 0 .475.28.7t.882.322l1.036.168q1.247.195 1.806.728.574.532.574 1.54 0 1.065-.686 1.68-.672.602-2.044.602zm5.721 2.408V21.3h1.26v1.47h.252l-.252.294q0-.882.574-1.386.588-.518 1.54-.518 1.161 0 1.848.77.7.757.7 2.086v2.254q0 .882-.322 1.526-.309.644-.882.994-.561.35-1.344.35-.939 0-1.526-.518-.588-.517-.588-1.386l.252.294h-.28l.028 1.75v2.24zm2.954-3.472q.798 0 1.246-.476.462-.476.462-1.372v-2.1q0-.896-.462-1.372-.448-.476-1.246-.476-.77 0-1.232.49t-.462 1.358v2.1q0 .868.462 1.358t1.232.49m8.352 1.064q-.924 0-1.596-.35a2.54 2.54 0 0 1-1.05-1.008q-.364-.672-.364-1.582v-2.044q0-.924.364-1.582a2.54 2.54 0 0 1 1.05-1.008q.672-.35 1.596-.35t1.596.35 1.036 1.008q.378.658.378 1.568v2.058q0 .91-.378 1.582a2.46 2.46 0 0 1-1.036 1.008q-.672.35-1.596.35m0-1.12q.826 0 1.288-.462t.462-1.358v-2.044q0-.896-.462-1.358t-1.288-.462q-.812 0-1.288.462-.462.462-.462 1.358v2.044q0 .896.462 1.358.476.462 1.288.462M717.261 29v-7.7h1.26v1.47h.266l-.266.294q0-.91.546-1.4.546-.504 1.512-.504 1.161 0 1.848.714.686.714.686 1.946V29h-1.26v-5.04q0-.825-.448-1.26-.434-.448-1.19-.448-.784 0-1.246.476-.448.476-.448 1.372V29zm11.068.112q-.784 0-1.372-.238a2.35 2.35 0 0 1-.924-.7 2.14 2.14 0 0 1-.406-1.064h1.26q.084.405.448.644.378.238.994.238h.588q.743 0 1.106-.294a1.01 1.01 0 0 0 .364-.812q0-.49-.336-.77-.321-.294-.966-.392l-1.036-.168q-1.134-.195-1.694-.7-.546-.518-.546-1.498 0-1.036.658-1.596.658-.574 1.974-.574h.532q1.107 0 1.778.518.672.518.812 1.4h-1.26a.9.9 0 0 0-.42-.574q-.336-.224-.91-.224h-.532q-.714 0-1.05.266-.322.266-.322.798 0 .475.28.7t.882.322l1.036.168q1.247.195 1.806.728.574.532.574 1.54 0 1.065-.686 1.68-.672.602-2.044.602zm8.633.028q-.91 0-1.596-.364a2.63 2.63 0 0 1-1.05-1.022q-.364-.672-.364-1.554v-2.1q0-.895.364-1.554.378-.659 1.05-1.022.686-.364 1.596-.364t1.582.364q.685.364 1.05 1.022.378.659.378 1.554v1.358h-4.788v.742q0 .91.462 1.4.462.476 1.316.476.727 0 1.176-.252.447-.266.546-.784h1.26q-.127.966-.952 1.54-.812.56-2.03.56m1.778-4.522V24.1q0-.91-.462-1.4-.449-.49-1.316-.49-.854 0-1.316.49t-.462 1.4v.406h3.654z"/><rect width="199" height="59" x="260.5" y="107.5" fill="#ef422c" fill-opacity=".1" rx="3.5"/><rect width="199" height="59" x="260.5" y="107.5" stroke="#ef422c" rx="3.5"/><path fill="#ef422c" d="m323.753 135.52-1.54-2.534.308.14h-.14a1 1 0 0 1-.154.014q-.98 0-1.708-.378a2.8 2.8 0 0 1-1.134-1.064q-.406-.7-.406-1.61v-4.396q0-.938.406-1.61a2.8 2.8 0 0 1 1.134-1.064q.729-.378 1.708-.378.98 0 1.708.378.729.378 1.134 1.064.406.686.406 1.61v4.396q0 .924-.406 1.624a2.6 2.6 0 0 1-1.12 1.05l1.694 2.758zm-1.526-3.92q.728 0 1.106-.392.392-.406.392-1.12v-4.396q0-.728-.406-1.12-.392-.406-1.092-.406t-1.106.406q-.392.392-.392 1.12v4.396q0 .714.392 1.12.392.392 1.106.392m8.395 1.54q-1.499 0-2.352-.812-.84-.826-.84-2.24v-7.308h1.764v7.294q0 .728.364 1.134t1.064.406q.685 0 1.05-.406.378-.406.378-1.134v-7.294h1.764v7.308q0 1.414-.84 2.24-.84.812-2.352.812m4.684-.14 2.576-10.22h2.254l2.59 10.22h-1.792l-.56-2.478h-2.716l-.56 2.478zm2.674-3.906h2.072l-.616-2.744a78 78 0 0 1-.266-1.232 31 31 0 0 1-.154-.812q-.042.252-.154.812-.098.546-.266 1.218zm6.295 3.906v-10.22h3.234q1.021 0 1.764.378a2.83 2.83 0 0 1 1.176 1.064q.42.672.42 1.596 0 1.008-.518 1.778a2.74 2.74 0 0 1-1.372 1.092l2.03 4.312h-1.96l-1.778-4.06h-1.246V133zm1.75-5.6h1.484q.742 0 1.162-.406t.42-1.12q0-.727-.42-1.134-.42-.42-1.162-.42h-1.484zm6.07 5.6 2.576-10.22h2.254l2.59 10.22h-1.792l-.56-2.478h-2.716l-.56 2.478zm2.674-3.906h2.072l-.616-2.744a78 78 0 0 1-.266-1.232 31 31 0 0 1-.154-.812q-.042.252-.154.812-.098.546-.266 1.218zm6.239 3.906v-10.22h2.142l2.842 8.26-.098-1.05a55 55 0 0 1-.07-1.246 26 26 0 0 1-.028-1.12v-4.844h1.596V133h-2.142l-2.814-8.26.07.98q.042.575.07 1.176.028.602.028 1.106V133zm10.705 0v-8.596h-2.674v-1.624h7.112v1.624h-2.674V133zm6.336 0v-1.54h2.058v-7.14h-2.058v-1.54h5.88v1.54h-2.058v7.14h2.058V133zm8.143 0v-10.22h2.142l2.842 8.26-.098-1.05a50 50 0 0 1-.07-1.246 26 26 0 0 1-.028-1.12v-4.844h1.596V133h-2.142l-2.814-8.26q.027.406.07.98.042.575.07 1.176.027.602.028 1.106V133zm8.618 0v-10.22h6.132v1.526h-4.41v2.66h3.92v1.512h-3.92v2.996h4.41V133z"/><path fill="#080808" d="M295.436 152.68q-1.987-.49-3.094-1.932t-1.106-3.528v-2.52q0-1.373.504-2.478a5.3 5.3 0 0 1 1.456-1.89 5.7 5.7 0 0 1 2.24-1.092v1.19a3.4 3.4 0 0 0-1.554.812 4 4 0 0 0-1.022 1.47q-.364.882-.364 1.988v2.52q0 1.078.35 1.96a4 4 0 0 0 1.022 1.47 3.66 3.66 0 0 0 1.568.784zm3.005-1.68v-10.22h5.88v1.148h-4.634v3.164h4.144v1.134h-4.144v3.626h4.634V151zm10.341 0-2.576-7.7h1.288l1.708 5.18a26 26 0 0 1 .462 1.554q.07-.238.196-.658.125-.434.266-.896l1.666-5.18h1.274l-2.576 7.7zm6.238 0v-1.148h2.73v-5.404h-2.38V143.3h3.64v6.552h2.59V151zm3.22-9.086q-.462 0-.728-.238t-.266-.644q0-.42.266-.658.266-.252.728-.252t.728.252q.266.238.266.658 0 .406-.266.644t-.728.238m7.737 9.226q-1.149 0-1.862-.77-.7-.77-.7-2.086v-2.254q0-1.33.7-2.1t1.862-.77q.951 0 1.526.518.574.517.574 1.386l-.252-.294h.28l-.028-1.75v-2.24h1.26V151h-1.26v-1.47h-.252l.252-.294q0 .882-.574 1.4-.575.504-1.526.504m.42-1.092q.783 0 1.232-.49.447-.49.448-1.358v-2.1q0-.868-.448-1.358-.449-.49-1.232-.49-.798 0-1.26.476t-.462 1.372v2.1q0 .896.462 1.372t1.26.476m8.422 1.092q-.91 0-1.596-.364a2.63 2.63 0 0 1-1.05-1.022q-.364-.672-.364-1.554v-2.1q0-.895.364-1.554a2.63 2.63 0 0 1 1.05-1.022q.685-.364 1.596-.364.91 0 1.582.364.685.364 1.05 1.022.378.659.378 1.554v1.358h-4.788v.742q0 .91.462 1.4.462.476 1.316.476.728 0 1.176-.252a1.11 1.11 0 0 0 .546-.784h1.26q-.126.966-.952 1.54-.812.56-2.03.56m1.778-4.522v-.518q0-.91-.462-1.4-.448-.49-1.316-.49-.854 0-1.316.49t-.462 1.4v.406h3.654zm3.705 4.382v-7.7h1.26v1.47h.266l-.266.294q0-.91.546-1.4.546-.504 1.512-.504 1.161 0 1.848.714.686.714.686 1.946V151h-1.26v-5.04q0-.827-.448-1.26-.434-.448-1.19-.448-.784 0-1.246.476-.448.476-.448 1.372v4.9zm11.362.14q-.924 0-1.624-.35a2.5 2.5 0 0 1-1.064-1.008q-.378-.672-.378-1.582v-2.1q0-.924.378-1.582a2.5 2.5 0 0 1 1.064-1.008q.7-.35 1.624-.35 1.33 0 2.142.714t.854 1.946h-1.26q-.042-.743-.504-1.134-.447-.406-1.232-.406-.825 0-1.316.476-.49.462-.49 1.33v2.114q0 .868.49 1.344t1.316.476q.785 0 1.232-.406.462-.406.504-1.134h1.26q-.042 1.232-.854 1.946t-2.142.714m8.339 0q-.91 0-1.596-.364a2.63 2.63 0 0 1-1.05-1.022q-.364-.672-.364-1.554v-2.1q0-.895.364-1.554a2.63 2.63 0 0 1 1.05-1.022q.685-.364 1.596-.364.91 0 1.582.364.685.364 1.05 1.022.378.659.378 1.554v1.358h-4.788v.742q0 .91.462 1.4.462.476 1.316.476.728 0 1.176-.252.447-.266.546-.784h1.26q-.127.966-.952 1.54-.812.56-2.03.56m1.778-4.522v-.518q0-.91-.462-1.4-.449-.49-1.316-.49-.854 0-1.316.49t-.462 1.4v.406h3.654zM373.894 151v-10.22h2.898q1.4 0 2.184.7.798.7.798 1.946 0 .7-.294 1.218a2 2 0 0 1-.84.798q-.532.28-1.288.266v-.21q.812-.014 1.4.308.602.323.924.924.336.602.336 1.428 0 .869-.364 1.512a2.5 2.5 0 0 1-1.036.994q-.672.336-1.61.336zm1.232-1.134h1.736q.882 0 1.386-.462.518-.476.518-1.288 0-.84-.518-1.358-.504-.532-1.386-.532h-1.736zm0-4.732h1.652q.812 0 1.274-.434.476-.434.476-1.176 0-.743-.462-1.176-.462-.434-1.274-.434h-1.666zm10.046 6.006q-1.33 0-2.128-.784-.798-.798-.798-2.156v-4.9h1.26v4.9q0 .868.448 1.358.448.476 1.218.476.785 0 1.232-.476.462-.49.462-1.358v-4.9h1.26v4.9q0 1.358-.812 2.156-.812.784-2.142.784m7.289-.14v-5.782h-2.24v-1.148h2.24v-1.33q0-.91.574-1.428.574-.532 1.582-.532h2.254v1.148h-2.254q-.433 0-.672.21-.224.196-.224.602v1.33h3.15v1.148h-3.15V151zm8.394 0v-5.782h-2.24v-1.148h2.24v-1.33q0-.91.574-1.428.574-.532 1.582-.532h2.254v1.148h-2.254q-.433 0-.672.21-.224.196-.224.602v1.33h3.15v1.148h-3.15V151zm9.515.14q-.91 0-1.596-.364a2.63 2.63 0 0 1-1.05-1.022q-.364-.672-.364-1.554v-2.1q0-.895.364-1.554a2.63 2.63 0 0 1 1.05-1.022q.685-.364 1.596-.364.91 0 1.582.364.685.364 1.05 1.022.378.659.378 1.554v1.358h-4.788v.742q0 .91.462 1.4.462.476 1.316.476.727 0 1.176-.252a1.11 1.11 0 0 0 .546-.784h1.26q-.126.966-.952 1.54-.812.56-2.03.56m1.778-4.522v-.518q0-.91-.462-1.4-.448-.49-1.316-.49-.854 0-1.316.49t-.462 1.4v.406h3.654zm3.97 4.382v-7.7h1.232v1.47h.294l-.406.91q0-1.246.532-1.876.546-.644 1.61-.644 1.218 0 1.932.77.729.756.728 2.058v.462h-1.26v-.35q0-.91-.448-1.386-.433-.49-1.246-.49-.798 0-1.26.49-.447.49-.448 1.386v4.9zm8.451 1.68v-1.246a3.56 3.56 0 0 0 1.568-.784 3.8 3.8 0 0 0 1.008-1.47q.364-.882.364-1.96v-2.52q0-1.106-.364-1.988a4 4 0 0 0-1.022-1.47 3.4 3.4 0 0 0-1.554-.812v-1.19q1.302.322 2.24 1.092a5.14 5.14 0 0 1 1.442 1.89q.518 1.105.518 2.478v2.52q0 2.086-1.106 3.528t-3.094 1.932"/><g stroke="#d3d5cf" stroke-linecap="round" stroke-linejoin="round" stroke-width="1.5" clip-path="url(#d)"><path d="m481.5 133-4.5 4 4.5 4M486.5 133l4.5 4-4.5 4"/></g><rect width="199" height="59" x="508.5" y="107.5" fill="#20ca45" fill-opacity=".1" rx="3.5"/><rect width="199" height="59" x="508.5" y="107.5" stroke="#20ca45" rx="3.5"/><path fill="#20ca45" d="m562.32 133 2.576-10.22h2.254l2.59 10.22h-1.792l-.56-2.478h-2.716l-.56 2.478zm2.674-3.906h2.072l-.616-2.744a68 68 0 0 1-.266-1.232 28 28 0 0 1-.154-.812q-.042.252-.154.812-.098.546-.266 1.218zm9.431 4.046q-1.498 0-2.352-.812-.84-.826-.84-2.24v-7.308h1.764v7.294q0 .728.364 1.134.363.406 1.064.406.686 0 1.05-.406.378-.406.378-1.134v-7.294h1.764v7.308q0 1.414-.84 2.24-.84.812-2.352.812m5.244-.14v-10.22h3.038q1.036 0 1.792.392.77.392 1.19 1.106t.42 1.694v3.822q0 .966-.42 1.694-.42.714-1.19 1.12-.756.392-1.792.392zm1.75-1.61h1.288q.756 0 1.204-.42.448-.434.448-1.176v-3.822q0-.728-.448-1.148-.448-.434-1.204-.434h-1.288zm6.855 1.61v-1.54h2.058v-7.14h-2.058v-1.54h5.88v1.54h-2.058v7.14h2.058V133zm10.452 0v-8.596h-2.674v-1.624h7.112v1.624h-2.674V133zm17.727.14q-.98 0-1.722-.364a2.8 2.8 0 0 1-1.134-1.05q-.392-.686-.392-1.61v-4.452q0-.938.392-1.61a2.7 2.7 0 0 1 1.134-1.036q.742-.378 1.722-.378.994 0 1.708.378.729.364 1.134 1.036.406.672.406 1.61h-1.764q0-.728-.392-1.106-.378-.378-1.092-.378t-1.106.378-.392 1.092v4.466q0 .714.392 1.106.392.378 1.106.378t1.092-.378q.393-.392.392-1.106h1.764q0 .91-.406 1.596-.405.686-1.134 1.064-.714.364-1.708.364m5.217-.14v-10.22h1.75v4.102h2.744v-4.102h1.75V133h-1.75v-4.494h-2.744V133zm7.806 0 2.576-10.22h2.254l2.59 10.22h-1.792l-.56-2.478h-2.716l-.56 2.478zm2.674-3.906h2.072l-.616-2.744a78 78 0 0 1-.266-1.232 31 31 0 0 1-.154-.812q-.042.252-.154.812-.098.546-.266 1.218zm6.491 3.906v-1.54h2.058v-7.14h-2.058v-1.54h5.88v1.54h-2.058v7.14h2.058V133zm8.142 0v-10.22h2.142l2.842 8.26-.098-1.05a55 55 0 0 1-.07-1.246 27 27 0 0 1-.028-1.12v-4.844h1.596V133h-2.142l-2.814-8.26.07.98q.043.575.07 1.176.028.602.028 1.106V133z"/><path fill="#080808" d="M539.239 152.68q-1.987-.49-3.094-1.932t-1.106-3.528v-2.52q0-1.373.504-2.478a5.3 5.3 0 0 1 1.456-1.89 5.7 5.7 0 0 1 2.24-1.092v1.19a3.4 3.4 0 0 0-1.554.812 4 4 0 0 0-1.022 1.47q-.363.882-.364 1.988v2.52q0 1.078.35 1.96a4 4 0 0 0 1.022 1.47 3.66 3.66 0 0 0 1.568.784zm2.669-1.68v-10.22h1.652l1.064 3.304q.153.448.28.896.125.433.182.672.07-.239.182-.672.111-.448.252-.91l1.008-3.29h1.652V151h-1.232v-3.71q0-.616.042-1.4t.112-1.596q.07-.826.14-1.568.083-.756.14-1.316l-1.652 5.11h-1.33l-1.666-5.11q.07.546.14 1.274.069.714.126 1.526.056.798.098 1.596t.042 1.484V151zm11.53.14q-.909 0-1.596-.364a2.63 2.63 0 0 1-1.05-1.022q-.363-.672-.364-1.554v-2.1q0-.895.364-1.554a2.63 2.63 0 0 1 1.05-1.022q.687-.364 1.596-.364.91 0 1.582.364.687.364 1.05 1.022.378.659.378 1.554v1.358h-4.788v.742q0 .91.462 1.4.462.476 1.316.476.729 0 1.176-.252a1.11 1.11 0 0 0 .546-.784h1.26q-.126.966-.952 1.54-.812.56-2.03.56m1.778-4.522v-.518q0-.91-.462-1.4-.447-.49-1.316-.49-.854 0-1.316.49t-.462 1.4v.406h3.654zm3.971 4.382v-7.7h1.232v1.47h.294l-.406.91q0-1.246.532-1.876.546-.644 1.61-.644 1.218 0 1.932.77.728.756.728 2.058v.462h-1.26v-.35q0-.91-.448-1.386-.435-.49-1.246-.49-.798 0-1.26.49-.448.49-.448 1.386v4.9zm8.17 0v-10.22h1.26v5.698h1.484l2.24-3.178h1.442l-2.59 3.668 2.632 4.032h-1.47l-2.24-3.43h-1.498V151zm12.315 0q-.672 0-1.176-.266a1.9 1.9 0 0 1-.784-.756q-.28-.49-.28-1.148v-6.902h-2.59v-1.148h3.85v8.05q0 .475.266.756.265.266.714.266h2.45V151zm7.344.14q-.909 0-1.596-.364a2.63 2.63 0 0 1-1.05-1.022q-.363-.672-.364-1.554v-2.1q0-.895.364-1.554a2.63 2.63 0 0 1 1.05-1.022q.687-.364 1.596-.364.91 0 1.582.364.687.364 1.05 1.022.378.659.378 1.554v1.358h-4.788v.742q0 .91.462 1.4.462.476 1.316.476.729 0 1.176-.252a1.11 1.11 0 0 0 .546-.784h1.26q-.126.966-.952 1.54-.812.56-2.03.56m1.778-4.522v-.518q0-.91-.462-1.4-.447-.49-1.316-.49-.854 0-1.316.49t-.462 1.4v.406h3.654zM601.075 151v-1.148h2.086v-7.924h-2.086v-1.148h5.46v1.148h-2.086v7.924h2.086V151zm8.213 0v-7.7h1.26v1.47h.266l-.266.294q0-.91.546-1.4.546-.504 1.512-.504 1.163 0 1.848.714.686.714.686 1.946V151h-1.26v-5.04q0-.827-.448-1.26-.434-.448-1.19-.448-.784 0-1.246.476-.448.476-.448 1.372v4.9zm12.147 0q-.995 0-1.554-.532-.546-.532-.546-1.498v-4.522h-2.17V143.3h2.17v-2.17h1.26v2.17h3.08v1.148h-3.08v4.522q0 .882.84.882h2.1V151zm7.554.14q-.91 0-1.596-.364a2.63 2.63 0 0 1-1.05-1.022q-.364-.672-.364-1.554v-2.1q0-.895.364-1.554a2.63 2.63 0 0 1 1.05-1.022q.686-.364 1.596-.364t1.582.364q.685.364 1.05 1.022.378.659.378 1.554v1.358h-4.788v.742q0 .91.462 1.4.462.476 1.316.476.727 0 1.176-.252a1.11 1.11 0 0 0 .546-.784h1.26q-.126.966-.952 1.54-.812.56-2.03.56m1.778-4.522v-.518q0-.91-.462-1.4-.448-.49-1.316-.49-.854 0-1.316.49t-.462 1.4v.406h3.654zm4.671 6.902v-1.148h2.45q.588 0 .854-.266.28-.266.28-.826v-.98l.028-1.4h-.252l.238-.21q0 .84-.56 1.33t-1.498.49q-1.19 0-1.876-.77-.687-.785-.686-2.1v-1.624q0-1.316.686-2.086.685-.77 1.876-.77.937 0 1.498.49t.56 1.33l-.238-.21h.238v-1.47h1.246v7.98q0 1.037-.644 1.638-.63.602-1.764.602zm1.918-4.102q.783 0 1.232-.49.447-.49.448-1.358v-1.47q0-.868-.448-1.358-.449-.49-1.232-.49-.799 0-1.246.476-.434.476-.434 1.372v1.47q0 .896.434 1.372.448.476 1.246.476m5.776 1.582v-7.7h1.232v1.47h.294l-.406.91q0-1.246.532-1.876.546-.644 1.61-.644 1.218 0 1.932.77.728.756.728 2.058v.462h-1.26v-.35q0-.91-.448-1.386-.434-.49-1.246-.49-.798 0-1.26.49-.448.49-.448 1.386v4.9zm8.031 0v-1.148h2.73v-5.404h-2.38V143.3h3.64v6.552h2.59V151zm3.22-9.086q-.462 0-.728-.238t-.266-.644q0-.42.266-.658.266-.252.728-.252t.728.252q.266.238.266.658 0 .406-.266.644t-.728.238m9.024 9.086q-.993 0-1.554-.532-.546-.532-.546-1.498v-4.522h-2.17V143.3h2.17v-2.17h1.26v2.17h3.08v1.148h-3.08v4.522q0 .882.84.882h2.1V151zm5.847 2.52 1.134-2.996-2.856-7.224h1.4l1.792 4.76q.098.238.182.574l.14.546q.056-.224.14-.546.084-.336.168-.574l1.68-4.76h1.358l-3.794 10.22zm7.512-.84v-1.246a3.55 3.55 0 0 0 1.568-.784 3.8 3.8 0 0 0 1.008-1.47q.364-.882.364-1.96v-2.52q0-1.106-.364-1.988a3.95 3.95 0 0 0-1.022-1.47 3.4 3.4 0 0 0-1.554-.812v-1.19q1.302.322 2.24 1.092a5.1 5.1 0 0 1 1.442 1.89q.519 1.105.518 2.478v2.52q0 2.086-1.106 3.528-1.105 1.442-3.094 1.932"/><g stroke="#d3d5cf" stroke-linecap="round" stroke-linejoin="round" stroke-width="1.5" clip-path="url(#e)"><path d="m482 78.5-2 2-2-2M490 78.5l-2 2-2-2"/><path d="M484 68.5v3l-4 4v5M484 71.5l4 4v5"/></g><g stroke="#d3d5cf" stroke-linecap="round" stroke-linejoin="round" stroke-width="1.5" clip-path="url(#f)"><path d="M484 193.5v11M479.5 200l4.5 4.5 4.5-4.5"/></g><rect width="132" height="37" x="424.5" y="231.5" fill="#d3d5cf" fill-opacity=".1" rx="3.5"/><rect width="132" height="37" x="424.5" y="231.5" stroke="#d3d5cf" stroke-dasharray="2 2" rx="3.5"/><path fill="#080808" d="M444.256 255.14q-.924 0-1.61-.35a2.54 2.54 0 0 1-1.05-1.008q-.364-.672-.364-1.582v-4.62q0-.924.364-1.582a2.54 2.54 0 0 1 1.05-1.008q.686-.35 1.61-.35t1.596.364q.672.35 1.036 1.008t.364 1.568h-1.26q0-.868-.462-1.33-.448-.476-1.274-.476t-1.302.462q-.462.462-.462 1.33v4.634q0 .868.462 1.344.476.462 1.302.462t1.274-.462q.462-.475.462-1.344h1.26q0 .896-.364 1.568a2.54 2.54 0 0 1-1.036 1.022q-.672.35-1.596.35m8.339-.028q-.924 0-1.596-.35a2.54 2.54 0 0 1-1.05-1.008q-.364-.672-.364-1.582v-2.044q0-.924.364-1.582a2.54 2.54 0 0 1 1.05-1.008q.672-.35 1.596-.35t1.596.35 1.036 1.008q.378.658.378 1.568v2.058q0 .91-.378 1.582a2.45 2.45 0 0 1-1.036 1.008q-.672.35-1.596.35m0-1.12q.826 0 1.288-.462t.462-1.358v-2.044q0-.896-.462-1.358-.463-.462-1.288-.462-.813 0-1.288.462-.462.462-.462 1.358v2.044q0 .896.462 1.358.475.462 1.288.462m9.444 1.008q-.672 0-1.176-.266a1.9 1.9 0 0 1-.784-.756q-.28-.49-.28-1.148v-6.902h-2.59v-1.148h3.85v8.05q0 .475.266.756.266.266.714.266h2.45V255zm6.897.14q-1.149 0-1.862-.77-.7-.77-.7-2.086v-2.254q0-1.33.7-2.1t1.862-.77q.951 0 1.526.518.573.517.574 1.386l-.252-.294h.28l-.028-1.75v-2.24h1.26V255h-1.26v-1.47h-.252l.252-.294q0 .882-.574 1.4-.575.504-1.526.504m.42-1.092q.783 0 1.232-.49.447-.49.448-1.358v-2.1q0-.868-.448-1.358-.449-.49-1.232-.49-.798 0-1.26.476t-.462 1.372v2.1q0 .896.462 1.372t1.26.476m16.873 1.092q-1.008 0-1.736-.336a2.54 2.54 0 0 1-1.106-.966q-.393-.63-.406-1.498h1.26q0 .77.518 1.218.531.448 1.47.448.882 0 1.372-.434.504-.434.504-1.204 0-.616-.336-1.078-.323-.462-.938-.644l-1.386-.434q-1.05-.322-1.624-1.078-.56-.756-.56-1.778 0-.826.364-1.428a2.53 2.53 0 0 1 1.05-.952q.672-.35 1.582-.35 1.343 0 2.156.756.811.742.826 1.988h-1.26q0-.756-.462-1.176-.449-.434-1.274-.434-.812 0-1.274.392-.448.391-.448 1.092 0 .63.336 1.092t.966.658l1.4.448q1.021.323 1.582 1.092.56.77.56 1.806 0 .84-.392 1.47t-1.106.98q-.7.35-1.638.35m9.178-.14q-.993 0-1.554-.532-.546-.532-.546-1.498v-4.522h-2.17V247.3h2.17v-2.17h1.26v2.17h3.08v1.148h-3.08v4.522q0 .882.84.882h2.1V255zm7.555.112q-.924 0-1.596-.35a2.54 2.54 0 0 1-1.05-1.008q-.364-.672-.364-1.582v-2.044q0-.924.364-1.582a2.54 2.54 0 0 1 1.05-1.008q.672-.35 1.596-.35t1.596.35 1.036 1.008q.378.658.378 1.568v2.058q0 .91-.378 1.582a2.45 2.45 0 0 1-1.036 1.008q-.672.35-1.596.35m0-1.12q.826 0 1.288-.462t.462-1.358v-2.044q0-.896-.462-1.358t-1.288-.462q-.813 0-1.288.462-.462.462-.462 1.358v2.044q0 .896.462 1.358.475.462 1.288.462M508.71 255v-7.7h1.232v1.47h.294l-.406.91q0-1.246.532-1.876.546-.644 1.61-.644 1.218 0 1.932.77.728.756.728 2.058v.462h-1.26v-.35q0-.91-.448-1.386-.433-.49-1.246-.49-.798 0-1.26.49-.447.49-.448 1.386v4.9zm10.369.14q-1.218 0-1.918-.616-.7-.63-.7-1.694 0-1.078.7-1.694.699-.616 1.89-.616h2.38v-.77q0-.714-.434-1.092-.42-.392-1.204-.392-.687 0-1.148.294-.462.28-.532.77h-1.26q.125-.994.938-1.582t2.03-.588q1.329 0 2.1.686.77.686.77 1.862V255h-1.232v-1.47h-.21l.21-.21q0 .84-.658 1.33-.645.49-1.722.49m.308-.994q.895 0 1.47-.448.573-.448.574-1.148v-1.092h-2.352q-.63 0-.994.35t-.364.952q0 .644.434 1.022.447.364 1.232.364m6.812 3.374v-1.148h2.45q.588 0 .854-.266.28-.266.28-.826v-.98l.028-1.4h-.252l.238-.21q0 .84-.56 1.33t-1.498.49q-1.19 0-1.876-.77-.686-.785-.686-2.1v-1.624q0-1.316.686-2.086.687-.77 1.876-.77.939 0 1.498.49.56.49.56 1.33l-.238-.21h.238v-1.47h1.246v7.98q0 1.037-.644 1.638-.63.602-1.764.602zm1.918-4.102q.785 0 1.232-.49.448-.49.448-1.358v-1.47q0-.868-.448-1.358-.447-.49-1.232-.49-.798 0-1.246.476-.434.476-.434 1.372v1.47q0 .896.434 1.372.448.476 1.246.476m8.423 1.722q-.91 0-1.596-.364a2.63 2.63 0 0 1-1.05-1.022q-.364-.672-.364-1.554v-2.1q0-.895.364-1.554a2.63 2.63 0 0 1 1.05-1.022q.686-.364 1.596-.364t1.582.364q.685.364 1.05 1.022.378.659.378 1.554v1.358h-4.788v.742q0 .91.462 1.4.462.476 1.316.476.727 0 1.176-.252a1.11 1.11 0 0 0 .546-.784h1.26q-.126.966-.952 1.54-.812.56-2.03.56m1.778-4.522v-.518q0-.91-.462-1.4-.448-.49-1.316-.49-.854 0-1.316.49t-.462 1.4v.406h3.654z"/><defs><clipPath id="a"><path fill="#fff" d="M112 16h16v16h-16z"/></clipPath><clipPath id="b"><path fill="#fff" d="M411 16h16v16h-16z"/></clipPath><clipPath id="c"><path fill="#fff" d="M626 16h16v16h-16z"/></clipPath><clipPath id="d"><path fill="#fff" d="M476 129h16v16h-16z"/></clipPath><clipPath id="e"><path fill="#fff" d="M476 67h16v16h-16z"/></clipPath><clipPath id="f"><path fill="#fff" d="M476 191h16v16h-16z"/></clipPath></defs></svg>