<svg xmlns="http://www.w3.org/2000/svg" width="720" height="274" fill="none"><rect width="88" height="37" x="5.5" y="5.5" fill="#ef422c" fill-opacity=".1" rx="3.5"/><rect width="88" height="37" x="5.5" y="5.5" stroke="#ef422c" rx="3.5"/><path fill="#080808" d="M22.12 29v-9.8h3.962q.91 0 1.596.322.7.308 1.092.896.392.575.392 1.386v.154q0 .966-.462 1.526a2.3 2.3 0 0 1-1.092.756v.196q.504.014.826.336.336.308.336.938V29h-1.162v-3.15q0-.42-.238-.644-.224-.224-.686-.224h-3.388V29zm1.176-5.082h2.674q.966 0 1.484-.462.532-.476.532-1.316v-.098q0-.84-.518-1.302-.518-.476-1.498-.476h-2.674zm10.834 5.278q-1.035 0-1.82-.434a3.13 3.13 0 0 1-1.218-1.246q-.434-.798-.434-1.848V25.5q0-1.064.434-1.862t1.204-1.232q.77-.448 1.764-.448.966 0 1.708.42.742.406 1.162 1.176t.42 1.806v.504h-5.586q.042 1.106.714 1.736.672.615 1.68.616.882 0 1.358-.406t.728-.966l.952.462a4 4 0 0 1-.588.868q-.364.434-.966.728-.588.294-1.512.294m-2.352-4.242h4.452q-.056-.953-.658-1.484-.588-.532-1.512-.532-.938 0-1.54.532-.602.533-.742 1.484M44.865 31.8v-3.878h-.196q-.168.308-.476.602a2.3 2.3 0 0 1-.812.476q-.49.196-1.204.196-.895 0-1.638-.42a3.05 3.05 0 0 1-1.162-1.218q-.434-.798-.434-1.89v-.182q0-1.105.434-1.89t1.176-1.204a3.16 3.16 0 0 1 1.624-.434q1.064 0 1.652.406t.868.924h.196v-1.134h1.078V31.8zm-2.394-3.584q1.065 0 1.722-.672.672-.686.672-1.904v-.126q0-1.218-.672-1.89-.657-.686-1.722-.686-1.05 0-1.736.686-.672.672-.672 1.89v.126q0 1.218.672 1.904.687.672 1.736.672m8.436.91a3 3 0 0 1-1.372-.322 2.4 2.4 0 0 1-.98-.952q-.35-.644-.35-1.554v-4.144h1.106v4.06q0 1.022.504 1.484.517.462 1.386.462.98 0 1.61-.644.63-.645.63-1.918v-3.444h1.106V29h-1.078v-1.162h-.196q-.224.49-.77.896-.546.392-1.596.392m9.09.07q-1.035 0-1.82-.434a3.13 3.13 0 0 1-1.218-1.246q-.434-.798-.434-1.848V25.5q0-1.064.434-1.862t1.204-1.232q.771-.448 1.764-.448.966 0 1.708.42.742.406 1.162 1.176t.42 1.806v.504h-5.586q.042 1.106.714 1.736.672.615 1.68.616.882 0 1.358-.406t.728-.966l.952.462a4 4 0 0 1-.588.868q-.363.434-.966.728-.588.294-1.512.294m-2.352-4.242h4.452q-.055-.953-.658-1.484-.588-.532-1.512-.532-.937 0-1.54.532-.601.533-.742 1.484m10.26 4.242q-1.275 0-2.157-.588-.867-.588-1.05-1.862l1.05-.238q.113.672.42 1.064.309.378.756.546.462.154.98.154.771 0 1.218-.308.448-.307.448-.826 0-.532-.434-.742-.42-.224-1.162-.364l-.574-.098a5.2 5.2 0 0 1-1.204-.35 2.2 2.2 0 0 1-.868-.644q-.321-.405-.322-1.022 0-.924.714-1.442t1.89-.518q1.162 0 1.876.532.729.518.938 1.47l-1.036.266q-.126-.742-.602-1.036-.475-.308-1.176-.308-.7 0-1.106.266-.405.252-.406.756 0 .49.378.728.393.224 1.036.336l.574.098q.729.125 1.302.35.588.21.924.616.35.405.35 1.064 0 1.008-.756 1.554-.742.546-2.002.546M74.898 29q-.588 0-.91-.322-.309-.322-.308-.882V23.12h-2.058v-.966h2.058v-2.436h1.106v2.436h2.24v.966h-2.24v4.508q0 .42.406.42h1.526V29z"/><g stroke="#d3d5cf" stroke-linecap="round" stroke-linejoin="round" stroke-width="1.5" clip-path="url(#a)"><path d="M112.5 24h11M119 19.5l4.5 4.5-4.5 4.5"/></g><rect width="208" height="37" x="142.5" y="5.5" fill="#ef422c" fill-opacity=".1" rx="3.5"/><rect width="208" height="37" x="142.5" y="5.5" stroke="#ef422c" rx="3.5"/><path fill="#080808" d="m160.114 29-1.596-9.8h1.176l1.386 9.044h.196l1.806-9.044h2.1l1.792 9.044h.196l1.386-9.044h1.176l-1.596 9.8h-2.1l-1.806-9.1h-.196l-1.806 9.1zm10.117 0 3.024-9.8h2.072l3.024 9.8h-1.218l-.756-2.478h-4.172L171.449 29zm2.268-3.542h3.57l-1.68-5.544h-.196zm7.32 3.542v-9.8h5.922v1.064h-4.746v3.29h4.368v1.064h-4.368V29zm10.036 2.8 4.116-12.6h1.106l-4.116 12.6zm13.146-2.604q-1.064 0-1.904-.378a3.03 3.03 0 0 1-1.33-1.134q-.476-.77-.476-1.918v-.294h1.162v.294q0 1.218.714 1.82.714.588 1.834.588 1.148 0 1.75-.518t.602-1.302q0-.546-.28-.868-.265-.322-.756-.518a7 7 0 0 0-1.148-.364l-.728-.182a8 8 0 0 1-1.512-.546 2.74 2.74 0 0 1-1.036-.84q-.364-.532-.364-1.358t.406-1.428q.42-.602 1.162-.924.756-.322 1.736-.322.994 0 1.778.35.798.336 1.246 1.008.462.658.462 1.666v.588h-1.162v-.588q0-.714-.308-1.148a1.74 1.74 0 0 0-.826-.644 3.2 3.2 0 0 0-1.19-.21q-.966 0-1.554.434-.588.42-.588 1.204 0 .517.252.84t.714.532q.462.195 1.106.35l.728.182q.854.182 1.526.504.685.308 1.092.854.406.532.406 1.4 0 .869-.434 1.512-.434.644-1.232 1.008-.785.35-1.848.35m5.324-.196v-9.8h1.176V29zm3.418 0v-9.8h6.034v1.064h-4.858v3.276h4.466v1.064h-4.466v3.332h4.928V29zm7.889 0v-9.8h2.24l2.604 9.058h.182l2.604-9.058h2.24V29h-1.134v-9.03h-.196l-2.59 9.03h-2.03l-2.59-9.03h-.196V29zm14.589 2.8 4.116-12.6h1.106l-4.116 12.6zm9.897-2.8v-9.8h2.24l2.604 9.058h.182l2.604-9.058h2.24V29h-1.134v-9.03h-.196l-2.59 9.03h-2.03l-2.59-9.03h-.196V29zm12.113 0v-9.8h1.176v8.736h4.956V29zm9.749 2.8 4.116-12.6h1.106l-4.116 12.6zm9.436-2.8v-1.05h1.372v-7.7h-1.372V19.2h3.822q1.932 0 2.982.98 1.064.98 1.064 3.01v1.82q0 2.044-1.064 3.024-1.05.966-2.982.966zm2.548-1.064h1.274q1.427 0 2.156-.7.728-.7.728-2.17v-1.918q0-1.498-.728-2.184-.729-.686-2.156-.686h-1.274zm10.375 1.26q-1.036 0-1.82-.434a3.13 3.13 0 0 1-1.218-1.246q-.434-.798-.434-1.848V25.5q0-1.064.434-1.862a3.06 3.06 0 0 1 1.204-1.232q.77-.448 1.764-.448.966 0 1.708.42.742.406 1.162 1.176t.42 1.806v.504h-5.586q.042 1.106.714 1.736.672.615 1.68.616.882 0 1.358-.406t.728-.966l.952.462a4 4 0 0 1-.588.868q-.365.434-.966.728-.588.294-1.512.294m-2.352-4.242h4.452q-.056-.953-.658-1.484-.588-.532-1.512-.532-.938 0-1.54.532-.602.533-.742 1.484M295.721 29q-.588 0-.91-.322-.308-.322-.308-.882V23.12h-2.058v-.966h2.058v-2.436h1.106v2.436h2.24v.966h-2.24v4.508q0 .42.406.42h1.526V29zm6.809.196q-1.035 0-1.82-.434a3.14 3.14 0 0 1-1.218-1.246q-.434-.798-.434-1.848V25.5q0-1.064.434-1.862.435-.798 1.204-1.232.771-.448 1.764-.448.966 0 1.708.42.742.406 1.162 1.176t.42 1.806v.504h-5.586q.042 1.106.714 1.736.672.615 1.68.616.882 0 1.358-.406t.728-.966l.952.462a4 4 0 0 1-.588.868q-.363.434-.966.728-.588.294-1.512.294m-2.352-4.242h4.452q-.055-.953-.658-1.484-.588-.532-1.512-.532-.937 0-1.54.532-.601.533-.742 1.484m10.652 4.242q-.994 0-1.792-.42-.784-.434-1.246-1.232-.448-.798-.448-1.89V25.5q0-1.105.448-1.89a3.1 3.1 0 0 1 1.246-1.218 3.7 3.7 0 0 1 1.792-.434q.98 0 1.666.364.699.364 1.092.966.405.601.518 1.288l-1.078.224a2.3 2.3 0 0 0-.336-.924 1.84 1.84 0 0 0-.714-.672q-.462-.252-1.134-.252-.687 0-1.232.308-.533.308-.854.882-.309.574-.308 1.372v.126q0 .799.308 1.372.321.575.854.882.546.308 1.232.308 1.022 0 1.554-.532.546-.532.672-1.316l1.092.238q-.155.672-.56 1.274-.407.602-1.106.966-.687.364-1.666.364m7.45-.196q-.589 0-.91-.322-.308-.322-.308-.882V23.12h-2.058v-.966h2.058v-2.436h1.106v2.436h2.24v.966h-2.24v4.508q0 .42.406.42h1.526V29zm6.837.196q-1.036 0-1.834-.434a3.15 3.15 0 0 1-1.232-1.218q-.434-.798-.434-1.876v-.182q0-1.065.434-1.862a3.13 3.13 0 0 1 1.232-1.232q.798-.434 1.834-.434t1.82.434q.798.434 1.232 1.232.448.798.448 1.862v.182q0 1.078-.448 1.876-.434.784-1.232 1.218-.784.435-1.82.434m0-.994q1.092 0 1.736-.686.658-.7.658-1.876v-.126q0-1.176-.658-1.862-.644-.7-1.736-.7-1.078 0-1.736.7-.658.686-.658 1.862v.126q0 1.176.658 1.876.658.686 1.736.686m5.49.798v-6.846h1.078v.84h.196a1.27 1.27 0 0 1 .56-.658q.378-.21.994-.21h.812v1.008h-.882q-.742 0-1.204.42-.447.405-.448 1.274V29z"/><g stroke="#d3d5cf" stroke-linecap="round" stroke-linejoin="round" stroke-width="1.5" clip-path="url(#b)"><path d="M369.5 24h11M376 19.5l4.5 4.5-4.5 4.5"/></g><rect width="168" height="37" x="399.5" y="5.5" fill="#20ca45" fill-opacity=".1" rx="3.5"/><rect width="168" height="37" x="399.5" y="5.5" stroke="#20ca45" rx="3.5"/><path fill="#080808" d="M418.192 29v-8.12h-2.856V19.2h7.56v1.68h-2.856V29zm5.962 0v-9.8h4.256q.924 0 1.61.322.687.322 1.064.91.378.588.378 1.386v.168q0 .882-.42 1.428t-1.036.798v.252q.56.029.868.392.309.35.308.938V29h-1.848v-2.94q0-.336-.182-.546-.168-.21-.574-.21h-2.576V29zm1.848-5.376h2.212q.659 0 1.022-.35.378-.364.378-.952v-.14q0-.588-.364-.938-.364-.364-1.036-.364h-2.212zM432.328 29l2.576-9.8h3.22L440.7 29h-1.904l-.532-2.156h-3.5L434.232 29zm2.87-3.864h2.632l-1.19-4.774h-.252zm10.317 4.06q-1.82 0-2.884-1.008-1.064-1.022-1.064-2.912v-2.352q0-1.89 1.064-2.898 1.065-1.022 2.884-1.022 1.806 0 2.786.994.994.98.994 2.702v.084h-1.82v-.14q0-.868-.49-1.428-.476-.56-1.47-.56-.98 0-1.54.602t-.56 1.638v2.408q0 1.021.56 1.638.56.602 1.54.602.995 0 1.47-.56.49-.575.49-1.428v-.252h1.82v.196q0 1.722-.994 2.716-.98.98-2.786.98m5.286-.196v-9.8h6.3v1.68h-4.452v2.338h4.06v1.68h-4.06v2.422h4.536V29zm7.752 0v-9.8h1.848v4.046h3.64V19.2h1.848V29h-1.848v-4.074h-3.64V29zm12.995.196q-1.848 0-2.94-1.008-1.092-1.022-1.092-2.912v-2.352q0-1.89 1.092-2.898 1.092-1.022 2.94-1.022t2.94 1.022q1.092 1.008 1.092 2.898v2.352q0 1.89-1.092 2.912-1.092 1.008-2.94 1.008m0-1.652q1.037 0 1.61-.602t.574-1.61v-2.464q0-1.008-.574-1.61-.573-.602-1.61-.602-1.022 0-1.61.602-.574.602-.574 1.61v2.464q0 1.008.574 1.61.588.602 1.61.602m9.433 1.652q-1.203 0-2.072-.434a3.18 3.18 0 0 1-1.316-1.26q-.447-.826-.448-1.946V19.2h1.848v6.412q0 .896.504 1.414.518.518 1.484.518t1.47-.518q.518-.518.518-1.414V19.2h1.848v6.356q0 1.12-.462 1.946a3.06 3.06 0 0 1-1.316 1.26q-.854.435-2.058.434m5.627-.196v-9.8h3.514l1.946 8.54h.252V19.2h1.82V29h-3.514l-1.946-8.54h-.252V29zm9.099 0v-1.624h1.288v-6.552h-1.288V19.2h4.032q1.974 0 2.996 1.008 1.036.994 1.036 2.968v1.848q0 1.974-1.036 2.982-1.023.994-2.996.994zm3.136-1.68h.924q1.119 0 1.638-.588t.518-1.652v-1.96q0-1.079-.518-1.652-.519-.588-1.638-.588h-.924zm9.186 1.68 2.576-9.8h3.22l2.576 9.8h-1.904l-.532-2.156h-3.5L509.933 29zm2.87-3.864h2.632l-1.19-4.774h-.252zm9.981 4.06q-1.008 0-1.834-.448a3.44 3.44 0 0 1-1.302-1.33q-.476-.882-.476-2.142v-2.352q0-1.89 1.064-2.898 1.065-1.022 2.884-1.022 1.806 0 2.786.966.994.952.994 2.59v.056h-1.82v-.112q0-.518-.224-.938-.21-.42-.644-.658-.434-.252-1.092-.252-.98 0-1.54.602t-.56 1.638v2.408q0 1.022.56 1.652.56.615 1.568.616 1.008 0 1.47-.532t.462-1.344v-.14h-2.324v-1.568h4.144V29h-1.708v-.938h-.252a2 2 0 0 1-.322.504q-.21.266-.644.448t-1.19.182m5.882-.196v-9.8h6.3v1.68h-4.452v2.338h4.06v1.68h-4.06v2.422h4.536V29zm7.752 0v-9.8h3.514l1.946 8.54h.252V19.2h1.82V29h-3.514l-1.946-8.54h-.252V29zm11.647 0v-8.12h-2.856V19.2h7.56v1.68h-2.856V29z"/><g stroke="#d3d5cf" stroke-linecap="round" stroke-linejoin="round" stroke-width="1.5" clip-path="url(#c)"><path d="M586.5 24h11M593 19.5l4.5 4.5-4.5 4.5"/></g><rect width="98" height="37" x="616.5" y="5.5" fill="#ef422c" fill-opacity=".1" rx="3.5"/><rect width="98" height="37" x="616.5" y="5.5" stroke="#ef422c" rx="3.5"/><path fill="#080808" d="M633.12 29v-9.8h3.962q.91 0 1.596.322.7.308 1.092.896.392.575.392 1.386v.154q0 .966-.462 1.526a2.3 2.3 0 0 1-1.092.756v.196q.504.014.826.336.336.308.336.938V29h-1.162v-3.15q0-.42-.238-.644-.224-.224-.686-.224h-3.388V29zm1.176-5.082h2.674q.966 0 1.484-.462.532-.476.532-1.316v-.098q0-.84-.518-1.302-.518-.476-1.498-.476h-2.674zm10.834 5.278q-1.036 0-1.82-.434a3.13 3.13 0 0 1-1.218-1.246q-.434-.798-.434-1.848V25.5q0-1.064.434-1.862a3.06 3.06 0 0 1 1.204-1.232q.77-.448 1.764-.448.966 0 1.708.42.742.406 1.162 1.176t.42 1.806v.504h-5.586q.042 1.106.714 1.736.672.615 1.68.616.882 0 1.358-.406t.728-.966l.952.462a4 4 0 0 1-.588.868q-.365.434-.966.728-.588.294-1.512.294m-2.352-4.242h4.452q-.056-.953-.658-1.484-.588-.532-1.512-.532-.938 0-1.54.532-.602.533-.742 1.484m10.259 4.242q-1.274 0-2.156-.588-.867-.588-1.05-1.862l1.05-.238q.113.672.42 1.064.309.378.756.546.462.154.98.154.771 0 1.218-.308.448-.307.448-.826 0-.532-.434-.742-.42-.224-1.162-.364l-.574-.098a5.2 5.2 0 0 1-1.204-.35 2.2 2.2 0 0 1-.868-.644q-.322-.405-.322-1.022 0-.924.714-1.442t1.89-.518q1.162 0 1.876.532.729.518.938 1.47l-1.036.266q-.125-.742-.602-1.036-.475-.308-1.176-.308-.7 0-1.106.266-.405.252-.406.756 0 .49.378.728.393.224 1.036.336l.574.098q.729.125 1.302.35.588.21.924.616.35.405.35 1.064 0 1.008-.756 1.554-.742.546-2.002.546m4.625 2.604v-9.646h1.078v1.134h.196q.266-.517.854-.924.602-.405 1.666-.406.882 0 1.61.434.742.42 1.176 1.204.448.784.448 1.89v.182q0 1.092-.434 1.89a3 3 0 0 1-1.176 1.218 3.2 3.2 0 0 1-1.624.42q-.714 0-1.218-.196a2.3 2.3 0 0 1-.798-.476 2.5 2.5 0 0 1-.476-.602h-.196V31.8zm3.5-3.584q1.063 0 1.722-.672.672-.686.672-1.904v-.126q0-1.218-.672-1.89-.659-.686-1.722-.686-1.05 0-1.736.686-.672.672-.672 1.89v.126q0 1.218.672 1.904.686.672 1.736.672m8.674.98q-1.036 0-1.834-.434a3.15 3.15 0 0 1-1.232-1.218q-.434-.798-.434-1.876v-.182q0-1.065.434-1.862a3.1 3.1 0 0 1 1.232-1.232q.798-.434 1.834-.434 1.035 0 1.82.434.798.434 1.232 1.232.447.798.448 1.862v.182q0 1.078-.448 1.876-.434.784-1.232 1.218-.785.435-1.82.434m0-.994q1.091 0 1.736-.686.658-.7.658-1.876v-.126q0-1.176-.658-1.862-.644-.7-1.736-.7-1.079 0-1.736.7-.658.686-.658 1.862v.126q0 1.176.658 1.876.657.686 1.736.686m5.49.798v-6.846h1.078v1.162h.196q.223-.49.756-.882.546-.405 1.596-.406.77 0 1.372.322.616.322.98.952t.364 1.554V29h-1.106v-4.06q0-1.022-.518-1.484-.504-.462-1.372-.462-.994 0-1.624.644-.616.645-.616 1.918V29zm11.344.196q-1.274 0-2.156-.588-.868-.588-1.05-1.862l1.05-.238q.113.672.42 1.064.307.378.756.546.462.154.98.154.77 0 1.218-.308.448-.307.448-.826 0-.532-.434-.742-.42-.224-1.162-.364l-.574-.098a5.2 5.2 0 0 1-1.204-.35 2.2 2.2 0 0 1-.868-.644q-.322-.405-.322-1.022 0-.924.714-1.442t1.89-.518q1.162 0 1.876.532.728.518.938 1.47l-1.036.266q-.126-.742-.602-1.036-.475-.308-1.176-.308-.7 0-1.106.266-.406.252-.406.756 0 .49.378.728.392.224 1.036.336l.574.098q.728.125 1.302.35.588.21.924.616.35.405.35 1.064 0 1.008-.756 1.554-.742.546-2.002.546m7.761 0q-1.037 0-1.82-.434a3.13 3.13 0 0 1-1.218-1.246q-.434-.798-.434-1.848V25.5q0-1.064.434-1.862.433-.798 1.204-1.232.77-.448 1.764-.448.966 0 1.708.42.741.406 1.162 1.176t.42 1.806v.504h-5.586q.042 1.106.714 1.736.672.615 1.68.616.881 0 1.358-.406.476-.406.728-.966l.952.462a4 4 0 0 1-.588.868q-.365.434-.966.728-.588.294-1.512.294m-2.352-4.242h4.452q-.057-.953-.658-1.484-.588-.532-1.512-.532-.939 0-1.54.532-.603.533-.742 1.484"/><rect width="199" height="59" x="260.5" y="107.5" fill="#ef422c" fill-opacity=".1" rx="3.5"/><rect width="199" height="59" x="260.5" y="107.5" stroke="#ef422c" rx="3.5"/><path fill="#ef422c" d="M322.855 133.196q-1.848 0-2.94-1.008-1.092-1.022-1.092-2.912v-2.352q0-1.89 1.092-2.898 1.092-1.022 2.94-1.022t2.94 1.022q1.092 1.008 1.092 2.898v2.352q0 1.89-1.092 2.912-1.092 1.008-2.94 1.008m0-1.652q1.036 0 1.61-.602t.574-1.61v-2.464q0-1.008-.574-1.61t-1.61-.602q-1.022 0-1.61.602-.574.602-.574 1.61v2.464q0 1.008.574 1.61.588.602 1.61.602m.644 3.976q-.686 0-1.12-.434-.42-.42-.42-1.134V133h1.792v.672q0 .42.392.42h.826v1.428zm8.789-2.324q-1.204 0-2.072-.434a3.2 3.2 0 0 1-1.316-1.26q-.448-.826-.448-1.946V123.2h1.848v6.412q0 .896.504 1.414.518.518 1.484.518t1.47-.518q.518-.518.518-1.414V123.2h1.848v6.356q0 1.12-.462 1.946a3.07 3.07 0 0 1-1.316 1.26q-.854.434-2.058.434m4.818-.196 2.576-9.8h3.22l2.576 9.8h-1.904l-.532-2.156h-3.5L339.01 133zm2.87-3.864h2.632l-1.19-4.774h-.252zm6.675 3.864v-9.8h4.256q.923 0 1.61.322a2.5 2.5 0 0 1 1.064.91q.378.588.378 1.386v.168q0 .882-.42 1.428t-1.036.798v.252q.56.028.868.392.308.35.308.938V133h-1.848v-2.94a.8.8 0 0 0-.182-.546q-.168-.21-.574-.21h-2.576V133zm1.848-5.376h2.212q.657 0 1.022-.35.378-.364.378-.952v-.14q0-.588-.364-.938-.364-.364-1.036-.364h-2.212zm6.325 5.376 2.576-9.8h3.22l2.576 9.8h-1.904l-.532-2.156h-3.5l-.532 2.156zm2.87-3.864h2.632l-1.19-4.774h-.252zm6.675 3.864v-9.8h3.514l1.946 8.54h.252v-8.54h1.82v9.8h-3.514l-1.946-8.54h-.252V133zm11.647 0v-8.12h-2.856v-1.68h7.56v1.68h-2.856V133zm5.963 0v-9.8h1.848v9.8zm3.691 0v-9.8h3.514l1.946 8.54h.252v-8.54h1.82v9.8h-3.514l-1.946-8.54h-.252V133zm9.379 0v-9.8h6.3v1.68h-4.452v2.338h4.06v1.68h-4.06v2.422h4.536V133z"/><path fill="#080808" d="M306.514 154.29q-1.344 0-2.324-.476-.966-.476-1.484-1.498-.519-1.008-.518-2.618v-4.536q0-1.624.518-2.632t1.484-1.484q.98-.476 2.324-.476v.966q-1.666.014-2.464.924-.798.895-.798 2.772v4.396q0 1.861.798 2.772t2.464.924zm1.258-3.29v-9.8h6.034v1.064h-4.858v3.276h4.466v1.064h-4.466v3.332h4.928V151zm9.667 0-2.45-6.846h1.176l2.058 6.02h.196l2.058-6.02h1.176l-2.45 6.846zm5.811 0v-6.846h1.106V151zm.56-7.91a.86.86 0 0 1-.616-.238.82.82 0 0 1-.238-.602q0-.378.238-.616a.86.86 0 0 1 .616-.238q.364 0 .602.238a.83.83 0 0 1 .238.616.815.815 0 0 1-.84.84m5.77 8.106q-.882 0-1.624-.42a3 3 0 0 1-1.176-1.218q-.435-.798-.434-1.89v-.182q0-1.092.434-1.876a3.04 3.04 0 0 1 1.162-1.218 3.2 3.2 0 0 1 1.638-.434q.714 0 1.204.196.504.182.812.476.308.28.476.602h.196V141.2h1.106v9.8h-1.078v-1.134h-.196q-.28.518-.868.924t-1.652.406m.294-.98q1.063 0 1.722-.672.672-.686.672-1.904v-.126q0-1.218-.672-1.89-.659-.686-1.722-.686-1.05 0-1.736.686-.672.672-.672 1.89v.126q0 1.218.672 1.904.686.672 1.736.672m8.953.98q-1.035 0-1.82-.434a3.14 3.14 0 0 1-1.218-1.246q-.434-.798-.434-1.848v-.168q0-1.064.434-1.862.435-.798 1.204-1.232.771-.448 1.764-.448.966 0 1.708.42a2.9 2.9 0 0 1 1.162 1.176q.42.77.42 1.806v.504h-5.586q.042 1.106.714 1.736.672.616 1.68.616.882 0 1.358-.406t.728-.966l.952.462a4 4 0 0 1-.588.868 2.9 2.9 0 0 1-.966.728q-.588.294-1.512.294m-2.352-4.242h4.452q-.055-.952-.658-1.484-.588-.532-1.512-.532-.937 0-1.54.532-.601.532-.742 1.484m7.501 4.046v-6.846h1.078v1.162h.196q.225-.49.756-.882.546-.406 1.596-.406.77 0 1.372.322a2.4 2.4 0 0 1 .98.952q.364.63.364 1.554V151h-1.106v-4.06q0-1.022-.518-1.484-.504-.462-1.372-.462-.993 0-1.624.644-.615.644-.616 1.918V151zm11.736.196a3.8 3.8 0 0 1-1.792-.42 3.23 3.23 0 0 1-1.246-1.232q-.447-.798-.448-1.89v-.154q0-1.106.448-1.89a3.13 3.13 0 0 1 1.246-1.218 3.7 3.7 0 0 1 1.792-.434q.98 0 1.666.364.7.364 1.092.966.407.602.518 1.288l-1.078.224a2.3 2.3 0 0 0-.336-.924 1.84 1.84 0 0 0-.714-.672q-.462-.252-1.134-.252-.686 0-1.232.308a2.3 2.3 0 0 0-.854.882q-.308.574-.308 1.372v.126q0 .798.308 1.372.323.575.854.882.546.308 1.232.308 1.023 0 1.554-.532.546-.532.672-1.316l1.092.238a3.8 3.8 0 0 1-.56 1.274q-.405.602-1.106.966-.685.364-1.666.364m8.354 0q-1.037 0-1.82-.434a3.13 3.13 0 0 1-1.218-1.246q-.435-.798-.434-1.848v-.168q0-1.064.434-1.862.433-.798 1.204-1.232.77-.448 1.764-.448.966 0 1.708.42.742.406 1.162 1.176t.42 1.806v.504H361.7q.042 1.106.714 1.736.672.616 1.68.616.882 0 1.358-.406t.728-.966l.952.462a4 4 0 0 1-.588.868 2.9 2.9 0 0 1-.966.728q-.588.294-1.512.294m-2.352-4.242h4.452q-.057-.952-.658-1.484-.588-.532-1.512-.532-.939 0-1.54.532-.603.532-.742 1.484M372.306 151v-1.05h1.372v-7.7h-1.372v-1.05h4.914q.855 0 1.512.308a2.4 2.4 0 0 1 1.036.868q.378.546.378 1.288v.112q0 .686-.266 1.134a2.2 2.2 0 0 1-.63.686 3 3 0 0 1-.714.35v.196q.35.084.728.336.378.238.63.686.266.448.266 1.134v.14q0 .798-.392 1.386a2.44 2.44 0 0 1-1.05.882q-.657.294-1.512.294zm2.548-1.064h2.226q.925 0 1.414-.434.49-.434.49-1.176v-.126q0-.743-.49-1.176-.49-.434-1.414-.434h-2.226zm0-4.41h2.268q.84 0 1.344-.42.504-.433.504-1.134v-.14q0-.714-.504-1.134-.489-.434-1.344-.434h-2.268zm9.83 5.6q-.742 0-1.372-.322a2.4 2.4 0 0 1-.98-.952q-.35-.643-.35-1.554v-4.144h1.106v4.06q0 1.022.504 1.484.519.462 1.386.462.98 0 1.61-.644t.63-1.918v-3.444h1.106V151h-1.078v-1.162h-.196q-.224.49-.77.896-.546.392-1.596.392m7.299-.126v-5.88h-2.1v-.966h2.1v-1.75q0-.56.308-.882.321-.322.91-.322h1.722v.952h-1.414q-.42 0-.42.42v1.582h1.722v.966h-1.722V151zm4.508 0v-5.88h-1.68v-.966h1.68v-1.75q0-.56.308-.882.321-.322.91-.322h1.722v.952h-1.428q-.406 0-.406.42v1.582h2.156v.966h-2.156V151zm7.62.196q-1.037 0-1.82-.434a3.13 3.13 0 0 1-1.218-1.246q-.434-.798-.434-1.848v-.168q0-1.064.434-1.862.433-.798 1.204-1.232.77-.448 1.764-.448.966 0 1.708.42.742.406 1.162 1.176t.42 1.806v.504h-5.586q.042 1.106.714 1.736.672.616 1.68.616.881 0 1.358-.406.476-.406.728-.966l.952.462a4 4 0 0 1-.588.868 2.9 2.9 0 0 1-.966.728q-.588.294-1.512.294m-2.352-4.242h4.452q-.057-.952-.658-1.484-.588-.532-1.512-.532-.939 0-1.54.532-.603.532-.742 1.484M409.26 151v-6.846h1.078v.84h.196q.182-.448.56-.658t.994-.21h.812v1.008h-.882q-.742 0-1.204.42-.448.406-.448 1.274V151zm4.213 3.29v-.966q1.694-.014 2.478-.924t.784-2.772v-4.396q0-1.877-.784-2.772-.784-.91-2.478-.924v-.966q1.358 0 2.324.476t1.484 1.484q.532 1.008.532 2.632v4.536q0 1.61-.532 2.618-.518 1.022-1.484 1.498t-2.324.476"/><g stroke="#d3d5cf" stroke-linecap="round" stroke-linejoin="round" stroke-width="1.5" clip-path="url(#d)"><path d="m481.5 133-4.5 4 4.5 4M486.5 133l4.5 4-4.5 4"/></g><rect width="199" height="59" x="508.5" y="107.5" fill="#20ca45" fill-opacity=".1" rx="3.5"/><rect width="199" height="59" x="508.5" y="107.5" stroke="#20ca45" rx="3.5"/><path fill="#20ca45" d="m566.922 133 2.576-9.8h3.22l2.576 9.8h-1.904l-.532-2.156h-3.5l-.532 2.156zm2.87-3.864h2.632l-1.19-4.774h-.252zm10.318 4.06q-1.203 0-2.072-.434a3.2 3.2 0 0 1-1.316-1.26q-.447-.826-.448-1.946V123.2h1.848v6.412q0 .896.504 1.414.519.518 1.484.518.966 0 1.47-.518.519-.518.518-1.414V123.2h1.848v6.356q0 1.12-.462 1.946a3.07 3.07 0 0 1-1.316 1.26q-.854.434-2.058.434m5.347-.196v-1.624h1.288v-6.552h-1.288V123.2h4.032q1.974 0 2.996 1.008 1.035.994 1.036 2.968v1.848q0 1.974-1.036 2.982-1.022.994-2.996.994zm3.136-1.68h.924q1.119 0 1.638-.588t.518-1.652v-1.96q0-1.078-.518-1.652-.519-.588-1.638-.588h-.924zm6.468 1.68v-9.8h1.848v9.8zm5.959 0v-8.12h-2.856v-1.68h7.56v1.68h-2.856V133zm12.817.196q-1.82 0-2.884-1.008-1.064-1.022-1.064-2.912v-2.352q0-1.89 1.064-2.898 1.065-1.022 2.884-1.022 1.806 0 2.786.994.994.98.994 2.702v.084h-1.82v-.14q0-.868-.49-1.428-.476-.56-1.47-.56-.98 0-1.54.602t-.56 1.638v2.408q0 1.022.56 1.638.56.602 1.54.602.995 0 1.47-.56.49-.575.49-1.428v-.252h1.82v.196q0 1.722-.994 2.716-.98.98-2.786.98m5.286-.196v-9.8h1.848v4.046h3.64V123.2h1.848v9.8h-1.848v-4.074h-3.64V133zm8.516 0 2.576-9.8h3.22l2.576 9.8h-1.904l-.532-2.156h-3.5l-.532 2.156zm2.87-3.864h2.632l-1.19-4.774h-.252zm6.675 3.864v-9.8h1.848v9.8zm3.691 0v-9.8h3.514l1.946 8.54h.252v-8.54h1.82v9.8h-3.514l-1.946-8.54h-.252V133z"/><path fill="#080808" d="M554.117 154.29q-1.343 0-2.324-.476-.966-.476-1.484-1.498-.518-1.008-.518-2.618v-4.536q0-1.624.518-2.632.519-1.008 1.484-1.484.98-.476 2.324-.476v.966q-1.666.014-2.464.924-.798.895-.798 2.772v4.396q0 1.861.798 2.772.799.91 2.464.924zm1.259-3.29v-9.8h2.24l2.604 9.058h.182l2.604-9.058h2.24v9.8h-1.134v-9.03h-.196l-2.59 9.03h-2.03l-2.59-9.03h-.196V151zm15.291.196q-1.036 0-1.82-.434a3.13 3.13 0 0 1-1.218-1.246q-.434-.798-.434-1.848v-.168q0-1.064.434-1.862a3.06 3.06 0 0 1 1.204-1.232q.77-.448 1.764-.448.966 0 1.708.42a2.9 2.9 0 0 1 1.162 1.176q.42.77.42 1.806v.504h-5.586q.042 1.106.714 1.736.672.616 1.68.616.882 0 1.358-.406t.728-.966l.952.462a4 4 0 0 1-.588.868 2.9 2.9 0 0 1-.966.728q-.588.294-1.512.294m-2.352-4.242h4.452q-.056-.952-.658-1.484-.588-.532-1.512-.532-.938 0-1.54.532t-.742 1.484m7.501 4.046v-6.846h1.078v.84h.196q.182-.448.56-.658t.994-.21h.812v1.008h-.882q-.741 0-1.204.42-.447.406-.448 1.274V151zm5.278 0v-9.8h1.106v5.768h.196l3.136-2.814h1.54l-3.794 3.332 3.906 3.514h-1.526l-3.262-2.982h-.196V151zm7.533 0v-9.8h1.106v9.8zm6.567.196q-1.035 0-1.82-.434a3.14 3.14 0 0 1-1.218-1.246q-.434-.798-.434-1.848v-.168q0-1.064.434-1.862.435-.798 1.204-1.232.771-.448 1.764-.448.966 0 1.708.42a2.9 2.9 0 0 1 1.162 1.176q.42.77.42 1.806v.504h-5.586q.042 1.106.714 1.736.672.616 1.68.616.882 0 1.358-.406t.728-.966l.952.462a4 4 0 0 1-.588.868 2.9 2.9 0 0 1-.966.728q-.588.294-1.512.294m-2.352-4.242h4.452q-.055-.952-.658-1.484-.588-.532-1.512-.532-.937 0-1.54.532-.601.532-.742 1.484M603.897 151v-9.8h1.176v9.8zm3.46 0v-6.846h1.078v1.162h.196q.225-.49.756-.882.546-.406 1.596-.406.77 0 1.372.322a2.4 2.4 0 0 1 .98.952q.364.63.364 1.554V151h-1.106v-4.06q0-1.022-.518-1.484-.504-.462-1.372-.462-.994 0-1.624.644-.615.644-.616 1.918V151zm10.915 0q-.588 0-.91-.322-.308-.322-.308-.882v-4.676h-2.058v-.966h2.058v-2.436h1.106v2.436h2.24v.966h-2.24v4.508q0 .42.406.42h1.526V151zm6.809.196q-1.035 0-1.82-.434a3.14 3.14 0 0 1-1.218-1.246q-.434-.798-.434-1.848v-.168q0-1.064.434-1.862.435-.798 1.204-1.232.771-.448 1.764-.448.966 0 1.708.42a2.9 2.9 0 0 1 1.162 1.176q.42.77.42 1.806v.504h-5.586q.042 1.106.714 1.736.672.616 1.68.616.882 0 1.358-.406t.728-.966l.952.462a4 4 0 0 1-.588.868 2.9 2.9 0 0 1-.966.728q-.588.294-1.512.294m-2.352-4.242h4.452q-.055-.952-.658-1.484-.588-.532-1.512-.532-.937 0-1.54.532-.601.532-.742 1.484m7.165.658v-.196q0-1.079.434-1.848.435-.77 1.176-1.19a3.24 3.24 0 0 1 1.624-.42q1.079 0 1.652.42.589.406.868.91h.196v-1.134h1.05v8.442q0 .56-.308.882t-.896.322h-4.648v-.98h4.354q.42 0 .42-.42v-2.604h-.196q-.167.308-.476.602a2.5 2.5 0 0 1-.798.49q-.489.182-1.218.182-.882 0-1.624-.42a3.1 3.1 0 0 1-1.176-1.19q-.434-.785-.434-1.848m3.528 2.478q1.065 0 1.722-.672.672-.672.672-1.848v-.112q0-1.19-.672-1.848-.657-.672-1.722-.672-1.05 0-1.736.672-.672.659-.672 1.848v.112q0 1.176.672 1.848.686.672 1.736.672m5.791.91v-6.846h1.078v.84h.196q.182-.448.56-.658t.994-.21h.812v1.008h-.882q-.742 0-1.204.42-.448.406-.448 1.274V151zm5.277 0v-6.846h1.106V151zm.56-7.91a.86.86 0 0 1-.616-.238.82.82 0 0 1-.238-.602q0-.378.238-.616a.86.86 0 0 1 .616-.238q.364 0 .602.238a.83.83 0 0 1 .238.616.815.815 0 0 1-.84.84m5.392 7.91q-.589 0-.91-.322-.309-.322-.308-.882v-4.676h-2.058v-.966h2.058v-2.436h1.106v2.436h2.24v.966h-2.24v4.508q0 .42.406.42h1.526V151zm4.745 2.8v-.98h3.92q.406 0 .406-.42v-2.492h-.196a2.129 2.129 0 0 1-1.176 1.05q-.462.168-1.162.168-.742 0-1.372-.322a2.4 2.4 0 0 1-.98-.952q-.35-.63-.35-1.54v-4.158h1.106v4.074q0 1.008.504 1.47.519.462 1.386.462.98 0 1.61-.644t.63-1.918v-3.444h1.106v8.442q0 .56-.322.882-.307.322-.91.322zm6.682.49v-.966q1.695-.014 2.478-.924t.784-2.772v-4.396q0-1.877-.784-2.772-.783-.91-2.478-.924v-.966q1.358 0 2.324.476t1.484 1.484q.532 1.008.532 2.632v4.536q0 1.61-.532 2.618-.518 1.022-1.484 1.498t-2.324.476"/><g stroke="#d3d5cf" stroke-linecap="round" stroke-linejoin="round" stroke-width="1.5" clip-path="url(#e)"><path d="m482 78.5-2 2-2-2M490 78.5l-2 2-2-2"/><path d="M484 68.5v3l-4 4v5M484 71.5l4 4v5"/></g><g stroke="#d3d5cf" stroke-linecap="round" stroke-linejoin="round" stroke-width="1.5" clip-path="url(#f)"><path d="M484 193.5v11M479.5 200l4.5 4.5 4.5-4.5"/></g><rect width="119" height="37" x="424.5" y="231.5" fill="#d3d5cf" fill-opacity=".1" rx="3.5"/><rect width="119" height="37" x="424.5" y="231.5" stroke="#d3d5cf" stroke-dasharray="2 2" rx="3.5"/><path fill="#080808" d="M444.662 255.196q-1.75 0-2.786-1.008-1.036-1.022-1.036-2.968v-2.24q0-1.946 1.036-2.954 1.036-1.022 2.786-1.022 1.736 0 2.66.966.938.966.938 2.646v.07h-1.162v-.112q0-1.106-.602-1.806-.588-.714-1.834-.714t-1.946.77q-.7.756-.7 2.128v2.296q0 1.373.7 2.142.7.756 1.946.756t1.834-.7q.602-.714.602-1.82v-.224h1.162v.182q0 1.68-.938 2.646-.924.966-2.66.966m8.646 0q-1.035 0-1.834-.434a3.16 3.16 0 0 1-1.232-1.218q-.434-.798-.434-1.876v-.182q0-1.064.434-1.862.449-.798 1.232-1.232.799-.434 1.834-.434 1.037 0 1.82.434.798.434 1.232 1.232.448.798.448 1.862v.182q0 1.078-.448 1.876a3.03 3.03 0 0 1-1.232 1.218q-.783.434-1.82.434m0-.994q1.092 0 1.736-.686.658-.7.658-1.876v-.126q0-1.176-.658-1.862-.644-.7-1.736-.7-1.077 0-1.736.7-.658.686-.658 1.862v.126q0 1.176.658 1.876.659.686 1.736.686m5.491.798v-9.8h1.106v9.8zm6.329.196q-.882 0-1.624-.42a3.03 3.03 0 0 1-1.176-1.218q-.434-.798-.434-1.89v-.182q0-1.092.434-1.876.435-.798 1.162-1.218a3.2 3.2 0 0 1 1.638-.434q.714 0 1.204.196.504.182.812.476.308.28.476.602h.196V245.2h1.106v9.8h-1.078v-1.134h-.196q-.28.518-.868.924-.587.406-1.652.406m.294-.98q1.065 0 1.722-.672.672-.686.672-1.904v-.126q0-1.218-.672-1.89-.657-.686-1.722-.686-1.05 0-1.736.686-.672.672-.672 1.89v.126q0 1.218.672 1.904.687.672 1.736.672m12.62.98q-1.064 0-1.904-.378a3.03 3.03 0 0 1-1.33-1.134q-.476-.77-.476-1.918v-.294h1.162v.294q0 1.218.714 1.82.714.588 1.834.588 1.148 0 1.75-.518.602-.517.602-1.302 0-.546-.28-.868-.265-.322-.756-.518a7 7 0 0 0-1.148-.364l-.728-.182a8 8 0 0 1-1.512-.546 2.75 2.75 0 0 1-1.036-.84q-.364-.532-.364-1.358t.406-1.428a2.7 2.7 0 0 1 1.162-.924q.756-.322 1.736-.322.994 0 1.778.35.798.336 1.246 1.008.462.658.462 1.666v.588h-1.162v-.588q0-.714-.308-1.148a1.74 1.74 0 0 0-.826-.644 3.2 3.2 0 0 0-1.19-.21q-.966 0-1.554.434-.588.42-.588 1.204 0 .517.252.84t.714.532q.462.196 1.106.35l.728.182a6.8 6.8 0 0 1 1.526.504q.686.308 1.092.854.406.532.406 1.4 0 .869-.434 1.512t-1.232 1.008q-.784.35-1.848.35m7.886-.196q-.588 0-.91-.322-.308-.322-.308-.882v-4.676h-2.058v-.966h2.058v-2.436h1.106v2.436h2.24v.966h-2.24v4.508q0 .42.406.42h1.526V255zm6.837.196q-1.036 0-1.834-.434a3.16 3.16 0 0 1-1.232-1.218q-.434-.798-.434-1.876v-.182q0-1.064.434-1.862.449-.798 1.232-1.232.798-.434 1.834-.434t1.82.434q.798.434 1.232 1.232.448.798.448 1.862v.182q0 1.078-.448 1.876a3.03 3.03 0 0 1-1.232 1.218q-.783.434-1.82.434m0-.994q1.092 0 1.736-.686.658-.7.658-1.876v-.126q0-1.176-.658-1.862-.644-.7-1.736-.7-1.077 0-1.736.7-.658.686-.658 1.862v.126q0 1.176.658 1.876.659.686 1.736.686m5.491.798v-6.846h1.078v.84h.196q.182-.448.56-.658t.994-.21h.812v1.008h-.882q-.742 0-1.204.42-.448.406-.448 1.274V255zm7.145.196q-.714 0-1.302-.252a2.13 2.13 0 0 1-.924-.728q-.336-.476-.336-1.162 0-.7.336-1.148a2 2 0 0 1 .924-.686 3.5 3.5 0 0 1 1.316-.238h2.31v-.504q0-.728-.434-1.148-.42-.42-1.26-.42-.826 0-1.288.406-.462.392-.63 1.064l-1.036-.336q.168-.574.532-1.036.363-.476.966-.756.615-.294 1.47-.294 1.315 0 2.044.686.728.672.728 1.904v3.094q0 .42.392.42h.63V255h-.966q-.463 0-.742-.252-.28-.266-.28-.7v-.07h-.168a3.4 3.4 0 0 1-.42.56 1.9 1.9 0 0 1-.7.462q-.448.196-1.162.196m.126-.952q.98 0 1.582-.574.616-.588.616-1.638v-.154h-2.268q-.659 0-1.092.294-.42.28-.42.854t.434.896q.447.322 1.148.322m5.299-2.632v-.196q0-1.079.434-1.848.433-.77 1.176-1.19a3.24 3.24 0 0 1 1.624-.42q1.078 0 1.652.42.588.406.868.91h.196v-1.134h1.05v8.442q0 .56-.308.882t-.896.322h-4.648v-.98h4.354q.42 0 .42-.42v-2.604h-.196a2.5 2.5 0 0 1-.476.602 2.5 2.5 0 0 1-.798.49q-.49.182-1.218.182-.882 0-1.624-.42a3.07 3.07 0 0 1-1.176-1.19q-.434-.785-.434-1.848m3.528 2.478q1.063 0 1.722-.672.672-.672.672-1.848v-.112q0-1.19-.672-1.848-.659-.672-1.722-.672-1.05 0-1.736.672-.672.659-.672 1.848v.112q0 1.176.672 1.848.686.672 1.736.672m8.926 1.106q-1.035 0-1.82-.434a3.14 3.14 0 0 1-1.218-1.246q-.434-.798-.434-1.848v-.168q0-1.064.434-1.862.435-.798 1.204-1.232.771-.448 1.764-.448.966 0 1.708.42a2.9 2.9 0 0 1 1.162 1.176q.42.77.42 1.806v.504h-5.586q.042 1.106.714 1.736.672.616 1.68.616.882 0 1.358-.406t.728-.966l.952.462a4 4 0 0 1-.588.868 2.9 2.9 0 0 1-.966.728q-.588.294-1.512.294m-2.352-4.242h4.452q-.055-.952-.658-1.484-.588-.532-1.512-.532-.937 0-1.54.532-.601.532-.742 1.484"/><defs><clipPath id="a"><path fill="#fff" d="M110 16h16v16h-16z"/></clipPath><clipPath id="b"><path fill="#fff" d="M367 16h16v16h-16z"/></clipPath><clipPath id="c"><path fill="#fff" d="M584 16h16v16h-16z"/></clipPath><clipPath id="d"><path fill="#fff" d="M476 129h16v16h-16z"/></clipPath><clipPath id="e"><path fill="#fff" d="M476 67h16v16h-16z"/></clipPath><clipPath id="f"><path fill="#fff" d="M476 191h16v16h-16z"/></clipPath></defs></svg>
