<svg xmlns="http://www.w3.org/2000/svg" width="544" height="449" fill="none"><rect width="90" height="37" x="5.5" y="5.5" fill="#fff" rx="3.5"/><rect width="90" height="37" x="5.5" y="5.5" stroke="#d3d5cf" rx="3.5"/><path fill="#080808" d="M22.288 29V18.78h3.164q.91 0 1.596.378.686.364 1.064 1.022t.378 1.54q0 1.035-.546 1.778-.532.742-1.456 1.022L28.63 29h-1.484l-1.96-4.34h-1.638V29zm1.26-5.474h1.904q.785 0 1.26-.49.476-.504.476-1.316 0-.826-.476-1.316-.475-.49-1.26-.49h-1.904zm10.046 5.614q-.909 0-1.596-.364a2.63 2.63 0 0 1-1.05-1.022q-.363-.672-.364-1.554v-2.1q0-.895.364-1.554.379-.659 1.05-1.022.687-.364 1.596-.364.91 0 1.582.364a2.5 2.5 0 0 1 1.05 1.022q.379.659.379 1.554v1.358h-4.788v.742q0 .91.462 1.4.461.476 1.315.476.729 0 1.176-.252.45-.266.546-.784h1.26q-.125.966-.952 1.54-.811.56-2.03.56m1.779-4.522V24.1q0-.91-.462-1.4-.45-.49-1.317-.49-.854 0-1.315.49-.463.49-.463 1.4v.406h3.655zm8.268 6.902v-2.24l.028-1.75h-.28l.252-.294q0 .868-.574 1.386t-1.526.518q-1.162 0-1.848-.77-.672-.77-.672-2.1v-2.254q0-1.33.686-2.086.686-.77 1.834-.77.952 0 1.526.518.574.504.574 1.386l-.252-.294h.252V21.3h1.26v10.22zm-1.68-3.472q.784 0 1.232-.49t.448-1.358v-2.1q0-.868-.448-1.358-.449-.49-1.232-.49-.798 0-1.246.476-.434.476-.434 1.372v2.1q0 .896.434 1.372.448.476 1.246.476m8.409 1.092q-1.33 0-2.128-.784-.798-.797-.798-2.156v-4.9h1.26v4.9q0 .868.448 1.358.447.476 1.218.476.783 0 1.232-.476.462-.49.462-1.358v-4.9h1.26v4.9q0 1.358-.812 2.156-.813.784-2.142.784m8.408 0q-.91 0-1.596-.364a2.63 2.63 0 0 1-1.05-1.022q-.364-.672-.364-1.554v-2.1q0-.895.364-1.554.378-.659 1.05-1.022.686-.364 1.596-.364t1.582.364a2.5 2.5 0 0 1 1.05 1.022q.378.659.378 1.554v1.358H57v.742q0 .91.462 1.4.462.476 1.316.476.729 0 1.176-.252.448-.266.546-.784h1.26q-.126.966-.952 1.54-.812.56-2.03.56m1.778-4.522V24.1q0-.91-.462-1.4-.448-.49-1.316-.49-.855 0-1.316.49T57 24.1v.406h3.654zm6.379 4.494q-.784 0-1.372-.238a2.34 2.34 0 0 1-.924-.7 2.14 2.14 0 0 1-.406-1.064h1.26q.084.405.448.644.378.238.994.238h.588q.741 0 1.106-.294.364-.308.364-.812 0-.49-.336-.77-.323-.294-.966-.392l-1.036-.168q-1.134-.195-1.694-.7-.546-.518-.546-1.498 0-1.036.658-1.596.657-.574 1.974-.574h.532q1.106 0 1.778.518t.812 1.4h-1.26a.9.9 0 0 0-.42-.574q-.337-.224-.91-.224h-.532q-.714 0-1.05.266-.322.266-.322.798 0 .475.28.7.279.225.882.322l1.036.168q1.245.195 1.806.728.574.532.574 1.54 0 1.065-.686 1.68-.672.602-2.044.602zM76.407 29q-.993 0-1.554-.532-.546-.532-.546-1.498v-4.522h-2.17V21.3h2.17v-2.17h1.26v2.17h3.08v1.148h-3.08v4.522q0 .882.84.882h2.1V29z"/><g stroke="#d3d5cf" stroke-linecap="round" stroke-linejoin="round" stroke-width="1.5" clip-path="url(#a)"><path d="m15.5 70 3 3-3 3"/><path d="M9.5 64v9h9"/></g><rect width="409" height="37" x="37.5" y="51.5" fill="#fff" rx="3.5"/><rect width="409" height="37" x="37.5" y="51.5" stroke="#d3d5cf" rx="3.5"/><path fill="#080808" d="M54.4 75V64.78h5.88v1.148h-4.634v3.164h4.144v1.134h-4.144v3.626h4.634V75zm7.694 0 2.73-3.962-2.561-3.738h1.483l1.526 2.38q.099.154.182.336.099.182.155.294a5 5 0 0 1 .126-.294q.097-.181.195-.336l1.54-2.38h1.47l-2.561 3.752L69.094 75h-1.483l-1.653-2.52a4 4 0 0 1-.195-.35 3 3 0 0 0-.154-.336 6 6 0 0 1-.168.336q-.099.195-.21.35L63.565 75zm12.735 0q-.994 0-1.554-.532-.546-.532-.546-1.498v-4.522h-2.17V67.3h2.17v-2.17h1.26v2.17h3.08v1.148h-3.08v4.522q0 .882.84.882h2.1V75zm7.555.14q-.911 0-1.596-.364a2.63 2.63 0 0 1-1.05-1.022q-.364-.672-.364-1.554v-2.1q-.001-.895.364-1.554.378-.659 1.05-1.022.685-.364 1.596-.364.91 0 1.582.364a2.5 2.5 0 0 1 1.05 1.022q.378.658.378 1.554v1.358h-4.788v.742q0 .91.462 1.4.462.476 1.316.476.727 0 1.176-.252.447-.266.546-.784h1.26q-.126.966-.952 1.54-.812.56-2.03.56m1.778-4.522V70.1q0-.91-.462-1.4-.45-.49-1.316-.49-.855 0-1.316.49t-.462 1.4v.406h3.654zM88.132 75v-7.7h1.232v1.47h.294l-.406.91q0-1.245.532-1.876.546-.645 1.61-.644 1.218 0 1.932.77.728.756.728 2.058v.462h-1.26v-.35q0-.91-.448-1.386-.435-.49-1.246-.49-.798 0-1.26.49-.448.49-.448 1.386V75zm8.129 0v-7.7h1.26v1.47h.266l-.266.294q0-.91.546-1.4.546-.504 1.512-.504 1.161 0 1.848.714.686.714.686 1.946V75h-1.26v-5.04q0-.825-.448-1.26-.435-.448-1.19-.448-.784 0-1.246.476-.448.476-.448 1.372V75zm10.634.14q-1.218 0-1.918-.616-.7-.63-.7-1.694 0-1.078.7-1.694t1.89-.616h2.38v-.77q0-.714-.434-1.092-.42-.392-1.204-.392-.686 0-1.148.294-.462.28-.532.77h-1.26q.126-.994.938-1.582.813-.588 2.03-.588 1.33 0 2.1.686t.77 1.862V75h-1.232v-1.47h-.21l.21-.21q0 .84-.658 1.33-.644.49-1.722.49m.308-.994q.897 0 1.47-.448.574-.448.574-1.148v-1.092h-2.352q-.63 0-.994.35t-.364.952q0 .645.434 1.022.449.364 1.232.364m9.809.854q-.672 0-1.176-.266a1.9 1.9 0 0 1-.784-.756q-.28-.49-.28-1.148v-6.902h-2.59V64.78h3.85v8.05q0 .476.266.756.266.266.714.266h2.45V75zm15.291.14q-1.149 0-1.862-.77-.7-.77-.7-2.086V70.03q0-1.33.7-2.1t1.862-.77q.951 0 1.526.518.574.517.574 1.386l-.252-.294h.28l-.028-1.75v-2.24h1.26V75h-1.26v-1.47h-.252l.252-.294q0 .882-.574 1.4-.575.504-1.526.504m.42-1.092q.783 0 1.232-.49.447-.49.448-1.358v-2.1q0-.868-.448-1.358-.449-.49-1.232-.49-.798 0-1.26.476t-.462 1.372v2.1q0 .896.462 1.372t1.26.476m8.422 1.092q-.909 0-1.596-.364a2.63 2.63 0 0 1-1.05-1.022q-.363-.672-.364-1.554v-2.1q0-.895.364-1.554.378-.659 1.05-1.022.687-.364 1.596-.364.91 0 1.582.364.687.364 1.05 1.022.378.658.378 1.554v1.358h-4.788v.742q0 .91.462 1.4.462.476 1.316.476.729 0 1.176-.252a1.11 1.11 0 0 0 .546-.784h1.26q-.126.966-.952 1.54-.812.56-2.03.56m1.778-4.522V70.1q0-.91-.462-1.4-.447-.49-1.316-.49-.854 0-1.316.49t-.462 1.4v.406h3.654zM150.38 75q-.995 0-1.554-.532-.546-.532-.546-1.498v-4.522h-2.17V67.3h2.17v-2.17h1.26v2.17h3.08v1.148h-3.08v4.522q0 .882.84.882h2.1V75zm7.554.14q-.909 0-1.596-.364a2.63 2.63 0 0 1-1.05-1.022q-.363-.672-.364-1.554v-2.1q0-.895.364-1.554.378-.659 1.05-1.022.687-.364 1.596-.364.91 0 1.582.364.687.364 1.05 1.022.378.658.378 1.554v1.358h-4.788v.742q0 .91.462 1.4.462.476 1.316.476.729 0 1.176-.252a1.11 1.11 0 0 0 .546-.784h1.26q-.126.966-.952 1.54-.812.56-2.03.56m1.778-4.522V70.1q0-.91-.462-1.4-.447-.49-1.316-.49-.854 0-1.316.49t-.462 1.4v.406h3.654zm6.673 4.522q-.924 0-1.624-.35a2.52 2.52 0 0 1-1.064-1.008q-.378-.672-.378-1.582v-2.1q0-.924.378-1.582a2.52 2.52 0 0 1 1.064-1.008q.7-.35 1.624-.35 1.33 0 2.142.714t.854 1.946h-1.26q-.042-.743-.504-1.134-.448-.405-1.232-.406-.826 0-1.316.476-.49.462-.49 1.33V72.2q0 .868.49 1.344t1.316.476q.784 0 1.232-.406.462-.406.504-1.134h1.26q-.042 1.232-.854 1.946t-2.142.714m9.178-.14q-.993 0-1.554-.532-.546-.532-.546-1.498v-4.522h-2.17V67.3h2.17v-2.17h1.26v2.17h3.08v1.148h-3.08v4.522q0 .882.84.882h2.1V75zm7.555.112q-.924 0-1.596-.35a2.54 2.54 0 0 1-1.05-1.008q-.364-.672-.364-1.582v-2.044q0-.924.364-1.582a2.54 2.54 0 0 1 1.05-1.008q.672-.35 1.596-.35t1.596.35 1.036 1.008q.378.658.378 1.568v2.058q0 .91-.378 1.582a2.46 2.46 0 0 1-1.036 1.008q-.672.35-1.596.35m0-1.12q.826 0 1.288-.462t.462-1.358v-2.044q0-.896-.462-1.358t-1.288-.462q-.812 0-1.288.462-.462.462-.462 1.358v2.044q0 .896.462 1.358.476.462 1.288.462M188.867 75v-7.7h1.232v1.47h.294l-.406.91q0-1.245.532-1.876.546-.645 1.61-.644 1.218 0 1.932.77.728.756.728 2.058v.462h-1.26v-.35q0-.91-.448-1.386-.435-.49-1.246-.49-.798 0-1.26.49-.448.49-.448 1.386V75zm22.025 1.68q-1.989-.49-3.094-1.932-1.106-1.442-1.106-3.528V68.7q0-1.372.504-2.478a5.3 5.3 0 0 1 1.456-1.89q.951-.77 2.24-1.092v1.19a3.4 3.4 0 0 0-1.554.812q-.659.588-1.022 1.47-.364.882-.364 1.988v2.52q0 1.078.35 1.96a3.95 3.95 0 0 0 1.022 1.47q.671.574 1.568.784zm3.13-1.68-1.176-10.22h1.204l.77 7.56q.028.308.056.644.029.322.042.616.028.294.028.49.028-.195.042-.49.028-.294.056-.616.042-.336.084-.644l.952-7.56h1.302l.868 7.56q.042.308.07.644.042.322.07.616.042.294.056.49.014-.195.028-.49.028-.294.056-.616.042-.336.07-.644l.798-7.56h1.148L219.342 75h-1.582l-.868-7.7a13 13 0 0 0-.07-.63 41 41 0 0 0-.056-.574 17 17 0 0 1-.042-.434 6 6 0 0 1-.056.434q-.028.266-.056.574t-.07.63l-.938 7.7zm7.569 0 2.66-10.22h1.694L228.591 75h-1.274l-.672-2.716h-3.094L222.879 75zm2.212-3.78h2.576l-.784-3.15a40 40 0 0 1-.35-1.498 18 18 0 0 1-.154-.784q-.028.182-.154.784t-.35 1.484zm6.812 3.78V64.766h6.02v1.148h-4.788v3.402h4.424v1.148h-4.396V75zm16.509 1.54 4.97-13.16h1.33l-4.97 13.16zm19.995-1.4q-1.008 0-1.736-.336a2.55 2.55 0 0 1-1.106-.966q-.391-.63-.406-1.498h1.26q0 .77.518 1.218.533.448 1.47.448.883 0 1.372-.434.504-.434.504-1.204 0-.615-.336-1.078-.321-.462-.938-.644l-1.386-.434q-1.05-.322-1.624-1.078-.56-.756-.56-1.778 0-.826.364-1.428a2.53 2.53 0 0 1 1.05-.952q.673-.35 1.582-.35 1.344 0 2.156.756.813.742.826 1.988h-1.26q0-.756-.462-1.176-.447-.434-1.274-.434-.812 0-1.274.392-.447.391-.448 1.092 0 .63.336 1.092t.966.658l1.4.448q1.023.323 1.582 1.092t.56 1.806q0 .84-.392 1.47a2.63 2.63 0 0 1-1.106.98q-.699.35-1.638.35m5.609-.14v-1.148h2.086v-7.924h-2.086V64.78h5.46v1.148h-2.086v7.924h2.086V75zm8.324 0V64.78h5.88v1.148h-4.634v3.164h4.144v1.134h-4.144v3.626h4.634V75zm8.059 0V64.78h1.652l1.064 3.304q.154.448.28.896.126.434.182.672.07-.239.182-.672.112-.448.252-.91l1.008-3.29h1.652V75h-1.232v-3.71q0-.615.042-1.4t.112-1.596q.07-.825.14-1.568.084-.756.14-1.316l-1.652 5.11h-1.33l-1.666-5.11q.07.546.14 1.274.07.714.126 1.526.056.798.098 1.596t.042 1.484V75zm16.775 1.54 4.97-13.16h1.33l-4.97 13.16zm19.995-1.4q-.924 0-1.624-.35a2.52 2.52 0 0 1-1.064-1.008q-.378-.672-.378-1.582v-2.1q0-.924.378-1.582a2.52 2.52 0 0 1 1.064-1.008q.7-.35 1.624-.35 1.33 0 2.142.714t.854 1.946h-1.26q-.042-.743-.504-1.134-.448-.405-1.232-.406-.826 0-1.316.476-.49.462-.49 1.33V72.2q0 .868.49 1.344t1.316.476q.784 0 1.232-.406.462-.406.504-1.134h1.26q-.042 1.232-.854 1.946t-2.142.714m8.325 0q-1.33 0-2.128-.784-.798-.797-.798-2.156v-4.9h1.26v4.9q0 .868.448 1.358.447.476 1.218.476.783 0 1.232-.476.462-.49.462-1.358v-4.9h1.26v4.9q0 1.358-.812 2.156-.813.784-2.142.784m8.17-.028q-.784 0-1.372-.238a2.34 2.34 0 0 1-.924-.7 2.14 2.14 0 0 1-.406-1.064h1.26q.084.405.448.644.378.238.994.238h.588q.742 0 1.106-.294a1.01 1.01 0 0 0 .364-.812q0-.49-.336-.77-.322-.294-.966-.392l-1.036-.168q-1.134-.195-1.694-.7-.546-.518-.546-1.498 0-1.036.658-1.596.659-.574 1.974-.574h.532q1.106 0 1.778.518t.812 1.4h-1.26a.9.9 0 0 0-.42-.574q-.336-.225-.91-.224h-.532q-.714 0-1.05.266-.322.266-.322.798 0 .475.28.7t.882.322l1.036.168q1.247.195 1.806.728.574.532.574 1.54 0 1.065-.686 1.68-.672.602-2.044.602zm9.473-.112q-.995 0-1.554-.532-.546-.532-.546-1.498v-4.522h-2.17V67.3h2.17v-2.17h1.26v2.17h3.08v1.148h-3.08v4.522q0 .882.84.882h2.1V75zm7.554.112q-.924 0-1.596-.35a2.54 2.54 0 0 1-1.05-1.008q-.364-.672-.364-1.582v-2.044q0-.924.364-1.582a2.54 2.54 0 0 1 1.05-1.008q.672-.35 1.596-.35t1.596.35 1.036 1.008q.378.658.378 1.568v2.058q0 .91-.378 1.582a2.46 2.46 0 0 1-1.036 1.008q-.672.35-1.596.35m0-1.12q.826 0 1.288-.462t.462-1.358v-2.044q0-.896-.462-1.358t-1.288-.462q-.812 0-1.288.462-.462.462-.462 1.358v2.044q0 .896.462 1.358.476.462 1.288.462M364.522 75v-7.7h1.106v.924h.252l-.196.336q0-.645.336-1.022.35-.378.938-.378.643 0 .994.476.35.475.35 1.344l-.378-.756h.588l-.266.336q0-.645.35-1.022.364-.378.952-.378.727 0 1.12.546.405.546.406 1.442V75h-1.162v-5.866q0-.476-.21-.742-.196-.266-.588-.266a.75.75 0 0 0-.602.266q-.21.252-.21.728V75h-1.008v-5.866q0-.49-.224-.742-.21-.266-.602-.266-.393 0-.588.266-.196.252-.196.728V75zm17.419 0v-7.7h1.232v1.47h.294l-.406.91q0-1.245.532-1.876.546-.645 1.61-.644 1.218 0 1.932.77.728.756.728 2.058v.462h-1.26v-.35q0-.91-.448-1.386-.435-.49-1.246-.49-.798 0-1.26.49-.448.49-.448 1.386V75zm11.026.14q-1.33 0-2.128-.784-.798-.797-.798-2.156v-4.9h1.26v4.9q0 .868.448 1.358.448.476 1.218.476.785 0 1.232-.476.462-.49.462-1.358v-4.9h1.26v4.9q0 1.358-.812 2.156-.811.784-2.142.784m9.459-.14q-.672 0-1.176-.266a1.9 1.9 0 0 1-.784-.756q-.28-.49-.28-1.148v-6.902h-2.59V64.78h3.85v8.05q0 .476.266.756.266.266.714.266h2.45V75zm7.344.14q-.909 0-1.596-.364a2.63 2.63 0 0 1-1.05-1.022q-.363-.672-.364-1.554v-2.1q0-.895.364-1.554.378-.659 1.05-1.022.687-.364 1.596-.364.91 0 1.582.364.687.364 1.05 1.022.378.658.378 1.554v1.358h-4.788v.742q0 .91.462 1.4.462.476 1.316.476.729 0 1.176-.252a1.11 1.11 0 0 0 .546-.784h1.26q-.126.966-.952 1.54-.812.56-2.03.56m1.778-4.522V70.1q0-.91-.462-1.4-.447-.49-1.316-.49-.854 0-1.316.49t-.462 1.4v.406h3.654zm6.379 4.494q-.784 0-1.372-.238a2.34 2.34 0 0 1-.924-.7 2.14 2.14 0 0 1-.406-1.064h1.26q.084.405.448.644.378.238.994.238h.588q.742 0 1.106-.294a1.01 1.01 0 0 0 .364-.812q0-.49-.336-.77-.322-.294-.966-.392l-1.036-.168q-1.134-.195-1.694-.7-.546-.518-.546-1.498 0-1.036.658-1.596.659-.574 1.974-.574h.532q1.106 0 1.778.518t.812 1.4h-1.26a.9.9 0 0 0-.42-.574q-.336-.225-.91-.224h-.532q-.714 0-1.05.266-.322.266-.322.798 0 .475.28.7t.882.322l1.036.168q1.247.195 1.806.728.574.532.574 1.54 0 1.065-.686 1.68-.672.602-2.044.602zm6.042 1.568v-1.246a3.55 3.55 0 0 0 1.568-.784 3.8 3.8 0 0 0 1.008-1.47q.364-.882.364-1.96V68.7q0-1.106-.364-1.988a3.95 3.95 0 0 0-1.022-1.47 3.4 3.4 0 0 0-1.554-.812v-1.19q1.302.322 2.24 1.092a5.1 5.1 0 0 1 1.442 1.89q.518 1.105.518 2.478v2.52q0 2.086-1.106 3.528-1.105 1.442-3.094 1.932"/><g stroke="#d3d5cf" stroke-linecap="round" stroke-linejoin="round" stroke-width="1.5" clip-path="url(#b)"><path d="m47.5 116 3 3-3 3"/><path d="M41.5 110v9h9"/></g><rect width="199" height="37" x="69.5" y="97.5" fill="#fff" rx="3.5"/><rect width="199" height="37" x="69.5" y="97.5" stroke="#d3d5cf" rx="3.5"/><path fill="#080808" d="M89.256 121.14q-1.007 0-1.736-.336a2.54 2.54 0 0 1-1.106-.966q-.392-.63-.406-1.498h1.26q0 .77.518 1.218.532.448 1.47.448.882 0 1.372-.434.504-.434.504-1.204 0-.616-.336-1.078-.322-.462-.938-.644l-1.386-.434q-1.05-.322-1.624-1.078-.56-.756-.56-1.778 0-.827.364-1.428a2.53 2.53 0 0 1 1.05-.952q.672-.35 1.582-.35 1.344 0 2.156.756.812.742.826 1.988h-1.26q0-.756-.462-1.176-.448-.434-1.274-.434-.812 0-1.274.392-.448.391-.448 1.092 0 .63.336 1.092t.966.658l1.4.448q1.022.323 1.582 1.092t.56 1.806q0 .84-.392 1.47a2.63 2.63 0 0 1-1.106.98q-.7.35-1.638.35m8.394 0q-.924 0-1.624-.35a2.5 2.5 0 0 1-1.063-1.008q-.378-.672-.378-1.582v-2.1q0-.924.378-1.582a2.5 2.5 0 0 1 1.064-1.008q.699-.35 1.623-.35 1.33 0 2.142.714.813.714.855 1.946h-1.26q-.043-.743-.505-1.134-.447-.406-1.232-.406-.826 0-1.315.476-.49.462-.49 1.33v2.114q0 .869.49 1.344t1.316.476q.784 0 1.231-.406.463-.407.504-1.134h1.261q-.042 1.232-.855 1.946-.81.714-2.142.714m8.339 0q-.91 0-1.596-.364a2.63 2.63 0 0 1-1.05-1.022q-.364-.672-.364-1.554v-2.1q0-.895.364-1.554a2.63 2.63 0 0 1 1.05-1.022q.685-.364 1.596-.364.91 0 1.582.364.685.364 1.05 1.022.378.658.378 1.554v1.358h-4.788v.742q0 .91.462 1.4.462.476 1.316.476.727 0 1.176-.252a1.11 1.11 0 0 0 .546-.784h1.26q-.126.966-.952 1.54-.812.56-2.03.56m1.778-4.522v-.518q0-.91-.462-1.4-.448-.49-1.316-.49-.854 0-1.316.49t-.462 1.4v.406h3.654zm3.705 4.382v-7.7h1.26v1.47h.266l-.266.294q0-.91.546-1.4.546-.504 1.512-.504 1.161 0 1.848.714.686.714.686 1.946V121h-1.26v-5.04q0-.826-.448-1.26-.435-.448-1.19-.448-.784 0-1.246.476-.448.476-.448 1.372v4.9zm12.146 0q-.994 0-1.554-.532-.546-.532-.546-1.498v-4.522h-2.17V113.3h2.17v-2.17h1.26v2.17h3.08v1.148h-3.08v4.522q0 .882.84.882h2.1V121zm15.333-1.33v-2.73h-2.674v-1.12h2.674v-2.73h1.232v2.73h2.674v1.12h-2.674v2.73zm16.775 1.33v-9.086h-2.8v-1.148h6.86v1.148h-2.8V121zm6.113 0v-10.22h1.26v3.99h.266l-.266.294q0-.91.546-1.4.546-.504 1.512-.504 1.161 0 1.848.714.686.714.686 1.946V121h-1.26v-5.04q0-.826-.448-1.274-.435-.462-1.19-.462-.784 0-1.246.49-.448.49-.448 1.386v4.9zm8.66 0v-7.7h1.232v1.47h.294l-.406.91q0-1.246.532-1.876.546-.644 1.61-.644 1.218 0 1.932.77.728.756.728 2.058v.462h-1.26v-.35q0-.91-.448-1.386-.433-.49-1.246-.49-.798 0-1.26.49-.448.49-.448 1.386v4.9zm11.041.14q-.91 0-1.596-.364a2.63 2.63 0 0 1-1.05-1.022q-.364-.672-.364-1.554v-2.1q0-.895.364-1.554a2.63 2.63 0 0 1 1.05-1.022q.686-.364 1.596-.364t1.582.364q.685.364 1.05 1.022.378.658.378 1.554v1.358h-4.788v.742q0 .91.462 1.4.462.476 1.316.476.728 0 1.176-.252a1.11 1.11 0 0 0 .546-.784h1.26q-.126.966-.952 1.54-.812.56-2.03.56m1.778-4.522v-.518q0-.91-.462-1.4-.448-.49-1.316-.49-.854 0-1.316.49t-.462 1.4v.406h3.654zm5.944 4.522q-1.218 0-1.918-.616-.7-.63-.7-1.694 0-1.078.7-1.694t1.89-.616h2.38v-.77q0-.714-.434-1.092-.42-.392-1.204-.392-.686 0-1.148.294-.462.28-.532.77h-1.26q.126-.994.938-1.582.813-.588 2.03-.588 1.33 0 2.1.686t.77 1.862V121h-1.232v-1.47h-.21l.21-.21q0 .84-.658 1.33-.643.49-1.722.49m.308-.994q.897 0 1.47-.448.574-.448.574-1.148v-1.092h-2.352q-.63 0-.994.35t-.364.952q0 .644.434 1.022.449.364 1.232.364m9.599.854q-.995 0-1.554-.532-.546-.532-.546-1.498v-4.522h-2.17V113.3h2.17v-2.17h1.26v2.17h3.08v1.148h-3.08v4.522q0 .882.84.882h2.1V121zm7.61.14q-1.007 0-1.736-.336a2.55 2.55 0 0 1-1.106-.966q-.391-.63-.406-1.498h1.26q0 .77.518 1.218.532.448 1.47.448.882 0 1.372-.434.504-.434.504-1.204 0-.616-.336-1.078-.321-.462-.938-.644l-1.386-.434q-1.05-.322-1.624-1.078-.56-.756-.56-1.778 0-.827.364-1.428a2.53 2.53 0 0 1 1.05-.952q.672-.35 1.582-.35 1.344 0 2.156.756.813.742.826 1.988h-1.26q0-.756-.462-1.176-.447-.434-1.274-.434-.812 0-1.274.392-.448.391-.448 1.092 0 .63.336 1.092t.966.658l1.4.448q1.023.323 1.582 1.092t.56 1.806q0 .84-.392 1.47t-1.106.98q-.699.35-1.638.35m5.329-.14v-1.148h2.73v-5.404h-2.38V113.3h3.64v6.552h2.59V121zm3.22-9.086q-.462 0-.728-.238t-.266-.644q0-.42.266-.658.266-.252.728-.252t.728.252q.266.238.266.658 0 .406-.266.644t-.728.238m6.239 11.606v-1.148h2.45q.587 0 .854-.266.28-.266.28-.826v-.98l.028-1.4h-.252l.238-.21q0 .84-.56 1.33t-1.498.49q-1.19 0-1.876-.77-.686-.784-.686-2.1v-1.624q0-1.316.686-2.086.685-.77 1.876-.77.937 0 1.498.49t.56 1.33l-.238-.21h.238v-1.47h1.246v7.98q0 1.036-.644 1.638-.63.602-1.764.602zm1.918-4.102q.783 0 1.232-.49t.448-1.358v-1.47q0-.868-.448-1.358-.449-.49-1.232-.49-.799 0-1.246.476-.435.476-.434 1.372v1.47q0 .896.434 1.372.447.476 1.246.476m5.51 1.582v-7.7h1.26v1.47h.266l-.266.294q0-.91.546-1.4.546-.504 1.512-.504 1.163 0 1.848.714.686.714.686 1.946V121h-1.26v-5.04q0-.826-.448-1.26-.434-.448-1.19-.448-.784 0-1.246.476-.448.476-.448 1.372v4.9zm10.635.14q-1.219 0-1.918-.616-.7-.63-.7-1.694 0-1.078.7-1.694.699-.616 1.89-.616h2.38v-.77q0-.714-.434-1.092-.42-.392-1.204-.392-.687 0-1.148.294-.463.28-.532.77h-1.26q.125-.994.938-1.582t2.03-.588q1.329 0 2.1.686.77.686.77 1.862V121h-1.232v-1.47h-.21l.21-.21q0 .84-.658 1.33-.645.49-1.722.49m.308-.994q.895 0 1.47-.448.574-.448.574-1.148v-1.092h-2.352q-.63 0-.994.35t-.364.952q0 .644.434 1.022.447.364 1.232.364m9.808.854q-.672 0-1.176-.266a1.9 1.9 0 0 1-.784-.756q-.28-.49-.28-1.148v-6.902h-2.59v-1.148h3.85v8.05q0 .475.266.756.265.266.714.266h2.45V121z"/><g stroke="#d3d5cf" stroke-linecap="round" stroke-linejoin="round" stroke-width="1.5" clip-path="url(#c)"><path d="m79.5 162 3 3-3 3"/><path d="M73.5 156v9h9"/></g><rect width="216" height="37" x="101.5" y="143.5" fill="#fff" rx="3.5"/><rect width="216" height="37" x="101.5" y="143.5" stroke="#d3d5cf" rx="3.5"/><path fill="#080808" d="M120.528 167.14q-1.218 0-1.918-.616-.7-.63-.7-1.694 0-1.078.7-1.694t1.89-.616h2.38v-.77q0-.714-.434-1.092-.42-.392-1.204-.392-.686 0-1.148.294-.462.28-.532.77h-1.26q.126-.994.938-1.582t2.03-.588q1.33 0 2.1.686t.77 1.862V167h-1.232v-1.47h-.21l.21-.21q0 .84-.658 1.33-.644.49-1.722.49m.308-.994q.895 0 1.47-.448.574-.448.574-1.148v-1.092h-2.352q-.63 0-.994.35t-.364.952q0 .644.434 1.022.448.364 1.232.364m6.813 3.374v-1.148h2.45q.587 0 .854-.266.28-.266.28-.826v-.98l.028-1.4h-.252l.238-.21q0 .84-.56 1.33t-1.498.49q-1.19 0-1.876-.77-.687-.785-.686-2.1v-1.624q0-1.316.686-2.086.685-.77 1.876-.77.937 0 1.498.49t.56 1.33l-.238-.21h.238v-1.47h1.246v7.98q0 1.037-.644 1.638-.63.602-1.764.602zm1.918-4.102q.783 0 1.232-.49t.448-1.358v-1.47q0-.868-.448-1.358-.449-.49-1.232-.49-.799 0-1.246.476-.434.476-.434 1.372v1.47q0 .896.434 1.372.447.476 1.246.476m8.422 1.722q-.91 0-1.596-.364a2.63 2.63 0 0 1-1.05-1.022q-.364-.672-.364-1.554v-2.1q0-.895.364-1.554a2.63 2.63 0 0 1 1.05-1.022q.685-.364 1.596-.364.91 0 1.582.364.685.364 1.05 1.022.378.659.378 1.554v1.358h-4.788v.742q0 .91.462 1.4.462.476 1.316.476.728 0 1.176-.252a1.11 1.11 0 0 0 .546-.784h1.26q-.126.966-.952 1.54-.812.56-2.03.56m1.778-4.522v-.518q0-.91-.462-1.4-.448-.49-1.316-.49-.854 0-1.316.49t-.462 1.4v.406h3.654zm3.705 4.382v-7.7h1.26v1.47h.266l-.266.294q0-.91.546-1.4.546-.504 1.512-.504 1.161 0 1.848.714.686.714.686 1.946V167h-1.26v-5.04q0-.827-.448-1.26-.434-.448-1.19-.448-.784 0-1.246.476-.448.476-.448 1.372v4.9zm12.146 0q-.995 0-1.554-.532-.546-.532-.546-1.498v-4.522h-2.17V159.3h2.17v-2.17h1.26v2.17h3.08v1.148h-3.08v4.522q0 .882.84.882h2.1V167zm7.555.14q-.533 0-.854-.308-.308-.308-.308-.826 0-.546.308-.868.321-.322.854-.322.531 0 .84.322.321.322.322.868 0 .518-.322.826-.309.308-.84.308m5.384-.14v-1.148h2.73v-5.404h-2.38V159.3h3.64v6.552h2.59V167zm3.22-9.086q-.462 0-.728-.238t-.266-.644q0-.42.266-.658.266-.252.728-.252t.728.252q.267.238.266.658 0 .406-.266.644t-.728.238M177.05 167v-7.7h1.26v1.47h.266l-.266.294q0-.91.546-1.4.546-.504 1.512-.504 1.161 0 1.848.714.686.714.686 1.946V167h-1.26v-5.04q0-.827-.448-1.26-.435-.448-1.19-.448-.784 0-1.246.476-.448.476-.448 1.372v4.9zm12.146 0q-.993 0-1.554-.532-.546-.532-.546-1.498v-4.522h-2.17V159.3h2.17v-2.17h1.26v2.17h3.08v1.148h-3.08v4.522q0 .882.84.882h2.1V167zm7.555.14q-.91 0-1.596-.364a2.63 2.63 0 0 1-1.05-1.022q-.364-.672-.364-1.554v-2.1q0-.895.364-1.554a2.63 2.63 0 0 1 1.05-1.022q.686-.364 1.596-.364t1.582.364q.685.364 1.05 1.022.378.659.378 1.554v1.358h-4.788v.742q0 .91.462 1.4.462.476 1.316.476.728 0 1.176-.252.447-.266.546-.784h1.26q-.126.966-.952 1.54-.812.56-2.03.56m1.778-4.522v-.518q0-.91-.462-1.4-.449-.49-1.316-.49-.855 0-1.316.49t-.462 1.4v.406h3.654zm3.97 4.382v-7.7h1.232v1.47h.294l-.406.91q0-1.246.532-1.876.546-.644 1.61-.644 1.218 0 1.932.77.728.756.728 2.058v.462h-1.26v-.35q0-.91-.448-1.386-.433-.49-1.246-.49-.798 0-1.26.49-.448.49-.448 1.386v4.9zm11.097.14q-.924 0-1.624-.35a2.5 2.5 0 0 1-1.064-1.008q-.378-.672-.378-1.582v-2.1q0-.924.378-1.582a2.5 2.5 0 0 1 1.064-1.008q.7-.35 1.624-.35 1.33 0 2.142.714t.854 1.946h-1.26q-.042-.743-.504-1.134-.448-.406-1.232-.406-.826 0-1.316.476-.49.462-.49 1.33v2.114q0 .868.49 1.344t1.316.476q.784 0 1.232-.406.462-.406.504-1.134h1.26q-.042 1.232-.854 1.946t-2.142.714m8.338 0q-.909 0-1.596-.364a2.63 2.63 0 0 1-1.05-1.022q-.363-.672-.364-1.554v-2.1q0-.895.364-1.554a2.63 2.63 0 0 1 1.05-1.022q.687-.364 1.596-.364.91 0 1.582.364.687.364 1.05 1.022.378.659.378 1.554v1.358h-4.788v.742q0 .91.462 1.4.462.476 1.316.476.729 0 1.176-.252a1.11 1.11 0 0 0 .546-.784h1.26q-.126.966-.952 1.54-.812.56-2.03.56m1.778-4.522v-.518q0-.91-.462-1.4-.447-.49-1.316-.49-.854 0-1.316.49t-.462 1.4v.406h3.654zm3.705 6.902V159.3h1.26v1.47h.252l-.252.294q0-.882.574-1.386.588-.518 1.54-.518 1.162 0 1.848.77.7.756.7 2.086v2.254q0 .882-.322 1.526a2.3 2.3 0 0 1-.882.994q-.56.35-1.344.35-.938 0-1.526-.518-.588-.517-.588-1.386l.252.294h-.28l.028 1.75v2.24zm2.954-3.472q.798 0 1.246-.476.462-.476.462-1.372v-2.1q0-.896-.462-1.372-.448-.476-1.246-.476-.77 0-1.232.49t-.462 1.358v2.1q0 .868.462 1.358t1.232.49m9.192.952q-.993 0-1.554-.532-.546-.532-.546-1.498v-4.522h-2.17V159.3h2.17v-2.17h1.26v2.17h3.08v1.148h-3.08v4.522q0 .882.84.882h2.1V167zm10.145 1.68q-1.988-.49-3.094-1.932t-1.106-3.528v-2.52q0-1.373.504-2.478a5.3 5.3 0 0 1 1.456-1.89 5.7 5.7 0 0 1 2.24-1.092v1.19a3.4 3.4 0 0 0-1.554.812 4 4 0 0 0-1.022 1.47q-.364.882-.364 1.988v2.52q0 1.078.35 1.96a4 4 0 0 0 1.022 1.47 3.66 3.66 0 0 0 1.568.784zm5.567-1.568q-.784 0-1.372-.238a2.33 2.33 0 0 1-.924-.7 2.13 2.13 0 0 1-.406-1.064h1.26a.98.98 0 0 0 .448.644q.378.238.994.238h.588q.741 0 1.106-.294.363-.308.364-.812 0-.49-.336-.77-.322-.294-.966-.392l-1.036-.168q-1.134-.196-1.694-.7-.546-.518-.546-1.498 0-1.037.658-1.596.657-.574 1.974-.574h.532q1.106 0 1.778.518t.811 1.4h-1.259a.9.9 0 0 0-.42-.574q-.336-.224-.91-.224h-.532q-.714 0-1.05.266-.322.266-.322.798 0 .476.28.7.279.224.882.322l1.036.168q1.245.196 1.806.728.573.532.574 1.54 0 1.064-.686 1.68-.672.602-2.044.602zm8.688.028q-.924 0-1.624-.35a2.5 2.5 0 0 1-1.064-1.008q-.378-.672-.378-1.582v-2.1q0-.924.378-1.582a2.5 2.5 0 0 1 1.064-1.008q.7-.35 1.624-.35 1.33 0 2.142.714t.854 1.946h-1.26q-.042-.743-.504-1.134-.448-.406-1.232-.406-.826 0-1.316.476-.49.462-.49 1.33v2.114q0 .868.49 1.344t1.316.476q.784 0 1.232-.406.462-.406.504-1.134h1.26q-.042 1.232-.854 1.946t-2.142.714m8.339 0q-.91 0-1.596-.364a2.63 2.63 0 0 1-1.05-1.022q-.364-.672-.364-1.554v-2.1q0-.895.364-1.554a2.63 2.63 0 0 1 1.05-1.022q.685-.364 1.596-.364.91 0 1.582.364.686.364 1.05 1.022.378.659.378 1.554v1.358h-4.788v.742q0 .91.462 1.4.462.476 1.316.476.727 0 1.176-.252.447-.266.546-.784h1.26q-.127.966-.952 1.54-.812.56-2.03.56m1.778-4.522v-.518q0-.91-.462-1.4-.449-.49-1.316-.49-.855 0-1.316.49t-.462 1.4v.406h3.654zm3.704 4.382v-7.7h1.26v1.47h.266l-.266.294q0-.91.546-1.4.546-.504 1.512-.504 1.163 0 1.848.714.686.714.686 1.946V167h-1.26v-5.04q0-.827-.448-1.26-.434-.448-1.19-.448-.784 0-1.246.476-.448.476-.448 1.372v4.9zm12.147 0q-.995 0-1.554-.532-.546-.532-.546-1.498v-4.522h-2.17V159.3h2.17v-2.17h1.26v2.17h3.08v1.148h-3.08v4.522q0 .882.84.882h2.1V167zm4.964 1.68v-1.246a3.56 3.56 0 0 0 1.568-.784 3.8 3.8 0 0 0 1.008-1.47q.364-.882.364-1.96v-2.52q0-1.106-.364-1.988a4 4 0 0 0-1.022-1.47 3.4 3.4 0 0 0-1.554-.812v-1.19q1.302.322 2.24 1.092a5.14 5.14 0 0 1 1.442 1.89q.518 1.105.518 2.478v2.52q0 2.086-1.106 3.528t-3.094 1.932"/><g clip-path="url(#d)"><path stroke="#d3d5cf" stroke-linecap="round" stroke-linejoin="round" stroke-width="1.5" d="M109.5 205.094a1.594 1.594 0 1 0 0-3.189 1.594 1.594 0 0 0 0 3.189"/></g><g clip-path="url(#e)"><path stroke="#d3d5cf" stroke-linecap="round" stroke-linejoin="round" stroke-width="1.5" d="M109.5 241.094a1.594 1.594 0 1 0 0-3.189 1.594 1.594 0 0 0 0 3.189"/></g><g clip-path="url(#f)"><path stroke="#d3d5cf" stroke-linecap="round" stroke-linejoin="round" stroke-width="1.5" d="M109.5 277.094a1.594 1.594 0 1 0 0-3.189 1.594 1.594 0 0 0 0 3.189"/></g><g clip-path="url(#g)"><path stroke="#d3d5cf" stroke-linecap="round" stroke-linejoin="round" stroke-width="1.5" d="M109.5 313.094a1.594 1.594 0 1 0 0-3.189 1.594 1.594 0 0 0 0 3.189"/></g><g clip-path="url(#h)"><path stroke="#d3d5cf" stroke-linecap="round" stroke-linejoin="round" stroke-width="1.5" d="M109.5 349.094a1.594 1.594 0 1 0 0-3.189 1.594 1.594 0 0 0 0 3.189"/></g><g clip-path="url(#i)"><path stroke="#d3d5cf" stroke-linecap="round" stroke-linejoin="round" stroke-width="1.5" d="M109.5 385.094a1.594 1.594 0 1 0 0-3.189 1.594 1.594 0 0 0 0 3.189"/></g><rect width="203" height="27" x="133.5" y="189.5" fill="#fffef9" rx="3.5"/><rect width="203" height="27" x="133.5" y="189.5" stroke="#d3d5cf" stroke-dasharray="2 2" rx="3.5"/><path fill="#080808" d="M146.332 207v-6.6h1.056v1.26h.252l-.348.78q0-1.068.456-1.608.468-.552 1.38-.552 1.044 0 1.656.66.624.648.624 1.764v.396h-1.08v-.3q0-.78-.384-1.188-.372-.42-1.068-.42-.684 0-1.08.42-.384.42-.384 1.188v4.2zm8.887.12q-1.044 0-1.644-.528-.6-.54-.6-1.452 0-.924.6-1.452t1.62-.528h2.04v-.66q0-.612-.372-.936-.36-.336-1.032-.336-.588 0-.984.252-.396.24-.456.66h-1.08q.108-.852.804-1.356t1.74-.504q1.14 0 1.8.588t.66 1.596V207h-1.056v-1.26h-.18l.18-.18q0 .72-.564 1.14-.552.42-1.476.42m.264-.852q.768 0 1.26-.384t.492-.984v-.936h-2.016q-.54 0-.852.3t-.312.816q0 .552.372.876.384.312 1.056.312m8.228.732q-.852 0-1.332-.456-.468-.456-.468-1.284v-3.876h-1.86v-.984h1.86v-1.86h1.08v1.86h2.64v.984h-2.64v3.876q0 .756.72.756h1.8V207zm6.475.12q-.78 0-1.368-.312a2.26 2.26 0 0 1-.9-.876q-.312-.576-.312-1.332v-1.8q0-.768.312-1.332.324-.564.9-.876.588-.312 1.368-.312t1.356.312q.588.312.9.876.324.564.324 1.332v1.164h-4.104v.636q0 .78.396 1.2.396.408 1.128.408.624 0 1.008-.216a.95.95 0 0 0 .468-.672h1.08q-.108.828-.816 1.32-.696.48-1.74.48m1.524-3.876v-.444q0-.78-.396-1.2-.384-.42-1.128-.42-.732 0-1.128.42t-.396 1.2v.348h3.132zm3.451 3.756v-8.76h1.08v7.776h3.96V207zm6.836 0v-.984h2.34v-4.632h-2.04v-.984h3.12v5.616h2.22V207zm2.76-7.788q-.396 0-.624-.204a.7.7 0 0 1-.228-.552q0-.36.228-.564.228-.216.624-.216t.624.216q.228.204.228.564a.7.7 0 0 1-.228.552q-.228.204-.624.204m4.207 7.788v-6.6h.948v.792h.216l-.168.288q0-.552.288-.876.3-.324.804-.324.552 0 .852.408t.3 1.152l-.324-.648h.504l-.228.288q0-.552.3-.876.312-.324.816-.324.624 0 .96.468.348.468.348 1.236V207h-.996v-5.028q0-.408-.18-.636-.168-.228-.504-.228a.64.64 0 0 0-.516.228q-.18.216-.18.624V207h-.864v-5.028q0-.42-.192-.636-.18-.228-.516-.228t-.504.228q-.168.216-.168.624V207zm7.423 0v-.984h2.34v-4.632h-2.04v-.984h3.12v5.616h2.22V207zm2.76-7.788q-.396 0-.624-.204a.7.7 0 0 1-.228-.552q0-.36.228-.564.228-.216.624-.216t.624.216q.228.204.228.564a.7.7 0 0 1-.228.552q-.228.204-.624.204m7.736 7.788q-.852 0-1.332-.456-.468-.456-.468-1.284v-3.876h-1.86v-.984h1.86v-1.86h1.08v1.86h2.64v.984h-2.64v3.876q0 .756.72.756h1.8V207zm6.475.12q-.78 0-1.368-.312a2.26 2.26 0 0 1-.9-.876q-.312-.576-.312-1.332v-1.8q0-.768.312-1.332.324-.564.9-.876.588-.312 1.368-.312t1.356.312q.588.312.9.876.324.564.324 1.332v1.164h-4.104v.636q0 .78.396 1.2.396.408 1.128.408.624 0 1.008-.216a.95.95 0 0 0 .468-.672h1.08q-.108.828-.816 1.32-.696.48-1.74.48m1.524-3.876v-.444q0-.78-.396-1.2-.384-.42-1.128-.42-.732 0-1.128.42t-.396 1.2v.348h3.132zm3.403 3.756v-6.6h1.056v1.26h.252l-.348.78q0-1.068.456-1.608.468-.552 1.38-.552 1.044 0 1.656.66.624.648.624 1.764v.396h-1.08v-.3q0-.78-.384-1.188-.372-.42-1.068-.42-.684 0-1.08.42-.384.42-.384 1.188v4.2zm9.463.12q-.456 0-.732-.264-.264-.264-.264-.708 0-.468.264-.744.276-.276.732-.276t.72.276q.276.276.276.744 0 .444-.276.708-.264.264-.72.264m7.244 0q-.792 0-1.392-.3a2.16 2.16 0 0 1-.912-.864q-.324-.576-.324-1.356v-1.8q0-.792.324-1.356t.912-.864q.6-.3 1.392-.3 1.14 0 1.836.612t.732 1.668h-1.08q-.036-.636-.432-.972-.384-.348-1.056-.348-.708 0-1.128.408-.42.396-.42 1.14v1.812q0 .744.42 1.152t1.128.408q.672 0 1.056-.348.396-.348.432-.972h1.08q-.036 1.056-.732 1.668t-1.836.612m4.651-.12v-8.76h1.08v3.42h.228l-.228.252q0-.78.468-1.2.468-.432 1.296-.432.996 0 1.584.612t.588 1.668V207h-1.08v-4.32q0-.708-.384-1.092-.372-.396-1.02-.396-.672 0-1.068.42-.384.42-.384 1.188v4.2zm9.691.12q-.78 0-1.368-.312a2.26 2.26 0 0 1-.9-.876q-.312-.576-.312-1.332v-1.8q0-.768.312-1.332.324-.564.9-.876.588-.312 1.368-.312t1.356.312q.588.312.9.876.324.564.324 1.332v1.164h-4.104v.636q0 .78.396 1.2.396.408 1.128.408.624 0 1.008-.216a.95.95 0 0 0 .468-.672h1.08q-.108.828-.816 1.32-.696.48-1.74.48m1.524-3.876v-.444q0-.78-.396-1.2-.384-.42-1.128-.42-.732 0-1.128.42t-.396 1.2v.348h3.132zm5.72 3.876q-.792 0-1.392-.3a2.16 2.16 0 0 1-.912-.864q-.324-.576-.324-1.356v-1.8q0-.792.324-1.356t.912-.864q.6-.3 1.392-.3 1.14 0 1.836.612t.732 1.668h-1.08q-.036-.636-.432-.972-.384-.348-1.056-.348-.708 0-1.128.408-.42.396-.42 1.14v1.812q0 .744.42 1.152t1.128.408q.672 0 1.056-.348.396-.348.432-.972h1.08q-.036 1.056-.732 1.668t-1.836.612m4.687-.12v-8.76h1.08v4.884h1.272l1.92-2.724h1.236l-2.22 3.144 2.256 3.456h-1.26l-1.92-2.94h-1.284V207zm11.875 1.44q-1.704-.42-2.652-1.656t-.948-3.024v-2.16q0-1.176.432-2.124.444-.96 1.248-1.62a4.9 4.9 0 0 1 1.92-.936v1.02q-.768.18-1.332.696a3.4 3.4 0 0 0-.876 1.26q-.312.756-.312 1.704v2.16q0 .924.3 1.68.312.756.876 1.26.576.492 1.344.672zm4.772-1.344a3.1 3.1 0 0 1-1.176-.204 2 2 0 0 1-.792-.6 1.83 1.83 0 0 1-.348-.912h1.08a.84.84 0 0 0 .384.552q.324.204.852.204h.504q.636 0 .948-.252a.87.87 0 0 0 .312-.696q0-.42-.288-.66-.276-.252-.828-.336l-.888-.144q-.972-.168-1.452-.6-.468-.444-.468-1.284 0-.888.564-1.368.564-.492 1.692-.492h.456q.948 0 1.524.444t.696 1.2h-1.08a.77.77 0 0 0-.36-.492q-.288-.192-.78-.192h-.456q-.612 0-.9.228-.276.228-.276.684 0 .408.24.6t.756.276l.888.144q1.068.168 1.548.624.492.456.492 1.32 0 .912-.588 1.44-.576.516-1.752.516zm7.399 0q-.792 0-1.368-.3a2.2 2.2 0 0 1-.9-.864q-.312-.576-.312-1.356v-1.752q0-.792.312-1.356.324-.564.9-.864t1.368-.3 1.368.3.888.864q.324.564.324 1.344v1.764q0 .78-.324 1.356a2.1 2.1 0 0 1-.888.864q-.576.3-1.368.3m0-.96q.708 0 1.104-.396t.396-1.164v-1.752q0-.768-.396-1.164t-1.104-.396q-.696 0-1.104.396-.396.396-.396 1.164v1.752q0 .768.396 1.164.408.396 1.104.396m7.183.984q-1.14 0-1.824-.672-.684-.684-.684-1.848v-4.2h1.08v4.2q0 .744.384 1.164.384.408 1.044.408.672 0 1.056-.408.396-.42.396-1.164v-4.2h1.08v4.2q0 1.164-.696 1.848-.696.672-1.836.672m4.94-.12v-6.6h1.056v1.26h.252l-.348.78q0-1.068.456-1.608.468-.552 1.38-.552 1.044 0 1.656.66.624.648.624 1.764v.396h-1.08v-.3q0-.78-.384-1.188-.372-.42-1.068-.42-.684 0-1.08.42-.384.42-.384 1.188v4.2zm9.511.12q-.792 0-1.392-.3a2.16 2.16 0 0 1-.912-.864q-.324-.576-.324-1.356v-1.8q0-.792.324-1.356t.912-.864q.6-.3 1.392-.3 1.14 0 1.836.612t.732 1.668h-1.08q-.036-.636-.432-.972-.384-.348-1.056-.348-.708 0-1.128.408-.42.396-.42 1.14v1.812q0 .744.42 1.152t1.128.408q.672 0 1.056-.348.396-.348.432-.972h1.08q-.036 1.056-.732 1.668t-1.836.612m7.147 0q-.78 0-1.368-.312a2.26 2.26 0 0 1-.9-.876q-.312-.576-.312-1.332v-1.8q0-.768.312-1.332.324-.564.9-.876.588-.312 1.368-.312t1.356.312q.588.312.9.876.324.564.324 1.332v1.164h-4.104v.636q0 .78.396 1.2.396.408 1.128.408.624 0 1.008-.216a.95.95 0 0 0 .468-.672h1.08q-.108.828-.816 1.32-.696.48-1.74.48m1.524-3.876v-.444q0-.78-.396-1.2-.384-.42-1.128-.42-.732 0-1.128.42t-.396 1.2v.348h3.132zm3.452 5.196v-1.068q.78-.18 1.344-.672.564-.504.864-1.26a4.4 4.4 0 0 0 .312-1.68v-2.16q0-.948-.312-1.704a3.4 3.4 0 0 0-.876-1.26 2.9 2.9 0 0 0-1.332-.696v-1.02q1.116.276 1.92.936t1.236 1.62q.444.948.444 2.124v2.16q0 1.788-.948 3.024t-2.652 1.656"/><rect width="175" height="27" x="133.5" y="225.5" fill="#fffef9" rx="3.5"/><rect width="175" height="27" x="133.5" y="225.5" stroke="#d3d5cf" stroke-dasharray="2 2" rx="3.5"/><path fill="#080808" d="M146.02 243v-.984h2.34v-4.632h-2.04v-.984h3.12v5.616h2.22V243zm2.76-7.788q-.396 0-.624-.204a.7.7 0 0 1-.228-.552q0-.36.228-.564.228-.216.624-.216t.624.216q.228.204.228.564a.7.7 0 0 1-.228.552q-.228.204-.624.204m6.055 7.788v-4.956h-1.92v-.984h1.92v-1.14q0-.78.492-1.224.492-.456 1.356-.456h1.932v.984h-1.932q-.372 0-.576.18-.192.168-.192.516v1.14h2.7v.984h-2.7V243zm12.855 0v-6.6h1.08v1.26h.228l-.228.252q0-.78.468-1.2.468-.432 1.296-.432.996 0 1.584.612t.588 1.668V243h-1.08v-4.32q0-.708-.384-1.08-.372-.384-1.02-.384-.672 0-1.068.408-.384.408-.384 1.176v4.2zm9.691.096q-.792 0-1.368-.3a2.2 2.2 0 0 1-.9-.864q-.312-.576-.312-1.356v-1.752q0-.792.312-1.356.324-.564.9-.864t1.368-.3 1.368.3.888.864q.324.564.324 1.344v1.764q0 .78-.324 1.356a2.1 2.1 0 0 1-.888.864q-.576.3-1.368.3m0-.96q.708 0 1.104-.396t.396-1.164v-1.752q0-.768-.396-1.164t-1.104-.396q-.696 0-1.104.396-.396.396-.396 1.164v1.752q0 .768.396 1.164.408.396 1.104.396m15.111.864q-.852 0-1.332-.456-.468-.456-.468-1.284v-3.876h-1.86v-.984h1.86v-1.86h1.08v1.86h2.64v.984h-2.64v3.876q0 .756.72.756h1.8V243zm3.979 0v-8.76h1.08v3.42h.228l-.228.252q0-.78.468-1.2.468-.432 1.296-.432.996 0 1.584.612t.588 1.668V243h-1.08v-4.32q0-.708-.384-1.092-.372-.396-1.02-.396-.672 0-1.068.42-.384.42-.384 1.188v4.2zm7.424 0v-6.6h1.056v1.26h.252l-.348.78q0-1.068.456-1.608.468-.552 1.38-.552 1.044 0 1.656.66.624.648.624 1.764v.396h-1.08v-.3q0-.78-.384-1.188-.372-.42-1.068-.42-.684 0-1.08.42-.384.42-.384 1.188v4.2zm9.463.12q-.78 0-1.368-.312a2.26 2.26 0 0 1-.9-.876q-.312-.576-.312-1.332v-1.8q0-.768.312-1.332.324-.564.9-.876.588-.312 1.368-.312t1.356.312q.588.312.9.876.324.564.324 1.332v1.164h-4.104v.636q0 .78.396 1.2.396.408 1.128.408.624 0 1.008-.216a.95.95 0 0 0 .468-.672h1.08q-.108.828-.816 1.32-.696.48-1.74.48m1.524-3.876v-.444q0-.78-.396-1.2-.384-.42-1.128-.42-.732 0-1.128.42t-.396 1.2v.348h3.132zm5.095 3.876q-1.044 0-1.644-.528-.6-.54-.6-1.452 0-.924.6-1.452t1.62-.528h2.04v-.66q0-.612-.372-.936-.36-.336-1.032-.336-.588 0-.984.252-.396.24-.456.66h-1.08q.108-.852.804-1.356t1.74-.504q1.14 0 1.8.588t.66 1.596V243h-1.056v-1.26h-.18l.18-.18q0 .72-.564 1.14-.552.42-1.476.42m.264-.852q.768 0 1.26-.384t.492-.984v-.936h-2.016q-.54 0-.852.3t-.312.816q0 .552.372.876.384.312 1.056.312m8.227.732q-.852 0-1.332-.456-.468-.456-.468-1.284v-3.876h-1.86v-.984h1.86v-1.86h1.08v1.86h2.64v.984h-2.64v3.876q0 .756.72.756h1.8V243zm19.522-.42 1.284-1.62h-9.72V240h10.488l.228-.288q.228-.276.384-.444a3 3 0 0 1 .216-.216q-.06-.06-.228-.24a33 33 0 0 1-.42-.492l-.192-.24h-10.476v-.96h9.72l-1.284-1.62h1.272l2.772 3.54-2.784 3.54zm15.783.54q-.792 0-1.392-.3a2.16 2.16 0 0 1-.912-.864q-.324-.576-.324-1.356v-1.8q0-.792.324-1.356t.912-.864q.6-.3 1.392-.3 1.14 0 1.836.612t.732 1.668h-1.08q-.036-.636-.432-.972-.384-.348-1.056-.348-.708 0-1.128.408-.42.396-.42 1.14v1.812q0 .744.42 1.152t1.128.408q.672 0 1.056-.348.396-.348.432-.972h1.08q-.036 1.056-.732 1.668t-1.836.612m8.047-.12a2.1 2.1 0 0 1-1.008-.228 1.64 1.64 0 0 1-.672-.648 1.95 1.95 0 0 1-.24-.984v-5.916h-2.22v-.984h3.3v6.9q0 .408.228.648.228.228.612.228h2.1V243zm6.296.12q-.78 0-1.368-.312a2.26 2.26 0 0 1-.9-.876q-.312-.576-.312-1.332v-1.8q0-.768.312-1.332.324-.564.9-.876.588-.312 1.368-.312t1.356.312q.588.312.9.876.324.564.324 1.332v1.164h-4.104v.636q0 .78.396 1.2.396.408 1.128.408.624 0 1.008-.216a.95.95 0 0 0 .468-.672h1.08q-.108.828-.816 1.32-.696.48-1.74.48m1.524-3.876v-.444q0-.78-.396-1.2-.384-.42-1.128-.42-.732 0-1.128.42t-.396 1.2v.348h3.132zm5.095 3.876q-1.044 0-1.644-.528-.6-.54-.6-1.452 0-.924.6-1.452t1.62-.528h2.04v-.66q0-.612-.372-.936-.36-.336-1.032-.336-.588 0-.984.252-.396.24-.456.66h-1.08q.108-.852.804-1.356t1.74-.504q1.14 0 1.8.588t.66 1.596V243h-1.056v-1.26h-.18l.18-.18q0 .72-.564 1.14-.552.42-1.476.42m.264-.852q.768 0 1.26-.384t.492-.984v-.936h-2.016q-.54 0-.852.3t-.312.816q0 .552.372.876.384.312 1.056.312m5.011.732v-6.6h1.08v1.26h.228l-.228.252q0-.78.468-1.2.468-.432 1.296-.432.996 0 1.584.612t.588 1.668V243h-1.08v-4.32q0-.708-.384-1.08-.372-.384-1.02-.384-.672 0-1.068.408-.384.408-.384 1.176v4.2z"/><rect width="390" height="27" x="133.5" y="261.5" fill="#fffef9" rx="3.5"/><rect width="390" height="27" x="133.5" y="261.5" stroke="#d3d5cf" stroke-dasharray="2 2" rx="3.5"/><path fill="#080808" d="M148.6 279.12q-.78 0-1.368-.312a2.26 2.26 0 0 1-.9-.876q-.312-.576-.312-1.332v-1.8q0-.768.312-1.332.324-.564.9-.876.588-.312 1.368-.312t1.356.312q.588.312.9.876.324.564.324 1.332v1.164h-4.104v.636q0 .78.396 1.2.396.408 1.128.408.624 0 1.008-.216a.95.95 0 0 0 .468-.672h1.08q-.108.828-.816 1.32-.696.48-1.74.48m1.524-3.876v-.444q0-.78-.396-1.2-.384-.42-1.128-.42-.732 0-1.128.42t-.396 1.2v.348h3.132zm4.939 3.756-2.208-6.6h1.104l1.464 4.44a21 21 0 0 1 .396 1.332l.168-.564q.108-.372.228-.768l1.428-4.44h1.092l-2.208 6.6zm5.348 0v-.984h2.34v-4.632h-2.04v-.984h3.12v5.616h2.22V279zm2.76-7.788q-.396 0-.624-.204a.7.7 0 0 1-.228-.552q0-.36.228-.564.228-.216.624-.216t.624.216q.228.204.228.564a.7.7 0 0 1-.228.552q-.228.204-.624.204m6.631 7.908q-.984 0-1.596-.66-.6-.66-.6-1.788v-1.932q0-1.14.6-1.8t1.596-.66q.816 0 1.308.444t.492 1.188l-.216-.252h.24l-.024-1.5v-1.92h1.08V279h-1.08v-1.26h-.216l.216-.252q0 .756-.492 1.2-.492.432-1.308.432m.36-.936q.672 0 1.056-.42t.384-1.164v-1.8q0-.744-.384-1.164t-1.056-.42q-.684 0-1.08.408t-.396 1.176v1.8q0 .768.396 1.176t1.08.408m7.219.936q-.78 0-1.368-.312a2.26 2.26 0 0 1-.9-.876q-.312-.576-.312-1.332v-1.8q0-.768.312-1.332.324-.564.9-.876.588-.312 1.368-.312t1.356.312q.588.312.9.876.324.564.324 1.332v1.164h-4.104v.636q0 .78.396 1.2.396.408 1.128.408.624 0 1.008-.216a.95.95 0 0 0 .468-.672h1.08q-.108.828-.816 1.32-.696.48-1.74.48m1.524-3.876v-.444q0-.78-.396-1.2-.384-.42-1.128-.42-.732 0-1.128.42t-.396 1.2v.348h3.132zm3.176 3.756v-6.6h1.08v1.26h.228l-.228.252q0-.78.468-1.2.468-.432 1.296-.432.996 0 1.584.612t.588 1.668V279h-1.08v-4.32q0-.708-.384-1.08-.372-.384-1.02-.384-.672 0-1.068.408-.384.408-.384 1.176v4.2zm9.739.12q-.792 0-1.392-.3a2.16 2.16 0 0 1-.912-.864q-.324-.576-.324-1.356v-1.8q0-.792.324-1.356t.912-.864q.6-.3 1.392-.3 1.14 0 1.836.612t.732 1.668h-1.08q-.036-.636-.432-.972-.384-.348-1.056-.348-.708 0-1.128.408-.42.396-.42 1.14v1.812q0 .744.42 1.152t1.128.408q.672 0 1.056-.348.396-.348.432-.972h1.08q-.036 1.056-.732 1.668t-1.836.612m7.147 0q-.78 0-1.368-.312a2.26 2.26 0 0 1-.9-.876q-.312-.576-.312-1.332v-1.8q0-.768.312-1.332.324-.564.9-.876.588-.312 1.368-.312t1.356.312q.588.312.9.876.324.564.324 1.332v1.164h-4.104v.636q0 .78.396 1.2.396.408 1.128.408.624 0 1.008-.216a.95.95 0 0 0 .468-.672h1.08q-.108.828-.816 1.32-.696.48-1.74.48m1.524-3.876v-.444q0-.78-.396-1.2-.384-.42-1.128-.42-.732 0-1.128.42t-.396 1.2v.348h3.132zm3.212 3.756v-8.772h5.16v.984h-4.104v2.916h3.792v.984h-3.768V279zm9.079.12q-1.044 0-1.644-.528-.6-.54-.6-1.452 0-.924.6-1.452t1.62-.528h2.04v-.66q0-.612-.372-.936-.36-.336-1.032-.336-.588 0-.984.252-.396.24-.456.66h-1.08q.108-.852.804-1.356t1.74-.504q1.14 0 1.8.588t.66 1.596V279h-1.056v-1.26h-.18l.18-.18q0 .72-.564 1.14-.552.42-1.476.42m.264-.852q.768 0 1.26-.384t.492-.984v-.936h-2.016q-.54 0-.852.3t-.312.816q0 .552.372.876.384.312 1.056.312m7.555.852q-.792 0-1.392-.3a2.16 2.16 0 0 1-.912-.864q-.324-.576-.324-1.356v-1.8q0-.792.324-1.356t.912-.864q.6-.3 1.392-.3 1.14 0 1.836.612t.732 1.668h-1.08q-.036-.636-.432-.972-.384-.348-1.056-.348-.708 0-1.128.408-.42.396-.42 1.14v1.812q0 .744.42 1.152t1.128.408q.672 0 1.056-.348.396-.348.432-.972h1.08q-.036 1.056-.732 1.668t-1.836.612m7.867-.12q-.852 0-1.332-.456-.468-.456-.468-1.284v-3.876h-1.86v-.984h1.86v-1.86h1.08v1.86h2.64v.984h-2.64v3.876q0 .756.72.756h1.8V279zm6.476.096q-.792 0-1.368-.3a2.2 2.2 0 0 1-.9-.864q-.312-.576-.312-1.356v-1.752q0-.792.312-1.356.324-.564.9-.864t1.368-.3 1.368.3.888.864q.324.564.324 1.344v1.764q0 .78-.324 1.356a2.1 2.1 0 0 1-.888.864q-.576.3-1.368.3m0-.96q.708 0 1.104-.396t.396-1.164v-1.752q0-.768-.396-1.164t-1.104-.396q-.696 0-1.104.396-.396.396-.396 1.164v1.752q0 .768.396 1.164.408.396 1.104.396m4.927.864v-6.6h1.056v1.26h.252l-.348.78q0-1.068.456-1.608.468-.552 1.38-.552 1.044 0 1.656.66.624.648.624 1.764v.396h-1.08v-.3q0-.78-.384-1.188-.372-.42-1.068-.42-.684 0-1.08.42-.384.42-.384 1.188v4.2zm7.999 2.16.972-2.568-2.448-6.192h1.2l1.536 4.08q.084.204.156.492l.12.468.12-.468q.072-.288.144-.492l1.44-4.08h1.164l-3.252 8.76zm8.66-2.04q-.456 0-.732-.264-.264-.264-.264-.708 0-.468.264-.744.276-.276.732-.276t.72.276q.276.276.276.744 0 .444-.276.708-.264.264-.72.264m7.243 0q-.792 0-1.392-.3a2.16 2.16 0 0 1-.912-.864q-.324-.576-.324-1.356v-1.8q0-.792.324-1.356t.912-.864q.6-.3 1.392-.3 1.14 0 1.836.612t.732 1.668h-1.08q-.036-.636-.432-.972-.384-.348-1.056-.348-.708 0-1.128.408-.42.396-.42 1.14v1.812q0 .744.42 1.152t1.128.408q.672 0 1.056-.348.396-.348.432-.972h1.08q-.036 1.056-.732 1.668t-1.836.612m4.879-.12v-6.6h1.056v1.26h.252l-.348.78q0-1.068.456-1.608.468-.552 1.38-.552 1.044 0 1.656.66.624.648.624 1.764v.396h-1.08v-.3q0-.78-.384-1.188-.372-.42-1.068-.42-.684 0-1.08.42-.384.42-.384 1.188v4.2zm9.464.12q-.78 0-1.368-.312a2.26 2.26 0 0 1-.9-.876q-.312-.576-.312-1.332v-1.8q0-.768.312-1.332.324-.564.9-.876.588-.312 1.368-.312t1.356.312q.588.312.9.876.324.564.324 1.332v1.164h-4.104v.636q0 .78.396 1.2.396.408 1.128.408.624 0 1.008-.216a.95.95 0 0 0 .468-.672h1.08q-.108.828-.816 1.32-.696.48-1.74.48m1.524-3.876v-.444q0-.78-.396-1.2-.384-.42-1.128-.42-.732 0-1.128.42t-.396 1.2v.348h3.132zm5.095 3.876q-1.044 0-1.644-.528-.6-.54-.6-1.452 0-.924.6-1.452t1.62-.528h2.04v-.66q0-.612-.372-.936-.36-.336-1.032-.336-.588 0-.984.252-.396.24-.456.66h-1.08q.108-.852.804-1.356t1.74-.504q1.14 0 1.8.588t.66 1.596V279h-1.056v-1.26h-.18l.18-.18q0 .72-.564 1.14-.552.42-1.476.42m.264-.852q.768 0 1.26-.384t.492-.984v-.936h-2.016q-.54 0-.852.3t-.312.816q0 .552.372.876.384.312 1.056.312m8.227.732q-.852 0-1.332-.456-.468-.456-.468-1.284v-3.876h-1.86v-.984h1.86v-1.86h1.08v1.86h2.64v.984h-2.64v3.876q0 .756.72.756h1.8V279zm6.476.12q-.78 0-1.368-.312a2.26 2.26 0 0 1-.9-.876q-.312-.576-.312-1.332v-1.8q0-.768.312-1.332.324-.564.9-.876.588-.312 1.368-.312t1.356.312q.588.312.9.876.324.564.324 1.332v1.164h-4.104v.636q0 .78.396 1.2.396.408 1.128.408.624 0 1.008-.216a.95.95 0 0 0 .468-.672h1.08q-.108.828-.816 1.32-.696.48-1.74.48m1.524-3.876v-.444q0-.78-.396-1.2-.384-.42-1.128-.42-.732 0-1.128.42t-.396 1.2v.348h3.132zm7.891 5.196q-1.704-.42-2.652-1.656t-.948-3.024v-2.16q0-1.176.432-2.124.444-.96 1.248-1.62a4.9 4.9 0 0 1 1.92-.936v1.02q-.768.18-1.332.696a3.4 3.4 0 0 0-.876 1.26q-.312.756-.312 1.704v2.16q0 .924.3 1.68.312.756.876 1.26.576.492 1.344.672zm6.19-1.32q-.456 0-.72-.264-.276-.264-.276-.708 0-.468.276-.744.264-.276.72-.276t.732.276q.264.276.264.744 0 .444-.264.708-.276.264-.732.264m5.988 0q-.456 0-.72-.264-.276-.264-.276-.708 0-.468.276-.744.264-.276.72-.276t.732.276q.264.276.264.744 0 .444-.264.708-.276.264-.732.264m5.988 0q-.456 0-.732-.264-.264-.264-.264-.708 0-.468.264-.744.276-.276.732-.276t.72.276q.276.276.276.744 0 .444-.276.708-.264.264-.72.264m6.175 1.32v-1.068q.78-.18 1.344-.672.564-.504.864-1.26a4.4 4.4 0 0 0 .312-1.68v-2.16q0-.948-.312-1.704a3.4 3.4 0 0 0-.876-1.26 2.9 2.9 0 0 0-1.332-.696v-1.02q1.116.276 1.92.936t1.236 1.62q.444.948.444 2.124v2.16q0 1.788-.948 3.024t-2.652 1.656m18.831 0q-1.704-.42-2.652-1.656t-.948-3.024v-2.16q0-1.176.432-2.124.444-.96 1.248-1.62a4.9 4.9 0 0 1 1.92-.936v1.02q-.768.18-1.332.696a3.4 3.4 0 0 0-.876 1.26q-.312.756-.312 1.704v2.16q0 .924.3 1.68.312.756.876 1.26.576.492 1.344.672zm4.975-1.32q-.78 0-1.368-.312a2.26 2.26 0 0 1-.9-.876q-.312-.576-.312-1.332v-1.8q0-.768.312-1.332.324-.564.9-.876.588-.312 1.368-.312t1.356.312q.588.312.9.876.324.564.324 1.332v1.164h-4.104v.636q0 .78.396 1.2.396.408 1.128.408.624 0 1.008-.216a.95.95 0 0 0 .468-.672h1.08q-.108.828-.816 1.32-.696.48-1.74.48m1.524-3.876v-.444q0-.78-.396-1.2-.384-.42-1.128-.42-.732 0-1.128.42t-.396 1.2v.348h3.132zm3.175 3.756v-6.6h1.08v1.26h.228l-.228.252q0-.78.468-1.2.468-.432 1.296-.432.996 0 1.584.612t.588 1.668V279h-1.08v-4.32q0-.708-.384-1.08-.372-.384-1.02-.384-.672 0-1.068.408-.384.408-.384 1.176v4.2zm9.74.12q-.792 0-1.392-.3a2.16 2.16 0 0 1-.912-.864q-.324-.576-.324-1.356v-1.8q0-.792.324-1.356t.912-.864q.6-.3 1.392-.3 1.14 0 1.836.612t.732 1.668h-1.08q-.036-.636-.432-.972-.384-.348-1.056-.348-.708 0-1.128.408-.42.396-.42 1.14v1.812q0 .744.42 1.152t1.128.408q.672 0 1.056-.348.396-.348.432-.972h1.08q-.036 1.056-.732 1.668t-1.836.612m7.147-.024q-.792 0-1.368-.3a2.2 2.2 0 0 1-.9-.864q-.312-.576-.312-1.356v-1.752q0-.792.312-1.356.324-.564.9-.864t1.368-.3 1.368.3.888.864q.324.564.324 1.344v1.764q0 .78-.324 1.356a2.1 2.1 0 0 1-.888.864q-.576.3-1.368.3m0-.96q.708 0 1.104-.396t.396-1.164v-1.752q0-.768-.396-1.164t-1.104-.396q-.696 0-1.104.396-.396.396-.396 1.164v1.752q0 .768.396 1.164.408.396 1.104.396m6.811.984q-.984 0-1.596-.66-.6-.66-.6-1.788v-1.932q0-1.14.6-1.8t1.596-.66q.816 0 1.308.444t.492 1.188l-.216-.252h.24l-.024-1.5v-1.92h1.08V279h-1.08v-1.26h-.216l.216-.252q0 .756-.492 1.2-.492.432-1.308.432m.36-.936q.672 0 1.056-.42t.384-1.164v-1.8q0-.744-.384-1.164t-1.056-.42q-.684 0-1.08.408t-.396 1.176v1.8q0 .768.396 1.176t1.08.408m7.22.936q-.78 0-1.368-.312a2.26 2.26 0 0 1-.9-.876q-.312-.576-.312-1.332v-1.8q0-.768.312-1.332.324-.564.9-.876.588-.312 1.368-.312t1.356.312q.588.312.9.876.324.564.324 1.332v1.164h-4.104v.636q0 .78.396 1.2.396.408 1.128.408.624 0 1.008-.216a.95.95 0 0 0 .468-.672h1.08q-.108.828-.816 1.32-.696.48-1.74.48m1.524-3.876v-.444q0-.78-.396-1.2-.384-.42-1.128-.42-.732 0-1.128.42t-.396 1.2v.348h3.132zm2.971 5.076 4.26-11.28h1.14l-4.26 11.28zm7.399-1.32v-8.76h1.08v3.42h.228l-.228.252q0-.78.468-1.2.468-.432 1.296-.432.996 0 1.584.612t.588 1.668V279h-1.08v-4.32q0-.708-.384-1.092-.372-.396-1.02-.396-.672 0-1.068.42-.384.42-.384 1.188v4.2zm9.116.12q-1.044 0-1.644-.528-.6-.54-.6-1.452 0-.924.6-1.452t1.62-.528h2.04v-.66q0-.612-.372-.936-.36-.336-1.032-.336-.588 0-.984.252-.396.24-.456.66h-1.08q.108-.852.804-1.356t1.74-.504q1.14 0 1.8.588t.66 1.596V279h-1.056v-1.26h-.18l.18-.18q0 .72-.564 1.14-.552.42-1.476.42m.264-.852q.768 0 1.26-.384t.492-.984v-.936h-2.016q-.54 0-.852.3t-.312.816q0 .552.372.876.384.312 1.056.312m7.303.828a3.1 3.1 0 0 1-1.176-.204 2 2 0 0 1-.792-.6 1.83 1.83 0 0 1-.348-.912h1.08a.84.84 0 0 0 .384.552q.324.204.852.204h.504q.636 0 .948-.252a.87.87 0 0 0 .312-.696q0-.42-.288-.66-.276-.252-.828-.336l-.888-.144q-.972-.168-1.452-.6-.468-.444-.468-1.284 0-.888.564-1.368.564-.492 1.692-.492h.456q.948 0 1.524.444t.696 1.2h-1.08a.77.77 0 0 0-.36-.492q-.288-.192-.78-.192h-.456q-.612 0-.9.228-.276.228-.276.684 0 .408.24.6t.756.276l.888.144q1.068.168 1.548.624.492.456.492 1.32 0 .912-.588 1.44-.576.516-1.752.516zm4.903-.096v-8.76h1.08v3.42h.228l-.228.252q0-.78.468-1.2.468-.432 1.296-.432.996 0 1.584.612t.588 1.668V279h-1.08v-4.32q0-.708-.384-1.092-.372-.396-1.02-.396-.672 0-1.068.42-.384.42-.384 1.188v4.2zm6.992 1.32 4.26-11.28h1.14l-4.26 11.28zm9.691-1.224a3.1 3.1 0 0 1-1.176-.204 2 2 0 0 1-.792-.6 1.83 1.83 0 0 1-.348-.912h1.08a.84.84 0 0 0 .384.552q.324.204.852.204h.504q.636 0 .948-.252a.87.87 0 0 0 .312-.696q0-.42-.288-.66-.276-.252-.828-.336l-.888-.144q-.972-.168-1.452-.6-.468-.444-.468-1.284 0-.888.564-1.368.564-.492 1.692-.492h.456q.948 0 1.524.444t.696 1.2h-1.08a.77.77 0 0 0-.36-.492q-.288-.192-.78-.192h-.456q-.612 0-.9.228-.276.228-.276.684 0 .408.24.6t.756.276l.888.144q1.068.168 1.548.624.492.456.492 1.32 0 .912-.588 1.44-.576.516-1.752.516zm4.819-.096v-.984h2.34v-4.632h-2.04v-.984h3.12v5.616h2.22V279zm2.76-7.788q-.396 0-.624-.204a.7.7 0 0 1-.228-.552q0-.36.228-.564.228-.216.624-.216t.624.216q.228.204.228.564a.7.7 0 0 1-.228.552q-.228.204-.624.204m5.347 9.948v-.984h2.1q.504 0 .732-.228.24-.228.24-.708v-.84l.024-1.2h-.216l.204-.18q0 .72-.48 1.14t-1.284.42q-1.02 0-1.608-.66-.588-.672-.588-1.8v-1.392q0-1.128.588-1.788t1.608-.66q.804 0 1.284.42t.48 1.14l-.204-.18h.204v-1.26h1.068v6.84q0 .888-.552 1.404-.54.516-1.512.516zm1.644-3.516q.672 0 1.056-.42t.384-1.164v-1.26q0-.744-.384-1.164t-1.056-.42q-.684 0-1.068.408-.372.408-.372 1.176v1.26q0 .768.372 1.176.384.408 1.068.408m4.724 1.356v-6.6h1.08v1.26h.228l-.228.252q0-.78.468-1.2.468-.432 1.296-.432.996 0 1.584.612t.588 1.668V279h-1.08v-4.32q0-.708-.384-1.08-.372-.384-1.02-.384-.672 0-1.068.408-.384.408-.384 1.176v4.2zm9.115.12q-1.044 0-1.644-.528-.6-.54-.6-1.452 0-.924.6-1.452t1.62-.528h2.04v-.66q0-.612-.372-.936-.36-.336-1.032-.336-.588 0-.984.252-.396.24-.456.66h-1.08q.108-.852.804-1.356t1.74-.504q1.14 0 1.8.588t.66 1.596V279h-1.056v-1.26h-.18l.18-.18q0 .72-.564 1.14-.552.42-1.476.42m.264-.852q.768 0 1.26-.384t.492-.984v-.936h-2.016q-.54 0-.852.3t-.312.816q0 .552.372.876.384.312 1.056.312m8.227.732q-.852 0-1.332-.456-.468-.456-.468-1.284v-3.876h-1.86v-.984h1.86v-1.86h1.08v1.86h2.64v.984h-2.64v3.876q0 .756.72.756h1.8V279zm6.464.12q-1.14 0-1.824-.672-.684-.684-.684-1.848v-4.2h1.08v4.2q0 .744.384 1.164.384.408 1.044.408.672 0 1.056-.408.396-.42.396-1.164v-4.2h1.08v4.2q0 1.164-.696 1.848-.696.672-1.836.672m4.939-.12v-6.6h1.056v1.26h.252l-.348.78q0-1.068.456-1.608.468-.552 1.38-.552 1.044 0 1.656.66.624.648.624 1.764v.396h-1.08v-.3q0-.78-.384-1.188-.372-.42-1.068-.42-.684 0-1.08.42-.384.42-.384 1.188v4.2zm9.463.12q-.78 0-1.368-.312a2.26 2.26 0 0 1-.9-.876q-.312-.576-.312-1.332v-1.8q0-.768.312-1.332.324-.564.9-.876.588-.312 1.368-.312t1.356.312q.588.312.9.876.324.564.324 1.332v1.164h-4.104v.636q0 .78.396 1.2.396.408 1.128.408.624 0 1.008-.216a.95.95 0 0 0 .468-.672h1.08q-.108.828-.816 1.32-.696.48-1.74.48m1.524-3.876v-.444q0-.78-.396-1.2-.384-.42-1.128-.42-.732 0-1.128.42t-.396 1.2v.348h3.132zm3.452 5.196v-1.068q.78-.18 1.344-.672.564-.504.864-1.26a4.4 4.4 0 0 0 .312-1.68v-2.16q0-.948-.312-1.704a3.4 3.4 0 0 0-.876-1.26 2.9 2.9 0 0 0-1.332-.696v-1.02q1.116.276 1.92.936t1.236 1.62q.444.948.444 2.124v2.16q0 1.788-.948 3.024t-2.652 1.656"/><rect width="290" height="27" x="133.5" y="297.5" fill="#fffef9" rx="3.5"/><rect width="290" height="27" x="133.5" y="297.5" stroke="#d3d5cf" stroke-dasharray="2 2" rx="3.5"/><path fill="#080808" d="M150.016 317.16v-1.92l.024-1.5h-.24l.216-.252q0 .744-.492 1.188t-1.308.444q-.996 0-1.584-.66-.576-.66-.576-1.8v-1.932q0-1.14.588-1.788.588-.66 1.572-.66.816 0 1.308.444.492.432.492 1.188l-.216-.252h.216v-1.26h1.08v8.76zm-1.44-2.976q.672 0 1.056-.42t.384-1.164v-1.8q0-.744-.384-1.164t-1.056-.42q-.684 0-1.068.408-.372.408-.372 1.176v1.8q0 .768.372 1.176.384.408 1.068.408m7.207.936q-1.14 0-1.824-.672-.684-.684-.684-1.848v-4.2h1.08v4.2q0 .744.384 1.164.384.408 1.044.408.672 0 1.056-.408.396-.42.396-1.164v-4.2h1.08v4.2q0 1.164-.696 1.848-.696.672-1.836.672m6.632 0q-1.044 0-1.644-.528-.6-.54-.6-1.452 0-.924.6-1.452t1.62-.528h2.04v-.66q0-.612-.372-.936-.36-.336-1.032-.336-.588 0-.984.252-.396.24-.456.66h-1.08q.108-.852.804-1.356t1.74-.504q1.14 0 1.8.588t.66 1.596V315h-1.056v-1.26h-.18l.18-.18q0 .72-.564 1.14-.552.42-1.476.42m.264-.852q.768 0 1.26-.384t.492-.984v-.936h-2.016q-.54 0-.852.3t-.312.816q0 .552.372.876.384.312 1.056.312m5.239.732v-6.6h1.056v1.26h.252l-.348.78q0-1.068.456-1.608.468-.552 1.38-.552 1.044 0 1.656.66.624.648.624 1.764v.396h-1.08v-.3q0-.78-.384-1.188-.372-.42-1.068-.42-.684 0-1.08.42-.384.42-.384 1.188v4.2zm8.887.12q-1.044 0-1.644-.528-.6-.54-.6-1.452 0-.924.6-1.452t1.62-.528h2.04v-.66q0-.612-.372-.936-.36-.336-1.032-.336-.588 0-.984.252-.396.24-.456.66h-1.08q.108-.852.804-1.356t1.74-.504q1.14 0 1.8.588t.66 1.596V315h-1.056v-1.26h-.18l.18-.18q0 .72-.564 1.14-.552.42-1.476.42m.264-.852q.768 0 1.26-.384t.492-.984v-.936h-2.016q-.54 0-.852.3t-.312.816q0 .552.372.876.384.312 1.056.312m5.012.732v-6.6h1.08v1.26h.228l-.228.252q0-.78.468-1.2.468-.432 1.296-.432.996 0 1.584.612t.588 1.668V315h-1.08v-4.32q0-.708-.384-1.08-.372-.384-1.02-.384-.672 0-1.068.408-.384.408-.384 1.176v4.2zm10.411 0q-.852 0-1.332-.456-.468-.456-.468-1.284v-3.876h-1.86v-.984h1.86v-1.86h1.08v1.86h2.64v.984h-2.64v3.876q0 .756.72.756h1.8V315zm3.895 0v-.984h2.34v-4.632h-2.04v-.984h3.12v5.616h2.22V315zm2.76-7.788q-.396 0-.624-.204a.7.7 0 0 1-.228-.552q0-.36.228-.564.228-.216.624-.216t.624.216q.228.204.228.564a.7.7 0 0 1-.228.552q-.228.204-.624.204m4.52 7.788v-6.6h1.08v1.26h.228l-.228.252q0-.78.468-1.2.468-.432 1.296-.432.996 0 1.584.612t.588 1.668V315h-1.08v-4.32q0-.708-.384-1.08-.372-.384-1.02-.384-.672 0-1.068.408-.384.408-.384 1.176v4.2zm9.691.12q-.78 0-1.368-.312a2.26 2.26 0 0 1-.9-.876q-.312-.576-.312-1.332v-1.8q0-.768.312-1.332.324-.564.9-.876.588-.312 1.368-.312t1.356.312q.588.312.9.876.324.564.324 1.332v1.164h-4.104v.636q0 .78.396 1.2.396.408 1.128.408.624 0 1.008-.216a.95.95 0 0 0 .468-.672h1.08q-.108.828-.816 1.32-.696.48-1.74.48m1.524-3.876v-.444q0-.78-.396-1.2-.384-.42-1.128-.42-.732 0-1.128.42t-.396 1.2v.348h3.132zM225.168 315v-.984h2.34v-4.632h-2.04v-.984h3.12v5.616h2.22V315zm2.76-7.788q-.396 0-.624-.204a.7.7 0 0 1-.228-.552q0-.36.228-.564.228-.216.624-.216t.624.216q.228.204.228.564a.7.7 0 0 1-.228.552q-.228.204-.624.204m4.52 7.788v-6.6h1.08v1.26h.228l-.228.252q0-.78.468-1.2.468-.432 1.296-.432.996 0 1.584.612t.588 1.668V315h-1.08v-4.32q0-.708-.384-1.08-.372-.384-1.02-.384-.672 0-1.068.408-.384.408-.384 1.176v4.2zm9.487.096a3.1 3.1 0 0 1-1.176-.204 2 2 0 0 1-.792-.6 1.83 1.83 0 0 1-.348-.912h1.08a.84.84 0 0 0 .384.552q.324.204.852.204h.504q.636 0 .948-.252a.87.87 0 0 0 .312-.696q0-.42-.288-.66-.276-.252-.828-.336l-.888-.144q-.972-.168-1.452-.6-.468-.444-.468-1.284 0-.888.564-1.368.564-.492 1.692-.492h.456q.948 0 1.524.444t.696 1.2h-1.08a.77.77 0 0 0-.36-.492q-.288-.192-.78-.192h-.456q-.612 0-.9.228-.276.228-.276.684 0 .408.24.6t.756.276l.888.144q1.068.168 1.548.624.492.456.492 1.32 0 .912-.588 1.44-.576.516-1.752.516zm7.399.024q-.78 0-1.368-.312a2.26 2.26 0 0 1-.9-.876q-.312-.576-.312-1.332v-1.8q0-.768.312-1.332.324-.564.9-.876.588-.312 1.368-.312t1.356.312q.588.312.9.876.324.564.324 1.332v1.164h-4.104v.636q0 .78.396 1.2.396.408 1.128.408.624 0 1.008-.216a.95.95 0 0 0 .468-.672h1.08q-.108.828-.816 1.32-.696.48-1.74.48m1.524-3.876v-.444q0-.78-.396-1.2-.384-.42-1.128-.42-.732 0-1.128.42t-.396 1.2v.348h3.132zm3.404 3.756v-6.6h1.056v1.26h.252l-.348.78q0-1.068.456-1.608.468-.552 1.38-.552 1.044 0 1.656.66.624.648.624 1.764v.396h-1.08v-.3q0-.78-.384-1.188-.372-.42-1.068-.42-.684 0-1.08.42-.384.42-.384 1.188v4.2zm10.183 0q-.852 0-1.332-.456-.468-.456-.468-1.284v-3.876h-1.86v-.984h1.86v-1.86h1.08v1.86h2.64v.984h-2.64v3.876q0 .756.72.756h1.8V315zm13.143-1.14v-2.34h-2.292v-.96h2.292v-2.34h1.056v2.34h2.292v.96h-2.292v2.34zm14.966 1.26q-.792 0-1.392-.3a2.16 2.16 0 0 1-.912-.864q-.324-.576-.324-1.356v-1.8q0-.792.324-1.356t.912-.864q.6-.3 1.392-.3 1.14 0 1.836.612t.732 1.668h-1.08q-.036-.636-.432-.972-.384-.348-1.056-.348-.708 0-1.128.408-.42.396-.42 1.14v1.812q0 .744.42 1.152t1.128.408q.672 0 1.056-.348.396-.348.432-.972h1.08q-.036 1.056-.732 1.668t-1.836.612m6.572 0q-1.044 0-1.644-.528-.6-.54-.6-1.452 0-.924.6-1.452t1.62-.528h2.04v-.66q0-.612-.372-.936-.36-.336-1.032-.336-.588 0-.984.252-.396.24-.456.66h-1.08q.108-.852.804-1.356t1.74-.504q1.14 0 1.8.588t.66 1.596V315h-1.056v-1.26h-.18l.18-.18q0 .72-.564 1.14-.552.42-1.476.42m.264-.852q.768 0 1.26-.384t.492-.984v-.936h-2.016q-.54 0-.852.3t-.312.816q0 .552.372.876.384.312 1.056.312m5.011 2.892v-8.76h1.08v1.26h.216l-.216.252q0-.756.492-1.188.504-.444 1.32-.444.996 0 1.584.66.6.648.6 1.788v1.932q0 .756-.276 1.308a1.96 1.96 0 0 1-.756.852q-.48.3-1.152.3-.804 0-1.308-.444t-.504-1.188l.216.252h-.24l.024 1.5v1.92zm2.532-2.976q.684 0 1.068-.408.396-.408.396-1.176v-1.8q0-.768-.396-1.176-.384-.408-1.068-.408-.66 0-1.056.42t-.396 1.164v1.8q0 .744.396 1.164t1.056.42m6.583.936q-1.044 0-1.644-.528-.6-.54-.6-1.452 0-.924.6-1.452t1.62-.528h2.04v-.66q0-.612-.372-.936-.36-.336-1.032-.336-.588 0-.984.252-.396.24-.456.66h-1.08q.108-.852.804-1.356t1.74-.504q1.14 0 1.8.588t.66 1.596V315h-1.056v-1.26h-.18l.18-.18q0 .72-.564 1.14-.552.42-1.476.42m.264-.852q.768 0 1.26-.384t.492-.984v-.936h-2.016q-.54 0-.852.3t-.312.816q0 .552.372.876.384.312 1.056.312m7.556.852q-.792 0-1.392-.3a2.16 2.16 0 0 1-.912-.864q-.324-.576-.324-1.356v-1.8q0-.792.324-1.356t.912-.864q.6-.3 1.392-.3 1.14 0 1.836.612t.732 1.668h-1.08q-.036-.636-.432-.972-.384-.348-1.056-.348-.708 0-1.128.408-.42.396-.42 1.14v1.812q0 .744.42 1.152t1.128.408q.672 0 1.056-.348.396-.348.432-.972h1.08q-.036 1.056-.732 1.668t-1.836.612m4.567-.12v-.984h2.34v-4.632h-2.04v-.984h3.12v5.616h2.22V315zm2.76-7.788q-.396 0-.624-.204a.7.7 0 0 1-.228-.552q0-.36.228-.564.228-.216.624-.216t.624.216q.228.204.228.564a.7.7 0 0 1-.228.552q-.228.204-.624.204m7.735 7.788q-.852 0-1.332-.456-.468-.456-.468-1.284v-3.876h-1.86v-.984h1.86v-1.86h1.08v1.86h2.64v.984h-2.64v3.876q0 .756.72.756h1.8V315zm5.011 2.16.972-2.568-2.448-6.192h1.2l1.536 4.08q.084.204.156.492l.12.468.12-.468q.072-.288.144-.492l1.44-4.08h1.164l-3.252 8.76zm15.855-2.04q-.78 0-1.368-.312a2.26 2.26 0 0 1-.9-.876q-.312-.576-.312-1.332v-1.8q0-.768.312-1.332.324-.564.9-.876.588-.312 1.368-.312t1.356.312q.588.312.9.876.324.564.324 1.332v1.164h-4.104v.636q0 .78.396 1.2.396.408 1.128.408.624 0 1.008-.216a.95.95 0 0 0 .468-.672h1.08q-.108.828-.816 1.32-.696.48-1.74.48m1.524-3.876v-.444q0-.78-.396-1.2-.384-.42-1.128-.42-.732 0-1.128.42t-.396 1.2v.348h3.132zm4.939 3.756-2.208-6.6h1.104l1.464 4.44a21 21 0 0 1 .396 1.332l.168-.564q.108-.372.228-.768l1.428-4.44h1.092l-2.208 6.6zm5.348 0v-.984h2.34v-4.632h-2.04v-.984h3.12v5.616h2.22V315zm2.76-7.788q-.396 0-.624-.204a.7.7 0 0 1-.228-.552q0-.36.228-.564.228-.216.624-.216t.624.216q.228.204.228.564a.7.7 0 0 1-.228.552q-.228.204-.624.204m7.063 7.908q-.792 0-1.392-.3a2.16 2.16 0 0 1-.912-.864q-.324-.576-.324-1.356v-1.8q0-.792.324-1.356t.912-.864q.6-.3 1.392-.3 1.14 0 1.836.612t.732 1.668h-1.08q-.036-.636-.432-.972-.384-.348-1.056-.348-.708 0-1.128.408-.42.396-.42 1.14v1.812q0 .744.42 1.152t1.128.408q.672 0 1.056-.348.396-.348.432-.972h1.08q-.036 1.056-.732 1.668t-1.836.612m7.867-.12q-.852 0-1.332-.456-.468-.456-.468-1.284v-3.876h-1.86v-.984h1.86v-1.86h1.08v1.86h2.64v.984h-2.64v3.876q0 .756.72.756h1.8V315zm3.896 0v-.984h2.34v-4.632h-2.04v-.984h3.12v5.616h2.22V315zm2.76-7.788q-.396 0-.624-.204a.7.7 0 0 1-.228-.552q0-.36.228-.564.228-.216.624-.216t.624.216q.228.204.228.564a.7.7 0 0 1-.228.552q-.228.204-.624.204m7.015 7.884q-.792 0-1.368-.3a2.2 2.2 0 0 1-.9-.864q-.312-.576-.312-1.356v-1.752q0-.792.312-1.356.324-.564.9-.864t1.368-.3 1.368.3.888.864q.324.564.324 1.344v1.764q0 .78-.324 1.356a2.1 2.1 0 0 1-.888.864q-.576.3-1.368.3m0-.96q.708 0 1.104-.396t.396-1.164v-1.752q0-.768-.396-1.164t-1.104-.396q-.696 0-1.104.396-.396.396-.396 1.164v1.752q0 .768.396 1.164.408.396 1.104.396m4.699.864v-6.6h1.08v1.26h.228l-.228.252q0-.78.468-1.2.468-.432 1.296-.432.996 0 1.584.612t.588 1.668V315h-1.08v-4.32q0-.708-.384-1.08-.372-.384-1.02-.384-.672 0-1.068.408-.384.408-.384 1.176v4.2z"/><rect width="405" height="27" x="133.5" y="333.5" fill="#fffef9" rx="3.5"/><rect width="405" height="27" x="133.5" y="333.5" stroke="#d3d5cf" stroke-dasharray="2 2" rx="3.5"/><path fill="#080808" d="M146.104 351v-8.76h1.08v3.42h.228l-.228.252q0-.78.468-1.2.468-.432 1.296-.432.996 0 1.584.612t.588 1.668V351h-1.08v-4.32q0-.708-.384-1.092-.372-.396-1.02-.396-.672 0-1.068.42-.384.42-.384 1.188v4.2zm9.691.096q-.792 0-1.368-.3a2.2 2.2 0 0 1-.9-.864q-.312-.576-.312-1.356v-1.752q0-.792.312-1.356.324-.564.9-.864t1.368-.3 1.368.3.888.864q.324.564.324 1.344v1.764q0 .78-.324 1.356a2.1 2.1 0 0 1-.888.864q-.576.3-1.368.3m0-.96q.708 0 1.104-.396t.396-1.164v-1.752q0-.768-.396-1.164t-1.104-.396q-.696 0-1.104.396-.396.396-.396 1.164v1.752q0 .768.396 1.164.408.396 1.104.396m7.184.984q-1.14 0-1.824-.672-.684-.684-.684-1.848v-4.2h1.08v4.2q0 .744.384 1.164.384.408 1.044.408.672 0 1.056-.408.396-.42.396-1.164v-4.2h1.08v4.2q0 1.164-.696 1.848-.696.672-1.836.672m4.711-.12v-6.6h1.08v1.26h.228l-.228.252q0-.78.468-1.2.468-.432 1.296-.432.996 0 1.584.612t.588 1.668V351h-1.08v-4.32q0-.708-.384-1.08-.372-.384-1.02-.384-.672 0-1.068.408-.384.408-.384 1.176v4.2zm9.307.12q-.984 0-1.596-.66-.6-.66-.6-1.788v-1.932q0-1.14.6-1.8t1.596-.66q.816 0 1.308.444t.492 1.188l-.216-.252h.24l-.024-1.5v-1.92h1.08V351h-1.08v-1.26h-.216l.216-.252q0 .756-.492 1.2-.492.432-1.308.432m.36-.936q.672 0 1.056-.42t.384-1.164v-1.8q0-.744-.384-1.164t-1.056-.42q-.684 0-1.08.408t-.396 1.176v1.8q0 .768.396 1.176t1.08.408m4.724.816v-8.76h2.82q.816 0 1.416.324.6.312.924.888.336.576.336 1.368 0 .78-.336 1.368a2.28 2.28 0 0 1-.924.9q-.6.312-1.416.312h-1.74v3.6zm1.08-4.572h1.74q.708 0 1.128-.432.432-.444.432-1.176 0-.744-.432-1.176-.42-.432-1.128-.432h-1.74zm8.611 4.668q-.792 0-1.368-.3a2.2 2.2 0 0 1-.9-.864q-.312-.576-.312-1.356v-1.752q0-.792.312-1.356.324-.564.9-.864t1.368-.3 1.368.3.888.864q.324.564.324 1.344v1.764q0 .78-.324 1.356a2.1 2.1 0 0 1-.888.864q-.576.3-1.368.3m0-.96q.708 0 1.104-.396t.396-1.164v-1.752q0-.768-.396-1.164t-1.104-.396q-.696 0-1.104.396-.396.396-.396 1.164v1.752q0 .768.396 1.164.408.396 1.104.396m7.195.96q-.792 0-1.368-.3a2.2 2.2 0 0 1-.9-.864q-.312-.576-.312-1.356v-1.752q0-.792.312-1.356.324-.564.9-.864t1.368-.3 1.368.3.888.864q.324.564.324 1.344v1.764q0 .78-.324 1.356a2.1 2.1 0 0 1-.888.864q-.576.3-1.368.3m0-.96q.708 0 1.104-.396t.396-1.164v-1.752q0-.768-.396-1.164t-1.104-.396q-.696 0-1.104.396-.396.396-.396 1.164v1.752q0 .768.396 1.164.408.396 1.104.396m8.096.864a2.1 2.1 0 0 1-1.008-.228 1.64 1.64 0 0 1-.672-.648 1.95 1.95 0 0 1-.24-.984v-5.916h-2.22v-.984h3.3v6.9q0 .408.228.648.228.228.612.228h2.1V351zm6.295.12q-.456 0-.732-.264-.264-.264-.264-.708 0-.468.264-.744.276-.276.732-.276t.72.276q.276.276.276.744 0 .444-.276.708-.264.264-.72.264m6.619 0q-1.044 0-1.644-.528-.6-.54-.6-1.452 0-.924.6-1.452t1.62-.528h2.04v-.66q0-.612-.372-.936-.36-.336-1.032-.336-.588 0-.984.252-.396.24-.456.66h-1.08q.108-.852.804-1.356t1.74-.504q1.14 0 1.8.588t.66 1.596V351h-1.056v-1.26h-.18l.18-.18q0 .72-.564 1.14-.552.42-1.476.42m.264-.852q.768 0 1.26-.384t.492-.984v-.936h-2.016q-.54 0-.852.3t-.312.816q0 .552.372.876.384.312 1.056.312m7.555.852q-.792 0-1.392-.3a2.16 2.16 0 0 1-.912-.864q-.324-.576-.324-1.356v-1.8q0-.792.324-1.356t.912-.864q.6-.3 1.392-.3 1.14 0 1.836.612t.732 1.668h-1.08q-.036-.636-.432-.972-.384-.348-1.056-.348-.708 0-1.128.408-.42.396-.42 1.14v1.812q0 .744.42 1.152t1.128.408q.672 0 1.056-.348.396-.348.432-.972h1.08q-.036 1.056-.732 1.668t-1.836.612m7.868-.12q-.852 0-1.332-.456-.468-.456-.468-1.284v-3.876h-1.86v-.984h1.86v-1.86h1.08v1.86h2.64v.984h-2.64v3.876q0 .756.72.756h1.8V351zm3.895 0v-.984h2.34v-4.632h-2.04v-.984h3.12v5.616h2.22V351zm2.76-7.788q-.396 0-.624-.204a.7.7 0 0 1-.228-.552q0-.36.228-.564.228-.216.624-.216t.624.216q.228.204.228.564a.7.7 0 0 1-.228.552q-.228.204-.624.204m6.283 7.788-2.208-6.6h1.104l1.464 4.44a21 21 0 0 1 .396 1.332l.168-.564q.108-.372.228-.768l1.428-4.44h1.092l-2.208 6.6zm7.352.12q-1.044 0-1.644-.528-.6-.54-.6-1.452 0-.924.6-1.452t1.62-.528h2.04v-.66q0-.612-.372-.936-.36-.336-1.032-.336-.588 0-.984.252-.396.24-.456.66h-1.08q.108-.852.804-1.356t1.74-.504q1.14 0 1.8.588t.66 1.596V351h-1.056v-1.26h-.18l.18-.18q0 .72-.564 1.14-.552.42-1.476.42m.264-.852q.768 0 1.26-.384t.492-.984v-.936h-2.016q-.54 0-.852.3t-.312.816q0 .552.372.876.384.312 1.056.312m8.227.732q-.852 0-1.332-.456-.468-.456-.468-1.284v-3.876h-1.86v-.984h1.86v-1.86h1.08v1.86h2.64v.984h-2.64v3.876q0 .756.72.756h1.8V351zm6.475.12q-.78 0-1.368-.312a2.26 2.26 0 0 1-.9-.876q-.312-.576-.312-1.332v-1.8q0-.768.312-1.332.324-.564.9-.876.588-.312 1.368-.312t1.356.312q.588.312.9.876.324.564.324 1.332v1.164h-4.104v.636q0 .78.396 1.2.396.408 1.128.408.624 0 1.008-.216a.95.95 0 0 0 .468-.672h1.08q-.108.828-.816 1.32-.696.48-1.74.48m1.524-3.876v-.444q0-.78-.396-1.2-.384-.42-1.128-.42-.732 0-1.128.42t-.396 1.2v.348h3.132zm7.892 5.196q-1.704-.42-2.652-1.656t-.948-3.024v-2.16q0-1.176.432-2.124.444-.96 1.248-1.62a4.9 4.9 0 0 1 1.92-.936v1.02q-.768.18-1.332.696a3.4 3.4 0 0 0-.876 1.26q-.312.756-.312 1.704v2.16q0 .924.3 1.68.312.756.876 1.26.576.492 1.344.672zm4.975-1.32q-.78 0-1.368-.312a2.26 2.26 0 0 1-.9-.876q-.312-.576-.312-1.332v-1.8q0-.768.312-1.332.324-.564.9-.876.588-.312 1.368-.312t1.356.312q.588.312.9.876.324.564.324 1.332v1.164h-4.104v.636q0 .78.396 1.2.396.408 1.128.408.624 0 1.008-.216a.95.95 0 0 0 .468-.672h1.08q-.108.828-.816 1.32-.696.48-1.74.48m1.524-3.876v-.444q0-.78-.396-1.2-.384-.42-1.128-.42-.732 0-1.128.42t-.396 1.2v.348h3.132zm4.939 3.756-2.208-6.6h1.104l1.464 4.44a21 21 0 0 1 .396 1.332l.168-.564q.108-.372.228-.768l1.428-4.44h1.092l-2.208 6.6zm5.348 0v-.984h2.34v-4.632h-2.04v-.984h3.12v5.616h2.22V351zm2.76-7.788q-.396 0-.624-.204a.7.7 0 0 1-.228-.552q0-.36.228-.564.228-.216.624-.216t.624.216q.228.204.228.564a.7.7 0 0 1-.228.552q-.228.204-.624.204m6.631 7.908q-.984 0-1.596-.66-.6-.66-.6-1.788v-1.932q0-1.14.6-1.8t1.596-.66q.816 0 1.308.444t.492 1.188l-.216-.252h.24l-.024-1.5v-1.92h1.08V351h-1.08v-1.26h-.216l.216-.252q0 .756-.492 1.2-.492.432-1.308.432m.36-.936q.672 0 1.056-.42t.384-1.164v-1.8q0-.744-.384-1.164t-1.056-.42q-.684 0-1.08.408t-.396 1.176v1.8q0 .768.396 1.176t1.08.408m7.219.936q-.78 0-1.368-.312a2.26 2.26 0 0 1-.9-.876q-.312-.576-.312-1.332v-1.8q0-.768.312-1.332.324-.564.9-.876.588-.312 1.368-.312t1.356.312q.588.312.9.876.324.564.324 1.332v1.164h-4.104v.636q0 .78.396 1.2.396.408 1.128.408.624 0 1.008-.216a.95.95 0 0 0 .468-.672h1.08q-.108.828-.816 1.32-.696.48-1.74.48m1.524-3.876v-.444q0-.78-.396-1.2-.384-.42-1.128-.42-.732 0-1.128.42t-.396 1.2v.348h3.132zm3.176 3.756v-6.6h1.08v1.26h.228l-.228.252q0-.78.468-1.2.468-.432 1.296-.432.996 0 1.584.612t.588 1.668V351h-1.08v-4.32q0-.708-.384-1.08-.372-.384-1.02-.384-.672 0-1.068.408-.384.408-.384 1.176v4.2zm9.739.12q-.792 0-1.392-.3a2.16 2.16 0 0 1-.912-.864q-.324-.576-.324-1.356v-1.8q0-.792.324-1.356t.912-.864q.6-.3 1.392-.3 1.14 0 1.836.612t.732 1.668h-1.08q-.036-.636-.432-.972-.384-.348-1.056-.348-.708 0-1.128.408-.42.396-.42 1.14v1.812q0 .744.42 1.152t1.128.408q.672 0 1.056-.348.396-.348.432-.972h1.08q-.036 1.056-.732 1.668t-1.836.612m7.147 0q-.78 0-1.368-.312a2.26 2.26 0 0 1-.9-.876q-.312-.576-.312-1.332v-1.8q0-.768.312-1.332.324-.564.9-.876.588-.312 1.368-.312t1.356.312q.588.312.9.876.324.564.324 1.332v1.164h-4.104v.636q0 .78.396 1.2.396.408 1.128.408.624 0 1.008-.216a.95.95 0 0 0 .468-.672h1.08q-.108.828-.816 1.32-.696.48-1.74.48m1.524-3.876v-.444q0-.78-.396-1.2-.384-.42-1.128-.42-.732 0-1.128.42t-.396 1.2v.348h3.132zm3.451 5.196v-1.068q.78-.18 1.344-.672.564-.504.864-1.26a4.4 4.4 0 0 0 .312-1.68v-2.16q0-.948-.312-1.704a3.4 3.4 0 0 0-.876-1.26 2.9 2.9 0 0 0-1.332-.696v-1.02q1.116.276 1.92.936t1.236 1.62q.444.948.444 2.124v2.16q0 1.788-.948 3.024t-2.652 1.656m18.831 0q-1.704-.42-2.652-1.656t-.948-3.024v-2.16q0-1.176.432-2.124.444-.96 1.248-1.62a4.9 4.9 0 0 1 1.92-.936v1.02q-.768.18-1.332.696a3.4 3.4 0 0 0-.876 1.26q-.312.756-.312 1.704v2.16q0 .924.3 1.68.312.756.876 1.26.576.492 1.344.672zm4.399-1.32q-1.044 0-1.644-.528-.6-.54-.6-1.452 0-.924.6-1.452t1.62-.528h2.04v-.66q0-.612-.372-.936-.36-.336-1.032-.336-.588 0-.984.252-.396.24-.456.66h-1.08q.108-.852.804-1.356t1.74-.504q1.14 0 1.8.588t.66 1.596V351h-1.056v-1.26h-.18l.18-.18q0 .72-.564 1.14-.552.42-1.476.42m.264-.852q.768 0 1.26-.384t.492-.984v-.936h-2.016q-.54 0-.852.3t-.312.816q0 .552.372.876.384.312 1.056.312m7.304.828a3.1 3.1 0 0 1-1.176-.204 2 2 0 0 1-.792-.6 1.83 1.83 0 0 1-.348-.912h1.08a.84.84 0 0 0 .384.552q.324.204.852.204h.504q.636 0 .948-.252a.87.87 0 0 0 .312-.696q0-.42-.288-.66-.276-.252-.828-.336l-.888-.144q-.972-.168-1.452-.6-.468-.444-.468-1.284 0-.888.564-1.368.564-.492 1.692-.492h.456q.948 0 1.524.444t.696 1.2h-1.08a.77.77 0 0 0-.36-.492q-.288-.192-.78-.192h-.456q-.612 0-.9.228-.276.228-.276.684 0 .408.24.6t.756.276l.888.144q1.068.168 1.548.624.492.456.492 1.32 0 .912-.588 1.44-.576.516-1.752.516zm5.935 2.064.972-2.568-2.448-6.192h1.2l1.536 4.08q.084.204.156.492l.12.468.12-.468q.072-.288.144-.492l1.44-4.08h1.164l-3.252 8.76zm6.163-2.16v-6.6h1.08v1.26h.228l-.228.252q0-.78.468-1.2.468-.432 1.296-.432.996 0 1.584.612t.588 1.668V351h-1.08v-4.32q0-.708-.384-1.08-.372-.384-1.02-.384-.672 0-1.068.408-.384.408-.384 1.176v4.2zm9.74.12q-.792 0-1.392-.3a2.16 2.16 0 0 1-.912-.864q-.324-.576-.324-1.356v-1.8q0-.792.324-1.356t.912-.864q.6-.3 1.392-.3 1.14 0 1.836.612t.732 1.668h-1.08q-.036-.636-.432-.972-.384-.348-1.056-.348-.708 0-1.128.408-.42.396-.42 1.14v1.812q0 .744.42 1.152t1.128.408q.672 0 1.056-.348.396-.348.432-.972h1.08q-.036 1.056-.732 1.668t-1.836.612m5.527 1.8.96-3.732h1.56l-1.56 3.732zm15.051-1.92v-4.956h-1.92v-.984h1.92v-1.14q0-.78.492-1.224.492-.456 1.356-.456h1.932v.984h-1.932q-.372 0-.576.18-.192.168-.192.516v1.14h2.7v.984h-2.7V351zm5.575 0v-.984h2.34v-4.632h-2.04v-.984h3.12v5.616h2.22V351zm2.76-7.788q-.396 0-.624-.204a.7.7 0 0 1-.228-.552q0-.36.228-.564.228-.216.624-.216t.624.216q.228.204.228.564a.7.7 0 0 1-.228.552q-.228.204-.624.204m4.747 7.788v-6.6h1.056v1.26h.252l-.348.78q0-1.068.456-1.608.468-.552 1.38-.552 1.044 0 1.656.66.624.648.624 1.764v.396h-1.08v-.3q0-.78-.384-1.188-.372-.42-1.068-.42-.684 0-1.08.42-.384.42-.384 1.188v4.2zm9.464.12q-.78 0-1.368-.312a2.26 2.26 0 0 1-.9-.876q-.312-.576-.312-1.332v-1.8q0-.768.312-1.332.324-.564.9-.876.588-.312 1.368-.312t1.356.312q.588.312.9.876.324.564.324 1.332v1.164h-4.104v.636q0 .78.396 1.2.396.408 1.128.408.624 0 1.008-.216a.95.95 0 0 0 .468-.672h1.08q-.108.828-.816 1.32-.696.48-1.74.48m1.524-3.876v-.444q0-.78-.396-1.2-.384-.42-1.128-.42-.732 0-1.128.42t-.396 1.2v.348h3.132zm3.751.276v-.96h3.84v.96zm8.539 3.6q-1.044 0-1.644-.528-.6-.54-.6-1.452 0-.924.6-1.452t1.62-.528h2.04v-.66q0-.612-.372-.936-.36-.336-1.032-.336-.588 0-.984.252-.396.24-.456.66h-1.08q.108-.852.804-1.356t1.74-.504q1.14 0 1.8.588t.66 1.596V351h-1.056v-1.26h-.18l.18-.18q0 .72-.564 1.14-.552.42-1.476.42m.264-.852q.768 0 1.26-.384t.492-.984v-.936h-2.016q-.54 0-.852.3t-.312.816q0 .552.372.876.384.312 1.056.312m5.011.732v-6.6h1.08v1.26h.228l-.228.252q0-.78.468-1.2.468-.432 1.296-.432.996 0 1.584.612t.588 1.668V351h-1.08v-4.32q0-.708-.384-1.08-.372-.384-1.02-.384-.672 0-1.068.408-.384.408-.384 1.176v4.2zm9.308.12q-.984 0-1.596-.66-.6-.66-.6-1.788v-1.932q0-1.14.6-1.8t1.596-.66q.816 0 1.308.444t.492 1.188l-.216-.252h.24l-.024-1.5v-1.92h1.08V351h-1.08v-1.26h-.216l.216-.252q0 .756-.492 1.2-.492.432-1.308.432m.36-.936q.672 0 1.056-.42t.384-1.164v-1.8q0-.744-.384-1.164t-1.056-.42q-.684 0-1.08.408t-.396 1.176v1.8q0 .768.396 1.176t1.08.408m5.299-2.664v-.96h3.84v.96zm8.155 3.48v-4.956h-1.92v-.984h1.92v-1.14q0-.78.492-1.224.492-.456 1.356-.456h1.932v.984h-1.932q-.372 0-.576.18-.192.168-.192.516v1.14h2.7v.984h-2.7V351zm8.156.096q-.792 0-1.368-.3a2.2 2.2 0 0 1-.9-.864q-.312-.576-.312-1.356v-1.752q0-.792.312-1.356.324-.564.9-.864t1.368-.3 1.368.3.888.864q.324.564.324 1.344v1.764q0 .78-.324 1.356a2.1 2.1 0 0 1-.888.864q-.576.3-1.368.3m0-.96q.708 0 1.104-.396t.396-1.164v-1.752q0-.768-.396-1.164t-1.104-.396q-.696 0-1.104.396-.396.396-.396 1.164v1.752q0 .768.396 1.164.408.396 1.104.396m4.927.864v-6.6h1.056v1.26h.252l-.348.78q0-1.068.456-1.608.468-.552 1.38-.552 1.044 0 1.656.66.624.648.624 1.764v.396h-1.08v-.3q0-.78-.384-1.188-.372-.42-1.068-.42-.684 0-1.08.42-.384.42-.384 1.188v4.2zm7.795 2.16v-.984h2.1q.504 0 .732-.228.24-.228.24-.708v-.84l.024-1.2h-.216l.204-.18q0 .72-.48 1.14t-1.284.42q-1.02 0-1.608-.66-.588-.672-.588-1.8v-1.392q0-1.128.588-1.788t1.608-.66q.804 0 1.284.42t.48 1.14l-.204-.18h.204v-1.26h1.068v6.84q0 .888-.552 1.404-.54.516-1.512.516zm1.644-3.516q.672 0 1.056-.42t.384-1.164v-1.26q0-.744-.384-1.164t-1.056-.42q-.684 0-1.068.408-.372.408-.372 1.176v1.26q0 .768.372 1.176.384.408 1.068.408m7.22 1.476q-.78 0-1.368-.312a2.26 2.26 0 0 1-.9-.876q-.312-.576-.312-1.332v-1.8q0-.768.312-1.332.324-.564.9-.876.588-.312 1.368-.312t1.356.312q.588.312.9.876.324.564.324 1.332v1.164h-4.104v.636q0 .78.396 1.2.396.408 1.128.408.624 0 1.008-.216a.95.95 0 0 0 .468-.672h1.08q-.108.828-.816 1.32-.696.48-1.74.48m1.524-3.876v-.444q0-.78-.396-1.2-.384-.42-1.128-.42-.732 0-1.128.42t-.396 1.2v.348h3.132zm6.391 3.756q-.852 0-1.332-.456-.468-.456-.468-1.284v-3.876h-1.86v-.984h1.86v-1.86h1.08v1.86h2.64v.984h-2.64v3.876q0 .756.72.756h1.8V351zm4.255 1.44v-1.068q.78-.18 1.344-.672.564-.504.864-1.26a4.4 4.4 0 0 0 .312-1.68v-2.16q0-.948-.312-1.704a3.4 3.4 0 0 0-.876-1.26 2.9 2.9 0 0 0-1.332-.696v-1.02q1.116.276 1.92.936t1.236 1.62q.444.948.444 2.124v2.16q0 1.788-.948 3.024t-2.652 1.656"/><rect width="247" height="27" x="133.5" y="369.5" fill="#fffef9" rx="3.5"/><rect width="247" height="27" x="133.5" y="369.5" stroke="#d3d5cf" stroke-dasharray="2 2" rx="3.5"/><path fill="#080808" d="m146.476 387-1.056-6.6h.96l.66 4.68q.036.264.072.576.048.3.072.504.024-.204.072-.504.06-.312.096-.576l.732-4.68h1.032l.732 4.68q.036.264.084.576.06.3.084.504.024-.204.072-.504.06-.312.096-.576l.684-4.68h.912l-1.104 6.6h-1.188l-.708-4.56a20 20 0 0 0-.108-.672q-.06-.336-.084-.528-.024.192-.072.528t-.108.672l-.744 4.56zm8.743.12q-1.044 0-1.644-.528-.6-.54-.6-1.452 0-.924.6-1.452t1.62-.528h2.04v-.66q0-.612-.372-.936-.36-.336-1.032-.336-.588 0-.984.252-.396.24-.456.66h-1.08q.108-.852.804-1.356t1.74-.504q1.14 0 1.8.588t.66 1.596V387h-1.056v-1.26h-.18l.18-.18q0 .72-.564 1.14-.552.42-1.476.42m.264-.852q.768 0 1.26-.384t.492-.984v-.936h-2.016q-.54 0-.852.3t-.312.816q0 .552.372.876.384.312 1.056.312m8.228.732q-.852 0-1.332-.456-.468-.456-.468-1.284v-3.876h-1.86v-.984h1.86v-1.86h1.08v1.86h2.64v.984h-2.64v3.876q0 .756.72.756h1.8V387zm6.523.12q-.792 0-1.392-.3a2.16 2.16 0 0 1-.912-.864q-.324-.576-.324-1.356v-1.8q0-.792.324-1.356t.912-.864q.6-.3 1.392-.3 1.14 0 1.836.612t.732 1.668h-1.08q-.036-.636-.432-.972-.384-.348-1.056-.348-.708 0-1.128.408-.42.396-.42 1.14v1.812q0 .744.42 1.152t1.128.408q.672 0 1.056-.348.396-.348.432-.972h1.08q-.036 1.056-.732 1.668t-1.836.612m4.651-.12v-8.76h1.08v3.42h.228l-.228.252q0-.78.468-1.2.468-.432 1.296-.432.996 0 1.584.612t.588 1.668V387h-1.08v-4.32q0-.708-.384-1.092-.372-.396-1.02-.396-.672 0-1.068.42-.384.42-.384 1.188v4.2zm9.692.12q-.78 0-1.368-.312a2.26 2.26 0 0 1-.9-.876q-.312-.576-.312-1.332v-1.8q0-.768.312-1.332.324-.564.9-.876.588-.312 1.368-.312t1.356.312q.588.312.9.876.324.564.324 1.332v1.164h-4.104v.636q0 .78.396 1.2.396.408 1.128.408.624 0 1.008-.216a.95.95 0 0 0 .468-.672h1.08q-.108.828-.816 1.32-.696.48-1.74.48m1.524-3.876v-.444q0-.78-.396-1.2-.384-.42-1.128-.42-.732 0-1.128.42t-.396 1.2v.348h3.132zm3.403 3.756v-6.6h1.056v1.26h.252l-.348.78q0-1.068.456-1.608.468-.552 1.38-.552 1.044 0 1.656.66.624.648.624 1.764v.396h-1.08v-.3q0-.78-.384-1.188-.372-.42-1.068-.42-.684 0-1.08.42-.384.42-.384 1.188v4.2zm16.131-1.14v-2.34h-2.292v-.96h2.292v-2.34h1.056v2.34h2.292v.96h-2.292v2.34zm12.422 1.14v-6.6h1.08v1.26h.228l-.228.252q0-.78.468-1.2.468-.432 1.296-.432.996 0 1.584.612t.588 1.668V387h-1.08v-4.32q0-.708-.384-1.08-.372-.384-1.02-.384-.672 0-1.068.408-.384.408-.384 1.176v4.2zm9.691.096q-.792 0-1.368-.3a2.2 2.2 0 0 1-.9-.864q-.312-.576-.312-1.356v-1.752q0-.792.312-1.356.324-.564.9-.864t1.368-.3 1.368.3.888.864q.324.564.324 1.344v1.764q0 .78-.324 1.356a2.1 2.1 0 0 1-.888.864q-.576.3-1.368.3m0-.96q.708 0 1.104-.396t.396-1.164v-1.752q0-.768-.396-1.164t-1.104-.396q-.696 0-1.104.396-.396.396-.396 1.164v1.752q0 .768.396 1.164.408.396 1.104.396m7.916.864q-.852 0-1.332-.456-.468-.456-.468-1.284v-3.876h-1.86v-.984h1.86v-1.86h1.08v1.86h2.64v.984h-2.64v3.876q0 .756.72.756h1.8V387zm3.895 0v-.984h2.34v-4.632h-2.04v-.984h3.12v5.616h2.22V387zm2.76-7.788q-.396 0-.624-.204a.7.7 0 0 1-.228-.552q0-.36.228-.564.228-.216.624-.216t.624.216q.228.204.228.564a.7.7 0 0 1-.228.552q-.228.204-.624.204m6.055 7.788v-4.956h-1.92v-.984h1.92v-1.14q0-.78.492-1.224.492-.456 1.356-.456h1.932v.984h-1.932q-.372 0-.576.18-.192.168-.192.516v1.14h2.7v.984h-2.7V387zm5.576 0v-.984h2.34v-4.632h-2.04v-.984h3.12v5.616h2.22V387zm2.76-7.788q-.396 0-.624-.204a.7.7 0 0 1-.228-.552q0-.36.228-.564.228-.216.624-.216t.624.216q.228.204.228.564a.7.7 0 0 1-.228.552q-.228.204-.624.204m7.063 7.908q-.792 0-1.392-.3a2.16 2.16 0 0 1-.912-.864q-.324-.576-.324-1.356v-1.8q0-.792.324-1.356t.912-.864q.6-.3 1.392-.3 1.14 0 1.836.612t.732 1.668h-1.08q-.036-.636-.432-.972-.384-.348-1.056-.348-.708 0-1.128.408-.42.396-.42 1.14v1.812q0 .744.42 1.152t1.128.408q.672 0 1.056-.348.396-.348.432-.972h1.08q-.036 1.056-.732 1.668t-1.836.612m6.571 0q-1.044 0-1.644-.528-.6-.54-.6-1.452 0-.924.6-1.452t1.62-.528h2.04v-.66q0-.612-.372-.936-.36-.336-1.032-.336-.588 0-.984.252-.396.24-.456.66h-1.08q.108-.852.804-1.356t1.74-.504q1.14 0 1.8.588t.66 1.596V387h-1.056v-1.26h-.18l.18-.18q0 .72-.564 1.14-.552.42-1.476.42m.264-.852q.768 0 1.26-.384t.492-.984v-.936h-2.016q-.54 0-.852.3t-.312.816q0 .552.372.876.384.312 1.056.312m8.228.732q-.852 0-1.332-.456-.468-.456-.468-1.284v-3.876h-1.86v-.984h1.86v-1.86h1.08v1.86h2.64v.984h-2.64v3.876q0 .756.72.756h1.8V387zm3.895 0v-.984h2.34v-4.632h-2.04v-.984h3.12v5.616h2.22V387zm2.76-7.788q-.396 0-.624-.204a.7.7 0 0 1-.228-.552q0-.36.228-.564.228-.216.624-.216t.624.216q.228.204.228.564a.7.7 0 0 1-.228.552q-.228.204-.624.204m7.015 7.884q-.792 0-1.368-.3a2.2 2.2 0 0 1-.9-.864q-.312-.576-.312-1.356v-1.752q0-.792.312-1.356.324-.564.9-.864t1.368-.3 1.368.3.888.864q.324.564.324 1.344v1.764q0 .78-.324 1.356a2.1 2.1 0 0 1-.888.864q-.576.3-1.368.3m0-.96q.708 0 1.104-.396t.396-1.164v-1.752q0-.768-.396-1.164t-1.104-.396q-.696 0-1.104.396-.396.396-.396 1.164v1.752q0 .768.396 1.164.408.396 1.104.396m4.7.864v-6.6h1.08v1.26h.228l-.228.252q0-.78.468-1.2.468-.432 1.296-.432.996 0 1.584.612t.588 1.668V387h-1.08v-4.32q0-.708-.384-1.08-.372-.384-1.02-.384-.672 0-1.068.408-.384.408-.384 1.176v4.2zm9.487.096a3.1 3.1 0 0 1-1.176-.204 2 2 0 0 1-.792-.6 1.83 1.83 0 0 1-.348-.912h1.08a.84.84 0 0 0 .384.552q.324.204.852.204h.504q.636 0 .948-.252a.87.87 0 0 0 .312-.696q0-.42-.288-.66-.276-.252-.828-.336l-.888-.144q-.972-.168-1.452-.6-.468-.444-.468-1.284 0-.888.564-1.368.564-.492 1.692-.492h.456q.948 0 1.524.444t.696 1.2h-1.08a.77.77 0 0 0-.36-.492q-.288-.192-.78-.192h-.456q-.612 0-.9.228-.276.228-.276.684 0 .408.24.6t.756.276l.888.144q1.068.168 1.548.624.492.456.492 1.32 0 .912-.588 1.44-.576.516-1.752.516zm14.583.024q-1.14 0-1.825-.672-.683-.684-.683-1.848v-4.2h1.08v4.2q0 .744.384 1.164.384.408 1.044.408.672 0 1.056-.408.396-.42.396-1.164v-4.2h1.08v4.2q0 1.164-.696 1.848-.696.672-1.836.672m4.711 2.04v-8.76h1.08v1.26h.216l-.216.252q0-.756.492-1.188.504-.444 1.32-.444.996 0 1.584.66.6.648.6 1.788v1.932q0 .756-.276 1.308a1.96 1.96 0 0 1-.756.852q-.48.3-1.152.3-.804 0-1.308-.444t-.504-1.188l.216.252h-.24l.024 1.5v1.92zm2.532-2.976q.684 0 1.068-.408.396-.408.396-1.176v-1.8q0-.768-.396-1.176-.384-.408-1.068-.408-.66 0-1.056.42t-.396 1.164v1.8q0 .744.396 1.164t1.056.42m6.775.936q-.984 0-1.596-.66-.6-.66-.6-1.788v-1.932q0-1.14.6-1.8t1.596-.66q.816 0 1.308.444t.492 1.188l-.216-.252h.24l-.024-1.5v-1.92h1.08V387h-1.08v-1.26h-.216l.216-.252q0 .756-.492 1.2-.492.432-1.308.432m.36-.936q.672 0 1.056-.42t.384-1.164v-1.8q0-.744-.384-1.164t-1.056-.42q-.684 0-1.08.408t-.396 1.176v1.8q0 .768.396 1.176t1.08.408m6.643.936q-1.044 0-1.644-.528-.6-.54-.6-1.452 0-.924.6-1.452t1.62-.528h2.04v-.66q0-.612-.372-.936-.36-.336-1.032-.336-.588 0-.984.252-.396.24-.456.66h-1.08q.108-.852.804-1.356t1.74-.504q1.14 0 1.8.588t.66 1.596V387h-1.056v-1.26h-.18l.18-.18q0 .72-.564 1.14-.552.42-1.476.42m.264-.852q.768 0 1.26-.384t.492-.984v-.936h-2.016q-.54 0-.852.3t-.312.816q0 .552.372.876.384.312 1.056.312m8.228.732q-.852 0-1.332-.456-.468-.456-.468-1.284v-3.876h-1.86v-.984h1.86v-1.86h1.08v1.86h2.64v.984h-2.64v3.876q0 .756.72.756h1.8V387zm6.475.12q-.78 0-1.368-.312a2.26 2.26 0 0 1-.9-.876q-.312-.576-.312-1.332v-1.8q0-.768.312-1.332.324-.564.9-.876.588-.312 1.368-.312t1.356.312q.588.312.9.876.324.564.324 1.332v1.164h-4.104v.636q0 .78.396 1.2.396.408 1.128.408.624 0 1.008-.216a.95.95 0 0 0 .468-.672h1.08q-.108.828-.816 1.32-.696.48-1.74.48m1.524-3.876v-.444q0-.78-.396-1.2-.384-.42-1.128-.42-.732 0-1.128.42t-.396 1.2v.348h3.132zm5.467 3.852a3.1 3.1 0 0 1-1.176-.204 2 2 0 0 1-.792-.6 1.83 1.83 0 0 1-.348-.912h1.08a.84.84 0 0 0 .384.552q.324.204.852.204h.504q.636 0 .948-.252a.87.87 0 0 0 .312-.696q0-.42-.288-.66-.276-.252-.828-.336l-.888-.144q-.972-.168-1.452-.6-.468-.444-.468-1.284 0-.888.564-1.368.564-.492 1.692-.492h.456q.948 0 1.524.444t.696 1.2h-1.08a.77.77 0 0 0-.36-.492q-.288-.192-.78-.192h-.456q-.612 0-.9.228-.276.228-.276.684 0 .408.24.6t.756.276l.888.144q1.068.168 1.548.624.492.456.492 1.32 0 .912-.588 1.44-.576.516-1.752.516z"/><path stroke="#d3d5cf" stroke-linecap="round" stroke-linejoin="round" stroke-width="1.5" d="m79.5 422 3 3-3 3"/><path stroke="#d3d5cf" stroke-linecap="round" stroke-linejoin="round" stroke-width="1.5" d="M73.5 203v222h9"/><rect width="157" height="37" x="101.5" y="405.5" fill="#fff" rx="3.5"/><rect width="157" height="37" x="101.5" y="405.5" stroke="#d3d5cf" rx="3.5"/><path fill="#080808" d="M118.47 429v-1.148h2.086v-7.924h-2.086v-1.148h5.46v1.148h-2.086v7.924h2.086V429zm8.213 0v-7.7h1.26v1.47h.266l-.266.294q0-.91.546-1.4.546-.504 1.512-.504 1.161 0 1.848.714.686.714.686 1.946V429h-1.26v-5.04q0-.827-.448-1.26-.435-.448-1.19-.448-.784 0-1.246.476-.448.476-.448 1.372v4.9zm12.146 0q-.995 0-1.554-.532-.546-.532-.546-1.498v-4.522h-2.17V421.3h2.17v-2.17h1.26v2.17h3.08v1.148h-3.08v4.522q0 .882.84.882h2.1V429zm7.555.14q-.91 0-1.596-.364a2.63 2.63 0 0 1-1.05-1.022q-.364-.672-.364-1.554v-2.1q0-.896.364-1.554a2.63 2.63 0 0 1 1.05-1.022q.685-.364 1.596-.364.91 0 1.582.364.685.364 1.05 1.022.378.659.378 1.554v1.358h-4.788v.742q0 .91.462 1.4.462.476 1.316.476.728 0 1.176-.252.447-.266.546-.784h1.26q-.126.966-.952 1.54-.812.56-2.03.56m1.778-4.522v-.518q0-.91-.462-1.4-.449-.49-1.316-.49-.855 0-1.316.49t-.462 1.4v.406h3.654zm3.97 4.382v-7.7h1.232v1.47h.294l-.406.91q0-1.246.532-1.876.546-.644 1.61-.644 1.218 0 1.932.77.728.756.728 2.058v.462h-1.26v-.35q0-.91-.448-1.386-.434-.49-1.246-.49-.798 0-1.26.49-.448.49-.448 1.386v4.9zm11.097.14q-.924 0-1.624-.35a2.5 2.5 0 0 1-1.064-1.008q-.378-.672-.378-1.582v-2.1q0-.924.378-1.582a2.5 2.5 0 0 1 1.064-1.008q.7-.35 1.624-.35 1.329 0 2.142.714t.854 1.946h-1.26q-.042-.743-.504-1.134-.449-.406-1.232-.406-.827 0-1.316.476-.49.462-.49 1.33v2.114q0 .868.49 1.344t1.316.476q.783 0 1.232-.406.462-.406.504-1.134h1.26q-.042 1.232-.854 1.946-.813.714-2.142.714m8.338 0q-.909 0-1.596-.364a2.63 2.63 0 0 1-1.05-1.022q-.363-.672-.364-1.554v-2.1q0-.896.364-1.554a2.63 2.63 0 0 1 1.05-1.022q.687-.364 1.596-.364.91 0 1.582.364.687.364 1.05 1.022.378.659.378 1.554v1.358h-4.788v.742q0 .91.462 1.4.462.476 1.316.476.729 0 1.176-.252a1.11 1.11 0 0 0 .546-.784h1.26q-.126.966-.952 1.54-.812.56-2.03.56m1.778-4.522v-.518q0-.91-.462-1.4-.447-.49-1.316-.49-.854 0-1.316.49t-.462 1.4v.406h3.654zm3.705 6.902V421.3h1.26v1.47h.252l-.252.294q0-.882.574-1.386.588-.518 1.54-.518 1.161 0 1.848.77.7.756.7 2.086v2.254q0 .882-.322 1.526-.309.644-.882.994-.561.35-1.344.35-.938 0-1.526-.518t-.588-1.386l.252.294h-.28l.028 1.75v2.24zm2.954-3.472q.798 0 1.246-.476.462-.476.462-1.372v-2.1q0-.896-.462-1.372-.448-.476-1.246-.476-.77 0-1.232.49t-.462 1.358v2.1q0 .868.462 1.358t1.232.49m9.192.952q-.993 0-1.554-.532-.546-.532-.546-1.498v-4.522h-2.17V421.3h2.17v-2.17h1.26v2.17h3.08v1.148h-3.08v4.522q0 .882.84.882h2.1V429zm4.643 0v-10.22h3.164q.909 0 1.596.378.686.364 1.064 1.022t.378 1.54q0 1.036-.546 1.778-.532.742-1.456 1.022l2.142 4.48h-1.484l-1.96-4.34h-1.638V429zm1.26-5.474h1.904q.783 0 1.26-.49.476-.504.476-1.316 0-.826-.476-1.316-.477-.49-1.26-.49h-1.904zm10.046 5.614q-.909 0-1.596-.364a2.63 2.63 0 0 1-1.05-1.022q-.364-.672-.364-1.554v-2.1q0-.896.364-1.554a2.63 2.63 0 0 1 1.05-1.022q.687-.364 1.596-.364.91 0 1.582.364.687.364 1.05 1.022.378.659.378 1.554v1.358h-4.788v.742q0 .91.462 1.4.462.476 1.316.476.729 0 1.176-.252a1.11 1.11 0 0 0 .546-.784h1.26q-.126.966-.952 1.54-.812.56-2.03.56m1.778-4.522v-.518q0-.91-.462-1.4-.447-.49-1.316-.49-.854 0-1.316.49t-.462 1.4v.406h3.654zm6.379 4.494q-.784 0-1.372-.238a2.33 2.33 0 0 1-.924-.7 2.14 2.14 0 0 1-.406-1.064h1.26a.98.98 0 0 0 .448.644q.378.238.994.238h.588q.742 0 1.106-.294a1.01 1.01 0 0 0 .364-.812q0-.49-.336-.77-.322-.294-.966-.392l-1.036-.168q-1.134-.196-1.694-.7-.546-.518-.546-1.498 0-1.036.658-1.596.659-.574 1.974-.574h.532q1.106 0 1.778.518t.812 1.4h-1.26a.9.9 0 0 0-.42-.574q-.336-.224-.91-.224h-.532q-.714 0-1.05.266-.322.265-.322.798 0 .476.28.7t.882.322l1.036.168q1.246.196 1.806.728.574.532.574 1.54 0 1.064-.686 1.68-.672.602-2.044.602zm8.618.028q-1.33 0-2.128-.784-.798-.798-.798-2.156v-4.9h1.26v4.9q0 .868.448 1.358.449.476 1.218.476.785 0 1.232-.476.462-.49.462-1.358v-4.9h1.26v4.9q0 1.358-.812 2.156-.811.784-2.142.784m9.459-.14q-.672 0-1.176-.266a1.9 1.9 0 0 1-.784-.756q-.28-.49-.28-1.148v-6.902h-2.59v-1.148h3.85v8.05q0 .476.266.756.266.266.714.266h2.45V429zm8.184 0q-.993 0-1.554-.532-.546-.532-.546-1.498v-4.522h-2.17V421.3h2.17v-2.17h1.26v2.17h3.08v1.148h-3.08v4.522q0 .882.84.882h2.1V429z"/><defs><clipPath id="a"><path fill="#fff" d="M5 62h16v16H5z"/></clipPath><clipPath id="b"><path fill="#fff" d="M37 108h16v16H37z"/></clipPath><clipPath id="c"><path fill="#fff" d="M69 154h16v16H69z"/></clipPath><clipPath id="d"><path fill="#fff" d="M101 195h17v17h-17z"/></clipPath><clipPath id="e"><path fill="#fff" d="M101 231h17v17h-17z"/></clipPath><clipPath id="f"><path fill="#fff" d="M101 267h17v17h-17z"/></clipPath><clipPath id="g"><path fill="#fff" d="M101 303h17v17h-17z"/></clipPath><clipPath id="h"><path fill="#fff" d="M101 339h17v17h-17z"/></clipPath><clipPath id="i"><path fill="#fff" d="M101 375h17v17h-17z"/></clipPath></defs></svg>