<svg xmlns="http://www.w3.org/2000/svg" width="478" height="449" fill="none"><rect width="88" height="37" x="5.5" y="5.5" fill="#080808" fill-opacity=".2" rx="3.5"/><rect width="88" height="37" x="5.5" y="5.5" stroke="#080808" rx="3.5"/><path fill="#080808" d="M22.12 29v-9.8h3.962q.91 0 1.596.322.7.308 1.092.896.392.575.392 1.386v.154q0 .966-.462 1.526a2.3 2.3 0 0 1-1.092.756v.196q.504.014.826.336.336.308.336.938V29h-1.162v-3.15q0-.42-.238-.644-.224-.224-.686-.224h-3.388V29zm1.176-5.082h2.674q.966 0 1.484-.462.532-.476.532-1.316v-.098q0-.84-.518-1.302-.518-.476-1.498-.476h-2.674zm10.834 5.278q-1.035 0-1.82-.434a3.13 3.13 0 0 1-1.218-1.246q-.434-.798-.434-1.848V25.5q0-1.064.434-1.862t1.204-1.232q.77-.448 1.764-.448.966 0 1.708.42.742.406 1.162 1.176t.42 1.806v.504h-5.586q.042 1.106.714 1.736.672.615 1.68.616.882 0 1.358-.406t.728-.966l.952.462a4 4 0 0 1-.588.868q-.364.434-.966.728-.588.294-1.512.294m-2.352-4.242h4.452q-.056-.953-.658-1.484-.588-.532-1.512-.532-.938 0-1.54.532-.602.533-.742 1.484M44.865 31.8v-3.878h-.196q-.168.308-.476.602a2.3 2.3 0 0 1-.812.476q-.49.196-1.204.196-.895 0-1.638-.42a3.05 3.05 0 0 1-1.162-1.218q-.434-.798-.434-1.89v-.182q0-1.105.434-1.89t1.176-1.204a3.16 3.16 0 0 1 1.624-.434q1.064 0 1.652.406t.868.924h.196v-1.134h1.078V31.8zm-2.394-3.584q1.065 0 1.722-.672.672-.686.672-1.904v-.126q0-1.218-.672-1.89-.657-.686-1.722-.686-1.05 0-1.736.686-.672.672-.672 1.89v.126q0 1.218.672 1.904.687.672 1.736.672m8.436.91a3 3 0 0 1-1.372-.322 2.4 2.4 0 0 1-.98-.952q-.35-.644-.35-1.554v-4.144h1.106v4.06q0 1.022.504 1.484.517.462 1.386.462.98 0 1.61-.644.63-.645.63-1.918v-3.444h1.106V29h-1.078v-1.162h-.196q-.224.49-.77.896-.546.392-1.596.392m9.09.07q-1.035 0-1.82-.434a3.13 3.13 0 0 1-1.218-1.246q-.434-.798-.434-1.848V25.5q0-1.064.434-1.862t1.204-1.232q.771-.448 1.764-.448.966 0 1.708.42.742.406 1.162 1.176t.42 1.806v.504h-5.586q.042 1.106.714 1.736.672.615 1.68.616.882 0 1.358-.406t.728-.966l.952.462a4 4 0 0 1-.588.868q-.363.434-.966.728-.588.294-1.512.294m-2.352-4.242h4.452q-.055-.953-.658-1.484-.588-.532-1.512-.532-.937 0-1.54.532-.601.533-.742 1.484m10.26 4.242q-1.275 0-2.157-.588-.867-.588-1.05-1.862l1.05-.238q.113.672.42 1.064.309.378.756.546.462.154.98.154.771 0 1.218-.308.448-.307.448-.826 0-.532-.434-.742-.42-.224-1.162-.364l-.574-.098a5.2 5.2 0 0 1-1.204-.35 2.2 2.2 0 0 1-.868-.644q-.321-.405-.322-1.022 0-.924.714-1.442t1.89-.518q1.162 0 1.876.532.729.518.938 1.47l-1.036.266q-.126-.742-.602-1.036-.475-.308-1.176-.308-.7 0-1.106.266-.405.252-.406.756 0 .49.378.728.393.224 1.036.336l.574.098q.729.125 1.302.35.588.21.924.616.35.405.35 1.064 0 1.008-.756 1.554-.742.546-2.002.546M74.898 29q-.588 0-.91-.322-.309-.322-.308-.882V23.12h-2.058v-.966h2.058v-2.436h1.106v2.436h2.24v.966h-2.24v4.508q0 .42.406.42h1.526V29z"/><g stroke="#d3d5cf" stroke-linecap="round" stroke-linejoin="round" stroke-width="1.5" clip-path="url(#a)"><path d="m15.5 70 3 3-3 3"/><path d="M9.5 64v9h9"/></g><rect width="338" height="37" x="37.5" y="51.5" fill="#080808" fill-opacity=".2" rx="3.5"/><rect width="338" height="37" x="37.5" y="51.5" stroke="#080808" rx="3.5"/><path fill="#080808" d="M54.12 75v-9.8h6.034v1.064h-4.858v3.276h4.466v1.064h-4.466v3.332h4.928V75zm7.37 0 2.745-3.472-2.66-3.374h1.33l2.044 2.646h.196l2.03-2.646h1.344l-2.674 3.374L68.589 75h-1.344l-2.1-2.73h-.196l-2.1 2.73zm11.38 0q-.588 0-.91-.322-.309-.322-.308-.882V69.12h-2.058v-.966h2.058v-2.436h1.105v2.436h2.24v.966h-2.24v4.508q0 .42.406.42h1.526V75zm6.809.196q-1.035 0-1.82-.434a3.13 3.13 0 0 1-1.218-1.246q-.435-.798-.434-1.848V71.5q0-1.065.434-1.862a3.06 3.06 0 0 1 1.204-1.232q.77-.448 1.764-.448.966 0 1.708.42.742.406 1.162 1.176t.42 1.806v.504h-5.586q.042 1.106.714 1.736.672.615 1.68.616.882 0 1.358-.406t.728-.966l.952.462a4 4 0 0 1-.588.868q-.365.435-.966.728-.588.294-1.512.294m-2.352-4.242h4.452q-.056-.953-.658-1.484-.588-.532-1.512-.532-.938 0-1.54.532-.602.533-.742 1.484M84.828 75v-6.846h1.078v.84h.196q.182-.448.56-.658t.994-.21h.812v1.008h-.882q-.742 0-1.204.42-.448.405-.448 1.274V75zm5.277 0v-6.846h1.078v1.162h.196q.225-.49.756-.882.546-.405 1.596-.406.77 0 1.372.322.617.322.98.952.364.63.364 1.554V75h-1.106v-4.06q0-1.022-.518-1.484-.504-.462-1.372-.462-.994 0-1.624.644-.616.645-.616 1.918V75zm10.686.196a3.3 3.3 0 0 1-1.302-.252q-.588-.252-.924-.728t-.336-1.162q0-.7.336-1.148.336-.462.924-.686.588-.238 1.316-.238h2.31v-.504q0-.728-.434-1.148-.42-.42-1.26-.42-.825 0-1.288.406-.462.392-.63 1.064l-1.036-.336q.168-.574.532-1.036.364-.476.966-.756.616-.294 1.47-.294 1.317 0 2.044.686.728.672.728 1.904v3.094q0 .42.392.42h.63V75h-.966q-.462 0-.742-.252-.28-.265-.28-.7v-.07h-.168a3.3 3.3 0 0 1-.42.56q-.252.28-.7.462-.447.195-1.162.196m.126-.952q.98 0 1.582-.574.616-.588.616-1.638v-.154h-2.268q-.657 0-1.092.294-.42.28-.42.854t.434.896q.449.322 1.148.322m5.827.756v-9.8h1.106V75zm9.925.196q-.882 0-1.624-.42a3.03 3.03 0 0 1-1.176-1.218q-.434-.798-.434-1.89v-.182q0-1.092.434-1.876.435-.798 1.162-1.218a3.2 3.2 0 0 1 1.638-.434q.715 0 1.204.196.504.182.812.476.309.28.476.602h.196V65.2h1.106V75h-1.078v-1.134h-.196q-.28.517-.868.924-.587.405-1.652.406m.294-.98q1.065 0 1.722-.672.672-.686.672-1.904v-.126q0-1.218-.672-1.89-.657-.686-1.722-.686-1.05 0-1.736.686-.672.672-.672 1.89v.126q0 1.218.672 1.904.686.672 1.736.672m8.954.98q-1.036 0-1.82-.434a3.13 3.13 0 0 1-1.218-1.246q-.434-.798-.434-1.848V71.5q0-1.065.434-1.862a3.06 3.06 0 0 1 1.204-1.232q.77-.448 1.764-.448.966 0 1.708.42.742.406 1.162 1.176t.42 1.806v.504h-5.586q.042 1.106.714 1.736.672.615 1.68.616.882 0 1.358-.406t.728-.966l.952.462a4 4 0 0 1-.588.868q-.364.435-.966.728-.588.294-1.512.294m-2.352-4.242h4.452q-.056-.953-.658-1.484-.588-.532-1.512-.532-.938 0-1.54.532-.602.533-.742 1.484M133.299 75q-.588 0-.91-.322-.308-.322-.308-.882V69.12h-2.058v-.966h2.058v-2.436h1.106v2.436h2.24v.966h-2.24v4.508q0 .42.406.42h1.526V75zm6.81.196q-1.037 0-1.82-.434a3.13 3.13 0 0 1-1.218-1.246q-.434-.798-.434-1.848V71.5q0-1.065.434-1.862.433-.798 1.204-1.232.77-.448 1.764-.448.966 0 1.708.42.742.406 1.162 1.176t.42 1.806v.504h-5.586q.042 1.106.714 1.736.672.615 1.68.616.881 0 1.358-.406.476-.406.728-.966l.952.462a4 4 0 0 1-.588.868q-.364.435-.966.728-.588.294-1.512.294m-2.352-4.242h4.452q-.057-.953-.658-1.484-.588-.532-1.512-.532-.939 0-1.54.532-.603.533-.742 1.484m10.651 4.242q-.994 0-1.792-.42-.784-.435-1.246-1.232-.448-.798-.448-1.89V71.5q0-1.106.448-1.89a3.1 3.1 0 0 1 1.246-1.218 3.7 3.7 0 0 1 1.792-.434q.98 0 1.666.364.699.364 1.092.966.405.601.518 1.288l-1.078.224a2.3 2.3 0 0 0-.336-.924 1.84 1.84 0 0 0-.714-.672q-.462-.252-1.134-.252-.686 0-1.232.308-.533.308-.854.882-.308.574-.308 1.372v.126q0 .798.308 1.372.321.575.854.882.546.308 1.232.308 1.022 0 1.554-.532.546-.532.672-1.316l1.092.238q-.155.672-.56 1.274-.407.602-1.106.966-.687.364-1.666.364m7.45-.196q-.589 0-.91-.322-.308-.322-.308-.882V69.12h-2.058v-.966h2.058v-2.436h1.106v2.436h2.24v.966h-2.24v4.508q0 .42.406.42h1.526V75zm6.837.196q-1.036 0-1.834-.434a3.15 3.15 0 0 1-1.232-1.218q-.434-.798-.434-1.876v-.182q0-1.064.434-1.862a3.13 3.13 0 0 1 1.232-1.232q.798-.434 1.834-.434t1.82.434q.798.435 1.232 1.232.448.798.448 1.862v.182q0 1.078-.448 1.876-.434.784-1.232 1.218-.784.434-1.82.434m0-.994q1.092 0 1.736-.686.658-.7.658-1.876v-.126q0-1.176-.658-1.862-.644-.7-1.736-.7-1.078 0-1.736.7-.658.686-.658 1.862v.126q0 1.176.658 1.876.658.686 1.736.686m5.49.798v-6.846h1.078v.84h.196a1.27 1.27 0 0 1 .56-.658q.379-.21.994-.21h.812v1.008h-.882q-.742 0-1.204.42-.448.405-.448 1.274V75zm12.877 3.29q-1.344 0-2.324-.476-.966-.476-1.484-1.498-.518-1.008-.518-2.618v-4.536q0-1.624.518-2.632t1.484-1.484q.98-.476 2.324-.476v.966q-1.666.014-2.464.924-.798.895-.798 2.772v4.396q0 1.861.798 2.772.799.91 2.464.924zm2.253-3.29-1.596-9.8h1.176l1.386 9.044h.196l1.806-9.044h2.1l1.792 9.044h.196l1.386-9.044h1.176l-1.596 9.8h-2.1l-1.806-9.1h-.196l-1.806 9.1zm10.117 0 3.024-9.8h2.072l3.024 9.8h-1.218l-.756-2.478h-4.172L194.65 75zm2.268-3.542h3.57l-1.68-5.544h-.196zM203.02 75v-9.8h5.922v1.064h-4.746v3.29h4.368v1.064h-4.368V75zm10.037 2.8 4.116-12.6h1.106l-4.116 12.6zm13.145-2.604q-1.064 0-1.904-.378a3.03 3.03 0 0 1-1.33-1.134q-.476-.77-.476-1.918v-.294h1.162v.294q0 1.218.714 1.82.714.588 1.834.588 1.149 0 1.75-.518.602-.518.602-1.302 0-.546-.28-.868-.266-.322-.756-.518a7 7 0 0 0-1.148-.364l-.728-.182a8 8 0 0 1-1.512-.546 2.75 2.75 0 0 1-1.036-.84q-.363-.532-.364-1.358 0-.826.406-1.428.42-.602 1.162-.924.756-.322 1.736-.322.995 0 1.778.35.799.336 1.246 1.008.462.658.462 1.666v.588h-1.162v-.588q0-.714-.308-1.148a1.74 1.74 0 0 0-.826-.644 3.2 3.2 0 0 0-1.19-.21q-.966 0-1.554.434-.588.42-.588 1.204 0 .517.252.84t.714.532q.462.195 1.106.35l.728.182q.855.182 1.526.504.687.308 1.092.854.406.532.406 1.4t-.434 1.512-1.232 1.008q-.783.35-1.848.35m5.324-.196v-9.8h1.176V75zm3.418 0v-9.8h6.034v1.064h-4.858v3.276h4.466v1.064h-4.466v3.332h4.928V75zm7.889 0v-9.8h2.24l2.604 9.058h.182l2.604-9.058h2.24V75h-1.134v-9.03h-.196l-2.59 9.03h-2.03l-2.59-9.03h-.196V75zm14.589 2.8 4.116-12.6h1.106l-4.116 12.6zm13.089-2.604a3.8 3.8 0 0 1-1.792-.42q-.783-.435-1.246-1.232-.447-.798-.448-1.89V71.5q0-1.106.448-1.89a3.13 3.13 0 0 1 1.246-1.218 3.7 3.7 0 0 1 1.792-.434q.98 0 1.666.364.7.364 1.092.966.407.601.518 1.288l-1.078.224a2.3 2.3 0 0 0-.336-.924 1.84 1.84 0 0 0-.714-.672q-.462-.252-1.134-.252-.686 0-1.232.308-.531.308-.854.882-.308.574-.308 1.372v.126q0 .798.308 1.372.323.575.854.882.546.308 1.232.308 1.023 0 1.554-.532.546-.532.672-1.316l1.092.238a3.8 3.8 0 0 1-.56 1.274q-.405.602-1.106.966-.685.364-1.666.364m7.835-.07q-.741 0-1.372-.322a2.4 2.4 0 0 1-.98-.952q-.35-.644-.35-1.554v-4.144h1.106v4.06q0 1.022.504 1.484.519.462 1.386.462.98 0 1.61-.644.63-.645.63-1.918v-3.444h1.106V75h-1.078v-1.162h-.196q-.224.49-.77.896-.546.392-1.596.392m8.713.07q-1.274 0-2.156-.588-.868-.588-1.05-1.862l1.05-.238q.111.672.42 1.064.308.378.756.546.462.154.98.154.77 0 1.218-.308.447-.307.448-.826 0-.532-.434-.742-.42-.224-1.162-.364l-.574-.098a5.2 5.2 0 0 1-1.204-.35 2.2 2.2 0 0 1-.868-.644q-.322-.405-.322-1.022 0-.924.714-1.442t1.89-.518q1.161 0 1.876.532.728.517.938 1.47l-1.036.266q-.126-.742-.602-1.036-.477-.308-1.176-.308-.7 0-1.106.266-.406.252-.406.756 0 .49.378.728.391.224 1.036.336l.574.098q.727.126 1.302.35.588.21.924.616.35.405.35 1.064 0 1.008-.756 1.554-.742.546-2.002.546m6.994-.196q-.588 0-.91-.322-.308-.322-.308-.882V69.12h-2.058v-.966h2.058v-2.436h1.106v2.436h2.24v.966h-2.24v4.508q0 .42.406.42h1.526V75zm6.837.196q-1.036 0-1.834-.434a3.16 3.16 0 0 1-1.232-1.218q-.434-.798-.434-1.876v-.182q0-1.064.434-1.862.449-.798 1.232-1.232.798-.434 1.834-.434t1.82.434q.798.435 1.232 1.232.448.798.448 1.862v.182q0 1.078-.448 1.876-.434.784-1.232 1.218-.783.434-1.82.434m0-.994q1.092 0 1.736-.686.658-.7.658-1.876v-.126q0-1.176-.658-1.862-.644-.7-1.736-.7-1.077 0-1.736.7-.658.686-.658 1.862v.126q0 1.176.658 1.876.659.686 1.736.686m5.491.798v-6.846h1.078v.854h.196q.195-.364.644-.672.447-.308 1.26-.308.798 0 1.288.35.503.35.728.854h.196q.237-.504.714-.854.49-.35 1.358-.35.685 0 1.204.28t.812.812q.308.517.308 1.246V75h-1.106v-4.536q0-.686-.406-1.078-.393-.405-1.106-.406-.757 0-1.246.49-.476.49-.476 1.414V75h-1.106v-4.536q0-.686-.406-1.078-.392-.405-1.106-.406-.757 0-1.246.49-.476.49-.476 1.414V75zm15.64 0v-6.846h1.078v.84h.196a1.27 1.27 0 0 1 .56-.658q.379-.21.994-.21h.812v1.008h-.882q-.742 0-1.204.42-.447.405-.448 1.274V75zm7.896.126a3 3 0 0 1-1.372-.322 2.4 2.4 0 0 1-.98-.952q-.35-.644-.35-1.554v-4.144h1.106v4.06q0 1.022.504 1.484.517.462 1.386.462.98 0 1.61-.644.63-.645.63-1.918v-3.444h1.106V75h-1.078v-1.162h-.196q-.224.49-.77.896-.546.392-1.596.392m5.954-.126v-9.8h1.106V75zm6.568.196q-1.037 0-1.82-.434a3.13 3.13 0 0 1-1.218-1.246q-.435-.798-.434-1.848V71.5q0-1.065.434-1.862.433-.798 1.204-1.232.77-.448 1.764-.448.966 0 1.708.42.742.406 1.162 1.176t.42 1.806v.504h-5.586q.042 1.106.714 1.736.672.615 1.68.616.881 0 1.358-.406.476-.406.728-.966l.952.462a4 4 0 0 1-.588.868q-.364.435-.966.728-.588.294-1.512.294m-2.352-4.242h4.452q-.057-.953-.658-1.484-.588-.532-1.512-.532-.939 0-1.54.532-.603.533-.742 1.484m10.259 4.242q-1.275 0-2.156-.588-.868-.588-1.05-1.862l1.05-.238q.111.672.42 1.064.308.378.756.546.462.154.98.154.77 0 1.218-.308.447-.307.448-.826 0-.532-.434-.742-.42-.224-1.162-.364l-.574-.098a5.2 5.2 0 0 1-1.204-.35 2.2 2.2 0 0 1-.868-.644q-.322-.405-.322-1.022 0-.924.714-1.442t1.89-.518q1.161 0 1.876.532.728.517.938 1.47l-1.036.266q-.126-.742-.602-1.036-.477-.308-1.176-.308-.7 0-1.106.266-.406.252-.406.756 0 .49.378.728.391.224 1.036.336l.574.098q.727.126 1.302.35.588.21.924.616.35.405.35 1.064 0 1.008-.756 1.554-.742.546-2.002.546m3.52 3.094v-.966q1.694-.014 2.478-.924t.784-2.772v-4.396q0-1.876-.784-2.772-.784-.91-2.478-.924v-.966q1.358 0 2.324.476t1.484 1.484q.531 1.008.532 2.632v4.536q0 1.61-.532 2.618-.519 1.021-1.484 1.498-.966.476-2.324.476"/><g stroke="#d3d5cf" stroke-linecap="round" stroke-linejoin="round" stroke-width="1.5" clip-path="url(#b)"><path d="m47.5 116 3 3-3 3"/><path d="M41.5 110v9h9"/></g><rect width="172" height="37" x="69.5" y="97.5" fill="#080808" fill-opacity=".2" rx="3.5"/><rect width="172" height="37" x="69.5" y="97.5" stroke="#080808" rx="3.5"/><path fill="#080808" d="M89.382 121.196q-1.064 0-1.904-.378a3.03 3.03 0 0 1-1.33-1.134q-.476-.77-.476-1.918v-.294h1.162v.294q0 1.218.714 1.82.714.588 1.834.588 1.148 0 1.75-.518.602-.517.602-1.302 0-.546-.28-.868-.266-.322-.756-.518a7 7 0 0 0-1.148-.364l-.728-.182a8 8 0 0 1-1.512-.546 2.75 2.75 0 0 1-1.036-.84q-.364-.532-.364-1.358t.406-1.428q.42-.601 1.162-.924.756-.322 1.736-.322.994 0 1.778.35.798.336 1.246 1.008.462.658.462 1.666v.588h-1.162v-.588q0-.714-.308-1.148a1.74 1.74 0 0 0-.826-.644 3.2 3.2 0 0 0-1.19-.21q-.966 0-1.554.434-.588.42-.588 1.204 0 .517.252.84t.714.532q.462.196 1.106.35l.728.182q.854.182 1.526.504.685.308 1.092.854.405.532.406 1.4 0 .868-.434 1.512-.435.643-1.232 1.008-.784.35-1.848.35m8.516 0q-.994 0-1.792-.42a3.2 3.2 0 0 1-1.246-1.232q-.448-.798-.448-1.89v-.154q0-1.106.448-1.89a3.13 3.13 0 0 1 1.246-1.218 3.7 3.7 0 0 1 1.792-.434q.98 0 1.666.364.7.364 1.092.966.406.602.518 1.288l-1.078.224a2.3 2.3 0 0 0-.336-.924 1.84 1.84 0 0 0-.714-.672q-.462-.252-1.134-.252-.686 0-1.232.308-.533.307-.854.882-.308.574-.308 1.372v.126q0 .798.308 1.372.323.575.854.882.546.308 1.232.308 1.022 0 1.554-.532.546-.532.672-1.316l1.092.238a3.8 3.8 0 0 1-.56 1.274 2.94 2.94 0 0 1-1.106.966q-.686.364-1.666.364m8.353 0q-1.036 0-1.82-.434a3.13 3.13 0 0 1-1.218-1.246q-.434-.798-.434-1.848v-.168q0-1.064.434-1.862a3.06 3.06 0 0 1 1.204-1.232q.77-.448 1.764-.448.966 0 1.708.42a2.9 2.9 0 0 1 1.162 1.176q.42.77.42 1.806v.504h-5.586q.042 1.106.714 1.736.672.616 1.68.616.882 0 1.358-.406t.728-.966l.952.462a4 4 0 0 1-.588.868 2.9 2.9 0 0 1-.966.728q-.588.294-1.512.294m-2.352-4.242h4.452q-.056-.952-.658-1.484-.588-.532-1.512-.532-.938 0-1.54.532t-.742 1.484M111.4 121v-6.846h1.078v1.162h.196q.225-.49.756-.882.546-.406 1.596-.406.77 0 1.372.322a2.4 2.4 0 0 1 .98.952q.364.63.364 1.554V121h-1.106v-4.06q0-1.022-.518-1.484-.504-.462-1.372-.462-.994 0-1.624.644-.615.644-.616 1.918V121zm10.915 0q-.589 0-.91-.322-.309-.322-.308-.882v-4.676h-2.058v-.966h2.058v-2.436h1.106v2.436h2.24v.966h-2.24v4.508q0 .42.406.42h1.526V121zm10.161-1.96v-2.436h-2.408v-1.008h2.408v-2.436h1.064v2.436h2.408v1.008h-2.408v2.436zm11.628 1.96v-8.736h-3.15V111.2h7.476v1.064h-3.15V121zm5.865 0v-9.8h1.106v4.046h.196a1.8 1.8 0 0 1 .42-.574q.294-.28.742-.462.462-.182 1.162-.182.77 0 1.372.336.615.322.98.952.363.616.364 1.54V121h-1.106v-4.06q0-1.022-.518-1.484-.505-.462-1.372-.462-.994 0-1.624.644-.616.644-.616 1.918V121zm8.586 0v-6.846h1.078v.84h.196q.182-.448.56-.658t.994-.21h.812v1.008h-.882q-.742 0-1.204.42-.448.406-.448 1.274V121zm8.167.196q-1.037 0-1.82-.434a3.13 3.13 0 0 1-1.218-1.246q-.434-.798-.434-1.848v-.168q0-1.064.434-1.862.433-.798 1.204-1.232.77-.448 1.764-.448.966 0 1.708.42.742.407 1.162 1.176.42.77.42 1.806v.504h-5.586q.042 1.106.714 1.736.672.616 1.68.616.882 0 1.358-.406t.728-.966l.952.462a4 4 0 0 1-.588.868 2.9 2.9 0 0 1-.966.728q-.588.294-1.512.294m-2.352-4.242h4.452q-.057-.952-.658-1.484-.588-.532-1.512-.532-.939 0-1.54.532-.603.532-.742 1.484m9.601 4.242q-.714 0-1.302-.252a2.13 2.13 0 0 1-.924-.728q-.336-.476-.336-1.162 0-.7.336-1.148a2 2 0 0 1 .924-.686 3.5 3.5 0 0 1 1.316-.238h2.31v-.504q0-.728-.434-1.148-.42-.42-1.26-.42-.826 0-1.288.406-.462.392-.63 1.064l-1.036-.336q.168-.574.532-1.036.364-.475.966-.756.617-.294 1.47-.294 1.316 0 2.044.686.728.672.728 1.904v3.094q0 .42.392.42h.63V121h-.966q-.462 0-.742-.252-.28-.266-.28-.7v-.07h-.168a3.4 3.4 0 0 1-.42.56 1.86 1.86 0 0 1-.7.462q-.448.196-1.162.196m.126-.952q.98 0 1.582-.574.616-.588.616-1.638v-.154h-2.268q-.658 0-1.092.294-.42.28-.42.854t.434.896q.448.322 1.148.322m7.896.756q-.589 0-.91-.322-.308-.322-.308-.882v-4.676h-2.058v-.966h2.058v-2.436h1.106v2.436h2.24v.966h-2.24v4.508q0 .42.406.42h1.526V121zm7.139.196q-1.064 0-1.904-.378a3.03 3.03 0 0 1-1.33-1.134q-.476-.77-.476-1.918v-.294h1.162v.294q0 1.218.714 1.82.714.588 1.834.588 1.148 0 1.75-.518.602-.517.602-1.302 0-.546-.28-.868-.265-.322-.756-.518a7 7 0 0 0-1.148-.364l-.728-.182a8 8 0 0 1-1.512-.546 2.75 2.75 0 0 1-1.036-.84q-.364-.532-.364-1.358t.406-1.428a2.7 2.7 0 0 1 1.162-.924q.756-.322 1.736-.322.994 0 1.778.35.798.336 1.246 1.008.462.658.462 1.666v.588h-1.162v-.588q0-.714-.308-1.148a1.74 1.74 0 0 0-.826-.644 3.2 3.2 0 0 0-1.19-.21q-.966 0-1.554.434-.588.42-.588 1.204 0 .517.252.84t.714.532q.462.196 1.106.35l.728.182a6.8 6.8 0 0 1 1.526.504q.685.308 1.092.854.406.532.406 1.4t-.434 1.512q-.434.643-1.232 1.008-.785.35-1.848.35m5.366-.196v-6.846h1.106V121zm.56-7.91a.86.86 0 0 1-.616-.238.82.82 0 0 1-.238-.602q0-.378.238-.616a.86.86 0 0 1 .616-.238q.364 0 .602.238a.83.83 0 0 1 .238.616.815.815 0 0 1-.84.84m2.536 4.522v-.196q0-1.078.434-1.848.433-.77 1.176-1.19a3.24 3.24 0 0 1 1.624-.42q1.077 0 1.652.42.588.406.868.91h.196v-1.134h1.05v8.442q0 .56-.308.882t-.896.322h-4.648v-.98h4.354q.42 0 .42-.42v-2.604h-.196a2.5 2.5 0 0 1-.476.602 2.5 2.5 0 0 1-.798.49q-.49.182-1.218.182-.882 0-1.624-.42a3.07 3.07 0 0 1-1.176-1.19q-.435-.784-.434-1.848m3.528 2.478q1.063 0 1.722-.672.672-.672.672-1.848v-.112q0-1.19-.672-1.848-.659-.672-1.722-.672-1.05 0-1.736.672-.672.658-.672 1.848v.112q0 1.176.672 1.848.686.672 1.736.672m5.79.91v-6.846h1.078v1.162h.196q.224-.49.756-.882.546-.406 1.596-.406.77 0 1.372.322.616.322.98.952t.364 1.554V121h-1.106v-4.06q0-1.022-.518-1.484-.504-.462-1.372-.462-.994 0-1.624.644-.616.644-.616 1.918V121zm10.686.196q-.714 0-1.302-.252a2.13 2.13 0 0 1-.924-.728q-.336-.476-.336-1.162 0-.7.336-1.148a2 2 0 0 1 .924-.686 3.5 3.5 0 0 1 1.316-.238h2.31v-.504q0-.728-.434-1.148-.42-.42-1.26-.42-.826 0-1.288.406-.462.392-.63 1.064l-1.036-.336q.168-.574.532-1.036.364-.475.966-.756.617-.294 1.47-.294 1.316 0 2.044.686.728.672.728 1.904v3.094q0 .42.392.42h.63V121h-.966q-.462 0-.742-.252-.28-.266-.28-.7v-.07h-.168a3.4 3.4 0 0 1-.42.56 1.86 1.86 0 0 1-.7.462q-.448.196-1.162.196m.126-.952q.98 0 1.582-.574.616-.588.616-1.638v-.154h-2.268q-.659 0-1.092.294-.42.28-.42.854t.434.896q.448.322 1.148.322m5.827.756v-9.8h1.106v9.8z"/><g stroke="#d3d5cf" stroke-linecap="round" stroke-linejoin="round" stroke-width="1.5" clip-path="url(#c)"><path d="m79.5 162 3 3-3 3"/><path d="M73.5 156v9h9"/></g><rect width="188" height="37" x="101.5" y="143.5" fill="#080808" fill-opacity=".2" rx="3.5"/><rect width="188" height="37" x="101.5" y="143.5" stroke="#080808" rx="3.5"/><path fill="#080808" d="M120.262 167.196q-.714 0-1.302-.252a2.13 2.13 0 0 1-.924-.728q-.336-.476-.336-1.162 0-.7.336-1.148a2 2 0 0 1 .924-.686 3.5 3.5 0 0 1 1.316-.238h2.31v-.504q0-.728-.434-1.148-.42-.42-1.26-.42-.826 0-1.288.406-.462.392-.63 1.064l-1.036-.336q.168-.574.532-1.036.365-.476.966-.756.617-.294 1.47-.294 1.316 0 2.044.686.728.672.728 1.904v3.094q0 .42.392.42h.63V167h-.966q-.462 0-.742-.252-.28-.266-.28-.7v-.07h-.168a3.4 3.4 0 0 1-.42.56 1.86 1.86 0 0 1-.7.462q-.448.196-1.162.196m.126-.952q.98 0 1.582-.574.616-.588.616-1.638v-.154h-2.268q-.658 0-1.092.294-.42.28-.42.854t.434.896q.448.322 1.148.322m5.299-2.632v-.196q0-1.079.434-1.848.435-.77 1.176-1.19a3.24 3.24 0 0 1 1.624-.42q1.079 0 1.652.42.588.406.868.91h.196v-1.134h1.05v8.442q0 .56-.308.882t-.896.322h-4.648v-.98h4.354q.42 0 .42-.42v-2.604h-.196q-.168.308-.476.602a2.5 2.5 0 0 1-.798.49q-.489.182-1.218.182-.882 0-1.624-.42a3.1 3.1 0 0 1-1.176-1.19q-.434-.785-.434-1.848m3.528 2.478q1.065 0 1.722-.672.672-.672.672-1.848v-.112q0-1.19-.672-1.848-.657-.672-1.722-.672-1.05 0-1.736.672-.672.659-.672 1.848v.112q0 1.176.672 1.848.686.672 1.736.672m8.927 1.106q-1.037 0-1.82-.434a3.13 3.13 0 0 1-1.218-1.246q-.434-.798-.434-1.848v-.168q0-1.064.434-1.862.433-.798 1.204-1.232.77-.448 1.764-.448.966 0 1.708.42.742.406 1.162 1.176t.42 1.806v.504h-5.586q.042 1.106.714 1.736.672.616 1.68.616.881 0 1.358-.406.476-.406.728-.966l.952.462a4 4 0 0 1-.588.868 2.9 2.9 0 0 1-.966.728q-.588.294-1.512.294m-2.352-4.242h4.452q-.057-.952-.658-1.484-.588-.532-1.512-.532-.939 0-1.54.532-.603.532-.742 1.484m7.501 4.046v-6.846h1.078v1.162h.196q.224-.49.756-.882.546-.406 1.596-.406.77 0 1.372.322.616.322.98.952t.364 1.554V167h-1.106v-4.06q0-1.022-.518-1.484-.504-.462-1.372-.462-.994 0-1.624.644-.616.644-.616 1.918V167zm10.914 0q-.588 0-.91-.322-.308-.322-.308-.882v-4.676h-2.058v-.966h2.058v-2.436h1.106v2.436h2.24v.966h-2.24v4.508q0 .42.406.42h1.526V167zm4.522.196a.96.96 0 0 1-.686-.266.93.93 0 0 1-.266-.686.93.93 0 0 1 .266-.686.96.96 0 0 1 .686-.266.93.93 0 0 1 .686.266.93.93 0 0 1 .266.686.93.93 0 0 1-.266.686.93.93 0 0 1-.686.266m2.939-.196v-6.846h1.106V167zm.56-7.91a.86.86 0 0 1-.616-.238.82.82 0 0 1-.238-.602q0-.378.238-.616a.86.86 0 0 1 .616-.238q.364 0 .602.238a.83.83 0 0 1 .238.616.815.815 0 0 1-.84.84m2.872 7.91v-6.846h1.078v1.162h.196q.224-.49.756-.882.546-.406 1.596-.406.77 0 1.372.322.615.322.98.952.363.63.364 1.554V167h-1.106v-4.06q0-1.022-.518-1.484-.505-.462-1.372-.462-.994 0-1.624.644-.616.644-.616 1.918V167zm10.914 0q-.588 0-.91-.322-.308-.322-.308-.882v-4.676h-2.058v-.966h2.058v-2.436h1.106v2.436h2.24v.966h-2.24v4.508q0 .42.406.42h1.526V167zm6.809.196q-1.035 0-1.82-.434a3.14 3.14 0 0 1-1.218-1.246q-.434-.798-.434-1.848v-.168q0-1.064.434-1.862.435-.798 1.204-1.232.771-.448 1.764-.448.967 0 1.708.42a2.9 2.9 0 0 1 1.162 1.176q.42.77.42 1.806v.504h-5.586q.042 1.106.714 1.736.672.616 1.68.616.882 0 1.358-.406t.728-.966l.952.462a4 4 0 0 1-.588.868 2.9 2.9 0 0 1-.966.728q-.588.294-1.512.294m-2.352-4.242h4.452q-.055-.952-.658-1.484-.588-.532-1.512-.532-.937 0-1.54.532-.601.532-.742 1.484m7.502 4.046v-6.846h1.078v.84h.196q.182-.448.56-.658t.994-.21h.812v1.008h-.882q-.742 0-1.204.42-.448.406-.448 1.274V167zm8.181.196q-.994 0-1.792-.42a3.2 3.2 0 0 1-1.246-1.232q-.448-.798-.448-1.89v-.154q0-1.106.448-1.89a3.1 3.1 0 0 1 1.246-1.218 3.7 3.7 0 0 1 1.792-.434q.98 0 1.666.364.7.364 1.092.966.406.602.518 1.288l-1.078.224a2.3 2.3 0 0 0-.336-.924 1.84 1.84 0 0 0-.714-.672q-.462-.252-1.134-.252-.686 0-1.232.308a2.3 2.3 0 0 0-.854.882q-.308.574-.308 1.372v.126q0 .798.308 1.372.322.575.854.882.546.308 1.232.308 1.022 0 1.554-.532.546-.532.672-1.316l1.092.238a3.8 3.8 0 0 1-.56 1.274 2.94 2.94 0 0 1-1.106.966q-.686.364-1.666.364m8.353 0q-1.036 0-1.82-.434a3.13 3.13 0 0 1-1.218-1.246q-.434-.798-.434-1.848v-.168q0-1.064.434-1.862a3.06 3.06 0 0 1 1.204-1.232q.77-.448 1.764-.448.966 0 1.708.42a2.9 2.9 0 0 1 1.162 1.176q.42.77.42 1.806v.504h-5.586q.042 1.106.714 1.736.672.616 1.68.616.882 0 1.358-.406t.728-.966l.952.462a4 4 0 0 1-.588.868 2.9 2.9 0 0 1-.966.728q-.588.294-1.512.294m-2.352-4.242h4.452q-.056-.952-.658-1.484-.588-.532-1.512-.532-.938 0-1.54.532t-.742 1.484m7.501 6.846v-9.646h1.078v1.134h.196q.266-.517.854-.924.603-.406 1.666-.406.882 0 1.61.434.743.42 1.176 1.204.448.784.448 1.89v.182q0 1.092-.434 1.89a3 3 0 0 1-1.176 1.218q-.727.42-1.624.42-.714 0-1.218-.196a2.3 2.3 0 0 1-.798-.476 2.5 2.5 0 0 1-.476-.602h-.196v3.878zm3.5-3.584q1.065 0 1.722-.672.672-.686.672-1.904v-.126q0-1.218-.672-1.89-.657-.686-1.722-.686-1.05 0-1.736.686-.672.672-.672 1.89v.126q0 1.218.672 1.904.687.672 1.736.672m7.743.784q-.588 0-.91-.322-.308-.322-.308-.882v-4.676h-2.058v-.966h2.058v-2.436h1.106v2.436h2.24v.966h-2.24v4.508q0 .42.406.42h1.526V167zm7.923 3.29q-1.343 0-2.324-.476-.965-.476-1.484-1.498-.518-1.008-.518-2.618v-4.536q0-1.624.518-2.632.519-1.008 1.484-1.484.98-.476 2.324-.476v.966q-1.666.014-2.464.924-.798.895-.798 2.772v4.396q0 1.861.798 2.772t2.464.924zm4.018-3.094q-1.274 0-2.156-.588-.868-.588-1.05-1.862l1.05-.238q.113.672.42 1.064.308.378.756.546.462.154.98.154.77 0 1.218-.308t.448-.826q0-.532-.434-.742-.42-.224-1.162-.364l-.574-.098a5.2 5.2 0 0 1-1.204-.35 2.2 2.2 0 0 1-.868-.644q-.322-.406-.322-1.022 0-.924.714-1.442t1.89-.518q1.162 0 1.876.532.728.517.938 1.47l-1.036.266q-.126-.742-.602-1.036-.476-.308-1.176-.308t-1.106.266q-.406.252-.406.756 0 .49.378.728.392.224 1.036.336l.574.098q.728.126 1.302.35.588.21.924.616.35.406.35 1.064 0 1.008-.756 1.554-.742.546-2.002.546m7.775 0q-.994 0-1.792-.42a3.2 3.2 0 0 1-1.246-1.232q-.448-.798-.448-1.89v-.154q0-1.106.448-1.89a3.1 3.1 0 0 1 1.246-1.218 3.7 3.7 0 0 1 1.792-.434q.98 0 1.666.364.699.364 1.092.966.405.602.518 1.288l-1.078.224a2.3 2.3 0 0 0-.336-.924 1.84 1.84 0 0 0-.714-.672q-.462-.252-1.134-.252-.686 0-1.232.308-.533.308-.854.882-.308.574-.308 1.372v.126q0 .798.308 1.372.321.575.854.882.546.308 1.232.308 1.022 0 1.554-.532.546-.532.672-1.316l1.092.238a3.8 3.8 0 0 1-.56 1.274q-.407.602-1.106.966-.687.364-1.666.364m8.353 0q-1.036 0-1.82-.434a3.13 3.13 0 0 1-1.218-1.246q-.434-.798-.434-1.848v-.168q0-1.064.434-1.862a3.06 3.06 0 0 1 1.204-1.232q.77-.448 1.764-.448.966 0 1.708.42a2.9 2.9 0 0 1 1.162 1.176q.42.77.42 1.806v.504H246.6q.042 1.106.714 1.736.672.616 1.68.616.882 0 1.358-.406t.728-.966l.952.462a4 4 0 0 1-.588.868 2.9 2.9 0 0 1-.966.728q-.588.294-1.512.294m-2.352-4.242h4.452q-.056-.952-.658-1.484-.588-.532-1.512-.532-.938 0-1.54.532t-.742 1.484m7.501 4.046v-6.846h1.078v1.162h.196q.224-.49.756-.882.546-.406 1.596-.406.77 0 1.372.322.616.322.98.952t.364 1.554V167h-1.106v-4.06q0-1.022-.518-1.484-.504-.462-1.372-.462-.994 0-1.624.644-.616.644-.616 1.918V167zm10.915 0q-.589 0-.91-.322-.308-.322-.308-.882v-4.676h-2.058v-.966h2.058v-2.436h1.106v2.436h2.24v.966h-2.24v4.508q0 .42.406.42h1.526V167zm2.855 3.29v-.966q1.693-.014 2.478-.924.784-.91.784-2.772v-4.396q0-1.877-.784-2.772-.785-.91-2.478-.924v-.966q1.358 0 2.324.476t1.484 1.484q.532 1.008.532 2.632v4.536q0 1.61-.532 2.618-.518 1.022-1.484 1.498t-2.324.476"/><g clip-path="url(#d)"><path stroke="#d3d5cf" stroke-linecap="round" stroke-linejoin="round" stroke-width="1.5" d="M109.5 205.094a1.594 1.594 0 1 0 0-3.189 1.594 1.594 0 0 0 0 3.189"/></g><g clip-path="url(#e)"><path stroke="#d3d5cf" stroke-linecap="round" stroke-linejoin="round" stroke-width="1.5" d="M109.5 241.094a1.594 1.594 0 1 0 0-3.189 1.594 1.594 0 0 0 0 3.189"/></g><g clip-path="url(#f)"><path stroke="#d3d5cf" stroke-linecap="round" stroke-linejoin="round" stroke-width="1.5" d="M109.5 277.094a1.594 1.594 0 1 0 0-3.189 1.594 1.594 0 0 0 0 3.189"/></g><g clip-path="url(#g)"><path stroke="#d3d5cf" stroke-linecap="round" stroke-linejoin="round" stroke-width="1.5" d="M109.5 313.094a1.594 1.594 0 1 0 0-3.189 1.594 1.594 0 0 0 0 3.189"/></g><g clip-path="url(#h)"><path stroke="#d3d5cf" stroke-linecap="round" stroke-linejoin="round" stroke-width="1.5" d="M109.5 349.094a1.594 1.594 0 1 0 0-3.189 1.594 1.594 0 0 0 0 3.189"/></g><g clip-path="url(#i)"><path stroke="#d3d5cf" stroke-linecap="round" stroke-linejoin="round" stroke-width="1.5" d="M109.5 385.094a1.594 1.594 0 1 0 0-3.189 1.594 1.594 0 0 0 0 3.189"/></g><rect width="172" height="27" x="133.5" y="189.5" fill="#3c3c3c" fill-opacity=".2" rx="3.5"/><rect width="172" height="27" x="133.5" y="189.5" stroke="#3c3c3c" stroke-dasharray="2 2" rx="3.5"/><path fill="#080808" d="M145.996 207v-5.868h.924v.72h.168q.156-.384.48-.564t.852-.18h.696v.864h-.756q-.636 0-1.032.36-.384.348-.384 1.092V207zm6.124.168q-.612 0-1.116-.216a1.8 1.8 0 0 1-.792-.624q-.288-.408-.288-.996 0-.6.288-.984.288-.396.792-.588a3 3 0 0 1 1.128-.204h1.98v-.432q0-.624-.372-.984-.36-.36-1.08-.36-.708 0-1.104.348-.396.336-.54.912l-.888-.288q.144-.492.456-.888.312-.408.828-.648.528-.252 1.26-.252 1.128 0 1.752.588.624.576.624 1.632v2.652q0 .36.336.36h.54V207h-.828q-.396 0-.636-.216a.8.8 0 0 1-.24-.6v-.06h-.144a3 3 0 0 1-.36.48q-.216.24-.6.396-.384.168-.996.168m.108-.816q.84 0 1.356-.492.528-.504.528-1.404v-.132h-1.944q-.564 0-.936.252-.36.24-.36.732t.372.768q.384.276.984.276m6.768.648q-.504 0-.78-.276-.264-.276-.264-.756v-4.008h-1.764v-.828h1.764v-2.088h.948v2.088h1.92v.828h-1.92v3.864q0 .36.348.36h1.308V207zm5.836.168q-.888 0-1.56-.372a2.7 2.7 0 0 1-1.044-1.068q-.372-.684-.372-1.584V204q0-.912.372-1.596a2.62 2.62 0 0 1 1.032-1.056q.66-.384 1.512-.384.828 0 1.464.36.636.348.996 1.008t.36 1.548v.432h-4.788q.036.948.612 1.488.576.528 1.44.528.756 0 1.164-.348t.624-.828l.816.396q-.18.372-.504.744a2.5 2.5 0 0 1-.828.624q-.504.252-1.296.252m-2.016-3.636h3.816q-.048-.816-.564-1.272-.504-.456-1.296-.456-.804 0-1.32.456t-.636 1.272M169.21 207v-8.4h1.008v7.488h4.248V207zm6.587 0v-5.868h.948V207zm.48-6.78a.74.74 0 0 1-.528-.204.7.7 0 0 1-.204-.516q0-.324.204-.528a.74.74 0 0 1 .528-.204.7.7 0 0 1 .516.204.71.71 0 0 1 .204.528.7.7 0 0 1-.72.72m2.461 6.78v-5.868h.924v.732h.168q.168-.312.552-.576t1.08-.264q.684 0 1.104.3.432.3.624.732h.168q.204-.432.612-.732.42-.3 1.164-.3.588 0 1.032.24t.696.696q.264.444.264 1.068V207h-.948v-3.888q0-.588-.348-.924-.336-.348-.948-.348-.648 0-1.068.42-.408.42-.408 1.212V207h-.948v-3.888q0-.588-.348-.924-.336-.348-.948-.348-.648 0-1.068.42-.408.42-.408 1.212V207zm10.324 0v-5.868h.948V207zm.48-6.78a.74.74 0 0 1-.528-.204.7.7 0 0 1-.204-.516q0-.324.204-.528a.74.74 0 0 1 .528-.204.7.7 0 0 1 .516.204.71.71 0 0 1 .204.528.7.7 0 0 1-.72.72m4.622 6.78q-.504 0-.78-.276-.264-.276-.264-.756v-4.008h-1.764v-.828h1.764v-2.088h.948v2.088h1.92v.828h-1.92v3.864q0 .36.348.36h1.308V207zm5.836.168q-.888 0-1.56-.372a2.7 2.7 0 0 1-1.044-1.068q-.372-.684-.372-1.584V204q0-.912.372-1.596a2.62 2.62 0 0 1 1.032-1.056q.66-.384 1.512-.384.828 0 1.464.36.636.348.996 1.008t.36 1.548v.432h-4.788q.036.948.612 1.488.576.528 1.44.528.756 0 1.164-.348t.624-.828l.816.396q-.18.372-.504.744a2.5 2.5 0 0 1-.828.624q-.504.252-1.296.252m-2.016-3.636h3.816q-.048-.816-.564-1.272-.504-.456-1.296-.456-.804 0-1.32.456t-.636 1.272m6.43 3.468v-5.868h.924v.72h.168q.156-.384.48-.564t.852-.18h.696v.864h-.756q-.636 0-1.032.36-.384.348-.384 1.092V207zm4.278.168a.82.82 0 0 1-.588-.228.8.8 0 0 1-.228-.588q0-.36.228-.588a.82.82 0 0 1 .588-.228q.36 0 .588.228a.8.8 0 0 1 .228.588q0 .36-.228.588a.8.8 0 0 1-.588.228m5.137 0q-.852 0-1.536-.36a2.76 2.76 0 0 1-1.068-1.056q-.384-.684-.384-1.62V204q0-.948.384-1.62a2.7 2.7 0 0 1 1.068-1.044 3.16 3.16 0 0 1 1.536-.372q.84 0 1.428.312.6.312.936.828.348.516.444 1.104l-.924.192a2 2 0 0 0-.288-.792 1.6 1.6 0 0 0-.612-.576q-.396-.216-.972-.216-.588 0-1.056.264a1.96 1.96 0 0 0-.732.756q-.264.492-.264 1.176v.108q0 .684.264 1.176.276.492.732.756.468.264 1.056.264.876 0 1.332-.456.468-.456.576-1.128l.936.204a3.2 3.2 0 0 1-.48 1.092q-.348.516-.948.828-.588.312-1.428.312m4.472-.168v-8.4h.948v3.468h.168q.12-.264.36-.492.252-.24.636-.396.396-.156.996-.156.66 0 1.176.288.528.276.84.816.312.528.312 1.32V207h-.948v-3.48q0-.876-.444-1.272-.432-.396-1.176-.396-.852 0-1.392.552-.528.552-.528 1.644V207zm10.047.168q-.888 0-1.56-.372a2.7 2.7 0 0 1-1.044-1.068q-.372-.684-.372-1.584V204q0-.912.372-1.596a2.62 2.62 0 0 1 1.032-1.056q.66-.384 1.512-.384.828 0 1.464.36.636.348.996 1.008t.36 1.548v.432h-4.788q.036.948.612 1.488.576.528 1.44.528.756 0 1.164-.348t.624-.828l.816.396q-.18.372-.504.744a2.5 2.5 0 0 1-.828.624q-.504.252-1.296.252m-2.016-3.636h3.816q-.048-.816-.564-1.272-.504-.456-1.296-.456-.804 0-1.32.456t-.636 1.272m9.13 3.636q-.852 0-1.536-.36a2.76 2.76 0 0 1-1.068-1.056q-.384-.684-.384-1.62V204q0-.948.384-1.62a2.7 2.7 0 0 1 1.068-1.044 3.16 3.16 0 0 1 1.536-.372q.84 0 1.428.312.6.312.936.828.348.516.444 1.104l-.924.192a2 2 0 0 0-.288-.792 1.6 1.6 0 0 0-.612-.576q-.396-.216-.972-.216-.588 0-1.056.264a1.96 1.96 0 0 0-.732.756q-.264.492-.264 1.176v.108q0 .684.264 1.176.276.492.732.756.468.264 1.056.264.876 0 1.332-.456.468-.456.576-1.128l.936.204a3.2 3.2 0 0 1-.48 1.092q-.348.516-.948.828-.588.312-1.428.312m4.472-.168v-8.4h.948v4.944h.168l2.688-2.412h1.32l-3.252 2.856 3.348 3.012h-1.308l-2.796-2.556h-.168V207zm9.889 2.82q-1.152 0-1.992-.408-.828-.408-1.272-1.284-.444-.864-.444-2.244v-3.888q0-1.392.444-2.256t1.272-1.272q.84-.408 1.992-.408v.828q-1.428.012-2.112.792-.684.768-.684 2.376v3.768q0 1.596.684 2.376t2.112.792zm3.443-2.652q-1.092 0-1.848-.504-.744-.504-.9-1.596l.9-.204q.096.576.36.912.264.324.648.468.396.132.84.132.66 0 1.044-.264a.82.82 0 0 0 .384-.708q0-.456-.372-.636-.36-.192-.996-.312l-.492-.084a4.4 4.4 0 0 1-1.032-.3 1.9 1.9 0 0 1-.744-.552q-.276-.348-.276-.876 0-.792.612-1.236t1.62-.444q.996 0 1.608.456.624.444.804 1.26l-.888.228q-.108-.636-.516-.888-.408-.264-1.008-.264t-.948.228q-.348.216-.348.648 0 .42.324.624.336.192.888.288l.492.084a5.8 5.8 0 0 1 1.116.3q.504.18.792.528.3.348.3.912 0 .864-.648 1.332-.636.468-1.716.468m6.676 0q-.888 0-1.572-.372a2.7 2.7 0 0 1-1.056-1.044q-.372-.684-.372-1.608v-.156q0-.912.372-1.596a2.7 2.7 0 0 1 1.056-1.056q.684-.372 1.572-.372t1.56.372q.684.372 1.056 1.056.384.684.384 1.596v.156q0 .924-.384 1.608-.372.672-1.056 1.044-.672.372-1.56.372m0-.852q.936 0 1.488-.588.564-.6.564-1.608v-.108q0-1.008-.564-1.596-.552-.6-1.488-.6-.924 0-1.488.6-.564.588-.564 1.596v.108q0 1.008.564 1.608.564.588 1.488.588m6.95.792q-.636 0-1.176-.276a2.06 2.06 0 0 1-.84-.816q-.3-.552-.3-1.332v-3.552h.948v3.48q0 .876.432 1.272.444.396 1.188.396.84 0 1.38-.552t.54-1.644v-2.952h.948V207h-.924v-.996h-.168q-.192.42-.66.768-.468.336-1.368.336m5.104-.108v-5.868h.924v.72h.168q.156-.384.48-.564t.852-.18h.696v.864h-.756q-.636 0-1.032.36-.384.348-.384 1.092V207zm7.013.168q-.852 0-1.536-.36a2.76 2.76 0 0 1-1.068-1.056q-.384-.684-.384-1.62V204q0-.948.384-1.62a2.7 2.7 0 0 1 1.068-1.044 3.16 3.16 0 0 1 1.536-.372q.84 0 1.428.312.6.312.935.828.35.516.445 1.104l-.924.192a2 2 0 0 0-.288-.792 1.6 1.6 0 0 0-.612-.576q-.396-.216-.972-.216-.588 0-1.056.264a1.96 1.96 0 0 0-.732.756q-.264.492-.264 1.176v.108q0 .684.264 1.176.276.492.732.756.468.264 1.056.264.876 0 1.332-.456.468-.456.576-1.128l.936.204a3.2 3.2 0 0 1-.48 1.092q-.348.516-.948.828-.588.312-1.428.312m7.159 0q-.888 0-1.56-.372a2.7 2.7 0 0 1-1.044-1.068q-.372-.684-.372-1.584V204q0-.912.372-1.596a2.62 2.62 0 0 1 1.032-1.056q.66-.384 1.512-.384.828 0 1.464.36.636.348.996 1.008t.36 1.548v.432h-4.788q.036.948.612 1.488.576.528 1.44.528.756 0 1.164-.348t.624-.828l.816.396q-.18.372-.504.744a2.5 2.5 0 0 1-.828.624q-.504.252-1.296.252m-2.016-3.636h3.816q-.048-.816-.564-1.272-.504-.456-1.296-.456-.804 0-1.32.456t-.636 1.272m5.354 6.288v-.828q1.452-.012 2.124-.792t.672-2.376v-3.768q0-1.608-.672-2.376-.672-.78-2.124-.792v-.828q1.164 0 1.992.408t1.272 1.272q.456.864.456 2.256v3.888q0 1.38-.456 2.244-.444.876-1.272 1.284t-1.992.408"/><rect width="142" height="27" x="133.5" y="225.5" fill="#3c3c3c" fill-opacity=".2" rx="3.5"/><rect width="142" height="27" x="133.5" y="225.5" stroke="#3c3c3c" stroke-dasharray="2 2" rx="3.5"/><path fill="#080808" d="M145.996 243v-5.868h.948V243zm.48-6.78a.74.74 0 0 1-.528-.204.7.7 0 0 1-.204-.516q0-.324.204-.528a.74.74 0 0 1 .528-.204.7.7 0 0 1 .516.204.71.71 0 0 1 .204.528.7.7 0 0 1-.72.72m3.613 6.78v-5.04h-1.8v-.828h1.8v-1.5q0-.48.264-.756.276-.276.78-.276h1.476v.816h-1.212q-.36 0-.36.36v1.356h1.848v.828h-1.848V243zm7.239 0v-5.868h.924v.996h.168q.192-.42.648-.756.468-.348 1.368-.348.66 0 1.176.276.528.276.84.816t.312 1.332V243h-.948v-3.48q0-.876-.444-1.272-.432-.396-1.176-.396-.852 0-1.392.552-.528.552-.528 1.644V243zm10.071.168q-.888 0-1.572-.372a2.7 2.7 0 0 1-1.056-1.044q-.372-.684-.372-1.608v-.156q0-.912.372-1.596a2.7 2.7 0 0 1 1.056-1.056q.684-.372 1.572-.372t1.56.372q.684.372 1.056 1.056.384.684.384 1.596v.156q0 .924-.384 1.608-.372.672-1.056 1.044-.672.372-1.56.372m0-.852q.936 0 1.488-.588.564-.6.564-1.608v-.108q0-1.008-.564-1.596-.552-.6-1.488-.6-.924 0-1.488.6-.564.588-.564 1.596v.108q0 1.008.564 1.608.564.588 1.488.588m9.948.684q-.504 0-.78-.276-.264-.276-.264-.756v-4.008h-1.764v-.828h1.764v-2.088h.948v2.088h1.92v.828h-1.92v3.864q0 .36.348.36h1.308V243zm3.36 0v-8.4h.948v3.468h.168q.12-.264.36-.492.252-.24.636-.396.396-.156.996-.156.66 0 1.176.288.528.276.84.816.312.528.312 1.32V243h-.948v-3.48q0-.876-.444-1.272-.432-.396-1.176-.396-.852 0-1.392.552-.528.552-.528 1.644V243zm7.359 0v-5.868h.924v.72h.168q.156-.384.48-.564t.852-.18h.696v.864h-.756q-.636 0-1.032.36-.384.348-.384 1.092V243zm7.001.168q-.888 0-1.56-.372a2.7 2.7 0 0 1-1.044-1.068q-.372-.684-.372-1.584V240q0-.912.372-1.596a2.62 2.62 0 0 1 1.032-1.056q.66-.384 1.512-.384.828 0 1.464.36.636.348.996 1.008t.36 1.548v.432h-4.788q.036.948.612 1.488.576.528 1.44.528.756 0 1.164-.348t.624-.828l.816.396q-.18.372-.504.744a2.5 2.5 0 0 1-.828.624q-.504.252-1.296.252m-2.016-3.636h3.816q-.048-.816-.564-1.272-.504-.456-1.296-.456-.804 0-1.32.456t-.636 1.272m8.229 3.636q-.612 0-1.116-.216a1.8 1.8 0 0 1-.792-.624q-.288-.408-.288-.996 0-.6.288-.984.288-.396.792-.588a3 3 0 0 1 1.128-.204h1.98v-.432q0-.624-.372-.984-.36-.36-1.08-.36-.708 0-1.104.348-.396.336-.54.912l-.888-.288q.144-.492.456-.888.312-.408.828-.648.528-.252 1.26-.252 1.128 0 1.752.588.624.576.624 1.632v2.652q0 .36.336.36h.54V243h-.828q-.396 0-.636-.216a.8.8 0 0 1-.24-.6v-.06h-.144a3 3 0 0 1-.36.48q-.216.24-.6.396-.384.168-.996.168m.108-.816q.84 0 1.356-.492.528-.504.528-1.404v-.132h-1.944q-.564 0-.936.252-.36.24-.36.732t.372.768q.384.276.984.276m6.768.648q-.504 0-.78-.276-.264-.276-.264-.756v-4.008h-1.764v-.828h1.764v-2.088h.948v2.088h1.92v.828h-1.92v3.864q0 .36.348.36h1.308V243zm6.646-4.668v-.864h5.04v.864zm0 1.8v-.864h5.04v.864zm7.441 1.308v-1.008l4.08-1.56v-.144l-4.08-1.56v-1.008l5.04 2.028v1.224zm13.019 1.728q-.852 0-1.536-.36a2.76 2.76 0 0 1-1.068-1.056q-.384-.684-.384-1.62V240q0-.948.384-1.62a2.7 2.7 0 0 1 1.068-1.044 3.16 3.16 0 0 1 1.536-.372q.84 0 1.428.312.6.312.936.828.348.516.444 1.104l-.924.192a2 2 0 0 0-.288-.792 1.6 1.6 0 0 0-.612-.576q-.396-.216-.972-.216-.588 0-1.056.264a1.96 1.96 0 0 0-.732.756q-.264.492-.264 1.176v.108q0 .684.264 1.176.276.492.732.756.468.264 1.056.264.876 0 1.332-.456.468-.456.576-1.128l.936.204a3.2 3.2 0 0 1-.48 1.092q-.348.516-.948.828-.588.312-1.428.312m4.472-.168v-8.4h.948v8.4zm5.63.168q-.888 0-1.56-.372a2.7 2.7 0 0 1-1.044-1.068q-.372-.684-.372-1.584V240q0-.912.372-1.596a2.62 2.62 0 0 1 1.032-1.056q.66-.384 1.512-.384.828 0 1.464.36.636.348.996 1.008t.36 1.548v.432h-4.788q.036.948.612 1.488.576.528 1.44.528.756 0 1.164-.348t.624-.828l.816.396q-.18.372-.504.744a2.5 2.5 0 0 1-.828.624q-.504.252-1.296.252m-2.016-3.636h3.816q-.048-.816-.564-1.272-.504-.456-1.296-.456-.804 0-1.32.456t-.636 1.272m8.229 3.636q-.612 0-1.116-.216a1.8 1.8 0 0 1-.792-.624q-.288-.408-.288-.996 0-.6.288-.984.288-.396.792-.588a3 3 0 0 1 1.128-.204h1.98v-.432q0-.624-.372-.984-.36-.36-1.08-.36-.708 0-1.104.348-.396.336-.54.912l-.888-.288q.144-.492.456-.888.312-.408.828-.648.528-.252 1.26-.252 1.128 0 1.752.588.624.576.624 1.632v2.652q0 .36.336.36h.54V243h-.828q-.396 0-.636-.216a.8.8 0 0 1-.24-.6v-.06h-.144a3 3 0 0 1-.36.48q-.216.24-.6.396-.384.168-.996.168m.108-.816q.84 0 1.356-.492.528-.504.528-1.404v-.132h-1.944q-.564 0-.936.252-.36.24-.36.732t.372.768q.384.276.984.276m4.995.648v-5.868h.924v.996h.168q.192-.42.648-.756.468-.348 1.368-.348.66 0 1.176.276.528.276.84.816t.312 1.332V243h-.948v-3.48q0-.876-.444-1.272-.432-.396-1.176-.396-.852 0-1.392.552-.528.552-.528 1.644V243z"/><rect width="327" height="27" x="133.5" y="261.5" fill="#3c3c3c" fill-opacity=".2" rx="3.5"/><rect width="327" height="27" x="133.5" y="261.5" stroke="#3c3c3c" stroke-dasharray="2 2" rx="3.5"/><path fill="#080808" d="M148.684 279.168q-.888 0-1.56-.372a2.7 2.7 0 0 1-1.044-1.068q-.372-.684-.372-1.584V276q0-.912.372-1.596a2.62 2.62 0 0 1 1.032-1.056q.66-.384 1.512-.384.828 0 1.464.36.636.348.996 1.008t.36 1.548v.432h-4.788q.036.948.612 1.488.576.528 1.44.528.756 0 1.164-.348t.624-.828l.816.396q-.18.372-.504.744a2.5 2.5 0 0 1-.828.624q-.504.252-1.296.252m-2.016-3.636h3.816q-.048-.816-.564-1.272-.504-.456-1.296-.456-.804 0-1.32.456t-.636 1.272m7.671 3.468-2.1-5.868h1.008l1.764 5.16h.168l1.764-5.16h1.008l-2.1 5.868zm4.981 0v-5.868h.948V279zm.48-6.78a.74.74 0 0 1-.528-.204.7.7 0 0 1-.204-.516q0-.324.204-.528a.74.74 0 0 1 .528-.204.7.7 0 0 1 .516.204.71.71 0 0 1 .204.528.7.7 0 0 1-.72.72m4.946 6.948q-.756 0-1.392-.36a2.6 2.6 0 0 1-1.008-1.044q-.372-.684-.372-1.62v-.156q0-.936.372-1.608.372-.684.996-1.044a2.73 2.73 0 0 1 1.404-.372q.612 0 1.032.168.432.156.696.408.264.24.408.516h.168V270.6h.948v8.4h-.924v-.972h-.168q-.24.444-.744.792t-1.416.348m.252-.84q.912 0 1.476-.576.576-.588.576-1.632v-.108q0-1.044-.576-1.62-.564-.588-1.476-.588-.9 0-1.488.588-.576.576-.576 1.62v.108q0 1.044.576 1.632.588.576 1.488.576m7.674.84q-.888 0-1.56-.372a2.7 2.7 0 0 1-1.044-1.068q-.372-.684-.372-1.584V276q0-.912.372-1.596a2.62 2.62 0 0 1 1.032-1.056q.66-.384 1.512-.384.828 0 1.464.36.636.348.996 1.008t.36 1.548v.432h-4.788q.036.948.612 1.488.576.528 1.44.528.756 0 1.164-.348t.624-.828l.816.396q-.18.372-.504.744a2.5 2.5 0 0 1-.828.624q-.504.252-1.296.252m-2.016-3.636h3.816q-.048-.816-.564-1.272-.504-.456-1.296-.456-.804 0-1.32.456t-.636 1.272m6.43 3.468v-5.868h.924v.996h.168q.192-.42.648-.756.468-.348 1.368-.348.66 0 1.176.276.528.276.84.816t.312 1.332V279h-.948v-3.48q0-.876-.444-1.272-.432-.396-1.176-.396-.852 0-1.392.552-.528.552-.528 1.644V279zm10.059.168q-.852 0-1.536-.36a2.76 2.76 0 0 1-1.068-1.056q-.384-.684-.384-1.62V276q0-.948.384-1.62a2.7 2.7 0 0 1 1.068-1.044 3.16 3.16 0 0 1 1.536-.372q.84 0 1.428.312.6.312.936.828.348.516.444 1.104l-.924.192a2 2 0 0 0-.288-.792 1.6 1.6 0 0 0-.612-.576q-.396-.216-.972-.216-.588 0-1.056.264a1.96 1.96 0 0 0-.732.756q-.264.492-.264 1.176v.108q0 .684.264 1.176.276.492.732.756.468.264 1.056.264.876 0 1.332-.456.468-.456.576-1.128l.936.204a3.2 3.2 0 0 1-.48 1.092q-.348.516-.948.828-.588.312-1.428.312m7.16 0q-.888 0-1.56-.372a2.7 2.7 0 0 1-1.044-1.068q-.372-.684-.372-1.584V276q0-.912.372-1.596a2.62 2.62 0 0 1 1.032-1.056q.66-.384 1.512-.384.828 0 1.464.36.636.348.996 1.008t.36 1.548v.432h-4.788q.036.948.612 1.488.576.528 1.44.528.756 0 1.164-.348t.624-.828l.816.396q-.18.372-.504.744a2.5 2.5 0 0 1-.828.624q-.504.252-1.296.252m-2.016-3.636h3.816q-.048-.816-.564-1.272-.504-.456-1.296-.456-.804 0-1.32.456t-.636 1.272m6.394 3.468v-8.4h5.076v.912h-4.068v2.82h3.744v.912h-3.744V279zm8.234.168q-.612 0-1.116-.216a1.8 1.8 0 0 1-.792-.624q-.288-.408-.288-.996 0-.6.288-.984.288-.396.792-.588a3 3 0 0 1 1.128-.204h1.98v-.432q0-.624-.372-.984-.36-.36-1.08-.36-.708 0-1.104.348-.396.336-.54.912l-.888-.288q.144-.492.456-.888.312-.408.828-.648.528-.252 1.26-.252 1.128 0 1.752.588.624.576.624 1.632v2.652q0 .36.336.36h.54V279h-.828q-.396 0-.636-.216a.8.8 0 0 1-.24-.6v-.06h-.144a3 3 0 0 1-.36.48q-.216.24-.6.396-.384.168-.996.168m.108-.816q.84 0 1.356-.492.528-.504.528-1.404v-.132h-1.944q-.564 0-.936.252-.36.24-.36.732t.372.768q.384.276.984.276m7.53.816q-.852 0-1.536-.36a2.76 2.76 0 0 1-1.068-1.056q-.384-.684-.384-1.62V276q0-.948.384-1.62a2.7 2.7 0 0 1 1.068-1.044 3.16 3.16 0 0 1 1.536-.372q.84 0 1.428.312.6.312.936.828.348.516.444 1.104l-.924.192a2 2 0 0 0-.288-.792 1.6 1.6 0 0 0-.612-.576q-.396-.216-.972-.216-.588 0-1.056.264a1.96 1.96 0 0 0-.732.756q-.264.492-.264 1.176v.108q0 .684.264 1.176.276.492.732.756.468.264 1.056.264.876 0 1.332-.456.468-.456.576-1.128l.936.204a3.2 3.2 0 0 1-.48 1.092q-.348.516-.948.828-.588.312-1.428.312m6.386-.168q-.504 0-.78-.276-.264-.276-.264-.756v-4.008h-1.764v-.828h1.764v-2.088h.948v2.088h1.92v.828h-1.92v3.864q0 .36.348.36h1.308V279zm5.861.168q-.888 0-1.572-.372a2.7 2.7 0 0 1-1.056-1.044q-.372-.684-.372-1.608v-.156q0-.912.372-1.596a2.7 2.7 0 0 1 1.056-1.056q.684-.372 1.572-.372t1.56.372q.684.372 1.056 1.056.384.684.384 1.596v.156q0 .924-.384 1.608-.372.672-1.056 1.044-.672.372-1.56.372m0-.852q.936 0 1.488-.588.564-.6.564-1.608v-.108q0-1.008-.564-1.596-.552-.6-1.488-.6-.924 0-1.488.6-.564.588-.564 1.596v.108q0 1.008.564 1.608.564.588 1.488.588m4.706.684v-5.868h.924v.72h.168q.156-.384.48-.564t.852-.18h.696v.864h-.756q-.636 0-1.032.36-.384.348-.384 1.092V279zm5.231 2.4v-.84h3.36q.348 0 .348-.36v-2.136h-.168q-.12.252-.372.504-.24.24-.636.396-.396.144-.996.144-.636 0-1.176-.276a2.06 2.06 0 0 1-.84-.816q-.3-.54-.3-1.32v-3.564h.948v3.492q0 .864.432 1.26.444.396 1.188.396.84 0 1.38-.552t.54-1.644v-2.952h.948v7.236q0 .48-.276.756-.264.276-.78.276zm7.156-2.232a.82.82 0 0 1-.588-.228.8.8 0 0 1-.228-.588q0-.36.228-.588a.82.82 0 0 1 .588-.228q.36 0 .588.228a.8.8 0 0 1 .228.588q0 .36-.228.588a.8.8 0 0 1-.588.228m5.137 0q-.852 0-1.536-.36a2.76 2.76 0 0 1-1.068-1.056q-.384-.684-.384-1.62V276q0-.948.384-1.62a2.7 2.7 0 0 1 1.068-1.044 3.16 3.16 0 0 1 1.536-.372q.84 0 1.428.312.6.312.936.828.348.516.444 1.104l-.924.192a2 2 0 0 0-.288-.792 1.6 1.6 0 0 0-.612-.576q-.396-.216-.972-.216-.588 0-1.056.264a1.96 1.96 0 0 0-.732.756q-.264.492-.264 1.176v.108q0 .684.264 1.176.276.492.732.756.468.264 1.056.264.876 0 1.332-.456.468-.456.576-1.128l.936.204a3.2 3.2 0 0 1-.48 1.092q-.348.516-.948.828-.588.312-1.428.312m4.472-.168v-5.868h.924v.72h.168q.156-.384.48-.564t.852-.18h.696v.864h-.756q-.636 0-1.032.36-.384.348-.384 1.092V279zm7 .168q-.888 0-1.56-.372a2.7 2.7 0 0 1-1.044-1.068q-.372-.684-.372-1.584V276q0-.912.372-1.596a2.62 2.62 0 0 1 1.032-1.056q.66-.384 1.512-.384.828 0 1.464.36.636.348.996 1.008t.36 1.548v.432h-4.788q.036.948.612 1.488.576.528 1.44.528.756 0 1.164-.348t.624-.828l.816.396q-.18.372-.504.744a2.5 2.5 0 0 1-.828.624q-.504.252-1.296.252m-2.016-3.636h3.816q-.048-.816-.564-1.272-.504-.456-1.296-.456-.804 0-1.32.456t-.636 1.272m8.23 3.636q-.612 0-1.116-.216a1.8 1.8 0 0 1-.792-.624q-.288-.408-.288-.996 0-.6.288-.984.288-.396.792-.588a3 3 0 0 1 1.128-.204h1.98v-.432q0-.624-.372-.984-.36-.36-1.08-.36-.708 0-1.104.348-.396.336-.54.912l-.888-.288q.144-.492.456-.888.312-.408.828-.648.528-.252 1.26-.252 1.128 0 1.752.588.624.576.624 1.632v2.652q0 .36.336.36h.54V279h-.828q-.396 0-.636-.216a.8.8 0 0 1-.24-.6v-.06h-.144a3 3 0 0 1-.36.48q-.216.24-.6.396-.384.168-.996.168m.108-.816q.84 0 1.356-.492.528-.504.528-1.404v-.132h-1.944q-.564 0-.936.252-.36.24-.36.732t.372.768q.384.276.984.276m6.768.648q-.504 0-.78-.276-.264-.276-.264-.756v-4.008h-1.764v-.828h1.764v-2.088h.948v2.088h1.92v.828h-1.92v3.864q0 .36.348.36h1.308V279zm5.836.168q-.888 0-1.56-.372a2.7 2.7 0 0 1-1.044-1.068q-.372-.684-.372-1.584V276q0-.912.372-1.596a2.62 2.62 0 0 1 1.032-1.056q.66-.384 1.512-.384.828 0 1.464.36.636.348.996 1.008t.36 1.548v.432h-4.788q.036.948.612 1.488.576.528 1.44.528.756 0 1.164-.348t.624-.828l.816.396q-.18.372-.504.744a2.5 2.5 0 0 1-.828.624q-.504.252-1.296.252m-2.016-3.636h3.816q-.048-.816-.564-1.272-.504-.456-1.296-.456-.804 0-1.32.456t-.636 1.272m9.862 6.288q-1.152 0-1.992-.408-.828-.408-1.272-1.284-.444-.864-.444-2.244v-3.888q0-1.392.444-2.256t1.272-1.272q.84-.408 1.992-.408v.828q-1.428.012-2.112.792-.684.768-.684 2.376v3.768q0 1.596.684 2.376t2.112.792zm1.631-2.652a.82.82 0 0 1-.588-.228.8.8 0 0 1-.228-.588q0-.36.228-.588a.82.82 0 0 1 .588-.228q.36 0 .588.228a.8.8 0 0 1 .228.588q0 .36-.228.588a.8.8 0 0 1-.588.228m3.035 0a.82.82 0 0 1-.588-.228.8.8 0 0 1-.228-.588q0-.36.228-.588a.82.82 0 0 1 .588-.228q.36 0 .588.228a.8.8 0 0 1 .228.588q0 .36-.228.588a.8.8 0 0 1-.588.228m3.035 0a.82.82 0 0 1-.588-.228.8.8 0 0 1-.228-.588q0-.36.228-.588a.82.82 0 0 1 .588-.228q.36 0 .588.228a.8.8 0 0 1 .228.588q0 .36-.228.588a.8.8 0 0 1-.588.228m1.607 2.652v-.828q1.452-.012 2.124-.792t.672-2.376v-3.768q0-1.608-.672-2.376-.672-.78-2.124-.792v-.828q1.164 0 1.992.408t1.272 1.272q.456.864.456 2.256v3.888q0 1.38-.456 2.244-.444.876-1.272 1.284t-1.992.408m11.949 0q-1.152 0-1.992-.408-.828-.408-1.272-1.284-.444-.864-.444-2.244v-3.888q0-1.392.444-2.256t1.272-1.272q.84-.408 1.992-.408v.828q-1.428.012-2.112.792-.684.768-.684 2.376v3.768q0 1.596.684 2.376t2.112.792zm3.639-2.652q-.888 0-1.56-.372a2.7 2.7 0 0 1-1.044-1.068q-.372-.684-.372-1.584V276q0-.912.372-1.596a2.62 2.62 0 0 1 1.032-1.056q.66-.384 1.512-.384.828 0 1.464.36.636.348.996 1.008t.36 1.548v.432h-4.788q.036.948.612 1.488.576.528 1.44.528.756 0 1.164-.348t.624-.828l.816.396q-.18.372-.504.744a2.5 2.5 0 0 1-.828.624q-.504.252-1.296.252m-2.016-3.636h3.816q-.048-.816-.564-1.272-.504-.456-1.296-.456-.804 0-1.32.456t-.636 1.272m6.43 3.468v-5.868h.924v.996h.168q.192-.42.648-.756.468-.348 1.368-.348.66 0 1.176.276.528.276.84.816t.312 1.332V279h-.948v-3.48q0-.876-.444-1.272-.432-.396-1.176-.396-.852 0-1.392.552-.528.552-.528 1.644V279zm10.059.168q-.852 0-1.536-.36a2.76 2.76 0 0 1-1.068-1.056q-.384-.684-.384-1.62V276q0-.948.384-1.62a2.7 2.7 0 0 1 1.068-1.044 3.16 3.16 0 0 1 1.536-.372q.84 0 1.428.312.6.312.936.828.348.516.444 1.104l-.924.192a2 2 0 0 0-.288-.792 1.6 1.6 0 0 0-.612-.576q-.396-.216-.972-.216-.588 0-1.056.264a1.96 1.96 0 0 0-.732.756q-.264.492-.264 1.176v.108q0 .684.264 1.176.276.492.732.756.468.264 1.056.264.876 0 1.332-.456.468-.456.576-1.128l.936.204a3.2 3.2 0 0 1-.48 1.092q-.348.516-.948.828-.588.312-1.428.312m7.184 0q-.888 0-1.572-.372a2.7 2.7 0 0 1-1.056-1.044q-.372-.684-.372-1.608v-.156q0-.912.372-1.596a2.7 2.7 0 0 1 1.056-1.056q.684-.372 1.572-.372t1.56.372q.684.372 1.056 1.056.384.684.384 1.596v.156q0 .924-.384 1.608-.372.672-1.056 1.044-.672.372-1.56.372m0-.852q.936 0 1.488-.588.564-.6.564-1.608v-.108q0-1.008-.564-1.596-.552-.6-1.488-.6-.924 0-1.488.6-.564.588-.564 1.596v.108q0 1.008.564 1.608.564.588 1.488.588m7.19.852q-.756 0-1.392-.36a2.6 2.6 0 0 1-1.008-1.044q-.372-.684-.372-1.62v-.156q0-.936.372-1.608.372-.684.996-1.044a2.73 2.73 0 0 1 1.404-.372q.612 0 1.032.168.432.156.696.408.264.24.408.516h.168V270.6h.948v8.4h-.924v-.972h-.168q-.24.444-.744.792t-1.416.348m.252-.84q.912 0 1.476-.576.576-.588.576-1.632v-.108q0-1.044-.576-1.62-.564-.588-1.476-.588-.9 0-1.488.588-.576.576-.576 1.62v.108q0 1.044.576 1.632.588.576 1.488.576m7.675.84q-.888 0-1.56-.372a2.7 2.7 0 0 1-1.044-1.068q-.372-.684-.372-1.584V276q0-.912.372-1.596a2.62 2.62 0 0 1 1.032-1.056q.66-.384 1.512-.384.828 0 1.464.36.636.348.996 1.008t.36 1.548v.432h-4.788q.036.948.612 1.488.576.528 1.44.528.756 0 1.164-.348t.624-.828l.816.396q-.18.372-.504.744a2.5 2.5 0 0 1-.828.624q-.504.252-1.296.252m-2.016-3.636h3.816q-.048-.816-.564-1.272-.504-.456-1.296-.456-.804 0-1.32.456t-.636 1.272m5.222 5.868 3.528-10.8h.948l-3.528 10.8zm5.438-2.4v-8.4h.948v3.468h.168q.12-.264.36-.492.252-.24.636-.396.396-.156.996-.156.66 0 1.176.288.528.276.84.816.312.528.312 1.32V279h-.948v-3.48q0-.876-.444-1.272-.432-.396-1.176-.396-.852 0-1.392.552-.528.552-.528 1.644V279zm9.159.168q-.612 0-1.116-.216a1.8 1.8 0 0 1-.792-.624q-.288-.408-.288-.996 0-.6.288-.984.288-.396.792-.588a3 3 0 0 1 1.128-.204h1.98v-.432q0-.624-.372-.984-.36-.36-1.08-.36-.708 0-1.104.348-.396.336-.54.912l-.888-.288q.144-.492.456-.888.312-.408.828-.648.528-.252 1.26-.252 1.128 0 1.752.588.624.576.624 1.632v2.652q0 .36.336.36h.54V279h-.828q-.396 0-.636-.216a.8.8 0 0 1-.24-.6v-.06h-.144a3 3 0 0 1-.36.48q-.216.24-.6.396-.384.168-.996.168m.108-.816q.84 0 1.356-.492.528-.504.528-1.404v-.132h-1.944q-.564 0-.936.252-.36.24-.36.732t.372.768q.384.276.984.276m7.312.816q-1.092 0-1.848-.504-.744-.504-.9-1.596l.9-.204q.096.576.36.912.264.324.648.468.396.132.84.132.66 0 1.044-.264a.82.82 0 0 0 .384-.708q0-.456-.372-.636-.36-.192-.996-.312l-.492-.084a4.4 4.4 0 0 1-1.032-.3 1.9 1.9 0 0 1-.744-.552q-.276-.348-.276-.876 0-.792.612-1.236t1.62-.444q.996 0 1.608.456.624.444.804 1.26l-.888.228q-.108-.636-.516-.888-.408-.264-1.008-.264t-.948.228q-.348.216-.348.648 0 .42.324.624.336.192.888.288l.492.084a5.8 5.8 0 0 1 1.116.3q.504.18.792.528.3.348.3.912 0 .864-.648 1.332-.636.468-1.716.468m3.964-.168v-8.4h.948v3.468h.168q.12-.264.36-.492.252-.24.636-.396.396-.156.996-.156.66 0 1.176.288.528.276.84.816.312.528.312 1.32V279h-.948v-3.48q0-.876-.444-1.272-.432-.396-1.176-.396-.852 0-1.392.552-.528.552-.528 1.644V279zm6.363 2.4 3.528-10.8h.948l-3.528 10.8zm7.755-2.232q-1.092 0-1.848-.504-.744-.504-.9-1.596l.9-.204q.096.576.36.912.264.324.648.468.396.132.84.132.66 0 1.044-.264a.82.82 0 0 0 .384-.708q0-.456-.372-.636-.36-.192-.996-.312l-.492-.084a4.4 4.4 0 0 1-1.032-.3 1.9 1.9 0 0 1-.744-.552q-.276-.348-.276-.876 0-.792.612-1.236t1.62-.444q.996 0 1.608.456.624.444.804 1.26l-.888.228q-.108-.636-.516-.888-.408-.264-1.008-.264t-.948.228q-.348.216-.348.648 0 .42.324.624.336.192.888.288l.492.084a5.8 5.8 0 0 1 1.116.3q.504.18.792.528.3.348.3.912 0 .864-.648 1.332-.636.468-1.716.468m3.964-.168v-5.868h.948V279zm.48-6.78a.74.74 0 0 1-.528-.204.7.7 0 0 1-.204-.516q0-.324.204-.528a.74.74 0 0 1 .528-.204.7.7 0 0 1 .516.204.71.71 0 0 1 .204.528.7.7 0 0 1-.72.72m2.173 3.876v-.168q0-.924.372-1.584t1.008-1.02 1.392-.36q.924 0 1.416.36.504.348.744.78h.168v-.972h.9v7.236q0 .48-.264.756t-.768.276h-3.984v-.84h3.732q.36 0 .36-.36v-2.232h-.168a2.1 2.1 0 0 1-.408.516 2.1 2.1 0 0 1-.684.42q-.42.156-1.044.156-.756 0-1.392-.36t-1.008-1.02q-.372-.672-.372-1.584m3.024 2.124q.912 0 1.476-.576.576-.576.576-1.584v-.096q0-1.02-.576-1.584-.564-.576-1.476-.576-.9 0-1.488.576-.576.564-.576 1.584v.096q0 1.008.576 1.584.588.576 1.488.576m4.963.78v-5.868h.924v.996h.168q.192-.42.648-.756.468-.348 1.368-.348.66 0 1.176.276.528.276.84.816t.312 1.332V279h-.948v-3.48q0-.876-.444-1.272-.432-.396-1.176-.396-.852 0-1.392.552-.528.552-.528 1.644V279zm9.16.168q-.612 0-1.116-.216a1.8 1.8 0 0 1-.792-.624q-.288-.408-.288-.996 0-.6.288-.984.288-.396.792-.588a3 3 0 0 1 1.128-.204h1.98v-.432q0-.624-.372-.984-.36-.36-1.08-.36-.708 0-1.104.348-.396.336-.54.912l-.888-.288q.144-.492.456-.888.312-.408.828-.648.528-.252 1.26-.252 1.128 0 1.752.588.624.576.624 1.632v2.652q0 .36.336.36h.54V279h-.828q-.396 0-.636-.216a.8.8 0 0 1-.24-.6v-.06h-.144a3 3 0 0 1-.36.48q-.216.24-.6.396-.384.168-.996.168m.108-.816q.84 0 1.356-.492.528-.504.528-1.404v-.132h-1.944q-.564 0-.936.252-.36.24-.36.732t.372.768q.384.276.984.276m6.767.648q-.504 0-.78-.276-.264-.276-.264-.756v-4.008h-1.764v-.828h1.764v-2.088h.948v2.088h1.92v.828h-1.92v3.864q0 .36.348.36h1.308V279zm5.604.108q-.636 0-1.176-.276a2.06 2.06 0 0 1-.84-.816q-.3-.552-.3-1.332v-3.552h.948v3.48q0 .876.432 1.272.444.396 1.188.396.84 0 1.38-.552t.54-1.644v-2.952h.948V279h-.924v-.996h-.168q-.192.42-.66.768-.468.336-1.368.336m5.104-.108v-5.868h.924v.72h.168q.156-.384.48-.564t.852-.18h.696v.864h-.756q-.636 0-1.032.36-.384.348-.384 1.092V279zm7 .168q-.888 0-1.56-.372a2.7 2.7 0 0 1-1.044-1.068q-.372-.684-.372-1.584V276q0-.912.372-1.596a2.62 2.62 0 0 1 1.032-1.056q.66-.384 1.512-.384.828 0 1.464.36.636.348.996 1.008t.36 1.548v.432h-4.788q.036.948.612 1.488.576.528 1.44.528.756 0 1.164-.348t.624-.828l.816.396q-.18.372-.504.744a2.5 2.5 0 0 1-.828.624q-.504.252-1.296.252m-2.016-3.636h3.816q-.048-.816-.564-1.272-.504-.456-1.296-.456-.804 0-1.32.456t-.636 1.272m5.354 6.288v-.828q1.452-.012 2.124-.792t.672-2.376v-3.768q0-1.608-.672-2.376-.672-.78-2.124-.792v-.828q1.164 0 1.992.408t1.272 1.272q.456.864.456 2.256v3.888q0 1.38-.456 2.244-.444.876-1.272 1.284t-1.992.408"/><rect width="238" height="27" x="133.5" y="297.5" fill="#3c3c3c" fill-opacity=".2" rx="3.5"/><rect width="238" height="27" x="133.5" y="297.5" stroke="#3c3c3c" stroke-dasharray="2 2" rx="3.5"/><path fill="#080808" d="M150.784 317.4v-3.324h-.168a2.1 2.1 0 0 1-.408.516 2 2 0 0 1-.696.408q-.42.168-1.032.168a2.8 2.8 0 0 1-1.404-.36 2.6 2.6 0 0 1-.996-1.044q-.372-.684-.372-1.62v-.156q0-.948.372-1.62a2.6 2.6 0 0 1 1.008-1.032 2.7 2.7 0 0 1 1.392-.372q.912 0 1.416.348t.744.792h.168v-.972h.924v8.268zm-2.052-3.072q.912 0 1.476-.576.576-.588.576-1.632v-.108q0-1.044-.576-1.62-.564-.588-1.476-.588-.9 0-1.488.588-.576.576-.576 1.62v.108q0 1.044.576 1.632.588.576 1.488.576m7.231.78q-.636 0-1.176-.276a2.06 2.06 0 0 1-.84-.816q-.3-.552-.3-1.332v-3.552h.948v3.48q0 .876.432 1.272.444.396 1.188.396.84 0 1.38-.552t.54-1.644v-2.952h.948V315h-.924v-.996h-.168q-.192.42-.66.768-.468.336-1.368.336m6.903.06q-.612 0-1.116-.216a1.8 1.8 0 0 1-.792-.624q-.288-.408-.288-.996 0-.6.288-.984.288-.396.792-.588a3 3 0 0 1 1.128-.204h1.98v-.432q0-.624-.372-.984-.36-.36-1.08-.36-.708 0-1.104.348-.396.336-.54.912l-.888-.288q.144-.492.456-.888.312-.408.828-.648.528-.252 1.26-.252 1.128 0 1.752.588.624.576.624 1.632v2.652q0 .36.336.36h.54V315h-.828q-.396 0-.636-.216a.8.8 0 0 1-.24-.6v-.06h-.144a3 3 0 0 1-.36.48q-.216.24-.6.396-.384.168-.996.168m.108-.816q.84 0 1.356-.492.528-.504.528-1.404v-.132h-1.944q-.564 0-.936.252-.36.24-.36.732t.372.768q.384.276.984.276m4.995.648v-5.868h.924v.72h.168q.156-.384.48-.564t.852-.18h.696v.864h-.756q-.636 0-1.032.36-.384.348-.384 1.092V315zm6.124.168q-.612 0-1.116-.216a1.8 1.8 0 0 1-.792-.624q-.288-.408-.288-.996 0-.6.288-.984.288-.396.792-.588a3 3 0 0 1 1.128-.204h1.98v-.432q0-.624-.372-.984-.36-.36-1.08-.36-.708 0-1.104.348-.396.336-.54.912l-.888-.288q.144-.492.456-.888.312-.408.828-.648.528-.252 1.26-.252 1.128 0 1.752.588.624.576.624 1.632v2.652q0 .36.336.36h.54V315h-.828q-.396 0-.636-.216a.8.8 0 0 1-.24-.6v-.06h-.144a3 3 0 0 1-.36.48q-.216.24-.6.396-.384.168-.996.168m.108-.816q.84 0 1.356-.492.528-.504.528-1.404v-.132h-1.944q-.564 0-.936.252-.36.24-.36.732t.372.768q.384.276.984.276m4.994.648v-5.868h.924v.996h.168q.192-.42.648-.756.468-.348 1.368-.348.66 0 1.176.276.528.276.84.816t.312 1.332V315h-.948v-3.48q0-.876-.444-1.272-.432-.396-1.176-.396-.852 0-1.392.552-.528.552-.528 1.644V315zm9.356 0q-.504 0-.78-.276-.264-.276-.264-.756v-4.008h-1.764v-.828h1.764v-2.088h.948v2.088h1.92v.828h-1.92v3.864q0 .36.348.36h1.308V315zm3.359 0v-5.868h.948V315zm.48-6.78a.74.74 0 0 1-.528-.204.7.7 0 0 1-.204-.516q0-.324.204-.528a.74.74 0 0 1 .528-.204.7.7 0 0 1 .516.204.71.71 0 0 1 .204.528.7.7 0 0 1-.72.72m2.461 6.78v-5.868h.924v.996h.168q.192-.42.648-.756.468-.348 1.368-.348.66 0 1.176.276.528.276.84.816t.312 1.332V315h-.948v-3.48q0-.876-.444-1.272-.432-.396-1.176-.396-.852 0-1.392.552-.528.552-.528 1.644V315zm10.048.168q-.888 0-1.56-.372a2.7 2.7 0 0 1-1.044-1.068q-.372-.684-.372-1.584V312q0-.912.372-1.596a2.62 2.62 0 0 1 1.032-1.056q.66-.384 1.512-.384.828 0 1.464.36.636.348.996 1.008t.36 1.548v.432h-4.788q.036.948.612 1.488.576.528 1.44.528.756 0 1.164-.348t.624-.828l.816.396q-.18.372-.504.744a2.5 2.5 0 0 1-.828.624q-.504.252-1.296.252m-2.016-3.636h3.816q-.048-.816-.564-1.272-.504-.456-1.296-.456-.804 0-1.32.456t-.636 1.272m9.511 3.468v-5.868h.948V315zm.48-6.78a.74.74 0 0 1-.528-.204.7.7 0 0 1-.204-.516q0-.324.204-.528a.74.74 0 0 1 .528-.204.7.7 0 0 1 .516.204.71.71 0 0 1 .204.528.7.7 0 0 1-.72.72m2.462 6.78v-5.868h.924v.996h.168q.192-.42.648-.756.468-.348 1.368-.348.66 0 1.176.276.528.276.84.816t.312 1.332V315h-.948v-3.48q0-.876-.444-1.272-.432-.396-1.176-.396-.852 0-1.392.552-.528.552-.528 1.644V315zm9.723.168q-1.092 0-1.848-.504-.744-.504-.9-1.596l.9-.204q.096.576.36.912.264.324.648.468.396.132.84.132.66 0 1.044-.264a.82.82 0 0 0 .384-.708q0-.456-.372-.636-.36-.192-.996-.312l-.492-.084a4.4 4.4 0 0 1-1.032-.3 1.9 1.9 0 0 1-.744-.552q-.276-.348-.276-.876 0-.792.612-1.236t1.62-.444q.996 0 1.608.456.624.444.804 1.26l-.888.228q-.108-.636-.516-.888-.408-.264-1.008-.264t-.948.228q-.348.216-.348.648 0 .42.324.624.336.192.888.288l.492.084a5.8 5.8 0 0 1 1.116.3q.504.18.792.528.3.348.3.912 0 .864-.648 1.332-.636.468-1.716.468m6.652 0q-.888 0-1.56-.372a2.7 2.7 0 0 1-1.044-1.068q-.372-.684-.372-1.584V312q0-.912.372-1.596a2.62 2.62 0 0 1 1.032-1.056q.66-.384 1.512-.384.828 0 1.464.36.636.348.996 1.008t.36 1.548v.432h-4.788q.036.948.612 1.488.576.528 1.44.528.756 0 1.164-.348t.624-.828l.816.396q-.18.372-.504.744a2.5 2.5 0 0 1-.828.624q-.504.252-1.296.252m-2.016-3.636h3.816q-.048-.816-.564-1.272-.504-.456-1.296-.456-.804 0-1.32.456t-.636 1.272m6.43 3.468v-5.868h.924v.72h.168q.156-.384.48-.564t.852-.18h.696v.864h-.756q-.636 0-1.032.36-.384.348-.384 1.092V315zm6.683 0q-.504 0-.78-.276-.264-.276-.264-.756v-4.008H240v-.828h1.764v-2.088h.948v2.088h1.92v.828h-1.92v3.864q0 .36.348.36h1.308V315zm8.71-1.68v-2.088h-2.064v-.864h2.064v-2.088h.912v2.088h2.064v.864h-2.064v2.088zm10.955 1.848q-.852 0-1.536-.36a2.76 2.76 0 0 1-1.068-1.056q-.384-.684-.384-1.62V312q0-.948.384-1.62a2.7 2.7 0 0 1 1.068-1.044 3.16 3.16 0 0 1 1.536-.372q.84 0 1.428.312.6.312.936.828.348.516.444 1.104l-.924.192a2 2 0 0 0-.288-.792 1.6 1.6 0 0 0-.612-.576q-.396-.216-.972-.216-.588 0-1.056.264a1.96 1.96 0 0 0-.732.756q-.264.492-.264 1.176v.108q0 .684.264 1.176.276.492.732.756.468.264 1.056.264.876 0 1.332-.456.468-.456.576-1.128l.936.204a3.2 3.2 0 0 1-.48 1.092q-.348.516-.948.828-.588.312-1.428.312m6.272 0q-.612 0-1.116-.216a1.8 1.8 0 0 1-.792-.624q-.288-.408-.288-.996 0-.6.288-.984.288-.396.792-.588a3 3 0 0 1 1.128-.204h1.98v-.432q0-.624-.372-.984-.36-.36-1.08-.36-.708 0-1.104.348-.396.336-.54.912l-.888-.288q.144-.492.456-.888.312-.408.828-.648.528-.252 1.26-.252 1.128 0 1.752.588.624.576.624 1.632v2.652q0 .36.336.36h.54V315h-.828q-.396 0-.636-.216a.8.8 0 0 1-.24-.6v-.06h-.144a3 3 0 0 1-.36.48q-.216.24-.6.396-.384.168-.996.168m.108-.816q.84 0 1.356-.492.528-.504.528-1.404v-.132h-1.944q-.564 0-.936.252-.36.24-.36.732t.372.768q.384.276.984.276m4.995 3.048v-8.268h.924v.972h.168q.228-.444.732-.792.516-.348 1.428-.348.756 0 1.38.372.636.36 1.008 1.032.384.672.384 1.62v.156q0 .936-.372 1.62a2.6 2.6 0 0 1-1.008 1.044q-.624.36-1.392.36-.612 0-1.044-.168a2 2 0 0 1-.684-.408 2.1 2.1 0 0 1-.408-.516h-.168v3.324zm3-3.072q.912 0 1.476-.576.576-.588.576-1.632v-.108q0-1.044-.576-1.62-.564-.588-1.476-.588-.9 0-1.488.588-.576.576-.576 1.62v.108q0 1.044.576 1.632.588.576 1.488.576m6.522.84q-.612 0-1.116-.216a1.8 1.8 0 0 1-.792-.624q-.288-.408-.288-.996 0-.6.288-.984.288-.396.792-.588a3 3 0 0 1 1.128-.204h1.98v-.432q0-.624-.372-.984-.36-.36-1.08-.36-.708 0-1.104.348-.396.336-.54.912l-.888-.288q.144-.492.456-.888.312-.408.828-.648.528-.252 1.26-.252 1.128 0 1.752.588.624.576.624 1.632v2.652q0 .36.336.36h.54V315h-.828q-.396 0-.636-.216a.8.8 0 0 1-.24-.6v-.06h-.144a3 3 0 0 1-.36.48q-.216.24-.6.396-.384.168-.996.168m.108-.816q.84 0 1.356-.492.528-.504.528-1.404v-.132h-1.944q-.564 0-.936.252-.36.24-.36.732t.372.768q.384.276.984.276m7.531.816q-.852 0-1.536-.36a2.76 2.76 0 0 1-1.068-1.056q-.384-.684-.384-1.62V312q0-.948.384-1.62a2.7 2.7 0 0 1 1.068-1.044 3.16 3.16 0 0 1 1.536-.372q.84 0 1.428.312.6.312.935.828.35.516.445 1.104l-.924.192a2 2 0 0 0-.288-.792 1.6 1.6 0 0 0-.612-.576q-.396-.216-.972-.216-.588 0-1.056.264a1.96 1.96 0 0 0-.732.756q-.264.492-.264 1.176v.108q0 .684.264 1.176.276.492.732.756.468.264 1.056.264.876 0 1.332-.456.468-.456.576-1.128l.936.204a3.2 3.2 0 0 1-.48 1.092q-.348.516-.948.828-.588.312-1.428.312m4.471-.168v-5.868h.948V315zm.48-6.78a.74.74 0 0 1-.528-.204.7.7 0 0 1-.204-.516q0-.324.204-.528a.74.74 0 0 1 .528-.204.7.7 0 0 1 .516.204.71.71 0 0 1 .204.528.7.7 0 0 1-.72.72m4.622 6.78q-.504 0-.78-.276-.264-.276-.264-.756v-4.008h-1.764v-.828h1.764v-2.088h.948v2.088h1.92v.828h-1.92v3.864q0 .36.348.36h1.308V315zm4.067 2.4v-.84h3.36q.348 0 .348-.36v-2.136h-.168q-.12.252-.372.504-.24.24-.636.396-.396.144-.996.144-.636 0-1.176-.276a2.06 2.06 0 0 1-.84-.816q-.3-.54-.3-1.32v-3.564h.948v3.492q0 .864.432 1.26.444.396 1.188.396.84 0 1.38-.552t.54-1.644v-2.952h.948v7.236q0 .48-.276.756-.264.276-.78.276zm12.41-2.232q-.888 0-1.56-.372a2.7 2.7 0 0 1-1.044-1.068q-.372-.684-.372-1.584V312q0-.912.372-1.596a2.62 2.62 0 0 1 1.032-1.056q.66-.384 1.512-.384.828 0 1.464.36.636.348.996 1.008t.36 1.548v.432h-4.788q.036.948.612 1.488.576.528 1.44.528.756 0 1.164-.348t.624-.828l.816.396q-.18.372-.504.744a2.5 2.5 0 0 1-.828.624q-.504.252-1.296.252m-2.016-3.636h3.816q-.048-.816-.564-1.272-.504-.456-1.296-.456-.804 0-1.32.456t-.636 1.272m7.671 3.468-2.1-5.868h1.008l1.764 5.16h.168l1.764-5.16h1.008l-2.1 5.868zm4.981 0v-5.868h.948V315zm.48-6.78a.74.74 0 0 1-.528-.204.7.7 0 0 1-.204-.516q0-.324.204-.528a.74.74 0 0 1 .528-.204.7.7 0 0 1 .516.204.71.71 0 0 1 .204.528.7.7 0 0 1-.72.72m5.162 6.948q-.852 0-1.536-.36a2.76 2.76 0 0 1-1.068-1.056q-.384-.684-.384-1.62V312q0-.948.384-1.62a2.7 2.7 0 0 1 1.068-1.044 3.16 3.16 0 0 1 1.536-.372q.84 0 1.428.312.6.312.936.828.348.516.444 1.104l-.924.192a2 2 0 0 0-.288-.792 1.6 1.6 0 0 0-.612-.576q-.396-.216-.972-.216-.588 0-1.056.264a1.96 1.96 0 0 0-.732.756q-.264.492-.264 1.176v.108q0 .684.264 1.176.276.492.732.756.468.264 1.056.264.876 0 1.332-.456.468-.456.576-1.128l.936.204a3.2 3.2 0 0 1-.48 1.092q-.348.516-.948.828-.588.312-1.428.312m6.385-.168q-.504 0-.78-.276-.264-.276-.264-.756v-4.008h-1.764v-.828h1.764v-2.088h.948v2.088h1.92v.828h-1.92v3.864q0 .36.348.36h1.308V315zm3.36 0v-5.868h.948V315zm.48-6.78a.74.74 0 0 1-.528-.204.7.7 0 0 1-.204-.516q0-.324.204-.528a.74.74 0 0 1 .528-.204.7.7 0 0 1 .516.204.71.71 0 0 1 .204.528.7.7 0 0 1-.72.72m5.173 6.948q-.888 0-1.572-.372a2.7 2.7 0 0 1-1.056-1.044q-.372-.684-.372-1.608v-.156q0-.912.372-1.596a2.7 2.7 0 0 1 1.056-1.056q.684-.372 1.572-.372t1.56.372q.684.372 1.056 1.056.384.684.384 1.596v.156q0 .924-.384 1.608-.372.672-1.056 1.044-.672.372-1.56.372m0-.852q.936 0 1.488-.588.564-.6.564-1.608v-.108q0-1.008-.564-1.596-.552-.6-1.488-.6-.924 0-1.488.6-.564.588-.564 1.596v.108q0 1.008.564 1.608.564.588 1.488.588m4.706.684v-5.868h.924v.996h.168q.192-.42.648-.756.468-.348 1.368-.348.66 0 1.176.276.528.276.84.816t.312 1.332V315h-.948v-3.48q0-.876-.444-1.272-.432-.396-1.176-.396-.852 0-1.392.552-.528.552-.528 1.644V315z"/><rect width="339" height="27" x="133.5" y="333.5" fill="#3c3c3c" fill-opacity=".2" rx="3.5"/><rect width="339" height="27" x="133.5" y="333.5" stroke="#3c3c3c" stroke-dasharray="2 2" rx="3.5"/><path fill="#080808" d="M145.996 351v-8.4h.948v3.468h.168q.12-.264.36-.492.252-.24.636-.396.396-.156.996-.156.66 0 1.176.288.528.276.84.816.312.528.312 1.32V351h-.948v-3.48q0-.876-.444-1.272-.432-.396-1.176-.396-.852 0-1.392.552-.528.552-.528 1.644V351zm10.071.168q-.888 0-1.572-.372a2.7 2.7 0 0 1-1.056-1.044q-.372-.684-.372-1.608v-.156q0-.912.372-1.596a2.7 2.7 0 0 1 1.056-1.056q.684-.372 1.572-.372t1.56.372q.684.372 1.056 1.056.384.684.384 1.596v.156q0 .924-.384 1.608-.372.672-1.056 1.044-.672.372-1.56.372m0-.852q.936 0 1.488-.588.564-.6.564-1.608v-.108q0-1.008-.564-1.596-.552-.6-1.488-.6-.924 0-1.488.6-.564.588-.564 1.596v.108q0 1.008.564 1.608.564.588 1.488.588m6.95.792q-.636 0-1.176-.276a2.06 2.06 0 0 1-.84-.816q-.3-.552-.3-1.332v-3.552h.948v3.48q0 .876.432 1.272.444.396 1.188.396.84 0 1.38-.552t.54-1.644v-2.952h.948V351h-.924v-.996h-.168q-.192.42-.66.768-.468.336-1.368.336m5.104-.108v-5.868h.924v.996h.168q.192-.42.648-.756.468-.348 1.368-.348.66 0 1.176.276.528.276.84.816t.312 1.332V351h-.948v-3.48q0-.876-.444-1.272-.432-.396-1.176-.396-.852 0-1.392.552-.528.552-.528 1.644V351zm9.843.168q-.756 0-1.392-.36a2.6 2.6 0 0 1-1.008-1.044q-.372-.684-.372-1.62v-.156q0-.936.372-1.608.372-.684.996-1.044a2.73 2.73 0 0 1 1.404-.372q.612 0 1.032.168.432.156.696.408.264.24.408.516h.168V342.6h.948v8.4h-.924v-.972h-.168q-.24.444-.744.792t-1.416.348m.252-.84q.912 0 1.476-.576.576-.588.576-1.632v-.108q0-1.044-.576-1.62-.564-.588-1.476-.588-.9 0-1.488.588-.576.576-.576 1.62v.108q0 1.044.576 1.632.588.576 1.488.576m4.951.672v-8.4h3.216q.756 0 1.344.3.6.288.948.828t.348 1.308v.156q0 .756-.36 1.308-.348.54-.948.828t-1.332.288h-2.208V351zm1.008-4.296h2.1q.804 0 1.272-.396.468-.408.468-1.14v-.12q0-.732-.468-1.128-.456-.408-1.272-.408h-2.1zm8.76 4.464q-.888 0-1.572-.372a2.7 2.7 0 0 1-1.056-1.044q-.372-.684-.372-1.608v-.156q0-.912.372-1.596a2.7 2.7 0 0 1 1.056-1.056q.684-.372 1.572-.372t1.56.372q.684.372 1.056 1.056.384.684.384 1.596v.156q0 .924-.384 1.608-.372.672-1.056 1.044-.672.372-1.56.372m0-.852q.936 0 1.488-.588.564-.6.564-1.608v-.108q0-1.008-.564-1.596-.552-.6-1.488-.6-.924 0-1.488.6-.564.588-.564 1.596v.108q0 1.008.564 1.608.564.588 1.488.588m7.418.852q-.888 0-1.572-.372a2.7 2.7 0 0 1-1.056-1.044q-.372-.684-.372-1.608v-.156q0-.912.372-1.596a2.7 2.7 0 0 1 1.056-1.056q.684-.372 1.572-.372t1.56.372q.684.372 1.056 1.056.384.684.384 1.596v.156q0 .924-.384 1.608-.372.672-1.056 1.044-.672.372-1.56.372m0-.852q.936 0 1.488-.588.564-.6.564-1.608v-.108q0-1.008-.564-1.596-.552-.6-1.488-.6-.924 0-1.488.6-.564.588-.564 1.596v.108q0 1.008.564 1.608.564.588 1.488.588m4.706.684v-8.4h.948v8.4zm3.457.168a.82.82 0 0 1-.588-.228.8.8 0 0 1-.228-.588q0-.36.228-.588a.82.82 0 0 1 .588-.228q.36 0 .588.228a.8.8 0 0 1 .228.588q0 .36-.228.588a.8.8 0 0 1-.588.228m4.319 0q-.612 0-1.116-.216a1.8 1.8 0 0 1-.792-.624q-.288-.408-.288-.996 0-.6.288-.984.288-.396.792-.588a3 3 0 0 1 1.128-.204h1.98v-.432q0-.624-.372-.984-.36-.36-1.08-.36-.708 0-1.104.348-.396.336-.54.912l-.888-.288q.144-.492.456-.888.312-.408.828-.648.528-.252 1.26-.252 1.128 0 1.752.588.624.576.624 1.632v2.652q0 .36.336.36h.54V351h-.828q-.396 0-.636-.216a.8.8 0 0 1-.24-.6v-.06h-.144a3 3 0 0 1-.36.48q-.216.24-.6.396-.384.168-.996.168m.108-.816q.84 0 1.356-.492.528-.504.528-1.404v-.132h-1.944q-.564 0-.936.252-.36.24-.36.732t.372.768q.384.276.984.276m7.53.816q-.852 0-1.536-.36a2.76 2.76 0 0 1-1.068-1.056q-.384-.684-.384-1.62V348q0-.948.384-1.62a2.7 2.7 0 0 1 1.068-1.044 3.16 3.16 0 0 1 1.536-.372q.84 0 1.428.312.6.312.936.828.348.516.444 1.104l-.924.192a2 2 0 0 0-.288-.792 1.6 1.6 0 0 0-.612-.576q-.396-.216-.972-.216-.588 0-1.056.264a1.96 1.96 0 0 0-.732.756q-.264.492-.264 1.176v.108q0 .684.264 1.176.276.492.732.756.468.264 1.056.264.876 0 1.332-.456.468-.456.576-1.128l.936.204a3.2 3.2 0 0 1-.48 1.092q-.348.516-.948.828-.588.312-1.428.312m6.386-.168q-.504 0-.78-.276-.264-.276-.264-.756v-4.008h-1.764v-.828h1.764v-2.088h.948v2.088h1.92v.828h-1.92v3.864q0 .36.348.36h1.308V351zm3.36 0v-5.868h.948V351zm.48-6.78a.74.74 0 0 1-.528-.204.7.7 0 0 1-.204-.516q0-.324.204-.528a.74.74 0 0 1 .528-.204.7.7 0 0 1 .516.204.71.71 0 0 1 .204.528.7.7 0 0 1-.72.72m3.949 6.78-2.1-5.868h1.008l1.764 5.16h.168l1.764-5.16h1.008l-2.1 5.868zm6.593.168q-.612 0-1.116-.216a1.8 1.8 0 0 1-.792-.624q-.288-.408-.288-.996 0-.6.288-.984.288-.396.792-.588a3 3 0 0 1 1.128-.204h1.98v-.432q0-.624-.372-.984-.36-.36-1.08-.36-.708 0-1.104.348-.396.336-.54.912l-.888-.288q.144-.492.456-.888.312-.408.828-.648.528-.252 1.26-.252 1.128 0 1.752.588.624.576.624 1.632v2.652q0 .36.336.36h.54V351h-.828q-.396 0-.636-.216a.8.8 0 0 1-.24-.6v-.06h-.144a3 3 0 0 1-.36.48q-.216.24-.6.396-.384.168-.996.168m.108-.816q.84 0 1.356-.492.528-.504.528-1.404v-.132h-1.944q-.564 0-.936.252-.36.24-.36.732t.372.768q.384.276.984.276m6.768.648q-.504 0-.78-.276-.264-.276-.264-.756v-4.008h-1.764v-.828h1.764v-2.088h.948v2.088h1.92v.828h-1.92v3.864q0 .36.348.36h1.308V351zm5.837.168q-.888 0-1.56-.372a2.7 2.7 0 0 1-1.044-1.068q-.372-.684-.372-1.584V348q0-.912.372-1.596a2.62 2.62 0 0 1 1.032-1.056q.66-.384 1.512-.384.828 0 1.464.36.636.348.996 1.008t.36 1.548v.432h-4.788q.036.948.612 1.488.576.528 1.44.528.756 0 1.164-.348t.624-.828l.816.396q-.18.372-.504.744a2.5 2.5 0 0 1-.828.624q-.504.252-1.296.252m-2.016-3.636h3.816q-.048-.816-.564-1.272-.504-.456-1.296-.456-.804 0-1.32.456t-.636 1.272m9.861 6.288q-1.152 0-1.992-.408-.828-.408-1.272-1.284-.444-.864-.444-2.244v-3.888q0-1.392.444-2.256t1.272-1.272q.84-.408 1.992-.408v.828q-1.428.012-2.112.792-.684.768-.684 2.376v3.768q0 1.596.684 2.376t2.112.792zm3.639-2.652q-.888 0-1.56-.372a2.7 2.7 0 0 1-1.044-1.068q-.372-.684-.372-1.584V348q0-.912.372-1.596a2.62 2.62 0 0 1 1.032-1.056q.66-.384 1.512-.384.828 0 1.464.36.636.348.996 1.008t.36 1.548v.432h-4.788q.036.948.612 1.488.576.528 1.44.528.756 0 1.164-.348t.624-.828l.816.396q-.18.372-.504.744a2.5 2.5 0 0 1-.828.624q-.504.252-1.296.252m-2.016-3.636h3.816q-.048-.816-.564-1.272-.504-.456-1.296-.456-.804 0-1.32.456t-.636 1.272m7.671 3.468-2.1-5.868h1.008l1.764 5.16h.168l1.764-5.16h1.008l-2.1 5.868zm4.981 0v-5.868h.948V351zm.48-6.78a.74.74 0 0 1-.528-.204.7.7 0 0 1-.204-.516q0-.324.204-.528a.74.74 0 0 1 .528-.204.7.7 0 0 1 .516.204.71.71 0 0 1 .204.528.7.7 0 0 1-.72.72m4.946 6.948q-.756 0-1.392-.36a2.6 2.6 0 0 1-1.008-1.044q-.372-.684-.372-1.62v-.156q0-.936.372-1.608.372-.684.996-1.044a2.73 2.73 0 0 1 1.404-.372q.612 0 1.032.168.432.156.696.408.264.24.408.516h.168V342.6h.948v8.4h-.924v-.972h-.168q-.24.444-.744.792t-1.416.348m.252-.84q.912 0 1.476-.576.576-.588.576-1.632v-.108q0-1.044-.576-1.62-.564-.588-1.476-.588-.9 0-1.488.588-.576.576-.576 1.62v.108q0 1.044.576 1.632.588.576 1.488.576m7.674.84q-.888 0-1.56-.372a2.7 2.7 0 0 1-1.044-1.068q-.372-.684-.372-1.584V348q0-.912.372-1.596a2.62 2.62 0 0 1 1.032-1.056q.66-.384 1.512-.384.828 0 1.464.36.636.348.996 1.008t.36 1.548v.432h-4.788q.036.948.612 1.488.576.528 1.44.528.756 0 1.164-.348t.624-.828l.816.396q-.18.372-.504.744a2.5 2.5 0 0 1-.828.624q-.504.252-1.296.252m-2.016-3.636h3.816q-.048-.816-.564-1.272-.504-.456-1.296-.456-.804 0-1.32.456t-.636 1.272m6.43 3.468v-5.868h.924v.996h.168q.192-.42.648-.756.468-.348 1.368-.348.66 0 1.176.276.528.276.84.816t.312 1.332V351h-.948v-3.48q0-.876-.444-1.272-.432-.396-1.176-.396-.852 0-1.392.552-.528.552-.528 1.644V351zm10.059.168q-.852 0-1.536-.36a2.76 2.76 0 0 1-1.068-1.056q-.384-.684-.384-1.62V348q0-.948.384-1.62a2.7 2.7 0 0 1 1.068-1.044 3.16 3.16 0 0 1 1.536-.372q.84 0 1.428.312.6.312.936.828.348.516.444 1.104l-.924.192a2 2 0 0 0-.288-.792 1.6 1.6 0 0 0-.612-.576q-.396-.216-.972-.216-.588 0-1.056.264a1.96 1.96 0 0 0-.732.756q-.264.492-.264 1.176v.108q0 .684.264 1.176.276.492.732.756.468.264 1.056.264.876 0 1.332-.456.468-.456.576-1.128l.936.204a3.2 3.2 0 0 1-.48 1.092q-.348.516-.948.828-.588.312-1.428.312m7.16 0q-.888 0-1.56-.372a2.7 2.7 0 0 1-1.044-1.068q-.372-.684-.372-1.584V348q0-.912.372-1.596a2.62 2.62 0 0 1 1.032-1.056q.66-.384 1.512-.384.828 0 1.464.36.636.348.996 1.008t.36 1.548v.432h-4.788q.036.948.612 1.488.576.528 1.44.528.756 0 1.164-.348t.624-.828l.816.396q-.18.372-.504.744a2.5 2.5 0 0 1-.828.624q-.504.252-1.296.252m-2.016-3.636h3.816q-.048-.816-.564-1.272-.504-.456-1.296-.456-.804 0-1.32.456t-.636 1.272m5.354 6.288v-.828q1.452-.012 2.124-.792t.672-2.376v-3.768q0-1.608-.672-2.376-.672-.78-2.124-.792v-.828q1.164 0 1.992.408t1.272 1.272q.456.864.456 2.256v3.888q0 1.38-.456 2.244-.444.876-1.272 1.284t-1.992.408m11.949 0q-1.152 0-1.992-.408-.828-.408-1.272-1.284-.444-.864-.444-2.244v-3.888q0-1.392.444-2.256t1.272-1.272q.84-.408 1.992-.408v.828q-1.428.012-2.112.792-.684.768-.684 2.376v3.768q0 1.596.684 2.376t2.112.792zm2.88-2.652q-.612 0-1.116-.216a1.8 1.8 0 0 1-.792-.624q-.288-.408-.288-.996 0-.6.288-.984.288-.396.792-.588a3 3 0 0 1 1.128-.204h1.98v-.432q0-.624-.372-.984-.36-.36-1.08-.36-.708 0-1.104.348-.396.336-.54.912l-.888-.288q.144-.492.456-.888.312-.408.828-.648.528-.252 1.26-.252 1.128 0 1.752.588.624.576.624 1.632v2.652q0 .36.336.36h.54V351h-.828q-.396 0-.636-.216a.8.8 0 0 1-.24-.6v-.06h-.144a3 3 0 0 1-.36.48q-.216.24-.6.396-.384.168-.996.168m.108-.816q.84 0 1.356-.492.528-.504.528-1.404v-.132h-1.944q-.564 0-.936.252-.36.24-.36.732t.372.768q.384.276.984.276m7.311.816q-1.092 0-1.848-.504-.744-.504-.9-1.596l.9-.204q.096.576.36.912.264.324.648.468.396.132.84.132.66 0 1.044-.264a.82.82 0 0 0 .384-.708q0-.456-.372-.636-.36-.192-.996-.312l-.492-.084a4.4 4.4 0 0 1-1.032-.3 1.9 1.9 0 0 1-.744-.552q-.276-.348-.276-.876 0-.792.612-1.236t1.62-.444q.996 0 1.608.456.624.444.804 1.26l-.888.228q-.108-.636-.516-.888-.408-.264-1.008-.264t-.948.228q-.348.216-.348.648 0 .42.324.624.336.192.888.288l.492.084a5.8 5.8 0 0 1 1.116.3q.504.18.792.528.3.348.3.912 0 .864-.648 1.332-.636.468-1.716.468m4.672 2.232v-.84h3.36q.348 0 .348-.36v-2.136h-.168q-.12.252-.372.504-.24.24-.636.396-.396.144-.996.144-.636 0-1.176-.276a2.06 2.06 0 0 1-.84-.816q-.3-.54-.3-1.32v-3.564h.948v3.492q0 .864.432 1.26.444.396 1.188.396.84 0 1.38-.552t.54-1.644v-2.952h.948v7.236q0 .48-.276.756-.264.276-.78.276zm6.64-2.4v-5.868h.924v.996h.168q.192-.42.648-.756.468-.348 1.368-.348.66 0 1.176.276.528.276.84.816t.312 1.332V351h-.948v-3.48q0-.876-.444-1.272-.432-.396-1.176-.396-.852 0-1.392.552-.528.552-.528 1.644V351zm10.059.168q-.852 0-1.536-.36a2.76 2.76 0 0 1-1.068-1.056q-.384-.684-.384-1.62V348q0-.948.384-1.62a2.7 2.7 0 0 1 1.068-1.044 3.16 3.16 0 0 1 1.536-.372q.84 0 1.428.312.6.312.936.828.348.516.444 1.104l-.924.192a2 2 0 0 0-.288-.792 1.6 1.6 0 0 0-.612-.576q-.396-.216-.972-.216-.588 0-1.056.264a1.96 1.96 0 0 0-.732.756q-.264.492-.264 1.176v.108q0 .684.264 1.176.276.492.732.756.468.264 1.056.264.876 0 1.332-.456.468-.456.576-1.128l.936.204a3.2 3.2 0 0 1-.48 1.092q-.348.516-.948.828-.588.312-1.428.312m4.294 1.332v-.6h.348q.432 0 .432-.432v-.384h-.168a.85.85 0 0 1-.588-.216.71.71 0 0 1-.228-.54q0-.348.228-.564a.85.85 0 0 1 .588-.216.78.78 0 0 1 .804.804v1.116q0 1.032-1.032 1.032zm6.943-1.5v-5.04h-1.8v-.828h1.8v-1.5q0-.48.264-.756.276-.276.78-.276h1.44v.816h-1.176q-.36 0-.36.36v1.356h2.916v.828h-2.916V351zm3.864 0v-5.868h.948V351zm.468-6.768a.73.73 0 0 1-.516-.204.7.7 0 0 1-.204-.516q0-.324.204-.516a.73.73 0 0 1 .516-.204q.324 0 .528.204.204.192.204.516a.7.7 0 0 1-.204.516.71.71 0 0 1-.528.204m2.474 6.768v-5.868h.924v.72h.168q.156-.384.48-.564t.852-.18h.696v.864h-.756q-.636 0-1.032.36-.384.348-.384 1.092V351zm7 .168q-.888 0-1.56-.372a2.7 2.7 0 0 1-1.044-1.068q-.372-.684-.372-1.584V348q0-.912.372-1.596a2.62 2.62 0 0 1 1.032-1.056q.66-.384 1.512-.384.828 0 1.464.36.636.348.996 1.008t.36 1.548v.432h-4.788q.036.948.612 1.488.576.528 1.44.528.756 0 1.164-.348t.624-.828l.816.396q-.18.372-.504.744a2.5 2.5 0 0 1-.828.624q-.504.252-1.296.252m-2.016-3.636h3.816q-.048-.816-.564-1.272-.504-.456-1.296-.456-.804 0-1.32.456t-.636 1.272m6.382.816v-.876h3.552v.876zm7.309 2.82q-.612 0-1.116-.216a1.8 1.8 0 0 1-.792-.624q-.288-.408-.288-.996 0-.6.288-.984.288-.396.792-.588a3 3 0 0 1 1.128-.204h1.98v-.432q0-.624-.372-.984-.36-.36-1.08-.36-.708 0-1.104.348-.396.336-.54.912l-.888-.288q.144-.492.456-.888.312-.408.828-.648.528-.252 1.26-.252 1.128 0 1.752.588.624.576.624 1.632v2.652q0 .36.335.36h.541V351h-.828q-.396 0-.636-.216a.8.8 0 0 1-.24-.6v-.06h-.144a3 3 0 0 1-.36.48q-.216.24-.6.396-.384.168-.996.168m.108-.816q.84 0 1.356-.492.528-.504.528-1.404v-.132h-1.944q-.564 0-.936.252-.36.24-.36.732t.372.768q.384.276.984.276m4.994.648v-5.868h.924v.996h.168q.192-.42.648-.756.468-.348 1.368-.348.66 0 1.176.276.528.276.84.816t.312 1.332V351h-.948v-3.48q0-.876-.444-1.272-.432-.396-1.176-.396-.852 0-1.392.552-.528.552-.528 1.644V351zm9.843.168q-.756 0-1.392-.36a2.6 2.6 0 0 1-1.008-1.044q-.372-.684-.372-1.62v-.156q0-.936.372-1.608.372-.684.996-1.044a2.73 2.73 0 0 1 1.404-.372q.612 0 1.032.168.432.156.696.408.264.24.408.516h.168V342.6h.948v8.4h-.924v-.972h-.168q-.24.444-.744.792t-1.416.348m.252-.84q.912 0 1.476-.576.576-.588.576-1.632v-.108q0-1.044-.576-1.62-.564-.588-1.476-.588-.9 0-1.488.588-.576.576-.576 1.62v.108q0 1.044.576 1.632.588.576 1.488.576m4.939-1.98v-.876h3.552v.876zm6.333 2.652v-5.04h-1.8v-.828h1.8v-1.5q0-.48.264-.756.276-.276.78-.276h1.476v.816h-1.212q-.36 0-.36.36v1.356h1.848v.828h-1.848V351zm6.575.168q-.888 0-1.572-.372a2.7 2.7 0 0 1-1.056-1.044q-.372-.684-.372-1.608v-.156q0-.912.372-1.596a2.7 2.7 0 0 1 1.056-1.056q.684-.372 1.572-.372t1.56.372q.684.372 1.056 1.056.384.684.384 1.596v.156q0 .924-.384 1.608-.372.672-1.056 1.044-.672.372-1.56.372m0-.852q.936 0 1.488-.588.564-.6.564-1.608v-.108q0-1.008-.564-1.596-.552-.6-1.488-.6-.924 0-1.488.6-.564.588-.564 1.596v.108q0 1.008.564 1.608.564.588 1.488.588m4.706.684v-5.868h.924v.72h.168q.156-.384.48-.564t.852-.18h.696v.864h-.756q-.636 0-1.032.36-.384.348-.384 1.092V351zm4.025-2.904v-.168q0-.924.372-1.584t1.008-1.02 1.392-.36q.924 0 1.416.36.504.348.744.78h.168v-.972h.9v7.236q0 .48-.264.756t-.768.276h-3.984v-.84h3.732q.36 0 .36-.36v-2.232h-.168a2.1 2.1 0 0 1-.408.516 2.1 2.1 0 0 1-.684.42q-.42.156-1.044.156-.756 0-1.392-.36t-1.008-1.02q-.372-.672-.372-1.584m3.024 2.124q.912 0 1.476-.576.576-.576.576-1.584v-.096q0-1.02-.576-1.584-.564-.576-1.476-.576-.9 0-1.488.576-.576.564-.576 1.584v.096q0 1.008.576 1.584.588.576 1.488.576m7.651.948q-.888 0-1.56-.372a2.7 2.7 0 0 1-1.044-1.068q-.372-.684-.372-1.584V348q0-.912.372-1.596a2.62 2.62 0 0 1 1.032-1.056q.66-.384 1.512-.384.828 0 1.464.36.636.348.996 1.008t.36 1.548v.432h-4.788q.036.948.612 1.488.576.528 1.44.528.756 0 1.164-.348t.624-.828l.816.396q-.18.372-.504.744a2.5 2.5 0 0 1-.828.624q-.504.252-1.296.252m-2.016-3.636h3.816q-.048-.816-.564-1.272-.504-.456-1.296-.456-.804 0-1.32.456t-.636 1.272m8.343 3.468q-.504 0-.78-.276-.264-.276-.264-.756v-4.008h-1.764v-.828h1.764v-2.088h.948v2.088h1.92v.828h-1.92v3.864q0 .36.348.36h1.308V351zm2.448 2.82v-.828q1.452-.012 2.124-.792t.672-2.376v-3.768q0-1.608-.672-2.376-.672-.78-2.124-.792v-.828q1.164 0 1.992.408t1.272 1.272q.456.864.456 2.256v3.888q0 1.38-.456 2.244-.444.876-1.272 1.284t-1.992.408"/><rect width="210" height="27" x="133.5" y="369.5" fill="#3c3c3c" fill-opacity=".2" rx="3.5"/><rect width="210" height="27" x="133.5" y="369.5" stroke="#3c3c3c" stroke-dasharray="2 2" rx="3.5"/><path fill="#080808" d="m146.812 387-1.176-5.868h.96l.972 5.232h.168l1.284-5.232h1.572l1.284 5.232h.168l.972-5.232h.96L152.8 387h-1.62l-1.296-5.232h-.156L148.432 387zm10.5.168q-.612 0-1.116-.216a1.8 1.8 0 0 1-.792-.624q-.288-.408-.288-.996 0-.6.288-.984.288-.396.792-.588a3 3 0 0 1 1.128-.204h1.98v-.432q0-.624-.372-.984-.36-.36-1.08-.36-.708 0-1.104.348-.396.336-.54.912l-.888-.288q.144-.492.456-.888.312-.408.828-.648.528-.252 1.26-.252 1.128 0 1.752.588.624.576.624 1.632v2.652q0 .36.336.36h.54V387h-.828q-.396 0-.636-.216a.8.8 0 0 1-.24-.6v-.06h-.144a3 3 0 0 1-.36.48q-.216.24-.6.396-.384.168-.996.168m.108-.816q.84 0 1.356-.492.528-.504.528-1.404v-.132h-1.944q-.564 0-.936.252-.36.24-.36.732t.372.768q.384.276.984.276m6.767.648q-.504 0-.78-.276-.264-.276-.264-.756v-4.008h-1.764v-.828h1.764v-2.088h.948v2.088h1.92v.828h-1.92v3.864q0 .36.348.36h1.308V387zm5.849.168q-.852 0-1.536-.36a2.76 2.76 0 0 1-1.068-1.056q-.384-.684-.384-1.62V384q0-.948.384-1.62a2.7 2.7 0 0 1 1.068-1.044 3.16 3.16 0 0 1 1.536-.372q.84 0 1.428.312.6.312.936.828.348.516.444 1.104l-.924.192a2 2 0 0 0-.288-.792 1.6 1.6 0 0 0-.612-.576q-.396-.216-.972-.216-.588 0-1.056.264a1.96 1.96 0 0 0-.732.756q-.264.492-.264 1.176v.108q0 .684.264 1.176.276.492.732.756.468.264 1.056.264.876 0 1.332-.456.468-.456.576-1.128l.936.204a3.2 3.2 0 0 1-.48 1.092q-.348.516-.948.828-.588.312-1.428.312m4.472-.168v-8.4h.948v3.468h.168q.12-.264.36-.492.252-.24.636-.396.396-.156.996-.156.66 0 1.176.288.528.276.84.816.312.528.312 1.32V387h-.948v-3.48q0-.876-.444-1.272-.432-.396-1.176-.396-.852 0-1.392.552-.528.552-.528 1.644V387zm10.047.168q-.888 0-1.56-.372a2.7 2.7 0 0 1-1.044-1.068q-.372-.684-.372-1.584V384q0-.912.372-1.596a2.62 2.62 0 0 1 1.032-1.056q.66-.384 1.512-.384.828 0 1.464.36.636.348.996 1.008t.36 1.548v.432h-4.788q.036.948.612 1.488.576.528 1.44.528.756 0 1.164-.348t.624-.828l.816.396q-.18.372-.504.744a2.5 2.5 0 0 1-.828.624q-.504.252-1.296.252m-2.016-3.636h3.816q-.048-.816-.564-1.272-.504-.456-1.296-.456-.804 0-1.32.456t-.636 1.272m6.43 3.468v-5.868h.924v.72h.168q.156-.384.48-.564t.852-.18h.696v.864h-.756q-.636 0-1.032.36-.384.348-.384 1.092V387zm9.873-1.68v-2.088h-2.064v-.864h2.064v-2.088h.912v2.088h2.064v.864h-2.064v2.088zm8.256 1.68v-5.868h.924v.996h.168q.192-.42.648-.756.468-.348 1.368-.348.66 0 1.176.276.528.276.84.816t.312 1.332V387h-.948v-3.48q0-.876-.444-1.272-.432-.396-1.176-.396-.852 0-1.392.552-.528.552-.528 1.644V387zm10.071.168q-.888 0-1.572-.372a2.7 2.7 0 0 1-1.056-1.044q-.372-.684-.372-1.608v-.156q0-.912.372-1.596a2.7 2.7 0 0 1 1.056-1.056q.684-.372 1.572-.372t1.56.372q.684.372 1.056 1.056.384.684.384 1.596v.156q0 .924-.384 1.608-.372.672-1.056 1.044-.672.372-1.56.372m0-.852q.936 0 1.488-.588.564-.6.564-1.608v-.108q0-1.008-.564-1.596-.552-.6-1.488-.6-.924 0-1.488.6-.564.588-.564 1.596v.108q0 1.008.564 1.608.564.588 1.488.588m6.62.684q-.504 0-.78-.276-.264-.276-.264-.756v-4.008h-1.764v-.828h1.764v-2.088h.948v2.088h1.92v.828h-1.92v3.864q0 .36.348.36h1.308V387zm3.359 0v-5.868h.948V387zm.48-6.78a.74.74 0 0 1-.528-.204.7.7 0 0 1-.204-.516q0-.324.204-.528a.74.74 0 0 1 .528-.204.7.7 0 0 1 .516.204.71.71 0 0 1 .204.528.7.7 0 0 1-.72.72m3.614 6.78v-5.04h-1.8v-.828h1.8v-1.5q0-.48.264-.756.276-.276.78-.276h1.44v.816h-1.176q-.36 0-.36.36v1.356h2.916v.828h-2.916V387zm3.864 0v-5.868h.948V387zm.468-6.768a.73.73 0 0 1-.516-.204.7.7 0 0 1-.204-.516q0-.324.204-.516a.73.73 0 0 1 .516-.204q.324 0 .528.204.204.192.204.516a.7.7 0 0 1-.204.516.71.71 0 0 1-.528.204m5.173 6.936q-.852 0-1.536-.36a2.76 2.76 0 0 1-1.068-1.056q-.384-.684-.384-1.62V384q0-.948.384-1.62a2.7 2.7 0 0 1 1.068-1.044 3.16 3.16 0 0 1 1.536-.372q.84 0 1.428.312.6.312.936.828.348.516.444 1.104l-.924.192a2 2 0 0 0-.288-.792 1.6 1.6 0 0 0-.612-.576q-.396-.216-.972-.216-.588 0-1.056.264a1.96 1.96 0 0 0-.732.756q-.264.492-.264 1.176v.108q0 .684.264 1.176.276.492.732.756.468.264 1.056.264.876 0 1.332-.456.468-.456.576-1.128l.936.204a3.2 3.2 0 0 1-.48 1.092q-.348.516-.948.828-.588.312-1.428.312m6.272 0q-.612 0-1.116-.216a1.8 1.8 0 0 1-.792-.624q-.288-.408-.288-.996 0-.6.288-.984.288-.396.792-.588a3 3 0 0 1 1.128-.204h1.98v-.432q0-.624-.372-.984-.36-.36-1.08-.36-.708 0-1.104.348-.396.336-.54.912l-.888-.288q.144-.492.456-.888.312-.408.828-.648.528-.252 1.26-.252 1.128 0 1.752.588.624.576.624 1.632v2.652q0 .36.336.36h.54V387h-.828q-.396 0-.636-.216a.8.8 0 0 1-.24-.6v-.06h-.144a3 3 0 0 1-.36.48q-.216.24-.6.396-.384.168-.996.168m.108-.816q.84 0 1.356-.492.528-.504.528-1.404v-.132h-1.944q-.564 0-.936.252-.36.24-.36.732t.372.768q.384.276.984.276m6.767.648q-.504 0-.78-.276-.264-.276-.264-.756v-4.008h-1.764v-.828h1.764v-2.088h.948v2.088h1.92v.828h-1.92v3.864q0 .36.348.36h1.308V387zm3.36 0v-5.868h.948V387zm.48-6.78a.74.74 0 0 1-.528-.204.7.7 0 0 1-.204-.516q0-.324.204-.528a.74.74 0 0 1 .528-.204.7.7 0 0 1 .516.204.71.71 0 0 1 .204.528.7.7 0 0 1-.72.72m5.173 6.948q-.888 0-1.572-.372a2.7 2.7 0 0 1-1.056-1.044q-.372-.684-.372-1.608v-.156q0-.912.372-1.596a2.7 2.7 0 0 1 1.056-1.056q.684-.372 1.572-.372t1.56.372q.684.372 1.056 1.056.384.684.384 1.596v.156q0 .924-.384 1.608-.372.672-1.056 1.044-.672.372-1.56.372m0-.852q.936 0 1.488-.588.564-.6.564-1.608v-.108q0-1.008-.564-1.596-.552-.6-1.488-.6-.924 0-1.488.6-.564.588-.564 1.596v.108q0 1.008.564 1.608.564.588 1.488.588m4.706.684v-5.868h.924v.996h.168q.192-.42.648-.756.468-.348 1.368-.348.66 0 1.176.276.528.276.84.816t.312 1.332V387h-.948v-3.48q0-.876-.444-1.272-.432-.396-1.176-.396-.852 0-1.392.552-.528.552-.528 1.644V387zm9.724.168q-1.092 0-1.848-.504-.744-.504-.9-1.596l.9-.204q.096.576.36.912.264.324.648.468.396.132.84.132.66 0 1.044-.264a.82.82 0 0 0 .384-.708q0-.456-.372-.636-.36-.192-.996-.312l-.492-.084a4.4 4.4 0 0 1-1.032-.3 1.9 1.9 0 0 1-.744-.552q-.276-.348-.276-.876 0-.792.612-1.236t1.62-.444q.996 0 1.608.456.624.444.804 1.26l-.888.228q-.108-.636-.516-.888-.408-.264-1.008-.264t-.948.228q-.348.216-.348.648 0 .42.324.624.336.192.888.288l.492.084a5.8 5.8 0 0 1 1.116.3q.504.18.792.528.3.348.3.912 0 .864-.648 1.332-.636.468-1.716.468m9.29-.06q-.636 0-1.176-.276a2.06 2.06 0 0 1-.84-.816q-.3-.552-.3-1.332v-3.552h.948v3.48q0 .876.432 1.272.444.396 1.188.396.84 0 1.38-.552t.54-1.644v-2.952h.948V387h-.924v-.996h-.168q-.192.42-.66.768-.468.336-1.368.336m5.103 2.292v-8.268h.924v.972h.168q.228-.444.732-.792.516-.348 1.428-.348.756 0 1.38.372.636.36 1.008 1.032.384.672.384 1.62v.156q0 .936-.372 1.62a2.6 2.6 0 0 1-1.008 1.044q-.624.36-1.392.36-.612 0-1.044-.168a2 2 0 0 1-.684-.408 2.1 2.1 0 0 1-.408-.516h-.168v3.324zm3-3.072q.912 0 1.476-.576.576-.588.576-1.632v-.108q0-1.044-.576-1.62-.564-.588-1.476-.588-.9 0-1.488.588-.576.576-.576 1.62v.108q0 1.044.576 1.632.588.576 1.488.576m7.207.84q-.756 0-1.392-.36a2.6 2.6 0 0 1-1.008-1.044q-.372-.684-.372-1.62v-.156q0-.936.372-1.608.372-.684.996-1.044a2.73 2.73 0 0 1 1.404-.372q.612 0 1.032.168.432.156.696.408.264.24.408.516h.168V378.6h.948v8.4h-.924v-.972h-.168q-.24.444-.744.792t-1.416.348m.252-.84q.912 0 1.476-.576.576-.588.576-1.632v-.108q0-1.044-.576-1.62-.564-.588-1.476-.588-.9 0-1.488.588-.576.576-.576 1.62v.108q0 1.044.576 1.632.588.576 1.488.576m6.787.84q-.612 0-1.116-.216a1.8 1.8 0 0 1-.792-.624q-.288-.408-.288-.996 0-.6.288-.984.288-.396.792-.588a3 3 0 0 1 1.128-.204h1.98v-.432q0-.624-.372-.984-.36-.36-1.08-.36-.708 0-1.104.348-.396.336-.54.912l-.888-.288q.144-.492.456-.888.312-.408.828-.648.528-.252 1.26-.252 1.128 0 1.752.588.624.576.624 1.632v2.652q0 .36.336.36h.54V387h-.828q-.396 0-.636-.216a.8.8 0 0 1-.24-.6v-.06h-.144a3 3 0 0 1-.36.48q-.216.24-.6.396-.384.168-.996.168m.108-.816q.84 0 1.356-.492.528-.504.528-1.404v-.132h-1.944q-.564 0-.936.252-.36.24-.36.732t.372.768q.384.276.984.276m6.767.648q-.504 0-.78-.276-.264-.276-.264-.756v-4.008h-1.764v-.828h1.764v-2.088h.948v2.088h1.92v.828h-1.92v3.864q0 .36.348.36h1.308V387zm5.837.168q-.888 0-1.56-.372a2.7 2.7 0 0 1-1.044-1.068q-.372-.684-.372-1.584V384q0-.912.372-1.596a2.62 2.62 0 0 1 1.032-1.056q.66-.384 1.512-.384.828 0 1.464.36.636.348.996 1.008t.36 1.548v.432h-4.788q.036.948.612 1.488.576.528 1.44.528.756 0 1.164-.348t.624-.828l.816.396q-.18.372-.504.744a2.5 2.5 0 0 1-.828.624q-.504.252-1.296.252m-2.016-3.636h3.816q-.048-.816-.564-1.272-.504-.456-1.296-.456-.804 0-1.32.456t-.636 1.272m8.793 3.636q-1.092 0-1.848-.504-.744-.504-.9-1.596l.9-.204q.096.576.36.912.264.324.648.468.396.132.84.132.66 0 1.044-.264a.82.82 0 0 0 .384-.708q0-.456-.372-.636-.36-.192-.996-.312l-.492-.084a4.4 4.4 0 0 1-1.032-.3 1.9 1.9 0 0 1-.744-.552q-.276-.348-.276-.876 0-.792.612-1.236t1.62-.444q.996 0 1.608.456.624.444.804 1.26l-.888.228q-.108-.636-.516-.888-.408-.264-1.008-.264t-.948.228q-.348.216-.348.648 0 .42.324.624.336.192.888.288l.492.084a5.8 5.8 0 0 1 1.116.3q.504.18.792.528.3.348.3.912 0 .864-.648 1.332-.636.468-1.716.468"/><path stroke="#d3d5cf" stroke-linecap="round" stroke-linejoin="round" stroke-width="1.5" d="m79.5 422 3 3-3 3"/><path stroke="#d3d5cf" stroke-linecap="round" stroke-linejoin="round" stroke-width="1.5" d="M73.5 203v222h9"/><rect width="138" height="37" x="101.5" y="405.5" fill="#080808" fill-opacity=".2" rx="3.5"/><rect width="138" height="37" x="101.5" y="405.5" stroke="#080808" rx="3.5"/><path fill="#080808" d="M118.12 429v-9.8h1.176v9.8zm3.46 0v-6.846h1.078v1.162h.196q.224-.49.756-.882.546-.406 1.596-.406.77 0 1.372.322.616.322.98.952t.364 1.554V429h-1.106v-4.06q0-1.022-.518-1.484-.504-.462-1.372-.462-.994 0-1.624.644-.616.644-.616 1.918V429zm10.915 0q-.589 0-.91-.322-.309-.322-.308-.882v-4.676h-2.058v-.966h2.058v-2.436h1.106v2.436h2.24v.966h-2.24v4.508q0 .42.406.42h1.526V429zm6.809.196q-1.036 0-1.82-.434a3.13 3.13 0 0 1-1.218-1.246q-.434-.798-.434-1.848v-.168q0-1.064.434-1.862a3.06 3.06 0 0 1 1.204-1.232q.77-.448 1.764-.448.966 0 1.708.42a2.9 2.9 0 0 1 1.162 1.176q.42.77.42 1.806v.504h-5.586q.042 1.106.714 1.736.672.616 1.68.616.882 0 1.358-.406t.728-.966l.952.462a4 4 0 0 1-.588.868 2.9 2.9 0 0 1-.966.728q-.588.294-1.512.294m-2.352-4.242h4.452q-.056-.952-.658-1.484-.588-.532-1.512-.532-.938 0-1.54.532t-.742 1.484m7.501 4.046v-6.846h1.078v.84h.196q.182-.448.56-.658t.994-.21h.812v1.008h-.882q-.742 0-1.204.42-.448.406-.448 1.274V429zm8.181.196a3.8 3.8 0 0 1-1.792-.42 3.23 3.23 0 0 1-1.246-1.232q-.448-.798-.448-1.89v-.154q0-1.106.448-1.89a3.13 3.13 0 0 1 1.246-1.218 3.7 3.7 0 0 1 1.792-.434q.98 0 1.666.364.7.365 1.092.966.407.602.518 1.288l-1.078.224a2.3 2.3 0 0 0-.336-.924 1.84 1.84 0 0 0-.714-.672q-.462-.252-1.134-.252-.686 0-1.232.308a2.3 2.3 0 0 0-.854.882q-.308.574-.308 1.372v.126q0 .798.308 1.372.323.575.854.882.546.308 1.232.308 1.023 0 1.554-.532.546-.532.672-1.316l1.092.238a3.8 3.8 0 0 1-.56 1.274q-.405.601-1.106.966-.685.364-1.666.364m8.353 0q-1.035 0-1.82-.434a3.14 3.14 0 0 1-1.218-1.246q-.434-.798-.434-1.848v-.168q0-1.064.434-1.862.435-.798 1.204-1.232.771-.448 1.764-.448.966 0 1.708.42a2.9 2.9 0 0 1 1.162 1.176q.42.77.42 1.806v.504h-5.586q.042 1.106.714 1.736.672.616 1.68.616.882 0 1.358-.406t.728-.966l.952.462a4 4 0 0 1-.588.868 2.9 2.9 0 0 1-.966.728q-.588.294-1.512.294m-2.352-4.242h4.452q-.055-.952-.658-1.484-.588-.532-1.512-.532-.937 0-1.54.532-.601.532-.742 1.484m7.502 6.846v-9.646h1.078v1.134h.196q.266-.518.854-.924.601-.406 1.666-.406a3.1 3.1 0 0 1 1.61.434q.741.42 1.176 1.204.448.784.448 1.89v.182q0 1.092-.434 1.89-.435.798-1.176 1.218-.729.42-1.624.42-.714 0-1.218-.196a2.3 2.3 0 0 1-.798-.476 2.5 2.5 0 0 1-.476-.602h-.196v3.878zm3.5-3.584q1.063 0 1.722-.672.672-.686.672-1.904v-.126q0-1.218-.672-1.89-.659-.686-1.722-.686-1.05 0-1.736.686-.672.672-.672 1.89v.126q0 1.218.672 1.904.686.672 1.736.672m7.742.784q-.588 0-.91-.322-.308-.322-.308-.882v-4.676h-2.058v-.966h2.058v-2.436h1.106v2.436h2.24v.966h-2.24v4.508q0 .42.406.42h1.526V429zm3.878 0v-9.8h3.962q.909 0 1.596.322.699.308 1.092.896.392.575.392 1.386v.154q0 .966-.462 1.526a2.3 2.3 0 0 1-1.092.756v.196q.504.014.826.336.336.308.336.938V429h-1.162v-3.15q0-.42-.238-.644-.224-.224-.686-.224h-3.388V429zm1.176-5.082h2.674q.966 0 1.484-.462.531-.476.532-1.316v-.098q0-.84-.518-1.302-.519-.476-1.498-.476h-2.674zm10.834 5.278q-1.037 0-1.82-.434a3.13 3.13 0 0 1-1.218-1.246q-.435-.798-.434-1.848v-.168q0-1.064.434-1.862.433-.798 1.204-1.232.77-.448 1.764-.448.966 0 1.708.42.742.407 1.162 1.176.42.77.42 1.806v.504h-5.586q.042 1.106.714 1.736.672.616 1.68.616.881 0 1.358-.406.476-.407.728-.966l.952.462a4 4 0 0 1-.588.868 2.9 2.9 0 0 1-.966.728q-.588.294-1.512.294m-2.352-4.242h4.452q-.057-.952-.658-1.484-.588-.532-1.512-.532-.939 0-1.54.532-.603.532-.742 1.484m10.259 4.242q-1.274 0-2.156-.588-.868-.588-1.05-1.862l1.05-.238q.113.672.42 1.064.308.378.756.546.462.154.98.154.77 0 1.218-.308t.448-.826q0-.532-.434-.742-.42-.224-1.162-.364l-.574-.098a5.2 5.2 0 0 1-1.204-.35 2.2 2.2 0 0 1-.868-.644q-.322-.406-.322-1.022 0-.924.714-1.442t1.89-.518q1.162 0 1.876.532.728.517.938 1.47l-1.036.266q-.126-.742-.602-1.036-.476-.308-1.176-.308t-1.106.266q-.406.252-.406.756 0 .49.378.728.392.224 1.036.336l.574.098q.728.126 1.302.35.588.21.924.616.35.406.35 1.064 0 1.008-.756 1.554-.742.546-2.002.546m7.243-.07q-.742 0-1.372-.322a2.4 2.4 0 0 1-.98-.952q-.35-.644-.35-1.554v-4.144h1.106v4.06q0 1.022.504 1.484.517.462 1.386.462.98 0 1.61-.644t.63-1.918v-3.444h1.106V429h-1.078v-1.162h-.196q-.225.49-.77.896-.546.392-1.596.392m5.954-.126v-9.8h1.106v9.8zm5.952 0q-.588 0-.91-.322-.308-.322-.308-.882v-4.676h-2.058v-.966h2.058v-2.436h1.106v2.436h2.24v.966h-2.24v4.508q0 .42.406.42h1.526V429z"/><defs><clipPath id="a"><path fill="#fff" d="M5 62h16v16H5z"/></clipPath><clipPath id="b"><path fill="#fff" d="M37 108h16v16H37z"/></clipPath><clipPath id="c"><path fill="#fff" d="M69 154h16v16H69z"/></clipPath><clipPath id="d"><path fill="#fff" d="M101 195h17v17h-17z"/></clipPath><clipPath id="e"><path fill="#fff" d="M101 231h17v17h-17z"/></clipPath><clipPath id="f"><path fill="#fff" d="M101 267h17v17h-17z"/></clipPath><clipPath id="g"><path fill="#fff" d="M101 303h17v17h-17z"/></clipPath><clipPath id="h"><path fill="#fff" d="M101 339h17v17h-17z"/></clipPath><clipPath id="i"><path fill="#fff" d="M101 375h17v17h-17z"/></clipPath></defs></svg>
