<svg xmlns="http://www.w3.org/2000/svg" width="989" height="120" fill="none"><path fill="#ef422c" d="M6.078 29V18.78H9.48q1.022 0 1.778.392.77.392 1.19 1.106.42.7.42 1.652 0 .938-.434 1.652-.42.714-1.176 1.106t-1.778.392H7.828V29zm1.75-5.502H9.48q.728 0 1.162-.42.448-.435.448-1.148 0-.728-.448-1.148-.435-.42-1.162-.42H7.828zM14.458 29V18.78h3.234q1.023 0 1.764.378.756.378 1.177 1.064.42.672.42 1.596 0 1.008-.518 1.778a2.74 2.74 0 0 1-1.372 1.092L21.193 29h-1.96l-1.779-4.06H16.21V29zm1.75-5.6h1.485q.74 0 1.162-.406.42-.405.42-1.12 0-.727-.42-1.134-.42-.42-1.163-.42H16.21zm9.781 5.74q-.98 0-1.708-.364a2.73 2.73 0 0 1-1.106-1.05q-.378-.686-.378-1.61v-4.452q0-.924.378-1.596.392-.686 1.106-1.05.728-.378 1.708-.378.994 0 1.708.378.714.364 1.092 1.05.392.672.392 1.582v4.466q0 .924-.392 1.61a2.64 2.64 0 0 1-1.092 1.05q-.714.364-1.708.364m0-1.54q.714 0 1.078-.378.364-.392.364-1.106v-4.452q0-.728-.364-1.106t-1.078-.378-1.078.378q-.364.377-.364 1.106v4.452q0 .714.364 1.106.378.378 1.078.378m5.273 1.4V18.78h3.136q1.484 0 2.352.714.867.7.868 1.918 0 .686-.308 1.19a2.1 2.1 0 0 1-.84.784q-.519.28-1.204.28v-.056q.741-.015 1.316.28.588.28.924.84.35.56.35 1.358 0 .882-.406 1.54a2.7 2.7 0 0 1-1.148 1.022q-.73.35-1.75.35zm1.708-1.456h1.47q.77 0 1.204-.406.448-.42.448-1.134t-.448-1.148q-.435-.448-1.204-.448h-1.47zm0-4.55h1.4q.699 0 1.092-.364.406-.378.406-1.022t-.406-1.008q-.393-.364-1.092-.364h-1.4zM40.02 29V18.78h1.75v8.596h4.34V29zm8.185 0V18.78h6.132v1.526h-4.41v2.66h3.92v1.512h-3.92v2.996h4.41V29zm7.946 0V18.78h2.072l.994 3.248q.154.49.252.896.099.406.126.588.028-.181.126-.588.099-.406.238-.896l.952-3.248h2.072V29h-1.638v-3.178q0-.7.042-1.526.041-.825.098-1.652.057-.825.126-1.568.084-.742.14-1.302l-1.372 4.83h-1.596l-1.414-4.83q.07.532.14 1.26.07.715.126 1.54.07.812.112 1.652t.042 1.596V29z"/><rect width="183" height="37" x="101.5" y="5.5" fill="#ef422c" fill-opacity=".1" rx="3.5"/><rect width="183" height="37" x="101.5" y="5.5" stroke="#ef422c" rx="3.5"/><path fill="#080808" d="m118.526 29-1.176-10.22h1.204l.77 7.56q.028.308.056.644.029.322.042.616.028.294.028.49.029-.195.042-.49.028-.294.056-.616.042-.336.084-.644l.952-7.56h1.302l.868 7.56q.042.308.07.644.042.322.07.616.042.294.056.49.014-.195.028-.49.028-.294.056-.616.042-.336.07-.644l.798-7.56h1.148L123.846 29h-1.582l-.868-7.7a13 13 0 0 0-.07-.63 41 41 0 0 0-.056-.574 17 17 0 0 1-.042-.434 6 6 0 0 1-.056.434q-.028.266-.056.574t-.07.63l-.938 7.7zm7.569 0 2.66-10.22h1.694L133.095 29h-1.274l-.672-2.716h-3.094L127.383 29zm2.212-3.78h2.576l-.784-3.15a40 40 0 0 1-.35-1.498 18 18 0 0 1-.154-.784q-.028.182-.154.784t-.35 1.484zm6.812 3.78V18.766h6.02v1.148h-4.788v3.402h4.424v1.148h-4.396V29zm19.211.14q-1.148 0-1.862-.77-.7-.77-.7-2.086V24.03q0-1.33.7-2.1t1.862-.77q.952 0 1.526.518t.574 1.386l-.252-.294h.28l-.028-1.75v-2.24h1.26V29h-1.26v-1.47h-.252l.252-.294q0 .882-.574 1.4-.574.504-1.526.504m.42-1.092q.784 0 1.232-.49t.448-1.358v-2.1q0-.868-.448-1.358t-1.232-.49q-.798 0-1.26.476t-.462 1.372v2.1q0 .896.462 1.372t1.26.476m8.423 1.092q-.91 0-1.596-.364a2.63 2.63 0 0 1-1.05-1.022q-.364-.672-.364-1.554v-2.1q0-.895.364-1.554.378-.659 1.05-1.022.685-.364 1.596-.364.91 0 1.582.364.685.364 1.05 1.022.378.659.378 1.554v1.358h-4.788v.742q0 .91.462 1.4.462.476 1.316.476.728 0 1.176-.252.447-.266.546-.784h1.26q-.126.966-.952 1.54-.812.56-2.03.56m1.778-4.522V24.1q0-.91-.462-1.4-.449-.49-1.316-.49-.854 0-1.316.49t-.462 1.4v.406h3.654zM172.407 29q-.993 0-1.554-.532-.546-.532-.546-1.498v-4.522h-2.17V21.3h2.17v-2.17h1.26v2.17h3.08v1.148h-3.08v4.522q0 .882.84.882h2.1V29zm7.555.14q-.91 0-1.596-.364a2.63 2.63 0 0 1-1.05-1.022q-.364-.672-.364-1.554v-2.1q0-.895.364-1.554.378-.659 1.05-1.022.686-.364 1.596-.364t1.582.364q.685.364 1.05 1.022.378.659.378 1.554v1.358h-4.788v.742q0 .91.462 1.4.462.476 1.316.476.728 0 1.176-.252.447-.266.546-.784h1.26q-.126.966-.952 1.54-.812.56-2.03.56m1.778-4.522V24.1q0-.91-.462-1.4-.449-.49-1.316-.49-.855 0-1.316.49t-.462 1.4v.406h3.654zm6.672 4.522q-.924 0-1.624-.35a2.52 2.52 0 0 1-1.064-1.008q-.378-.672-.378-1.582v-2.1q0-.924.378-1.582a2.52 2.52 0 0 1 1.064-1.008q.7-.35 1.624-.35 1.33 0 2.142.714.813.714.854 1.946h-1.26q-.042-.743-.504-1.134-.447-.405-1.232-.406-.825 0-1.316.476-.49.462-.49 1.33V26.2q0 .869.49 1.344t1.316.476q.785 0 1.232-.406.462-.406.504-1.134h1.26q-.042 1.232-.854 1.946t-2.142.714m9.179-.14q-.995 0-1.554-.532-.546-.532-.546-1.498v-4.522h-2.17V21.3h2.17v-2.17h1.26v2.17h3.08v1.148h-3.08v4.522q0 .882.84.882h2.1V29zm7.316.112q-.783 0-1.372-.238a2.35 2.35 0 0 1-.924-.7 2.14 2.14 0 0 1-.406-1.064h1.26q.084.405.448.644.379.238.994.238h.588q.743 0 1.106-.294a1.01 1.01 0 0 0 .364-.812q0-.49-.336-.77-.321-.294-.966-.392l-1.036-.168q-1.133-.195-1.694-.7-.546-.518-.546-1.498 0-1.036.658-1.596.659-.574 1.974-.574h.532q1.107 0 1.778.518.672.518.812 1.4h-1.26a.9.9 0 0 0-.42-.574q-.336-.224-.91-.224h-.532q-.714 0-1.05.266-.321.266-.322.798 0 .475.28.7t.882.322l1.036.168q1.246.195 1.806.728.574.532.574 1.54 0 1.065-.686 1.68-.672.602-2.044.602zM222.774 29q-.993 0-1.554-.532-.546-.532-.546-1.498v-4.522h-2.17V21.3h2.17v-2.17h1.26v2.17h3.08v1.148h-3.08v4.522q0 .882.84.882h2.1V29zm4.643 0V18.78h1.26v3.99h.266l-.266.294q0-.91.546-1.4.546-.504 1.512-.504 1.163 0 1.848.714.686.714.686 1.946V29h-1.26v-5.04q0-.825-.448-1.274-.434-.462-1.19-.462-.784 0-1.246.49-.448.49-.448 1.386V29zm8.66 0v-7.7h1.232v1.47h.294l-.406.91q0-1.245.532-1.876.546-.644 1.61-.644 1.218 0 1.932.77.728.756.728 2.058v.462h-1.26v-.35q0-.91-.448-1.386-.433-.49-1.246-.49-.798 0-1.26.49-.447.49-.448 1.386V29zm11.041.14q-.91 0-1.596-.364a2.63 2.63 0 0 1-1.05-1.022q-.364-.672-.364-1.554v-2.1q0-.895.364-1.554.378-.659 1.05-1.022.685-.364 1.596-.364.91 0 1.582.364.685.364 1.05 1.022.378.659.378 1.554v1.358h-4.788v.742q0 .91.462 1.4.462.476 1.316.476.728 0 1.176-.252a1.11 1.11 0 0 0 .546-.784h1.26q-.126.966-.952 1.54-.812.56-2.03.56m1.778-4.522V24.1q0-.91-.462-1.4-.448-.49-1.316-.49-.854 0-1.316.49t-.462 1.4v.406h3.654zm5.945 4.522q-1.219 0-1.918-.616-.7-.63-.7-1.694 0-1.078.7-1.694t1.889-.616h2.381v-.77q0-.714-.434-1.092-.42-.392-1.204-.392-.687 0-1.148.294-.463.28-.532.77h-1.26a2.22 2.22 0 0 1 .938-1.582q.812-.588 2.03-.588 1.329 0 2.1.686.77.686.77 1.862V29h-1.232v-1.47h-.21l.21-.21q0 .84-.658 1.33-.645.49-1.722.49m.308-.994q.895 0 1.47-.448.574-.448.574-1.148v-1.092h-2.352q-.63 0-.994.35t-.364.952q0 .645.434 1.022.447.364 1.232.364m9.598.854q-.995 0-1.554-.532-.546-.532-.546-1.498v-4.522h-2.17V21.3h2.17v-2.17h1.26v2.17h3.08v1.148h-3.08v4.522q0 .882.84.882h2.1V29z"/><g stroke="#d3d5cf" stroke-linecap="round" stroke-linejoin="round" stroke-width="1.5" clip-path="url(#a)"><path d="M303.5 24h11M310 19.5l4.5 4.5-4.5 4.5"/></g><rect width="75" height="37" x="333.5" y="5.5" fill="#ef422c" fill-opacity=".1" rx="3.5"/><rect width="75" height="37" x="333.5" y="5.5" stroke="#ef422c" stroke-dasharray="2 2" rx="3.5"/><path fill="#080808" d="M360.954 26.13v-2.52h.7q.896 0 1.414-.49.532-.505.532-1.33t-.532-1.316q-.518-.504-1.428-.504h-1.75v-1.19h1.75q.98 0 1.694.378.728.364 1.12 1.036.406.672.406 1.596a3.1 3.1 0 0 1-.336 1.442q-.336.63-.938 1.008a2.76 2.76 0 0 1-1.372.42v1.47zm.406 2.94a.816.816 0 0 1-.84-.84.815.815 0 0 1 .84-.84h.42q.406 0 .616.238.224.224.224.588a.86.86 0 0 1-.238.616.82.82 0 0 1-.602.238zm7.989-2.94v-2.52h.7q.895 0 1.414-.49.531-.505.532-1.33 0-.826-.532-1.316-.519-.504-1.428-.504h-1.75v-1.19h1.75q.98 0 1.694.378.727.364 1.12 1.036.406.672.406 1.596a3.1 3.1 0 0 1-.336 1.442q-.336.63-.938 1.008-.588.378-1.372.42v1.47zm.406 2.94a.814.814 0 0 1-.84-.84.815.815 0 0 1 .84-.84h.42q.406 0 .616.238.224.224.224.588t-.238.616a.82.82 0 0 1-.602.238zm7.988-2.94v-2.52h.7q.896 0 1.414-.49.532-.505.532-1.33t-.532-1.316q-.518-.504-1.428-.504h-1.75v-1.19h1.75q.98 0 1.694.378.728.364 1.12 1.036.406.672.406 1.596a3.1 3.1 0 0 1-.336 1.442q-.336.63-.938 1.008a2.76 2.76 0 0 1-1.372.42v1.47zm.406 2.94a.816.816 0 0 1-.84-.84.815.815 0 0 1 .84-.84h.42q.406 0 .616.238.224.224.224.588a.86.86 0 0 1-.238.616.82.82 0 0 1-.602.238z"/><g stroke="#d3d5cf" stroke-linecap="round" stroke-linejoin="round" stroke-width="1.5" clip-path="url(#b)"><path d="M427.5 24h11M434 19.5l4.5 4.5-4.5 4.5"/></g><rect width="174" height="37" x="457.5" y="5.5" fill="#ef422c" fill-opacity=".1" rx="3.5"/><rect width="174" height="37" x="457.5" y="5.5" stroke="#ef422c" rx="3.5"/><path fill="#080808" d="M474.47 29v-1.148h2.086v-7.924h-2.086V18.78h5.46v1.148h-2.086v7.924h2.086V29zm8.213 0v-7.7h1.26v1.47h.266l-.266.294q0-.91.546-1.4.546-.504 1.512-.504 1.161 0 1.848.714.686.714.686 1.946V29h-1.26v-5.04q0-.825-.448-1.26-.435-.448-1.19-.448-.784 0-1.246.476-.448.476-.448 1.372V29zm11.362.14q-.924 0-1.624-.35a2.52 2.52 0 0 1-1.064-1.008q-.378-.672-.378-1.582v-2.1q0-.924.378-1.582a2.52 2.52 0 0 1 1.064-1.008q.7-.35 1.624-.35 1.33 0 2.142.714t.854 1.946h-1.26q-.042-.743-.504-1.134-.448-.405-1.232-.406-.826 0-1.316.476-.49.462-.49 1.33V26.2q0 .869.49 1.344t1.316.476q.784 0 1.232-.406.462-.406.504-1.134h1.26q-.042 1.232-.854 1.946t-2.142.714m5.329-.14v-1.148h2.73v-5.404h-2.38V21.3h3.64v6.552h2.59V29zm3.22-9.086q-.462 0-.728-.238-.267-.238-.266-.644 0-.42.266-.658.266-.252.728-.252t.728.252q.266.238.266.658 0 .405-.266.644-.267.238-.728.238m7.736 9.226q-1.148 0-1.862-.77-.7-.77-.7-2.086V24.03q0-1.33.7-2.1t1.862-.77q.952 0 1.526.518t.574 1.386l-.252-.294h.28l-.028-1.75v-2.24h1.26V29h-1.26v-1.47h-.252l.252-.294q0 .882-.574 1.4-.574.504-1.526.504m.42-1.092q.784 0 1.232-.49t.448-1.358v-2.1q0-.868-.448-1.358t-1.232-.49q-.798 0-1.26.476t-.462 1.372v2.1q0 .896.462 1.372t1.26.476m8.423 1.092q-.91 0-1.596-.364a2.63 2.63 0 0 1-1.05-1.022q-.364-.672-.364-1.554v-2.1q0-.895.364-1.554.378-.659 1.05-1.022.686-.364 1.596-.364t1.582.364q.686.364 1.05 1.022.378.659.378 1.554v1.358h-4.788v.742q0 .91.462 1.4.461.476 1.316.476.727 0 1.176-.252.447-.266.546-.784h1.26q-.126.966-.952 1.54-.812.56-2.03.56m1.778-4.522V24.1q0-.91-.462-1.4-.449-.49-1.316-.49-.855 0-1.316.49t-.462 1.4v.406h3.654zM524.655 29v-7.7h1.26v1.47h.266l-.266.294q0-.91.546-1.4.546-.504 1.512-.504 1.162 0 1.848.714t.686 1.946V29h-1.26v-5.04q0-.825-.448-1.26-.434-.448-1.19-.448-.784 0-1.246.476-.447.476-.448 1.372V29zm12.147 0q-.995 0-1.554-.532-.546-.532-.546-1.498v-4.522h-2.17V21.3h2.17v-2.17h1.26v2.17h3.08v1.148h-3.08v4.522q0 .882.84.882h2.1V29zm13.037 0V18.78h3.164q.909 0 1.596.378.686.364 1.064 1.022t.378 1.54q0 1.035-.546 1.778-.532.742-1.456 1.022l2.142 4.48h-1.484l-1.96-4.34h-1.638V29zm1.26-5.474h1.904q.783 0 1.26-.49.476-.504.476-1.316 0-.826-.476-1.316-.477-.49-1.26-.49h-1.904zm10.046 5.614q-.909 0-1.596-.364a2.63 2.63 0 0 1-1.05-1.022q-.363-.672-.364-1.554v-2.1q0-.895.364-1.554.378-.659 1.05-1.022.687-.364 1.596-.364.91 0 1.582.364.687.364 1.05 1.022.378.659.378 1.554v1.358h-4.788v.742q0 .91.462 1.4.462.476 1.316.476.729 0 1.176-.252a1.11 1.11 0 0 0 .546-.784h1.26q-.126.966-.952 1.54-.812.56-2.03.56m1.778-4.522V24.1q0-.91-.462-1.4-.447-.49-1.316-.49-.854 0-1.316.49t-.462 1.4v.406h3.654zm6.379 4.494q-.784 0-1.372-.238a2.34 2.34 0 0 1-.924-.7 2.14 2.14 0 0 1-.406-1.064h1.26q.084.405.448.644.378.238.994.238h.588q.742 0 1.106-.294a1.01 1.01 0 0 0 .364-.812q0-.49-.336-.77-.323-.294-.966-.392l-1.036-.168q-1.134-.195-1.694-.7-.546-.518-.546-1.498 0-1.036.658-1.596.659-.574 1.974-.574h.532q1.106 0 1.778.518t.812 1.4h-1.26a.9.9 0 0 0-.42-.574q-.336-.224-.91-.224h-.532q-.714 0-1.05.266-.322.266-.322.798 0 .475.28.7t.882.322l1.036.168q1.246.195 1.806.728.574.532.574 1.54 0 1.065-.686 1.68-.672.602-2.044.602zm5.72 2.408V21.3h1.26v1.47h.252l-.252.294q0-.882.574-1.386.589-.518 1.54-.518 1.163 0 1.848.77.7.757.7 2.086v2.254q0 .882-.322 1.526-.308.644-.882.994-.56.35-1.344.35-.938 0-1.526-.518-.588-.517-.588-1.386l.252.294h-.28l.028 1.75v2.24zm2.954-3.472q.798 0 1.246-.476.462-.476.462-1.372v-2.1q0-.896-.462-1.372-.447-.476-1.246-.476-.77 0-1.232.49t-.462 1.358v2.1q0 .868.462 1.358t1.232.49m8.353 1.064q-.924 0-1.596-.35a2.54 2.54 0 0 1-1.05-1.008q-.364-.672-.364-1.582v-2.044q0-.924.364-1.582a2.54 2.54 0 0 1 1.05-1.008q.672-.35 1.596-.35t1.596.35 1.036 1.008q.378.658.378 1.568v2.058q0 .91-.378 1.582a2.46 2.46 0 0 1-1.036 1.008q-.672.35-1.596.35m0-1.12q.826 0 1.288-.462t.462-1.358v-2.044q0-.896-.462-1.358t-1.288-.462q-.812 0-1.288.462-.462.462-.462 1.358v2.044q0 .896.462 1.358.476.462 1.288.462M591.811 29v-7.7h1.26v1.47h.266l-.266.294q0-.91.546-1.4.546-.504 1.512-.504 1.163 0 1.848.714.687.714.686 1.946V29h-1.26v-5.04q0-.825-.448-1.26-.434-.448-1.19-.448-.784 0-1.246.476-.447.476-.448 1.372V29zm11.069.112q-.784 0-1.372-.238a2.34 2.34 0 0 1-.924-.7 2.14 2.14 0 0 1-.406-1.064h1.26q.084.405.448.644.378.238.994.238h.588q.742 0 1.106-.294a1.01 1.01 0 0 0 .364-.812q0-.49-.336-.77-.323-.294-.966-.392l-1.036-.168q-1.134-.195-1.694-.7-.546-.518-.546-1.498 0-1.036.658-1.596.659-.574 1.974-.574h.532q1.106 0 1.778.518t.812 1.4h-1.26a.9.9 0 0 0-.42-.574q-.336-.224-.91-.224h-.532q-.714 0-1.05.266-.322.266-.322.798 0 .475.28.7t.882.322l1.036.168q1.246.195 1.806.728.574.532.574 1.54 0 1.065-.686 1.68-.672.602-2.044.602zm8.633.028q-.91 0-1.596-.364a2.63 2.63 0 0 1-1.05-1.022q-.364-.672-.364-1.554v-2.1q0-.895.364-1.554.378-.659 1.05-1.022.686-.364 1.596-.364t1.582.364q.686.364 1.05 1.022.378.659.378 1.554v1.358h-4.788v.742q0 .91.462 1.4.461.476 1.316.476.728 0 1.176-.252.447-.266.546-.784h1.26q-.126.966-.952 1.54-.812.56-2.03.56m1.778-4.522V24.1q0-.91-.462-1.4-.449-.49-1.316-.49-.855 0-1.316.49t-.462 1.4v.406h3.654z"/><path fill="#20ca45" d="M9.228 101.14q-1.05 0-1.82-.35t-1.19-.994q-.405-.658-.42-1.54h1.75q0 .63.448.994.462.35 1.246.35.756 0 1.176-.35.434-.35.434-.966 0-.518-.308-.896-.293-.392-.854-.532l-1.176-.322q-1.204-.308-1.862-1.106-.644-.798-.644-1.932 0-.868.392-1.512t1.106-.994q.728-.35 1.708-.35 1.484 0 2.352.77.868.756.882 2.044h-1.75q0-.602-.392-.938-.392-.35-1.106-.35-.686 0-1.064.322t-.378.91q0 .532.28.91.294.364.84.518l1.218.336q1.218.308 1.862 1.106.644.784.644 1.946 0 .868-.42 1.54-.42.658-1.176 1.022t-1.778.364m8.367 0q-.98 0-1.708-.364a2.73 2.73 0 0 1-1.107-1.05q-.378-.686-.377-1.61v-4.452q0-.924.377-1.596.392-.685 1.107-1.05.728-.378 1.707-.378.994 0 1.708.378.715.365 1.093 1.05.391.672.392 1.582v4.466q0 .924-.392 1.61a2.64 2.64 0 0 1-1.093 1.05q-.714.364-1.707.364m0-1.54q.714 0 1.078-.378.363-.392.364-1.106v-4.452q0-.728-.364-1.106t-1.078-.378-1.078.378-.364 1.106v4.452q-.001.714.364 1.106.377.378 1.078.378m5.636 1.4V90.78h1.75v8.596h4.34V101zm11.153.14q-1.5 0-2.352-.812-.84-.825-.84-2.24V90.78h1.764v7.294q-.001.728.364 1.134.363.405 1.064.406.686 0 1.05-.406.378-.406.378-1.134V90.78h1.764v7.308q0 1.415-.84 2.24-.84.812-2.352.812m7.512-.14v-8.596h-2.674V90.78h7.112v1.624H43.66V101zm6.337 0v-1.54h2.058v-7.14h-2.058v-1.54h5.88v1.54h-2.058v7.14h2.058V101zm11.334.14q-.98 0-1.708-.364a2.73 2.73 0 0 1-1.106-1.05q-.378-.686-.378-1.61v-4.452q0-.924.378-1.596.392-.685 1.106-1.05.728-.378 1.708-.378.994 0 1.708.378.714.365 1.092 1.05.393.672.392 1.582v4.466q0 .924-.392 1.61a2.64 2.64 0 0 1-1.092 1.05q-.714.364-1.708.364m0-1.54q.714 0 1.078-.378.364-.392.364-1.106v-4.452q0-.728-.364-1.106-.363-.378-1.078-.378-.714 0-1.078.378t-.364 1.106v4.452q0 .714.364 1.106.378.378 1.078.378m5.203 1.4V90.78h2.142l2.842 8.26-.098-1.05q-.043-.615-.07-1.246-.028-.645-.028-1.12V90.78h1.596V101h-2.142l-2.814-8.26q.028.405.07.98t.07 1.176q.028.602.028 1.106V101z"/><rect width="183" height="37" x="101.5" y="77.5" fill="#20ca45" fill-opacity=".1" rx="3.5"/><rect width="183" height="37" x="101.5" y="77.5" stroke="#20ca45" rx="3.5"/><path fill="#080808" d="m118.526 101-1.176-10.22h1.204l.77 7.56q.028.308.056.644.029.322.042.616.028.294.028.49.029-.196.042-.49.028-.294.056-.616.042-.336.084-.644l.952-7.56h1.302l.868 7.56q.042.308.07.644.042.322.07.616.042.294.056.49.014-.196.028-.49.028-.294.056-.616.042-.336.07-.644l.798-7.56h1.148L123.846 101h-1.582l-.868-7.7a13 13 0 0 0-.07-.63 41 41 0 0 0-.056-.574 17 17 0 0 1-.042-.434 6 6 0 0 1-.056.434q-.028.266-.056.574t-.07.63l-.938 7.7zm7.569 0 2.66-10.22h1.694l2.646 10.22h-1.274l-.672-2.716h-3.094l-.672 2.716zm2.212-3.78h2.576l-.784-3.15a40 40 0 0 1-.35-1.498 18 18 0 0 1-.154-.784q-.028.182-.154.784t-.35 1.484zm6.812 3.78V90.766h6.02v1.148h-4.788v3.402h4.424v1.148h-4.396V101zm19.211.14q-1.148 0-1.862-.77-.7-.77-.7-2.086V96.03q0-1.33.7-2.1t1.862-.77q.952 0 1.526.518.574.517.574 1.386l-.252-.294h.28l-.028-1.75v-2.24h1.26V101h-1.26v-1.47h-.252l.252-.294q0 .882-.574 1.4-.574.504-1.526.504m.42-1.092q.784 0 1.232-.49t.448-1.358v-2.1q0-.868-.448-1.358t-1.232-.49q-.798 0-1.26.476t-.462 1.372v2.1q0 .896.462 1.372t1.26.476m8.423 1.092q-.91 0-1.596-.364a2.63 2.63 0 0 1-1.05-1.022q-.364-.672-.364-1.554v-2.1q0-.895.364-1.554.378-.659 1.05-1.022.685-.364 1.596-.364.91 0 1.582.364.685.364 1.05 1.022.378.658.378 1.554v1.358h-4.788v.742q0 .91.462 1.4.462.476 1.316.476.728 0 1.176-.252.447-.266.546-.784h1.26q-.126.966-.952 1.54-.812.56-2.03.56m1.778-4.522V96.1q0-.91-.462-1.4-.449-.49-1.316-.49-.854 0-1.316.49t-.462 1.4v.406h3.654zm7.456 4.382q-.993 0-1.554-.532-.546-.532-.546-1.498v-4.522h-2.17V93.3h2.17v-2.17h1.26v2.17h3.08v1.148h-3.08v4.522q0 .882.84.882h2.1V101zm7.555.14q-.91 0-1.596-.364a2.63 2.63 0 0 1-1.05-1.022q-.364-.672-.364-1.554v-2.1q0-.895.364-1.554.378-.659 1.05-1.022.686-.364 1.596-.364t1.582.364q.685.364 1.05 1.022.378.658.378 1.554v1.358h-4.788v.742q0 .91.462 1.4.462.476 1.316.476.728 0 1.176-.252.447-.266.546-.784h1.26q-.126.966-.952 1.54-.812.56-2.03.56m1.778-4.522V96.1q0-.91-.462-1.4-.449-.49-1.316-.49-.855 0-1.316.49t-.462 1.4v.406h3.654zm6.672 4.522q-.924 0-1.624-.35a2.5 2.5 0 0 1-1.064-1.008q-.378-.672-.378-1.582v-2.1q0-.924.378-1.582a2.52 2.52 0 0 1 1.064-1.008q.7-.35 1.624-.35 1.33 0 2.142.714.813.714.854 1.946h-1.26q-.042-.743-.504-1.134-.447-.405-1.232-.406-.825 0-1.316.476-.49.462-.49 1.33V98.2q0 .869.49 1.344t1.316.476q.785 0 1.232-.406.462-.406.504-1.134h1.26q-.042 1.232-.854 1.946t-2.142.714m9.179-.14q-.995 0-1.554-.532-.546-.532-.546-1.498v-4.522h-2.17V93.3h2.17v-2.17h1.26v2.17h3.08v1.148h-3.08v4.522q0 .882.84.882h2.1V101zm7.316.112q-.783 0-1.372-.238a2.35 2.35 0 0 1-.924-.7 2.14 2.14 0 0 1-.406-1.064h1.26q.084.405.448.644.379.238.994.238h.588q.743 0 1.106-.294a1.01 1.01 0 0 0 .364-.812q0-.49-.336-.77-.321-.294-.966-.392l-1.036-.168q-1.133-.195-1.694-.7-.546-.518-.546-1.498 0-1.036.658-1.596.659-.574 1.974-.574h.532q1.107 0 1.778.518.672.518.812 1.4h-1.26a.9.9 0 0 0-.42-.574q-.336-.225-.91-.224h-.532q-.714 0-1.05.266-.321.266-.322.798 0 .475.28.7t.882.322l1.036.168q1.246.195 1.806.728.574.532.574 1.54 0 1.064-.686 1.68-.672.602-2.044.602zm17.867-.112q-.993 0-1.554-.532-.546-.532-.546-1.498v-4.522h-2.17V93.3h2.17v-2.17h1.26v2.17h3.08v1.148h-3.08v4.522q0 .882.84.882h2.1V101zm4.643 0V90.78h1.26v3.99h.266l-.266.294q0-.91.546-1.4.546-.504 1.512-.504 1.163 0 1.848.714.686.714.686 1.946V101h-1.26v-5.04q0-.825-.448-1.274-.434-.462-1.19-.462-.784 0-1.246.49-.448.49-.448 1.386v4.9zm8.66 0v-7.7h1.232v1.47h.294l-.406.91q0-1.245.532-1.876.546-.645 1.61-.644 1.218 0 1.932.77.728.756.728 2.058v.462h-1.26v-.35q0-.91-.448-1.386-.433-.49-1.246-.49-.798 0-1.26.49-.447.49-.448 1.386v4.9zm11.041.14q-.91 0-1.596-.364a2.63 2.63 0 0 1-1.05-1.022q-.364-.672-.364-1.554v-2.1q0-.895.364-1.554.378-.659 1.05-1.022.685-.364 1.596-.364.91 0 1.582.364.685.364 1.05 1.022.378.658.378 1.554v1.358h-4.788v.742q0 .91.462 1.4.462.476 1.316.476.728 0 1.176-.252a1.11 1.11 0 0 0 .546-.784h1.26q-.126.966-.952 1.54-.812.56-2.03.56m1.778-4.522V96.1q0-.91-.462-1.4-.448-.49-1.316-.49-.854 0-1.316.49t-.462 1.4v.406h3.654zm5.945 4.522q-1.219 0-1.918-.616-.7-.63-.7-1.694 0-1.078.7-1.694t1.889-.616h2.381v-.77q0-.714-.434-1.092-.42-.392-1.204-.392-.687 0-1.148.294-.463.28-.532.77h-1.26a2.22 2.22 0 0 1 .938-1.582q.812-.588 2.03-.588 1.329 0 2.1.686.77.686.77 1.862V101h-1.232v-1.47h-.21l.21-.21q0 .84-.658 1.33-.645.49-1.722.49m.308-.994q.895 0 1.47-.448.574-.448.574-1.148v-1.092h-2.352q-.63 0-.994.35t-.364.952q0 .645.434 1.022.447.364 1.232.364m9.598.854q-.995 0-1.554-.532-.546-.532-.546-1.498v-4.522h-2.17V93.3h2.17v-2.17h1.26v2.17h3.08v1.148h-3.08v4.522q0 .882.84.882h2.1V101z"/><g stroke="#d3d5cf" stroke-linecap="round" stroke-linejoin="round" stroke-width="1.5" clip-path="url(#c)"><path d="M303.5 96h11M310 91.5l4.5 4.5-4.5 4.5"/></g><rect width="115" height="37" x="333.5" y="77.5" fill="#20ca45" fill-opacity=".1" rx="3.5"/><rect width="115" height="37" x="333.5" y="77.5" stroke="#20ca45" rx="3.5"/><path fill="#080808" d="M352.318 101v-8.596h-2.674V90.78h7.112v1.624h-2.674V101zm6.141 0V90.78h3.234q1.021 0 1.764.378.756.378 1.176 1.064.42.672.42 1.596 0 1.008-.518 1.778a2.74 2.74 0 0 1-1.372 1.092l2.03 4.312h-1.96l-1.778-4.06h-1.246V101zm1.75-5.6h1.484q.742 0 1.162-.406t.42-1.12q0-.727-.42-1.134-.42-.42-1.162-.42h-1.484zm6.07 5.6 2.576-10.22h2.254l2.59 10.22h-1.792l-.56-2.478h-2.716l-.56 2.478zm2.674-3.906h2.072l-.616-2.744a69 69 0 0 1-.266-1.232 28 28 0 0 1-.154-.812q-.042.252-.154.812-.098.546-.266 1.218zm9.487 4.046q-.981 0-1.722-.364a2.8 2.8 0 0 1-1.134-1.05q-.393-.686-.392-1.61v-4.452q0-.938.392-1.61.405-.672 1.134-1.036.741-.378 1.722-.378.993 0 1.708.378.728.364 1.134 1.036t.406 1.61h-1.764q0-.728-.392-1.106-.378-.378-1.092-.378t-1.106.378-.392 1.092v4.466q0 .714.392 1.106.392.378 1.106.378t1.092-.378q.392-.392.392-1.106h1.764q0 .91-.406 1.596a2.8 2.8 0 0 1-1.134 1.064q-.715.364-1.708.364m5.37-.14V90.78h6.132v1.526h-4.41v2.66h3.92v1.512h-3.92v2.996h4.41V101zm8.241 0V90.78h1.75v4.102h2.744V90.78h1.75V101h-1.75v-4.494h-2.744V101zm11.516.14q-.98 0-1.708-.364a2.73 2.73 0 0 1-1.106-1.05q-.378-.686-.378-1.61v-4.452q0-.924.378-1.596.393-.685 1.106-1.05.729-.378 1.708-.378.994 0 1.708.378.714.365 1.092 1.05.393.672.392 1.582v4.466q0 .924-.392 1.61a2.64 2.64 0 0 1-1.092 1.05q-.714.364-1.708.364m0-1.54q.714 0 1.078-.378.364-.392.364-1.106v-4.452q0-.728-.364-1.106t-1.078-.378-1.078.378q-.363.378-.364 1.106v4.452q0 .714.364 1.106.378.378 1.078.378m8.395 1.54q-1.499 0-2.352-.812-.84-.825-.84-2.24V90.78h1.764v7.294q0 .728.364 1.134.363.405 1.064.406.686 0 1.05-.406.378-.406.378-1.134V90.78h1.764v7.308q0 1.415-.84 2.24-.84.812-2.352.812m5.202-.14V90.78h2.142l2.842 8.26-.098-1.05q-.042-.615-.07-1.246-.027-.645-.028-1.12V90.78h1.596V101h-2.142l-2.814-8.26.07.98q.043.575.07 1.176.028.602.028 1.106V101zm8.437 0V90.78h3.038q1.035 0 1.792.392.77.392 1.19 1.106.42.713.42 1.694v3.822q0 .966-.42 1.694-.42.714-1.19 1.12-.757.392-1.792.392zm1.75-1.61h1.288q.756 0 1.204-.42.447-.434.448-1.176v-3.822q0-.728-.448-1.148-.448-.434-1.204-.434h-1.288z"/><g stroke="#d3d5cf" stroke-linecap="round" stroke-linejoin="round" stroke-width="1.5" clip-path="url(#d)"><path d="M467.5 96h11M474 91.5l4.5 4.5-4.5 4.5"/></g><rect width="115" height="37" x="497.5" y="77.5" fill="#20ca45" fill-opacity=".1" rx="3.5"/><rect width="115" height="37" x="497.5" y="77.5" stroke="#20ca45" rx="3.5"/><path fill="#080808" d="m518.908 103.52-1.498-2.478.14.084h-.154a1 1 0 0 1-.196.014q-.937 0-1.638-.364a2.7 2.7 0 0 1-1.064-1.05q-.378-.686-.378-1.596v-4.48q0-.924.378-1.596a2.6 2.6 0 0 1 1.064-1.036q.7-.378 1.638-.378.953 0 1.638.378.686.364 1.064 1.036t.378 1.596v4.48q0 .938-.406 1.638a2.55 2.55 0 0 1-1.148 1.05l1.638 2.702zm-1.708-3.5q.826 0 1.316-.518.504-.518.504-1.372v-4.48q0-.868-.504-1.372-.49-.518-1.316-.518t-1.33.518q-.49.504-.49 1.372v4.48q0 .855.49 1.372.504.518 1.33.518m8.381 1.12q-1.33 0-2.128-.784-.798-.797-.798-2.156v-4.9h1.26v4.9q0 .868.448 1.358.447.476 1.218.476.783 0 1.232-.476.462-.49.462-1.358v-4.9h1.26v4.9q0 1.358-.812 2.156-.813.784-2.142.784m7.736 0q-1.218 0-1.918-.616-.7-.63-.7-1.694 0-1.078.7-1.694t1.89-.616h2.38v-.77q0-.714-.434-1.092-.42-.392-1.204-.392-.686 0-1.148.294-.462.28-.532.77h-1.26q.126-.994.938-1.582t2.03-.588q1.33 0 2.1.686t.77 1.862V101h-1.232v-1.47h-.21l.21-.21q0 .84-.658 1.33-.644.49-1.722.49m.308-.994q.895 0 1.47-.448.574-.448.574-1.148v-1.092h-2.352q-.63 0-.994.35t-.364.952q0 .645.434 1.022.448.364 1.232.364m6.113.854v-7.7h1.232v1.47h.294l-.406.91q0-1.245.532-1.876.546-.645 1.61-.644 1.218 0 1.932.77.728.756.728 2.058v.462h-1.26v-.35q0-.91-.448-1.386-.435-.49-1.246-.49-.798 0-1.26.49-.448.49-.448 1.386v4.9zm10.368.14q-1.218 0-1.918-.616-.7-.63-.7-1.694 0-1.078.7-1.694t1.89-.616h2.38v-.77q0-.714-.434-1.092-.42-.392-1.204-.392-.686 0-1.148.294-.462.28-.532.77h-1.26q.126-.994.938-1.582t2.03-.588q1.33 0 2.1.686t.77 1.862V101h-1.232v-1.47h-.21l.21-.21q0 .84-.658 1.33-.643.49-1.722.49m.308-.994q.895 0 1.47-.448.574-.448.574-1.148v-1.092h-2.352q-.63 0-.994.35t-.364.952q0 .645.434 1.022.448.364 1.232.364m5.847.854v-7.7h1.26v1.47h.266l-.266.294q0-.91.546-1.4.546-.504 1.512-.504 1.161 0 1.848.714.686.714.686 1.946V101h-1.26v-5.04q0-.825-.448-1.26-.435-.448-1.19-.448-.784 0-1.246.476-.448.476-.448 1.372v4.9zm12.146 0q-.993 0-1.554-.532-.546-.532-.546-1.498v-4.522h-2.17V93.3h2.17v-2.17h1.26v2.17h3.08v1.148h-3.08v4.522q0 .882.84.882h2.1V101zm4.545 0v-1.148h2.73v-5.404h-2.38V93.3h3.64v6.552h2.59V101zm3.22-9.086q-.462 0-.728-.238t-.266-.644q0-.42.266-.658.266-.252.728-.252t.728.252q.266.238.266.658 0 .405-.266.644-.266.238-.728.238m5.272 9.086v-7.7h1.26v1.47h.266l-.266.294q0-.91.546-1.4.546-.504 1.512-.504 1.163 0 1.848.714.687.714.686 1.946V101h-1.26v-5.04q0-.825-.448-1.26-.434-.448-1.19-.448-.784 0-1.246.476-.447.476-.448 1.372v4.9zm11.307.14q-.91 0-1.596-.364a2.63 2.63 0 0 1-1.05-1.022q-.364-.672-.364-1.554v-2.1q0-.895.364-1.554.378-.659 1.05-1.022.686-.364 1.596-.364t1.582.364q.686.364 1.05 1.022.378.658.378 1.554v1.358h-4.788v.742q0 .91.462 1.4.461.476 1.316.476.727 0 1.176-.252.447-.266.546-.784h1.26q-.126.966-.952 1.54-.812.56-2.03.56m1.778-4.522V96.1q0-.91-.462-1.4-.449-.49-1.316-.49-.855 0-1.316.49t-.462 1.4v.406h3.654z"/><g stroke="#d3d5cf" stroke-linecap="round" stroke-linejoin="round" stroke-width="1.5" clip-path="url(#e)"><path d="M631.5 96h11M638 91.5l4.5 4.5-4.5 4.5"/></g><rect width="174" height="37" x="661.5" y="77.5" fill="#20ca45" fill-opacity=".1" rx="3.5"/><rect width="174" height="37" x="661.5" y="77.5" stroke="#20ca45" rx="3.5"/><path fill="#080808" d="M678.33 101V90.766h6.02v1.148h-4.788v3.402h4.424v1.148h-4.396V101zm11.265.112q-.924 0-1.596-.35a2.54 2.54 0 0 1-1.05-1.008q-.364-.672-.364-1.582v-2.044q0-.924.364-1.582a2.54 2.54 0 0 1 1.05-1.008q.672-.35 1.596-.35t1.596.35 1.036 1.008q.378.658.378 1.568v2.058q0 .91-.378 1.582a2.45 2.45 0 0 1-1.036 1.008q-.672.35-1.596.35m0-1.12q.826 0 1.288-.462t.462-1.358v-2.044q0-.896-.462-1.358t-1.288-.462q-.813 0-1.288.462-.462.462-.462 1.358v2.044q0 .896.462 1.358.475.462 1.288.462m5.748 1.008v-7.7h1.232v1.47h.294l-.406.91q0-1.245.532-1.876.546-.645 1.61-.644 1.218 0 1.932.77.728.756.728 2.058v.462h-1.26v-.35q0-.91-.448-1.386-.434-.49-1.246-.49-.798 0-1.26.49-.448.49-.448 1.386v4.9zm11.041.14q-.91 0-1.596-.364a2.63 2.63 0 0 1-1.05-1.022q-.364-.672-.364-1.554v-2.1q0-.895.364-1.554.378-.659 1.05-1.022.686-.364 1.596-.364t1.582.364q.686.364 1.05 1.022.378.658.378 1.554v1.358h-4.788v.742q0 .91.462 1.4.461.476 1.316.476.727 0 1.176-.252.447-.266.546-.784h1.26q-.127.966-.952 1.54-.812.56-2.03.56m1.778-4.522V96.1q0-.91-.462-1.4-.449-.49-1.316-.49-.855 0-1.316.49t-.462 1.4v.406h3.654zm3.704 4.382v-7.7h1.26v1.47h.266l-.266.294q0-.91.546-1.4.546-.504 1.512-.504 1.163 0 1.848.714.686.714.686 1.946V101h-1.26v-5.04q0-.825-.448-1.26-.434-.448-1.19-.448-.784 0-1.246.476-.448.476-.448 1.372v4.9zm11.069.112q-.784 0-1.372-.238a2.33 2.33 0 0 1-.924-.7 2.13 2.13 0 0 1-.406-1.064h1.26q.084.405.448.644.378.238.994.238h.588q.741 0 1.106-.294.364-.308.364-.812 0-.49-.336-.77-.323-.294-.966-.392l-1.036-.168q-1.134-.195-1.694-.7-.546-.518-.546-1.498 0-1.036.658-1.596.657-.574 1.974-.574h.532q1.106 0 1.778.518t.812 1.4h-1.26a.9.9 0 0 0-.42-.574q-.337-.225-.91-.224h-.532q-.714 0-1.05.266-.322.266-.322.798 0 .475.28.7.279.225.882.322l1.036.168q1.245.195 1.806.728.574.532.574 1.54 0 1.064-.686 1.68-.673.602-2.044.602zm5.622-.112v-1.148h2.73v-5.404h-2.38V93.3h3.64v6.552h2.59V101zm3.22-9.086q-.461 0-.728-.238t-.266-.644q0-.42.266-.658.266-.252.728-.252t.728.252q.267.238.266.658 0 .405-.266.644-.266.238-.728.238m8.241 9.226q-.925 0-1.624-.35a2.5 2.5 0 0 1-1.064-1.008q-.378-.672-.378-1.582v-2.1q0-.924.378-1.582a2.5 2.5 0 0 1 1.064-1.008q.7-.35 1.624-.35 1.329 0 2.142.714t.854 1.946h-1.26q-.042-.743-.504-1.134-.449-.405-1.232-.406-.827 0-1.316.476-.49.462-.49 1.33V98.2q0 .869.49 1.344t1.316.476q.783 0 1.232-.406.462-.406.504-1.134h1.26q-.042 1.232-.854 1.946-.813.714-2.142.714m13.933-.14V90.78h5.88v1.148h-4.634v3.164h4.144v1.134h-4.144v3.626h4.634V101zm10.34 0-2.576-7.7h1.288l1.708 5.18q.154.462.28.896.126.42.182.658l.196-.658q.126-.435.266-.896l1.666-5.18h1.274l-2.576 7.7zm6.239 0v-1.148h2.73v-5.404h-2.38V93.3h3.64v6.552h2.59V101zm3.22-9.086q-.462 0-.728-.238t-.266-.644q0-.42.266-.658.266-.252.728-.252t.728.252q.266.238.266.658 0 .405-.266.644-.266.238-.728.238m7.736 9.226q-1.148 0-1.862-.77-.7-.77-.7-2.086V96.03q0-1.33.7-2.1t1.862-.77q.953 0 1.526.518.574.517.574 1.386l-.252-.294h.28l-.028-1.75v-2.24h1.26V101h-1.26v-1.47h-.252l.252-.294q0 .882-.574 1.4-.573.504-1.526.504m.42-1.092q.785 0 1.232-.49.448-.49.448-1.358v-2.1q0-.868-.448-1.358-.447-.49-1.232-.49-.798 0-1.26.476t-.462 1.372v2.1q0 .896.462 1.372t1.26.476m8.423 1.092q-.91 0-1.596-.364a2.63 2.63 0 0 1-1.05-1.022q-.364-.672-.364-1.554v-2.1q0-.895.364-1.554.378-.659 1.05-1.022.686-.364 1.596-.364t1.582.364q.686.364 1.05 1.022.378.658.378 1.554v1.358h-4.788v.742q0 .91.462 1.4.462.476 1.316.476.727 0 1.176-.252a1.11 1.11 0 0 0 .546-.784h1.26q-.126.966-.952 1.54-.812.56-2.03.56m1.778-4.522V96.1q0-.91-.462-1.4-.448-.49-1.316-.49-.854 0-1.316.49t-.462 1.4v.406h3.654zm3.704 4.382v-7.7h1.26v1.47h.266l-.266.294q0-.91.546-1.4.546-.504 1.512-.504 1.163 0 1.848.714.687.714.686 1.946V101h-1.26v-5.04q0-.825-.448-1.26-.434-.448-1.19-.448-.784 0-1.246.476-.447.476-.448 1.372v4.9zm11.363.14q-.924 0-1.624-.35a2.5 2.5 0 0 1-1.064-1.008q-.378-.672-.378-1.582v-2.1q0-.924.378-1.582a2.52 2.52 0 0 1 1.064-1.008q.7-.35 1.624-.35 1.33 0 2.142.714t.854 1.946h-1.26q-.042-.743-.504-1.134-.448-.405-1.232-.406-.826 0-1.316.476-.49.462-.49 1.33V98.2q0 .869.49 1.344t1.316.476q.784 0 1.232-.406.462-.406.504-1.134h1.26q-.042 1.232-.854 1.946t-2.142.714m8.339 0q-.91 0-1.596-.364a2.63 2.63 0 0 1-1.05-1.022q-.364-.672-.364-1.554v-2.1q0-.895.364-1.554.378-.659 1.05-1.022.686-.364 1.596-.364t1.582.364q.686.364 1.05 1.022.378.658.378 1.554v1.358h-4.788v.742q0 .91.462 1.4.461.476 1.316.476.728 0 1.176-.252.447-.266.546-.784h1.26q-.126.966-.952 1.54-.812.56-2.03.56m1.778-4.522V96.1q0-.91-.462-1.4-.449-.49-1.316-.49-.855 0-1.316.49t-.462 1.4v.406h3.654z"/><g stroke="#d3d5cf" stroke-linecap="round" stroke-linejoin="round" stroke-width="1.5" clip-path="url(#f)"><path d="M854.5 96h11M861 91.5l4.5 4.5-4.5 4.5"/></g><rect width="99" height="37" x="884.5" y="77.5" fill="#20ca45" fill-opacity=".1" rx="3.5"/><rect width="99" height="37" x="884.5" y="77.5" stroke="#20ca45" rx="3.5"/><path fill="#080808" d="M901.288 101V90.78h3.164q.91 0 1.596.378.686.364 1.064 1.022t.378 1.54q0 1.035-.546 1.778-.532.742-1.456 1.022l2.142 4.48h-1.484l-1.96-4.34h-1.638V101zm1.26-5.474h1.904q.784 0 1.26-.49.476-.504.476-1.316 0-.826-.476-1.316t-1.26-.49h-1.904zm10.047 5.614q-.91 0-1.596-.364a2.63 2.63 0 0 1-1.05-1.022q-.364-.672-.364-1.554v-2.1q0-.895.364-1.554.378-.659 1.05-1.022.685-.364 1.596-.364.91 0 1.582.364.686.364 1.05 1.022.378.658.378 1.554v1.358h-4.788v.742q0 .91.462 1.4.461.476 1.316.476.727 0 1.176-.252.447-.266.546-.784h1.26q-.127.966-.952 1.54-.812.56-2.03.56m1.778-4.522V96.1q0-.91-.462-1.4-.449-.49-1.316-.49-.855 0-1.316.49t-.462 1.4v.406h3.654zm6.378 4.494q-.784 0-1.372-.238a2.33 2.33 0 0 1-.924-.7 2.14 2.14 0 0 1-.406-1.064h1.26q.084.405.448.644.378.238.994.238h.588q.742 0 1.106-.294a1.01 1.01 0 0 0 .364-.812q0-.49-.336-.77-.322-.294-.966-.392l-1.036-.168q-1.134-.195-1.694-.7-.546-.518-.546-1.498 0-1.036.658-1.596.658-.574 1.974-.574h.532q1.106 0 1.778.518t.812 1.4h-1.26a.9.9 0 0 0-.42-.574q-.336-.225-.91-.224h-.532q-.714 0-1.05.266-.322.266-.322.798 0 .475.28.7t.882.322l1.036.168q1.247.195 1.806.728.574.532.574 1.54 0 1.064-.686 1.68-.672.602-2.044.602zm5.721 2.408V93.3h1.26v1.47h.252l-.252.294q0-.882.574-1.386.588-.518 1.54-.518 1.161 0 1.848.77.7.757.7 2.086v2.254q0 .882-.322 1.526-.309.644-.882.994-.561.35-1.344.35-.939 0-1.526-.518-.588-.517-.588-1.386l.252.294h-.28l.028 1.75v2.24zm2.954-3.472q.798 0 1.246-.476.462-.476.462-1.372v-2.1q0-.896-.462-1.372-.448-.476-1.246-.476-.77 0-1.232.49t-.462 1.358v2.1q0 .868.462 1.358t1.232.49m8.352 1.064q-.924 0-1.596-.35a2.54 2.54 0 0 1-1.05-1.008q-.364-.672-.364-1.582v-2.044q0-.924.364-1.582a2.54 2.54 0 0 1 1.05-1.008q.672-.35 1.596-.35t1.596.35 1.036 1.008q.378.658.378 1.568v2.058q0 .91-.378 1.582a2.45 2.45 0 0 1-1.036 1.008q-.672.35-1.596.35m0-1.12q.826 0 1.288-.462t.462-1.358v-2.044q0-.896-.462-1.358t-1.288-.462q-.812 0-1.288.462-.462.462-.462 1.358v2.044q0 .896.462 1.358.476.462 1.288.462m5.483 1.008v-7.7h1.26v1.47h.266l-.266.294q0-.91.546-1.4.546-.504 1.512-.504 1.161 0 1.848.714.686.714.686 1.946V101h-1.26v-5.04q0-.825-.448-1.26-.434-.448-1.19-.448-.784 0-1.246.476-.448.476-.448 1.372v4.9zm11.068.112q-.784 0-1.372-.238a2.35 2.35 0 0 1-.924-.7 2.14 2.14 0 0 1-.406-1.064h1.26q.084.405.448.644.378.238.994.238h.588q.743 0 1.106-.294a1.01 1.01 0 0 0 .364-.812q0-.49-.336-.77-.321-.294-.966-.392l-1.036-.168q-1.134-.195-1.694-.7-.546-.518-.546-1.498 0-1.036.658-1.596.658-.574 1.974-.574h.532q1.107 0 1.778.518.672.518.812 1.4h-1.26a.9.9 0 0 0-.42-.574q-.336-.225-.91-.224h-.532q-.714 0-1.05.266-.322.266-.322.798 0 .475.28.7t.882.322l1.036.168q1.247.195 1.806.728.574.532.574 1.54 0 1.064-.686 1.68-.672.602-2.044.602zm8.633.028q-.91 0-1.596-.364a2.63 2.63 0 0 1-1.05-1.022q-.364-.672-.364-1.554v-2.1q0-.895.364-1.554.378-.659 1.05-1.022.686-.364 1.596-.364t1.582.364q.685.364 1.05 1.022.378.658.378 1.554v1.358h-4.788v.742q0 .91.462 1.4.462.476 1.316.476.727 0 1.176-.252.447-.266.546-.784h1.26q-.127.966-.952 1.54-.812.56-2.03.56m1.778-4.522V96.1q0-.91-.462-1.4-.449-.49-1.316-.49-.854 0-1.316.49t-.462 1.4v.406h3.654z"/><defs><clipPath id="a"><path fill="#fff" d="M301 16h16v16h-16z"/></clipPath><clipPath id="b"><path fill="#fff" d="M425 16h16v16h-16z"/></clipPath><clipPath id="c"><path fill="#fff" d="M301 88h16v16h-16z"/></clipPath><clipPath id="d"><path fill="#fff" d="M465 88h16v16h-16z"/></clipPath><clipPath id="e"><path fill="#fff" d="M629 88h16v16h-16z"/></clipPath><clipPath id="f"><path fill="#fff" d="M852 88h16v16h-16z"/></clipPath></defs></svg>