<svg xmlns="http://www.w3.org/2000/svg" width="945" height="120" fill="none"><path fill="#ef422c" d="M5.924 29v-9.8h4.032q.924 0 1.624.378.714.364 1.106 1.036.406.672.406 1.596v.196q0 .91-.42 1.596-.405.672-1.12 1.05-.7.364-1.596.364H7.772V29zm1.848-5.264h2.002q.658 0 1.064-.364t.406-.994v-.14q0-.63-.406-.994-.405-.364-1.064-.364H7.772zM14.387 29v-9.8h4.256q.924 0 1.61.322t1.064.91.378 1.386v.168q0 .882-.42 1.428a2.47 2.47 0 0 1-1.036.798v.252q.56.029.868.392.308.35.308.938V29h-1.848v-2.94a.8.8 0 0 0-.182-.546q-.168-.21-.574-.21h-2.576V29zm1.848-5.376h2.212q.659 0 1.022-.35.378-.364.378-.952v-.14q0-.588-.364-.938-.364-.364-1.036-.364h-2.212zm10.806 5.572q-1.848 0-2.94-1.008-1.092-1.022-1.092-2.912v-2.352q0-1.89 1.092-2.898 1.092-1.022 2.94-1.022t2.94 1.022q1.092 1.008 1.092 2.898v2.352q0 1.89-1.092 2.912-1.092 1.008-2.94 1.008m0-1.652q1.035 0 1.61-.602.573-.602.574-1.61v-2.464q0-1.008-.574-1.61-.575-.602-1.61-.602-1.022 0-1.61.602-.574.602-.574 1.61v2.464q-.001 1.008.574 1.61.588.602 1.61.602M32.099 29v-1.624h1.288v-6.552H32.1V19.2h5.04q.896 0 1.554.308.672.294 1.036.854.378.546.378 1.316v.14q0 .672-.252 1.106-.252.42-.602.658-.336.225-.644.322v.252q.308.084.672.322.364.225.616.658.266.434.266 1.134v.14q0 .812-.378 1.4a2.44 2.44 0 0 1-1.05.882q-.658.308-1.54.308zm3.136-1.68h1.736q.602 0 .966-.294.378-.294.378-.84v-.14q0-.546-.364-.84-.365-.294-.98-.294h-1.736zm0-4.088h1.708q.574 0 .938-.294.378-.294.378-.812v-.14q0-.532-.364-.812-.364-.294-.952-.294h-1.708zM41.676 29v-9.8h1.848v8.12h4.48V29zm7.588 0v-9.8h6.3v1.68h-4.452v2.338h4.06v1.68h-4.06v2.422h4.536V29zm7.752 0v-9.8h3.43l1.694 8.54h.252l1.694-8.54h3.43V29h-1.792v-8.442h-.252L63.792 29H60.74l-1.68-8.442h-.252V29z"/><rect width="163" height="37" x="101.5" y="5.5" fill="#ef422c" fill-opacity=".1" rx="3.5"/><rect width="163" height="37" x="101.5" y="5.5" stroke="#ef422c" rx="3.5"/><path fill="#080808" d="m119.114 29-1.596-9.8h1.176l1.386 9.044h.196l1.806-9.044h2.1l1.792 9.044h.196l1.386-9.044h1.176l-1.596 9.8h-2.1l-1.806-9.1h-.196l-1.806 9.1zm10.117 0 3.024-9.8h2.072l3.024 9.8h-1.218l-.756-2.478h-4.172L130.449 29zm2.268-3.542h3.57l-1.68-5.544h-.196zm7.32 3.542v-9.8h5.922v1.064h-4.746v3.29h4.368v1.064h-4.368V29zm14.096.196q-.882 0-1.624-.42a3.03 3.03 0 0 1-1.176-1.218q-.434-.798-.434-1.89v-.182q0-1.092.434-1.876.435-.798 1.162-1.218a3.2 3.2 0 0 1 1.638-.434q.714 0 1.204.196.504.182.812.476.309.28.476.602h.196V19.2h1.106V29h-1.078v-1.134h-.196q-.28.517-.868.924-.588.405-1.652.406m.294-.98q1.065 0 1.722-.672.672-.686.672-1.904v-.126q0-1.218-.672-1.89-.657-.686-1.722-.686-1.05 0-1.736.686-.672.672-.672 1.89v.126q0 1.218.672 1.904.686.672 1.736.672m8.954.98q-1.035 0-1.82-.434a3.14 3.14 0 0 1-1.218-1.246q-.434-.798-.434-1.848V25.5q0-1.064.434-1.862.435-.798 1.204-1.232.771-.448 1.764-.448.967 0 1.708.42.742.406 1.162 1.176t.42 1.806v.504h-5.586q.042 1.106.714 1.736.672.615 1.68.616.882 0 1.358-.406t.728-.966l.952.462a4 4 0 0 1-.588.868q-.363.434-.966.728-.588.294-1.512.294m-2.352-4.242h4.452q-.055-.953-.658-1.484-.588-.532-1.512-.532-.937 0-1.54.532-.601.533-.742 1.484M169.545 29q-.588 0-.91-.322-.308-.322-.308-.882V23.12h-2.058v-.966h2.058v-2.436h1.106v2.436h2.24v.966h-2.24v4.508q0 .42.406.42h1.526V29zm6.81.196q-1.037 0-1.82-.434a3.13 3.13 0 0 1-1.218-1.246q-.435-.798-.434-1.848V25.5q0-1.064.434-1.862.433-.798 1.204-1.232.77-.448 1.764-.448.966 0 1.708.42.742.406 1.162 1.176t.42 1.806v.504h-5.586q.042 1.106.714 1.736.672.615 1.68.616.881 0 1.358-.406.476-.406.728-.966l.952.462a4 4 0 0 1-.588.868q-.364.434-.966.728-.588.294-1.512.294m-2.352-4.242h4.452q-.057-.953-.658-1.484-.588-.532-1.512-.532-.939 0-1.54.532-.603.533-.742 1.484m10.651 4.242q-.994 0-1.792-.42-.784-.434-1.246-1.232-.448-.798-.448-1.89V25.5q0-1.105.448-1.89a3.1 3.1 0 0 1 1.246-1.218 3.7 3.7 0 0 1 1.792-.434q.98 0 1.666.364.699.364 1.092.966.405.601.518 1.288l-1.078.224a2.3 2.3 0 0 0-.336-.924 1.84 1.84 0 0 0-.714-.672q-.462-.252-1.134-.252-.686 0-1.232.308-.533.308-.854.882-.308.574-.308 1.372v.126q0 .799.308 1.372.321.575.854.882.546.308 1.232.308 1.022 0 1.554-.532.546-.532.672-1.316l1.092.238q-.155.672-.56 1.274-.407.602-1.106.966-.687.364-1.666.364m7.45-.196q-.588 0-.91-.322-.308-.322-.308-.882V23.12h-2.058v-.966h2.058v-2.436h1.106v2.436h2.24v.966h-2.24v4.508q0 .42.406.42h1.526V29zm6.677.196q-1.274 0-2.156-.588-.867-.588-1.05-1.862l1.05-.238q.112.672.42 1.064.309.378.756.546.462.154.98.154.771 0 1.218-.308.448-.307.448-.826 0-.532-.434-.742-.42-.224-1.162-.364l-.574-.098a5.2 5.2 0 0 1-1.204-.35 2.2 2.2 0 0 1-.868-.644q-.322-.405-.322-1.022 0-.924.714-1.442t1.89-.518q1.162 0 1.876.532.728.518.938 1.47l-1.036.266q-.126-.742-.602-1.036-.476-.308-1.176-.308t-1.106.266q-.406.252-.406.756 0 .49.378.728.393.224 1.036.336l.574.098q.729.125 1.302.35.588.21.924.616.35.405.35 1.064 0 1.008-.756 1.554-.742.546-2.002.546M209.522 29q-.588 0-.91-.322-.308-.322-.308-.882V23.12h-2.058v-.966h2.058v-2.436h1.106v2.436h2.24v.966h-2.24v4.508q0 .42.406.42h1.526V29zm3.919 0v-9.8h1.106v4.046h.196q.141-.308.42-.574.294-.28.742-.462.463-.182 1.162-.182.77 0 1.372.336.617.322.98.952.364.616.364 1.54V29h-1.106v-4.06q0-1.022-.518-1.484-.504-.462-1.372-.462-.994 0-1.624.644-.616.645-.616 1.918V29zm8.586 0v-6.846h1.078v.84h.196a1.27 1.27 0 0 1 .56-.658q.379-.21.994-.21h.812v1.008h-.882q-.741 0-1.204.42-.448.405-.448 1.274V29zm8.167.196q-1.035 0-1.82-.434a3.14 3.14 0 0 1-1.218-1.246q-.434-.798-.434-1.848V25.5q0-1.064.434-1.862.435-.798 1.204-1.232.771-.448 1.764-.448.966 0 1.708.42.742.406 1.162 1.176t.42 1.806v.504h-5.586q.042 1.106.714 1.736.672.615 1.68.616.882 0 1.358-.406t.728-.966l.952.462a4 4 0 0 1-.588.868q-.363.434-.966.728-.588.294-1.512.294m-2.352-4.242h4.452q-.055-.953-.658-1.484-.588-.532-1.512-.532-.937 0-1.54.532-.601.533-.742 1.484m9.602 4.242q-.714 0-1.302-.252-.588-.251-.924-.728-.336-.476-.336-1.162 0-.7.336-1.148.336-.462.924-.686.588-.238 1.316-.238h2.31v-.504q0-.728-.434-1.148-.42-.42-1.26-.42-.826 0-1.288.406-.462.392-.63 1.064l-1.036-.336a3 3 0 0 1 .532-1.036q.363-.476.966-.756.615-.294 1.47-.294 1.315 0 2.044.686.728.672.728 1.904v3.094q0 .42.392.42h.63V29h-.966q-.462 0-.742-.252-.28-.265-.28-.7v-.07h-.168a3.4 3.4 0 0 1-.42.56q-.252.28-.7.462-.448.196-1.162.196m.126-.952q.98 0 1.582-.574.615-.588.616-1.638v-.154H237.5q-.659 0-1.092.294-.42.28-.42.854t.434.896q.447.322 1.148.322m7.895.756q-.588 0-.91-.322-.308-.322-.308-.882V23.12h-2.058v-.966h2.058v-2.436h1.106v2.436h2.24v.966h-2.24v4.508q0 .42.406.42h1.526V29z"/><g stroke="#d3d5cf" stroke-linecap="round" stroke-linejoin="round" stroke-width="1.5" clip-path="url(#a)"><path d="M283.5 24h11M290 19.5l4.5 4.5-4.5 4.5"/></g><rect width="75" height="37" x="313.5" y="5.5" fill="#ef422c" fill-opacity=".1" rx="3.5"/><rect width="75" height="37" x="313.5" y="5.5" stroke="#ef422c" stroke-dasharray="2 2" rx="3.5"/><path fill="#080808" d="M341.818 26.382v-.854q0-.644.238-1.008.239-.378.84-.644l.392-.168q.727-.308 1.134-.728.406-.434.406-1.204 0-.574-.294-.966a1.87 1.87 0 0 0-.798-.602 2.9 2.9 0 0 0-1.134-.21q-.63 0-1.176.224-.532.21-.868.658-.322.434-.322 1.106v.49h-1.134v-.49q0-.966.448-1.624a2.83 2.83 0 0 1 1.246-1.008q.798-.35 1.806-.35.994 0 1.75.364.77.35 1.19.98.434.616.434 1.428 0 .798-.308 1.33a2.75 2.75 0 0 1-.77.868q-.476.336-1.05.588l-.378.168a.8.8 0 0 0-.378.294q-.112.182-.112.518v.84zm.602 2.814a.93.93 0 0 1-.686-.266.93.93 0 0 1-.266-.686.93.93 0 0 1 .266-.686.93.93 0 0 1 .686-.266.9.9 0 0 1 .672.266q.28.266.28.686t-.28.686a.9.9 0 0 1-.672.266m7.519-2.814v-.854q0-.644.238-1.008.239-.378.84-.644l.392-.168q.728-.308 1.134-.728.406-.434.406-1.204 0-.574-.294-.966a1.87 1.87 0 0 0-.798-.602 2.9 2.9 0 0 0-1.134-.21q-.63 0-1.176.224-.532.21-.868.658-.322.434-.322 1.106v.49h-1.134v-.49q0-.966.448-1.624a2.83 2.83 0 0 1 1.246-1.008q.798-.35 1.806-.35.994 0 1.75.364.77.35 1.19.98.434.616.434 1.428 0 .798-.308 1.33a2.75 2.75 0 0 1-.77.868q-.476.336-1.05.588l-.378.168a.8.8 0 0 0-.378.294q-.112.182-.112.518v.84zm.602 2.814a.93.93 0 0 1-.686-.266.93.93 0 0 1-.266-.686.93.93 0 0 1 .266-.686.93.93 0 0 1 .686-.266.9.9 0 0 1 .672.266q.28.266.28.686t-.28.686a.9.9 0 0 1-.672.266m7.519-2.814v-.854q0-.644.238-1.008.239-.378.84-.644l.392-.168q.729-.308 1.134-.728.406-.434.406-1.204 0-.574-.294-.966a1.87 1.87 0 0 0-.798-.602 2.9 2.9 0 0 0-1.134-.21q-.63 0-1.176.224-.531.21-.868.658-.322.434-.322 1.106v.49h-1.134v-.49q0-.966.448-1.624a2.83 2.83 0 0 1 1.246-1.008q.798-.35 1.806-.35.994 0 1.75.364.77.35 1.19.98.434.616.434 1.428 0 .798-.308 1.33a2.7 2.7 0 0 1-.77.868q-.475.336-1.05.588l-.378.168a.8.8 0 0 0-.378.294q-.112.182-.112.518v.84zm.602 2.814a.93.93 0 0 1-.686-.266.93.93 0 0 1-.266-.686.93.93 0 0 1 .266-.686.93.93 0 0 1 .686-.266.9.9 0 0 1 .672.266q.28.266.28.686t-.28.686a.9.9 0 0 1-.672.266"/><g stroke="#d3d5cf" stroke-linecap="round" stroke-linejoin="round" stroke-width="1.5" clip-path="url(#b)"><path d="M407.5 24h11M414 19.5l4.5 4.5-4.5 4.5"/></g><rect width="157" height="37" x="437.5" y="5.5" fill="#ef422c" fill-opacity=".1" rx="3.5"/><rect width="157" height="37" x="437.5" y="5.5" stroke="#ef422c" rx="3.5"/><path fill="#080808" d="M454.12 29v-9.8h1.176V29zm3.46 0v-6.846h1.078v1.162h.196q.224-.49.756-.882.546-.405 1.596-.406.77 0 1.372.322.616.322.98.952t.364 1.554V29h-1.106v-4.06q0-1.022-.518-1.484-.504-.462-1.372-.462-.994 0-1.624.644-.616.645-.616 1.918V29zm11.736.196q-.994 0-1.792-.42-.784-.434-1.246-1.232-.448-.798-.448-1.89V25.5q0-1.105.448-1.89a3.1 3.1 0 0 1 1.246-1.218 3.7 3.7 0 0 1 1.792-.434q.98 0 1.666.364.7.364 1.092.966.406.601.518 1.288l-1.078.224a2.3 2.3 0 0 0-.336-.924 1.84 1.84 0 0 0-.714-.672q-.462-.252-1.134-.252-.686 0-1.232.308-.532.308-.854.882-.308.574-.308 1.372v.126q0 .799.308 1.372.322.575.854.882.546.308 1.232.308 1.022 0 1.554-.532.546-.532.672-1.316l1.092.238a3.8 3.8 0 0 1-.56 1.274 2.94 2.94 0 0 1-1.106.966q-.686.364-1.666.364m5.217-.196v-6.846h1.106V29zm.56-7.91a.86.86 0 0 1-.616-.238.82.82 0 0 1-.238-.602q0-.378.238-.616a.86.86 0 0 1 .616-.238q.364 0 .602.238a.83.83 0 0 1 .238.616.815.815 0 0 1-.84.84m5.77 8.106q-.883 0-1.624-.42a3 3 0 0 1-1.176-1.218q-.434-.798-.434-1.89v-.182q0-1.092.434-1.876a3.04 3.04 0 0 1 1.162-1.218 3.2 3.2 0 0 1 1.638-.434q.714 0 1.204.196.504.182.812.476.308.28.476.602h.196V19.2h1.106V29h-1.078v-1.134h-.196q-.28.517-.868.924-.588.405-1.652.406m.294-.98q1.064 0 1.722-.672.672-.686.672-1.904v-.126q0-1.218-.672-1.89-.659-.686-1.722-.686-1.05 0-1.736.686-.672.672-.672 1.89v.126q0 1.218.672 1.904.686.672 1.736.672m8.954.98q-1.037 0-1.82-.434a3.13 3.13 0 0 1-1.218-1.246q-.434-.798-.434-1.848V25.5q0-1.064.434-1.862.433-.798 1.204-1.232.77-.448 1.764-.448.966 0 1.708.42.742.406 1.162 1.176t.42 1.806v.504h-5.586q.042 1.106.714 1.736.672.615 1.68.616.881 0 1.358-.406.476-.406.728-.966l.952.462a4 4 0 0 1-.588.868q-.364.434-.966.728-.588.294-1.512.294m-2.352-4.242h4.452q-.057-.953-.658-1.484-.588-.532-1.512-.532-.939 0-1.54.532-.603.533-.742 1.484M495.26 29v-6.846h1.078v1.162h.196q.224-.49.756-.882.546-.405 1.596-.406.77 0 1.372.322.615.322.98.952.363.63.364 1.554V29h-1.106v-4.06q0-1.022-.518-1.484-.505-.462-1.372-.462-.994 0-1.624.644-.616.645-.616 1.918V29zm10.914 0q-.588 0-.91-.322-.308-.322-.308-.882V23.12h-2.058v-.966h2.058v-2.436h1.106v2.436h2.24v.966h-2.24v4.508q0 .42.406.42h1.526V29zm7.473 0v-9.8h3.962q.91 0 1.596.322.7.308 1.092.896.392.575.392 1.386v.154q0 .966-.462 1.526a2.3 2.3 0 0 1-1.092.756v.196q.505.014.826.336.336.308.336.938V29h-1.162v-3.15q0-.42-.238-.644-.224-.224-.686-.224h-3.388V29zm1.176-5.082h2.674q.966 0 1.484-.462.532-.476.532-1.316v-.098q0-.84-.518-1.302-.517-.476-1.498-.476h-2.674zm10.834 5.278q-1.035 0-1.82-.434a3.14 3.14 0 0 1-1.218-1.246q-.434-.798-.434-1.848V25.5q0-1.064.434-1.862.435-.798 1.204-1.232.771-.448 1.764-.448.966 0 1.708.42.742.406 1.162 1.176t.42 1.806v.504h-5.586q.042 1.106.714 1.736.672.615 1.68.616.882 0 1.358-.406t.728-.966l.952.462a4 4 0 0 1-.588.868q-.363.434-.966.728-.588.294-1.512.294m-2.352-4.242h4.452q-.055-.953-.658-1.484-.588-.532-1.512-.532-.937 0-1.54.532-.601.533-.742 1.484m10.26 4.242q-1.274 0-2.156-.588-.868-.588-1.05-1.862l1.05-.238q.111.672.42 1.064.307.378.756.546.462.154.98.154.77 0 1.218-.308.447-.307.448-.826 0-.532-.434-.742-.42-.224-1.162-.364l-.574-.098a5.2 5.2 0 0 1-1.204-.35 2.2 2.2 0 0 1-.868-.644q-.322-.405-.322-1.022 0-.924.714-1.442t1.89-.518q1.161 0 1.876.532.728.518.938 1.47l-1.036.266q-.126-.742-.602-1.036-.477-.308-1.176-.308-.7 0-1.106.266-.406.252-.406.756 0 .49.378.728.391.224 1.036.336l.574.098q.728.125 1.302.35.588.21.924.616.35.405.35 1.064 0 1.008-.756 1.554-.742.546-2.002.546m4.624 2.604v-9.646h1.078v1.134h.196q.266-.517.854-.924.603-.405 1.666-.406.882 0 1.61.434.742.42 1.176 1.204.448.784.448 1.89v.182q0 1.092-.434 1.89a3 3 0 0 1-1.176 1.218q-.727.42-1.624.42-.714 0-1.218-.196a2.3 2.3 0 0 1-.798-.476 2.5 2.5 0 0 1-.476-.602h-.196V31.8zm3.5-3.584q1.065 0 1.722-.672.672-.686.672-1.904v-.126q0-1.218-.672-1.89-.657-.686-1.722-.686-1.05 0-1.736.686-.672.672-.672 1.89v.126q0 1.218.672 1.904.686.672 1.736.672m8.674.98q-1.036 0-1.834-.434a3.15 3.15 0 0 1-1.232-1.218q-.434-.798-.434-1.876v-.182q0-1.065.434-1.862a3.13 3.13 0 0 1 1.232-1.232q.798-.434 1.834-.434t1.82.434q.798.434 1.232 1.232.448.798.448 1.862v.182q0 1.078-.448 1.876-.434.784-1.232 1.218-.784.435-1.82.434m0-.994q1.092 0 1.736-.686.658-.7.658-1.876v-.126q0-1.176-.658-1.862-.644-.7-1.736-.7-1.078 0-1.736.7-.658.686-.658 1.862v.126q0 1.176.658 1.876.658.686 1.736.686m5.49.798v-6.846h1.078v1.162h.196q.225-.49.756-.882.546-.405 1.596-.406.77 0 1.372.322.617.322.98.952.364.63.364 1.554V29h-1.106v-4.06q0-1.022-.518-1.484-.504-.462-1.372-.462-.993 0-1.624.644-.615.645-.616 1.918V29zm11.344.196q-1.274 0-2.156-.588-.867-.588-1.05-1.862l1.05-.238q.113.672.42 1.064.309.378.756.546.462.154.98.154.771 0 1.218-.308.448-.307.448-.826 0-.532-.434-.742-.42-.224-1.162-.364l-.574-.098a5.2 5.2 0 0 1-1.204-.35 2.2 2.2 0 0 1-.868-.644q-.322-.405-.322-1.022 0-.924.714-1.442t1.89-.518q1.162 0 1.876.532.729.518.938 1.47l-1.036.266q-.125-.742-.602-1.036-.475-.308-1.176-.308-.7 0-1.106.266-.405.252-.406.756 0 .49.378.728.393.224 1.036.336l.574.098q.729.125 1.302.35.588.21.924.616.35.405.35 1.064 0 1.008-.756 1.554-.742.546-2.002.546m7.761 0q-1.036 0-1.82-.434a3.13 3.13 0 0 1-1.218-1.246q-.434-.798-.434-1.848V25.5q0-1.064.434-1.862a3.06 3.06 0 0 1 1.204-1.232q.77-.448 1.764-.448.966 0 1.708.42.742.406 1.162 1.176t.42 1.806v.504h-5.586q.042 1.106.714 1.736.672.615 1.68.616.882 0 1.358-.406t.728-.966l.952.462a4 4 0 0 1-.588.868q-.365.434-.966.728-.588.294-1.512.294m-2.352-4.242h4.452q-.056-.953-.658-1.484-.588-.532-1.512-.532-.938 0-1.54.532-.602.533-.742 1.484"/><path fill="#20ca45" d="M9.326 101.196q-1.134 0-2.002-.406a3.2 3.2 0 0 1-1.358-1.162q-.49-.756-.49-1.82v-.392h1.82v.392q0 .882.546 1.33.546.435 1.484.434.952 0 1.414-.378a1.18 1.18 0 0 0 .476-.966q0-.405-.238-.658-.224-.252-.672-.406a7.5 7.5 0 0 0-1.064-.308l-.322-.07a8.6 8.6 0 0 1-1.736-.56q-.714-.35-1.106-.91-.378-.56-.378-1.456t.42-1.526q.434-.644 1.204-.98.784-.35 1.834-.35t1.862.364q.826.35 1.288 1.064.476.7.476 1.764v.42h-1.82v-.42q0-.56-.224-.896a1.18 1.18 0 0 0-.616-.504 2.5 2.5 0 0 0-.966-.168q-.84 0-1.246.322-.392.308-.392.854 0 .364.182.616.195.252.574.42a5 5 0 0 0 .966.294l.322.07q1.05.224 1.82.574.785.35 1.218.924.434.575.434 1.47 0 .896-.462 1.582-.448.672-1.288 1.064-.826.378-1.96.378m8.896 0q-1.848 0-2.94-1.008-1.092-1.022-1.092-2.912v-2.352q0-1.89 1.092-2.898 1.092-1.022 2.94-1.022t2.94 1.022q1.092 1.008 1.092 2.898v2.352q0 1.89-1.092 2.912-1.092 1.008-2.94 1.008m0-1.652q1.036 0 1.61-.602t.574-1.61v-2.464q0-1.008-.574-1.61t-1.61-.602q-1.022 0-1.61.602-.574.602-.574 1.61v2.464q0 1.008.574 1.61.588.602 1.61.602M23.875 101v-9.8h1.848v8.12h4.48V101zm11.095.196q-1.205 0-2.072-.434a3.2 3.2 0 0 1-1.316-1.26q-.448-.826-.448-1.946V91.2h1.848v6.412q0 .896.504 1.414.518.518 1.484.518t1.47-.518q.518-.518.518-1.414V91.2h1.848v6.356q0 1.12-.462 1.946a3.07 3.07 0 0 1-1.316 1.26q-.855.434-2.058.434m7.894-.196v-8.12h-2.856V91.2h7.56v1.68h-2.856V101zm5.962 0v-9.8h1.848v9.8zm7.5.196q-1.848 0-2.94-1.008-1.092-1.022-1.092-2.912v-2.352q0-1.89 1.092-2.898 1.092-1.022 2.94-1.022t2.94 1.022q1.092 1.008 1.092 2.898v2.352q0 1.89-1.092 2.912-1.092 1.008-2.94 1.008m0-1.652q1.035 0 1.61-.602.573-.602.574-1.61v-2.464q0-1.008-.574-1.61-.575-.602-1.61-.602-1.023 0-1.61.602-.574.602-.574 1.61v2.464q0 1.008.574 1.61.588.602 1.61.602M61.979 101v-9.8h3.514l1.946 8.54h.252V91.2h1.82v9.8h-3.514l-1.946-8.54h-.252V101z"/><rect width="163" height="37" x="101.5" y="77.5" fill="#20ca45" fill-opacity=".1" rx="3.5"/><rect width="163" height="37" x="101.5" y="77.5" stroke="#20ca45" rx="3.5"/><path fill="#080808" d="m119.114 101-1.596-9.8h1.176l1.386 9.044h.196l1.806-9.044h2.1l1.792 9.044h.196l1.386-9.044h1.176l-1.596 9.8h-2.1l-1.806-9.1h-.196l-1.806 9.1zm10.117 0 3.024-9.8h2.072l3.024 9.8h-1.218l-.756-2.478h-4.172l-.756 2.478zm2.268-3.542h3.57l-1.68-5.544h-.196zm7.32 3.542v-9.8h5.922v1.064h-4.746v3.29h4.368v1.064h-4.368V101zm14.096.196q-.882 0-1.624-.42a3.03 3.03 0 0 1-1.176-1.218q-.434-.798-.434-1.89v-.182q0-1.092.434-1.876.435-.798 1.162-1.218a3.2 3.2 0 0 1 1.638-.434q.714 0 1.204.196.504.182.812.476.309.28.476.602h.196V91.2h1.106v9.8h-1.078v-1.134h-.196q-.28.517-.868.924-.588.406-1.652.406m.294-.98q1.065 0 1.722-.672.672-.686.672-1.904v-.126q0-1.218-.672-1.89-.657-.686-1.722-.686-1.05 0-1.736.686-.672.672-.672 1.89v.126q0 1.218.672 1.904.686.672 1.736.672m8.954.98q-1.035 0-1.82-.434a3.14 3.14 0 0 1-1.218-1.246q-.434-.798-.434-1.848V97.5q0-1.065.434-1.862.435-.798 1.204-1.232.771-.448 1.764-.448.967 0 1.708.42.742.406 1.162 1.176t.42 1.806v.504h-5.586q.042 1.106.714 1.736.672.616 1.68.616.882 0 1.358-.406t.728-.966l.952.462a4 4 0 0 1-.588.868 2.9 2.9 0 0 1-.966.728q-.588.294-1.512.294m-2.352-4.242h4.452q-.055-.953-.658-1.484-.588-.532-1.512-.532-.937 0-1.54.532-.601.533-.742 1.484m9.734 4.046q-.588 0-.91-.322-.308-.322-.308-.882V95.12h-2.058v-.966h2.058v-2.436h1.106v2.436h2.24v.966h-2.24v4.508q0 .42.406.42h1.526V101zm6.81.196q-1.037 0-1.82-.434a3.13 3.13 0 0 1-1.218-1.246q-.435-.798-.434-1.848V97.5q0-1.065.434-1.862.433-.798 1.204-1.232.77-.448 1.764-.448.966 0 1.708.42.742.406 1.162 1.176t.42 1.806v.504h-5.586q.042 1.106.714 1.736.672.616 1.68.616.881 0 1.358-.406.476-.406.728-.966l.952.462a4 4 0 0 1-.588.868 2.9 2.9 0 0 1-.966.728q-.588.294-1.512.294m-2.352-4.242h4.452q-.057-.953-.658-1.484-.588-.532-1.512-.532-.939 0-1.54.532-.603.533-.742 1.484m10.651 4.242q-.994 0-1.792-.42a3.2 3.2 0 0 1-1.246-1.232q-.448-.798-.448-1.89V97.5q0-1.106.448-1.89a3.1 3.1 0 0 1 1.246-1.218 3.7 3.7 0 0 1 1.792-.434q.98 0 1.666.364.699.364 1.092.966.405.601.518 1.288l-1.078.224a2.3 2.3 0 0 0-.336-.924 1.84 1.84 0 0 0-.714-.672q-.462-.252-1.134-.252-.686 0-1.232.308-.533.308-.854.882-.308.574-.308 1.372v.126q0 .798.308 1.372.321.575.854.882.546.308 1.232.308 1.022 0 1.554-.532.546-.532.672-1.316l1.092.238q-.155.672-.56 1.274-.407.602-1.106.966-.687.364-1.666.364m7.45-.196q-.588 0-.91-.322-.308-.322-.308-.882V95.12h-2.058v-.966h2.058v-2.436h1.106v2.436h2.24v.966h-2.24v4.508q0 .42.406.42h1.526V101zm6.677.196q-1.274 0-2.156-.588-.867-.588-1.05-1.862l1.05-.238q.112.672.42 1.064.309.378.756.546.462.154.98.154.771 0 1.218-.308.448-.307.448-.826 0-.532-.434-.742-.42-.224-1.162-.364l-.574-.098a5.2 5.2 0 0 1-1.204-.35 2.2 2.2 0 0 1-.868-.644q-.322-.405-.322-1.022 0-.924.714-1.442t1.89-.518q1.162 0 1.876.532.728.517.938 1.47l-1.036.266q-.126-.742-.602-1.036-.476-.308-1.176-.308t-1.106.266q-.406.252-.406.756 0 .49.378.728.393.224 1.036.336l.574.098q.729.126 1.302.35.588.21.924.616.35.405.35 1.064 0 1.008-.756 1.554-.742.546-2.002.546m10.741-.196q-.588 0-.91-.322-.308-.322-.308-.882V95.12h-2.058v-.966h2.058v-2.436h1.106v2.436h2.24v.966h-2.24v4.508q0 .42.406.42h1.526V101zm3.919 0v-9.8h1.106v4.046h.196q.141-.308.42-.574.294-.28.742-.462.463-.182 1.162-.182.77 0 1.372.336.617.322.98.952.364.615.364 1.54V101h-1.106v-4.06q0-1.022-.518-1.484-.504-.462-1.372-.462-.994 0-1.624.644-.616.645-.616 1.918V101zm8.586 0v-6.846h1.078v.84h.196a1.27 1.27 0 0 1 .56-.658q.379-.21.994-.21h.812v1.008h-.882q-.741 0-1.204.42-.448.405-.448 1.274V101zm8.167.196q-1.035 0-1.82-.434a3.14 3.14 0 0 1-1.218-1.246q-.434-.798-.434-1.848V97.5q0-1.065.434-1.862.435-.798 1.204-1.232.771-.448 1.764-.448.966 0 1.708.42.742.406 1.162 1.176t.42 1.806v.504h-5.586q.042 1.106.714 1.736.672.616 1.68.616.882 0 1.358-.406t.728-.966l.952.462a4 4 0 0 1-.588.868 2.9 2.9 0 0 1-.966.728q-.588.294-1.512.294m-2.352-4.242h4.452q-.055-.953-.658-1.484-.588-.532-1.512-.532-.937 0-1.54.532-.601.533-.742 1.484m9.602 4.242q-.714 0-1.302-.252a2.13 2.13 0 0 1-.924-.728q-.336-.476-.336-1.162 0-.7.336-1.148.336-.462.924-.686.588-.238 1.316-.238h2.31v-.504q0-.728-.434-1.148-.42-.42-1.26-.42-.826 0-1.288.406-.462.392-.63 1.064l-1.036-.336a3 3 0 0 1 .532-1.036q.363-.476.966-.756.615-.294 1.47-.294 1.315 0 2.044.686.728.672.728 1.904v3.094q0 .42.392.42h.63V101h-.966q-.462 0-.742-.252-.28-.266-.28-.7v-.07h-.168a3.4 3.4 0 0 1-.42.56 1.9 1.9 0 0 1-.7.462q-.448.196-1.162.196m.126-.952q.98 0 1.582-.574.615-.588.616-1.638v-.154H237.5q-.659 0-1.092.294-.42.28-.42.854t.434.896q.447.322 1.148.322m7.895.756q-.588 0-.91-.322-.308-.322-.308-.882V95.12h-2.058v-.966h2.058v-2.436h1.106v2.436h2.24v.966h-2.24v4.508q0 .42.406.42h1.526V101z"/><g stroke="#d3d5cf" stroke-linecap="round" stroke-linejoin="round" stroke-width="1.5" clip-path="url(#c)"><path d="M283.5 96h11M290 91.5l4.5 4.5-4.5 4.5"/></g><rect width="121" height="37" x="313.5" y="77.5" fill="#20ca45" fill-opacity=".1" rx="3.5"/><rect width="121" height="37" x="313.5" y="77.5" stroke="#20ca45" rx="3.5"/><path fill="#080808" d="M332.192 101v-8.12h-2.856V91.2h7.56v1.68h-2.856V101zm5.962 0v-9.8h4.256q.924 0 1.61.322.687.322 1.064.91.378.588.378 1.386v.168q0 .882-.42 1.428t-1.036.798v.252q.56.029.868.392.309.35.308.938V101h-1.848v-2.94q0-.336-.182-.546-.168-.21-.574-.21h-2.576V101zm1.848-5.376h2.212q.659 0 1.022-.35.378-.364.378-.952v-.14q0-.588-.364-.938-.364-.364-1.036-.364h-2.212zm6.326 5.376 2.576-9.8h3.22l2.576 9.8h-1.904l-.532-2.156h-3.5l-.532 2.156zm2.87-3.864h2.632l-1.19-4.774h-.252zm10.317 4.06q-1.82 0-2.884-1.008-1.064-1.022-1.064-2.912v-2.352q0-1.89 1.064-2.898 1.065-1.022 2.884-1.022 1.806 0 2.786.994.994.98.994 2.702v.084h-1.82v-.14q0-.868-.49-1.428-.476-.56-1.47-.56-.98 0-1.54.602t-.56 1.638v2.408q0 1.022.56 1.638.56.602 1.54.602.995 0 1.47-.56.49-.574.49-1.428v-.252h1.82v.196q0 1.722-.994 2.716-.98.98-2.786.98m5.286-.196v-9.8h6.3v1.68h-4.452v2.338h4.06v1.68h-4.06v2.422h4.536V101zm7.752 0v-9.8h1.848v4.046h3.64V91.2h1.848v9.8h-1.848v-4.074h-3.64V101zm12.995.196q-1.848 0-2.94-1.008-1.092-1.022-1.092-2.912v-2.352q0-1.89 1.092-2.898 1.092-1.022 2.94-1.022t2.94 1.022q1.092 1.008 1.092 2.898v2.352q0 1.89-1.092 2.912-1.092 1.008-2.94 1.008m0-1.652q1.037 0 1.61-.602t.574-1.61v-2.464q0-1.008-.574-1.61-.573-.602-1.61-.602-1.022 0-1.61.602-.574.602-.574 1.61v2.464q0 1.008.574 1.61.588.602 1.61.602m9.433 1.652q-1.203 0-2.072-.434a3.2 3.2 0 0 1-1.316-1.26q-.447-.826-.448-1.946V91.2h1.848v6.412q0 .896.504 1.414.518.518 1.484.518t1.47-.518q.518-.518.518-1.414V91.2h1.848v6.356q0 1.12-.462 1.946a3.07 3.07 0 0 1-1.316 1.26q-.854.434-2.058.434m5.627-.196v-9.8h3.514l1.946 8.54h.252V91.2h1.82v9.8h-3.514l-1.946-8.54h-.252V101zm9.099 0v-1.624h1.288v-6.552h-1.288V91.2h4.032q1.974 0 2.996 1.008 1.036.994 1.036 2.968v1.848q0 1.974-1.036 2.982-1.023.994-2.996.994zm3.136-1.68h.924q1.119 0 1.638-.588t.518-1.652v-1.96q0-1.079-.518-1.652-.519-.588-1.638-.588h-.924z"/><g stroke="#d3d5cf" stroke-linecap="round" stroke-linejoin="round" stroke-width="1.5" clip-path="url(#d)"><path d="M453.5 96h11M460 91.5l4.5 4.5-4.5 4.5"/></g><rect width="106" height="37" x="483.5" y="77.5" fill="#20ca45" fill-opacity=".1" rx="3.5"/><rect width="106" height="37" x="483.5" y="77.5" stroke="#20ca45" rx="3.5"/><path fill="#080808" d="M503.676 101.196q-1.75 0-2.8-1.008-1.036-1.021-1.036-2.968v-2.24q0-1.946 1.036-2.954 1.05-1.022 2.8-1.022 1.764 0 2.8 1.022 1.05 1.008 1.05 2.954v2.24q0 1.946-1.05 2.968-1.036 1.008-2.8 1.008m0-1.05q1.273 0 1.974-.756.7-.77.7-2.128v-2.324q0-1.358-.7-2.114-.7-.77-1.974-.77-1.26 0-1.96.77-.7.756-.7 2.114v2.324q0 1.358.7 2.128.7.756 1.96.756m.574 3.122q-.518 0-.84-.322-.308-.308-.308-.854V101h1.148v.882q0 .42.392.42h.924v.966zm7.895-2.142q-.741 0-1.372-.322a2.4 2.4 0 0 1-.98-.952q-.35-.644-.35-1.554v-4.144h1.106v4.06q0 1.022.504 1.484.519.462 1.386.462.98 0 1.61-.644.63-.645.63-1.918v-3.444h1.106V101h-1.078v-1.162h-.196q-.224.49-.77.896-.546.392-1.596.392m8.055.07q-.714 0-1.302-.252a2.13 2.13 0 0 1-.924-.728q-.336-.476-.336-1.162 0-.7.336-1.148.336-.462.924-.686.588-.238 1.316-.238h2.31v-.504q0-.728-.434-1.148-.42-.42-1.26-.42-.826 0-1.288.406-.462.392-.63 1.064l-1.036-.336a3 3 0 0 1 .532-1.036q.363-.476.966-.756.615-.294 1.47-.294 1.315 0 2.044.686.728.672.728 1.904v3.094q0 .42.391.42h.631V101h-.966q-.463 0-.742-.252-.28-.266-.28-.7v-.07h-.168a3.4 3.4 0 0 1-.42.56 1.9 1.9 0 0 1-.7.462q-.448.196-1.162.196m.126-.952q.98 0 1.582-.574.615-.588.616-1.638v-.154h-2.268q-.658 0-1.092.294-.42.28-.42.854t.434.896q.447.322 1.148.322m5.826.756v-6.846h1.078v.84h.196a1.27 1.27 0 0 1 .56-.658q.378-.21.994-.21h.812v1.008h-.882q-.742 0-1.204.42-.447.405-.448 1.274V101zm7.145.196q-.714 0-1.302-.252a2.13 2.13 0 0 1-.924-.728q-.336-.476-.336-1.162 0-.7.336-1.148.336-.462.924-.686a3.5 3.5 0 0 1 1.316-.238h2.31v-.504q0-.728-.434-1.148-.42-.42-1.26-.42-.826 0-1.288.406-.462.392-.63 1.064l-1.036-.336a3 3 0 0 1 .532-1.036 2.54 2.54 0 0 1 .966-.756q.616-.294 1.47-.294 1.316 0 2.044.686.728.672.728 1.904v3.094q0 .42.392.42h.63V101h-.966q-.462 0-.742-.252-.28-.266-.28-.7v-.07h-.168a3.4 3.4 0 0 1-.42.56 1.86 1.86 0 0 1-.7.462q-.448.196-1.162.196m.126-.952q.98 0 1.582-.574.616-.588.616-1.638v-.154h-2.268q-.658 0-1.092.294-.42.28-.42.854t.434.896q.448.322 1.148.322m5.827.756v-6.846h1.078v1.162h.196q.223-.49.756-.882.546-.406 1.596-.406.77 0 1.372.322.616.322.98.952t.364 1.554V101h-1.106v-4.06q0-1.022-.518-1.484-.504-.462-1.372-.462-.994 0-1.624.644-.616.645-.616 1.918V101zm10.914 0q-.588 0-.91-.322-.308-.322-.308-.882V95.12h-2.058v-.966h2.058v-2.436h1.106v2.436h2.24v.966h-2.24v4.508q0 .42.406.42h1.526V101zm3.92 0v-6.846h1.106V101zm.56-7.91a.86.86 0 0 1-.616-.238.82.82 0 0 1-.238-.602q0-.378.238-.616a.86.86 0 0 1 .616-.238q.364 0 .602.238a.83.83 0 0 1 .238.616.815.815 0 0 1-.84.84m2.872 7.91v-6.846h1.078v1.162h.196q.224-.49.756-.882.546-.406 1.596-.406.77 0 1.372.322.615.322.98.952.363.63.364 1.554V101h-1.106v-4.06q0-1.022-.518-1.484-.505-.462-1.372-.462-.994 0-1.624.644-.616.645-.616 1.918V101zm11.721.196q-1.035 0-1.82-.434a3.14 3.14 0 0 1-1.218-1.246q-.434-.798-.434-1.848V97.5q0-1.065.434-1.862.435-.798 1.204-1.232.771-.448 1.764-.448.967 0 1.708.42.742.406 1.162 1.176t.42 1.806v.504h-5.586q.042 1.106.714 1.736.672.616 1.68.616.882 0 1.358-.406t.728-.966l.952.462a4 4 0 0 1-.588.868 2.9 2.9 0 0 1-.966.728q-.588.294-1.512.294m-2.352-4.242h4.452q-.055-.953-.658-1.484-.588-.532-1.512-.532-.937 0-1.54.532-.601.533-.742 1.484"/><g stroke="#d3d5cf" stroke-linecap="round" stroke-linejoin="round" stroke-width="1.5" clip-path="url(#e)"><path d="M608.5 96h11M615 91.5l4.5 4.5-4.5 4.5"/></g><rect width="154" height="37" x="638.5" y="77.5" fill="#20ca45" fill-opacity=".1" rx="3.5"/><rect width="154" height="37" x="638.5" y="77.5" stroke="#20ca45" rx="3.5"/><path fill="#080808" d="M655.12 101v-9.8h5.922v1.064h-4.746v3.29h4.368v1.064h-4.368V101zm10.685.196q-1.036 0-1.834-.434a3.14 3.14 0 0 1-1.232-1.218q-.434-.798-.434-1.876v-.182q0-1.064.434-1.862a3.1 3.1 0 0 1 1.232-1.232q.798-.434 1.834-.434 1.035 0 1.82.434.798.435 1.232 1.232.447.798.448 1.862v.182q0 1.078-.448 1.876-.435.784-1.232 1.218-.785.434-1.82.434m0-.994q1.092 0 1.736-.686.658-.7.658-1.876v-.126q0-1.176-.658-1.862-.644-.7-1.736-.7-1.079 0-1.736.7-.658.686-.658 1.862v.126q0 1.177.658 1.876.657.686 1.736.686m5.49.798v-6.846h1.078v.84h.196q.182-.448.56-.658t.994-.21h.812v1.008h-.882q-.742 0-1.204.42-.448.405-.448 1.274V101zm8.167.196q-1.036 0-1.82-.434a3.13 3.13 0 0 1-1.218-1.246q-.434-.798-.434-1.848V97.5q0-1.065.434-1.862a3.06 3.06 0 0 1 1.204-1.232q.77-.448 1.764-.448.966 0 1.708.42.742.406 1.162 1.176t.42 1.806v.504h-5.586q.042 1.106.714 1.736.672.616 1.68.616.882 0 1.358-.406t.728-.966l.952.462a4 4 0 0 1-.588.868 2.9 2.9 0 0 1-.966.728q-.588.294-1.512.294m-2.352-4.242h4.452q-.056-.953-.658-1.484-.588-.532-1.512-.532-.938 0-1.54.532-.602.533-.742 1.484m7.501 4.046v-6.846h1.078v1.162h.196q.225-.49.756-.882.546-.406 1.596-.406.77 0 1.372.322.617.322.98.952.364.63.364 1.554V101h-1.106v-4.06q0-1.022-.518-1.484-.504-.462-1.372-.462-.994 0-1.624.644-.615.645-.616 1.918V101zm11.344.196q-1.274 0-2.156-.588-.869-.588-1.05-1.862l1.05-.238q.113.672.42 1.064.308.378.756.546.462.154.98.154.77 0 1.218-.308.448-.307.448-.826 0-.532-.434-.742-.42-.224-1.162-.364l-.574-.098a5.2 5.2 0 0 1-1.204-.35 2.2 2.2 0 0 1-.868-.644q-.322-.405-.322-1.022 0-.924.714-1.442t1.89-.518q1.162 0 1.876.532.728.517.938 1.47l-1.036.266q-.126-.742-.602-1.036-.476-.308-1.176-.308t-1.106.266q-.406.252-.406.756 0 .49.378.728.392.224 1.036.336l.574.098q.727.126 1.302.35.588.21.924.616.35.405.35 1.064 0 1.008-.756 1.554-.742.546-2.002.546m4.625-.196v-6.846h1.106V101zm.56-7.91a.86.86 0 0 1-.616-.238.82.82 0 0 1-.238-.602q0-.378.238-.616a.86.86 0 0 1 .616-.238q.364 0 .602.238a.83.83 0 0 1 .238.616.815.815 0 0 1-.84.84m6.022 8.106q-.994 0-1.792-.42a3.2 3.2 0 0 1-1.246-1.232q-.448-.798-.448-1.89V97.5q0-1.106.448-1.89a3.1 3.1 0 0 1 1.246-1.218 3.7 3.7 0 0 1 1.792-.434q.98 0 1.666.364.699.364 1.092.966.405.601.518 1.288l-1.078.224a2.3 2.3 0 0 0-.336-.924 1.84 1.84 0 0 0-.714-.672q-.462-.252-1.134-.252-.686 0-1.232.308-.533.308-.854.882-.309.574-.308 1.372v.126q0 .798.308 1.372.321.575.854.882.546.308 1.232.308 1.022 0 1.554-.532.546-.532.672-1.316l1.092.238q-.155.672-.56 1.274-.407.602-1.106.966-.687.364-1.666.364m8.771-.196v-9.8h6.034v1.064h-4.858v3.276h4.466v1.064h-4.466v3.332h4.928V101zm9.666 0-2.45-6.846h1.176l2.058 6.02h.196l2.058-6.02h1.176l-2.45 6.846zm5.811 0v-6.846h1.106V101zm.56-7.91a.86.86 0 0 1-.616-.238.82.82 0 0 1-.238-.602q0-.378.238-.616a.86.86 0 0 1 .616-.238q.364 0 .602.238a.83.83 0 0 1 .238.616.815.815 0 0 1-.84.84m5.77 8.106q-.882 0-1.624-.42a3 3 0 0 1-1.176-1.218q-.435-.798-.434-1.89v-.182q0-1.092.434-1.876a3.04 3.04 0 0 1 1.162-1.218 3.2 3.2 0 0 1 1.638-.434q.714 0 1.204.196.504.182.812.476.308.28.476.602h.196V91.2h1.106v9.8h-1.078v-1.134h-.196q-.28.517-.868.924-.588.406-1.652.406m.294-.98q1.063 0 1.722-.672.672-.686.672-1.904v-.126q0-1.218-.672-1.89-.659-.686-1.722-.686-1.05 0-1.736.686-.672.672-.672 1.89v.126q0 1.218.672 1.904.686.672 1.736.672m8.953.98q-1.035 0-1.82-.434a3.14 3.14 0 0 1-1.218-1.246q-.434-.798-.434-1.848V97.5q0-1.065.434-1.862.435-.798 1.204-1.232.771-.448 1.764-.448.966 0 1.708.42.742.406 1.162 1.176t.42 1.806v.504h-5.586q.042 1.106.714 1.736.672.616 1.68.616.882 0 1.358-.406t.728-.966l.952.462a4 4 0 0 1-.588.868 2.9 2.9 0 0 1-.966.728q-.588.294-1.512.294m-2.352-4.242h4.452q-.055-.953-.658-1.484-.588-.532-1.512-.532-.937 0-1.54.532-.601.533-.742 1.484m7.502 4.046v-6.846h1.078v1.162h.196q.223-.49.756-.882.546-.406 1.596-.406.77 0 1.372.322.615.322.98.952.363.63.364 1.554V101h-1.106v-4.06q0-1.022-.518-1.484-.505-.462-1.372-.462-.994 0-1.624.644-.616.645-.616 1.918V101zm11.736.196q-.994 0-1.792-.42a3.2 3.2 0 0 1-1.246-1.232q-.448-.798-.448-1.89V97.5q0-1.106.448-1.89a3.1 3.1 0 0 1 1.246-1.218 3.7 3.7 0 0 1 1.792-.434q.98 0 1.666.364.699.364 1.092.966.405.601.518 1.288l-1.078.224a2.3 2.3 0 0 0-.336-.924 1.84 1.84 0 0 0-.714-.672q-.462-.252-1.134-.252-.687 0-1.232.308-.533.308-.854.882-.308.574-.308 1.372v.126q0 .798.308 1.372.321.575.854.882.545.308 1.232.308 1.022 0 1.554-.532.546-.532.672-1.316l1.092.238q-.155.672-.56 1.274-.407.602-1.106.966-.687.364-1.666.364m8.353 0q-1.037 0-1.82-.434a3.13 3.13 0 0 1-1.218-1.246q-.434-.798-.434-1.848V97.5q0-1.065.434-1.862.433-.798 1.204-1.232.77-.448 1.764-.448.966 0 1.708.42.741.406 1.162 1.176t.42 1.806v.504h-5.586q.042 1.106.714 1.736.672.616 1.68.616.881 0 1.358-.406.476-.406.728-.966l.952.462a4 4 0 0 1-.588.868 2.9 2.9 0 0 1-.966.728q-.588.294-1.512.294m-2.352-4.242h4.452q-.057-.953-.658-1.484-.588-.532-1.512-.532-.939 0-1.54.532-.603.533-.742 1.484"/><g stroke="#d3d5cf" stroke-linecap="round" stroke-linejoin="round" stroke-width="1.5" clip-path="url(#f)"><path d="M811.5 96h11M818 91.5l4.5 4.5-4.5 4.5"/></g><rect width="98" height="37" x="841.5" y="77.5" fill="#20ca45" fill-opacity=".1" rx="3.5"/><rect width="98" height="37" x="841.5" y="77.5" stroke="#20ca45" rx="3.5"/><path fill="#080808" d="M858.12 101v-9.8h3.962q.91 0 1.596.322.7.308 1.092.896.392.575.392 1.386v.154q0 .966-.462 1.526a2.3 2.3 0 0 1-1.092.756v.196q.504.014.826.336.336.308.336.938V101h-1.162v-3.15q0-.42-.238-.644-.224-.224-.686-.224h-3.388V101zm1.176-5.082h2.674q.966 0 1.484-.462.532-.476.532-1.316v-.098q0-.84-.518-1.302-.518-.476-1.498-.476h-2.674zm10.834 5.278q-1.036 0-1.82-.434a3.13 3.13 0 0 1-1.218-1.246q-.434-.798-.434-1.848V97.5q0-1.065.434-1.862a3.06 3.06 0 0 1 1.204-1.232q.77-.448 1.764-.448.966 0 1.708.42.742.406 1.162 1.176t.42 1.806v.504h-5.586q.042 1.106.714 1.736.672.616 1.68.616.882 0 1.358-.406t.728-.966l.952.462a4 4 0 0 1-.588.868 2.9 2.9 0 0 1-.966.728q-.588.294-1.512.294m-2.352-4.242h4.452q-.056-.953-.658-1.484-.588-.532-1.512-.532-.938 0-1.54.532-.602.533-.742 1.484m10.259 4.242q-1.274 0-2.156-.588-.867-.588-1.05-1.862l1.05-.238q.113.672.42 1.064.309.378.756.546.462.154.98.154.771 0 1.218-.308.448-.307.448-.826 0-.532-.434-.742-.42-.224-1.162-.364l-.574-.098a5.2 5.2 0 0 1-1.204-.35 2.2 2.2 0 0 1-.868-.644q-.322-.405-.322-1.022 0-.924.714-1.442t1.89-.518q1.162 0 1.876.532.729.517.938 1.47l-1.036.266q-.125-.742-.602-1.036-.475-.308-1.176-.308-.7 0-1.106.266-.405.252-.406.756 0 .49.378.728.393.224 1.036.336l.574.098q.729.126 1.302.35.588.21.924.616.35.405.35 1.064 0 1.008-.756 1.554-.742.546-2.002.546m4.625 2.604v-9.646h1.078v1.134h.196q.266-.517.854-.924.602-.405 1.666-.406.882 0 1.61.434.742.42 1.176 1.204.448.784.448 1.89v.182q0 1.092-.434 1.89a3 3 0 0 1-1.176 1.218 3.2 3.2 0 0 1-1.624.42q-.714 0-1.218-.196a2.3 2.3 0 0 1-.798-.476 2.5 2.5 0 0 1-.476-.602h-.196v3.878zm3.5-3.584q1.063 0 1.722-.672.672-.686.672-1.904v-.126q0-1.218-.672-1.89-.659-.686-1.722-.686-1.05 0-1.736.686-.672.672-.672 1.89v.126q0 1.218.672 1.904.686.672 1.736.672m8.674.98q-1.036 0-1.834-.434a3.14 3.14 0 0 1-1.232-1.218q-.435-.798-.434-1.876v-.182q0-1.064.434-1.862a3.1 3.1 0 0 1 1.232-1.232q.798-.434 1.834-.434 1.035 0 1.82.434.798.435 1.232 1.232.447.798.448 1.862v.182q0 1.078-.448 1.876-.434.784-1.232 1.218-.785.434-1.82.434m0-.994q1.091 0 1.736-.686.657-.7.658-1.876v-.126q0-1.176-.658-1.862-.644-.7-1.736-.7-1.079 0-1.736.7-.658.686-.658 1.862v.126q0 1.177.658 1.876.657.686 1.736.686m5.49.798v-6.846h1.078v1.162h.196q.223-.49.756-.882.546-.406 1.596-.406.77 0 1.372.322.616.322.98.952t.364 1.554V101h-1.106v-4.06q0-1.022-.518-1.484-.504-.462-1.372-.462-.994 0-1.624.644-.616.645-.616 1.918V101zm11.344.196q-1.274 0-2.156-.588-.868-.588-1.05-1.862l1.05-.238q.113.672.42 1.064.307.378.756.546.462.154.98.154.77 0 1.218-.308.448-.307.448-.826 0-.532-.434-.742-.42-.224-1.162-.364l-.574-.098a5.2 5.2 0 0 1-1.204-.35 2.2 2.2 0 0 1-.868-.644q-.322-.405-.322-1.022 0-.924.714-1.442t1.89-.518q1.162 0 1.876.532.728.517.938 1.47l-1.036.266q-.126-.742-.602-1.036-.475-.308-1.176-.308-.7 0-1.106.266-.406.252-.406.756 0 .49.378.728.392.224 1.036.336l.574.098q.728.126 1.302.35.588.21.924.616.35.405.35 1.064 0 1.008-.756 1.554-.742.546-2.002.546m7.761 0q-1.037 0-1.82-.434a3.13 3.13 0 0 1-1.218-1.246q-.434-.798-.434-1.848V97.5q0-1.065.434-1.862.433-.798 1.204-1.232.77-.448 1.764-.448.966 0 1.708.42.741.406 1.162 1.176t.42 1.806v.504h-5.586q.042 1.106.714 1.736.672.616 1.68.616.881 0 1.358-.406.476-.406.728-.966l.952.462a4 4 0 0 1-.588.868 2.9 2.9 0 0 1-.966.728q-.588.294-1.512.294m-2.352-4.242h4.452q-.057-.953-.658-1.484-.588-.532-1.512-.532-.939 0-1.54.532-.603.533-.742 1.484"/><defs><clipPath id="a"><path fill="#fff" d="M281 16h16v16h-16z"/></clipPath><clipPath id="b"><path fill="#fff" d="M405 16h16v16h-16z"/></clipPath><clipPath id="c"><path fill="#fff" d="M281 88h16v16h-16z"/></clipPath><clipPath id="d"><path fill="#fff" d="M451 88h16v16h-16z"/></clipPath><clipPath id="e"><path fill="#fff" d="M606 88h16v16h-16z"/></clipPath><clipPath id="f"><path fill="#fff" d="M809 88h16v16h-16z"/></clipPath></defs></svg>
