<svg width="360" height="328" viewBox="0 0 360 328" fill="none" xmlns="http://www.w3.org/2000/svg">
<path fill-rule="evenodd" clip-rule="evenodd" d="M218.774 0.200195L230.353 1.2998L245.423 3.2998C245.183 3.3798 242.794 5.40039 241.63 6.40039L238.037 9.7002L233.246 14.7998L229.454 19.7002L226.859 23.7998L224.663 28L223.466 31.5996L222.767 35.2998L222.667 40.5L223.466 44.5996L224.862 47.7998L226.759 51.0996L229.154 53.9004L233.246 57.5996L237.139 60.5L241.431 62.9004L245.922 65.5L252.21 68.7998L257.898 71.9004C260.058 72.9992 264.396 75.215 264.485 75.2998C264.565 75.3798 267.845 77.1995 269.476 78.0996L273.968 80.7002L277.76 83L279.756 84.2998L281.353 85.5996L282.95 87.0996L284.147 88.5L285.445 90.4004L286.543 92.4004L287.541 94.2998L288.439 96.0996L289.438 98.7998L290.635 102.1L291.833 105.2L293.33 109.2C293.696 110.167 294.448 112.12 294.527 112.2C294.608 112.281 295.226 113.633 295.525 114.3L296.823 116.5L298.22 118.2L299.717 119.8L302.112 122.2L303.21 123L304.607 123.9L306.205 124.8L308.001 125.7L310.097 126.6L312.792 127.7L315.985 128.9L324.769 132.1L329.958 133.9L360 144.7L352.115 153.7L345.029 161.2L338.442 168.1L331.057 175.3L327.064 179.3L323.571 182.6L318.88 186.6L314.189 190.3L309.299 193.5L304.309 196.5L300.216 198.6L294.128 201L289.736 202.3L285.146 203.4L280.555 204L276.762 204.1L271.372 203.9L266.382 203.5L261.093 202.3L253.807 199.9L247.719 197.1L240.033 192.9L233.846 189.3L226.061 185.1L219.174 182.3L213.685 181.2L208.595 180.9L203.205 181.4L197.815 182.5L193.623 184.2L190.13 185.8L187.036 187.6L187.436 185.5L188.434 182.9L189.831 180.4L191.827 178.1L194.821 175.5L197.516 174L199.213 173.2L195.121 172.4L190.33 172L181.547 172.1L174.86 173.2L166.077 175.6L156.995 179.8L149.11 184.9L145.517 187.9L141.625 191.8C141.545 191.88 138.664 195.234 137.233 196.9L134.239 201.2L131.245 206.3L129.349 210.2L127.452 215.6L126.154 220.3L125.057 226.1L124.657 230.8L124.358 236.3L124.558 239.6L125.057 242.9C125.389 244.867 126.055 248.82 126.055 248.9C126.058 248.99 127.053 252.269 127.552 253.9L129.548 259.4L131.744 263.8L134.538 268.6L137.333 272.5L139.528 275.1L142.723 278.6L147.313 282.7L150.308 284.9L155.598 288.4L160.089 290.9L164.381 292.7L168.272 294L173.962 295.6L179.151 296.6L181.946 296.9H186.737L193.724 296.5L199.013 295.8L203.305 294.7L209.193 292.8L214.184 290.4L219.373 287.5L222.967 285.2L225.86 283L229.154 280.1L233.146 276.1L236.64 271.7L240.232 266.5L242.928 261.4L244.725 257.6L246.121 254L247.419 249.2L248.317 245L249.016 240.9L248.717 246.3L247.918 252C247.453 253.898 246.522 257.714 246.521 257.8C246.521 257.88 245.256 262.434 244.624 264.7L242.729 269.7L240.731 274.3L238.037 279.7L234.844 285L231.949 289L227.657 294L222.866 298.7L218.874 301.8L215.381 304.3L211.489 306.7L206.897 309.2L203.005 310.9L197.815 312.7L193.523 313.8L188.134 315L183.543 315.5L178.652 315.8L172.664 315.7L168.373 315.2L163.781 314.5L158.292 313.3L153.801 311.9L149.609 310.3L143.82 308L146.016 310.7L150.508 315.1L154.001 318.1L157.494 320.5L161.586 323L164.979 324.8L168.771 326.4L170.369 327C168.539 327.167 164.859 327.5 164.779 327.5C164.689 327.501 160.02 327.767 157.693 327.9L151.904 328L146.216 327.8L140.727 327.3L132.143 326.3L125.156 324.9L117.871 322.6L108.788 320L94.6162 314.3L81.2422 308.4L73.5566 304.4L65.5723 299.2L57.9873 292.7L51.5 286L46.1104 279.8L42.0186 274.3L38.4248 268.8L34.333 261.4L31.04 254.1L28.2451 246.8L26.9473 242.3L25.1514 235.1L23.9531 228L23.1553 220.6L22.6562 212.6L22.8555 205.6L23.4541 199L24.5527 192L26.5488 183.3L29.0439 175.1L32.6367 166.5L36.4287 158.9L40.7207 151.5L45.8105 144.6L49.9033 139.6L55.0928 134L59.1846 130.2L63.5762 126.5L69.7646 121.8L74.7549 118.5L80.543 115.3L89.2266 111L96.1133 108.3L106.792 105.1L95.4141 106.6C92.1869 107.233 85.6534 108.52 85.334 108.6C85.0146 108.68 79.6117 110.233 76.9502 111L67.8682 114.2L58.7861 118.5L50.7012 123.4L43.915 128.3L38.7246 132.6L33.0361 138.1L28.2451 143.7L24.0537 149.3L19.8613 155.8L16.7676 162C16.6877 162.16 14.9373 165.933 14.0723 167.8L10.3799 176.9L8.18457 184.7L6.1875 194.9L5.29004 199.9L4.59082 204.7L4.19141 209.5L2.19531 199.7L0.798828 188.8L0 178.7V168.5L0.698242 156.9L2.0957 145.5L3.99219 135.5L6.98633 124.3L10.4795 114.2L15.2705 103.5L20.0605 95L24.8516 87.0996L29.6426 80.2998L37.0283 71.4004L43.3154 65L51.6992 57.7998L60.8818 51.5L71.4609 45.9004L80.3438 42.0996L88.3281 39.7002L96.8115 37.5L105.295 36.4004L110.086 36L83.3379 33.2002L88.9268 30L100.404 24.2002L110.086 19.9004L118.869 16.4004L129.349 12.7002L143.421 8.5L156.196 5.40039L166.377 3.40039L181.547 1.59961L198.514 0.200195L206.599 0L218.774 0.200195ZM220.347 95.9062C214.584 95.5419 205.626 96.4168 215.898 102.829L237.785 116.491C242.53 119.345 253.337 123.013 258.604 114.852C265.188 104.65 249.885 100.46 241.166 98.6387C234.191 97.1814 224.38 96.2099 220.347 95.9062Z" fill="white"/>
<path d="M259.185 21.4004C257.588 23.4005 253.895 29.44 251.898 37.5996C249.902 45.7596 253.595 55.4664 255.691 59.2998C249.144 58.1798 242.583 55.3 240.121 54C237.127 52.5999 230.919 48.1996 230.041 41.7998C229.163 35.3999 232.603 31.2667 234.433 30C239.782 24.96 253.163 22.1671 259.185 21.4004Z" fill="white"/>
</svg>
